<svg width="38" height="38" viewBox="0 0 38 38" fill="none" xmlns="http://www.w3.org/2000/svg">
<path d="M35.0244 11.2969C36.1837 13.6984 36.7822 16.3319 36.7749 18.9986C36.7772 22.4176 35.7928 25.7646 33.9397 28.6378C32.0866 31.5111 29.4437 33.7884 26.3281 35.1965C23.2126 36.6046 19.7568 37.0836 16.3758 36.576C12.9947 36.0684 9.83196 34.5957 7.26726 32.3348L8.59849 31.006C8.67714 30.9277 8.73304 30.8294 8.76022 30.7218C8.7874 30.6142 8.78484 30.5012 8.75281 30.3949C8.72078 30.2886 8.66048 30.193 8.57836 30.1183C8.49623 30.0436 8.39536 29.9927 8.28652 29.9708L3.95391 29.1023C3.855 29.0825 3.75273 29.0875 3.65617 29.1167C3.55962 29.1459 3.47176 29.1984 3.4004 29.2697C3.32904 29.341 3.27638 29.4289 3.2471 29.5254C3.21781 29.6219 3.21281 29.7242 3.23252 29.8231L4.09488 34.1551C4.11658 34.2638 4.16735 34.3645 4.24177 34.4467C4.31619 34.5288 4.41148 34.5892 4.5175 34.6214C4.62352 34.6537 4.73631 34.6566 4.84385 34.6299C4.9514 34.6031 5.04968 34.5477 5.12823 34.4695L6.39878 33.202C9.13532 35.6347 12.5168 37.2242 16.136 37.7791C19.7552 38.334 23.4576 37.8306 26.7972 36.3296C30.1369 34.8286 32.9713 32.394 34.9591 29.3191C36.9468 26.2442 38.0031 22.6601 38.0007 18.9986C38.0086 16.1477 37.3685 13.3322 36.1289 10.7649L35.0244 11.2969ZM5.07307 32.7926L4.61401 30.485L6.9222 30.9478L5.07307 32.7926Z" fill="white"/>
<path d="M2.97633 26.7014C1.81705 24.2999 1.2185 21.6663 1.22588 18.9997C1.22517 15.5808 2.21072 12.2342 4.06433 9.36142C5.91794 6.48862 8.56091 4.2115 11.6763 2.80317C14.7916 1.39484 18.2471 0.915094 21.6283 1.42146C25.0095 1.92782 28.1729 3.3988 30.739 5.65798L29.4022 6.99227C29.3236 7.07061 29.2677 7.16884 29.2405 7.27647C29.2133 7.3841 29.2159 7.4971 29.2479 7.60338C29.2799 7.70967 29.3402 7.80527 29.4224 7.87996C29.5045 7.95465 29.6054 8.00563 29.7142 8.02747L34.0468 8.89595C34.1457 8.91575 34.248 8.91083 34.3446 8.88163C34.4411 8.85242 34.529 8.79984 34.6003 8.72854C34.6717 8.65724 34.7243 8.56943 34.7536 8.4729C34.7829 8.37637 34.7879 8.27411 34.7682 8.17518L33.9058 3.84318C33.8841 3.7345 33.8334 3.63375 33.759 3.55163C33.6845 3.46951 33.5893 3.40911 33.4832 3.37685C33.3772 3.34459 33.2644 3.34168 33.1569 3.36843C33.0493 3.39518 32.951 3.45059 32.8725 3.52876L31.6075 4.79073C28.8695 2.35985 25.4873 0.77205 21.8681 0.218423C18.2488 -0.335204 14.5466 0.168937 11.2072 1.67017C7.86771 3.1714 5.03327 5.60575 3.04499 8.68023C1.05671 11.7547 -0.000688216 15.3383 7.21709e-05 18.9997C-0.00782346 21.8506 0.632226 24.6661 1.87188 27.2334L2.97633 26.7014ZM32.9277 5.20566L33.3867 7.51324L31.0785 7.04805L32.9277 5.20566Z" fill="white"/>
<path d="M27.1338 30.1408C27.1638 30.1408 27.1951 30.1408 27.2245 30.1408C27.8172 30.1403 28.3957 29.9595 28.8832 29.6225C29.3707 29.2855 29.7442 28.8082 29.9542 28.254C30.1641 27.6998 30.2005 27.0948 30.0586 26.5194C29.9166 25.9439 29.603 25.4253 29.1594 25.0323L23.6243 20.1235C23.8514 19.2616 23.8388 18.354 23.5879 17.4987C23.3369 16.6433 22.8572 15.8728 22.2004 15.2701C21.5436 14.6675 20.7348 14.2556 19.8611 14.079C18.9874 13.9024 18.0821 13.9677 17.2428 14.2679C17.1453 14.3025 17.0583 14.3613 16.9897 14.4387C16.9211 14.516 16.8732 14.6095 16.8504 14.7104C16.8276 14.8113 16.8308 14.9163 16.8595 15.0156C16.8883 15.1149 16.9417 15.2054 17.0148 15.2785L18.452 16.7164L16.7187 18.4497L15.2815 17.0124C15.2083 16.9392 15.1178 16.8857 15.0184 16.8568C14.919 16.828 14.8139 16.8248 14.713 16.8476C14.612 16.8704 14.5184 16.9183 14.441 16.987C14.3636 17.0557 14.3048 17.1429 14.2702 17.2404C13.9701 18.0798 13.9048 18.9851 14.0815 19.8588C14.2581 20.7325 14.67 21.5413 15.2726 22.1981C15.8752 22.8549 16.6457 23.3347 17.501 23.5857C18.3563 23.8368 19.2639 23.8495 20.1259 23.6226L25.0352 29.1571C25.2984 29.4568 25.6206 29.6989 25.9818 29.8682C26.3429 30.0374 26.7351 30.1303 27.1338 30.1408ZM20.3232 22.3091C20.2533 22.3093 20.1839 22.3211 20.1179 22.3441C19.5478 22.5489 18.9359 22.6092 18.3369 22.5196C17.7378 22.4301 17.1703 22.1935 16.685 21.8309C16.1998 21.4684 15.8119 20.9913 15.5562 20.4422C15.3005 19.8931 15.1848 19.2892 15.2196 18.6844L16.2854 19.7509C16.4025 19.8616 16.5576 19.9233 16.7187 19.9233C16.8799 19.9233 17.035 19.8616 17.1521 19.7509L19.7526 17.1503C19.8675 17.0354 19.9321 16.8795 19.9321 16.717C19.9321 16.5545 19.8675 16.3986 19.7526 16.2837L18.6862 15.2179C19.2909 15.1831 19.8948 15.2988 20.4439 15.5545C20.993 15.8102 21.4701 16.198 21.8327 16.6833C22.1952 17.1685 22.4318 17.7361 22.5214 18.3351C22.6109 18.9342 22.5506 19.5461 22.3458 20.1162C22.3049 20.2313 22.2994 20.3559 22.3298 20.4742C22.3603 20.5925 22.4254 20.6989 22.5168 20.7799L28.3467 25.9498C28.5198 26.1033 28.6597 26.2905 28.7578 26.5001C28.8558 26.7096 28.9099 26.937 28.9168 27.1683C28.9237 27.3995 28.8832 27.6297 28.7978 27.8448C28.7124 28.0598 28.5839 28.255 28.4203 28.4186C28.2579 28.5838 28.0628 28.7133 27.8475 28.7986C27.6322 28.884 27.4014 28.9235 27.17 28.9144C26.9386 28.9084 26.7111 28.8547 26.5015 28.7566C26.2919 28.6585 26.1049 28.5182 25.9521 28.3444L20.7817 22.5151C20.7241 22.4503 20.6535 22.3985 20.5745 22.363C20.4955 22.3275 20.4098 22.3091 20.3232 22.3091Z" fill="white"/>
<path d="M27.6566 22.0641C28.3607 20.09 28.372 17.9352 27.6888 15.9539C27.0055 13.9725 25.6683 12.2827 23.8971 11.1623C22.1259 10.0419 20.0261 9.55765 17.9431 9.78917C15.8601 10.0207 13.9179 10.9542 12.4359 12.4362C10.954 13.9182 10.0204 15.8604 9.78893 17.9434C9.55741 20.0264 10.0417 22.1261 11.1621 23.8974C12.2825 25.6686 13.9723 27.0058 15.9536 27.689C17.9349 28.3723 20.0898 28.3609 22.0638 27.6568L21.1776 26.6572C19.4742 27.1459 17.6567 27.0549 16.0106 26.3985C14.3646 25.7421 12.9833 24.5574 12.0837 23.0305C11.1842 21.5037 10.8173 19.7213 11.0409 17.9633C11.2645 16.2054 12.0657 14.5715 13.3188 13.3184C14.5719 12.0653 16.2057 11.2641 17.9637 11.0405C19.7217 10.817 21.5041 11.1838 23.0309 12.0833C24.5577 12.9829 25.7424 14.3642 26.3989 16.0103C27.0553 17.6563 27.1463 19.4738 26.6575 21.1772L27.6566 22.0641Z" fill="white"/>
<path d="M27.5543 27.5529C27.64 27.4671 27.6983 27.3579 27.7219 27.2391C27.7455 27.1202 27.7333 26.997 27.6869 26.885C27.6405 26.7731 27.5619 26.6774 27.4612 26.6101C27.3604 26.5428 27.2419 26.5068 27.1207 26.5068C26.9995 26.5068 26.8811 26.5428 26.7803 26.6101C26.6795 26.6774 26.6009 26.7731 26.5545 26.885C26.5081 26.997 26.4959 27.1202 26.5195 27.2391C26.5431 27.3579 26.6014 27.4671 26.6871 27.5529C26.744 27.6099 26.8116 27.6551 26.886 27.6859C26.9604 27.7168 27.0402 27.7326 27.1207 27.7326C27.2013 27.7326 27.281 27.7168 27.3554 27.6859C27.4298 27.6551 27.4974 27.6099 27.5543 27.5529Z" fill="white"/>
<path d="M30.682 22.065C31.1597 22.0643 31.6176 21.8743 31.9553 21.5365C32.2929 21.1986 32.4829 20.7407 32.4833 20.263V17.7379C32.4829 17.2602 32.2929 16.8023 31.9553 16.4645C31.6176 16.1267 31.1597 15.9366 30.682 15.936C30.5563 15.9378 30.4331 15.8997 30.3303 15.8273C30.2275 15.7548 30.1502 15.6517 30.1096 15.5327C29.9009 14.866 29.6324 14.2197 29.3073 13.6014C29.2513 13.4883 29.2326 13.3603 29.2539 13.2359C29.2751 13.1115 29.3352 12.997 29.4256 12.9088L29.4378 12.896C29.7704 12.5567 29.9557 12.1 29.9537 11.625C29.9516 11.1499 29.7623 10.6949 29.4268 10.3585L27.6414 8.57254C27.298 8.24431 26.8413 8.06114 26.3663 8.06114C25.8912 8.06114 25.4345 8.24431 25.0911 8.57254C25.003 8.6628 24.8886 8.72281 24.7643 8.74396C24.64 8.7651 24.5121 8.74629 24.3992 8.69021C23.7803 8.36496 23.1333 8.09643 22.4661 7.88792C22.3477 7.84726 22.2452 7.77037 22.1731 7.66817C22.1009 7.56597 22.0627 7.44364 22.064 7.31854C22.0635 6.84089 21.8736 6.38294 21.5359 6.04513C21.1982 5.70732 20.7403 5.51725 20.2627 5.5166H17.7363C17.4979 5.51764 17.262 5.5658 17.0422 5.6583C16.8225 5.7508 16.6232 5.88583 16.4558 6.05562C16.2884 6.22541 16.1562 6.42661 16.0668 6.64766C15.9774 6.86871 15.9326 7.10524 15.935 7.34367C15.9371 7.46168 15.9018 7.57733 15.8342 7.6741C15.7666 7.77086 15.6702 7.84377 15.5587 7.88241C14.8825 8.09193 14.227 8.36316 13.6004 8.69266C13.4866 8.74843 13.358 8.7666 13.2332 8.74457C13.1084 8.72254 12.9938 8.66144 12.906 8.57008C12.5628 8.24226 12.1064 8.05933 11.6318 8.05933C11.1572 8.05933 10.7008 8.24226 10.3576 8.57008L8.57217 10.3585C8.23693 10.6948 8.04772 11.1497 8.04554 11.6245C8.04337 12.0994 8.22839 12.556 8.56053 12.8953L8.5734 12.9088C8.6637 12.9969 8.72383 13.1112 8.74519 13.2355C8.76655 13.3598 8.74803 13.4877 8.6923 13.6008C8.36683 14.2194 8.0979 14.8662 7.88878 15.5333C7.84825 15.6522 7.77108 15.7552 7.66834 15.8276C7.5656 15.8999 7.44259 15.9379 7.31695 15.936C6.8393 15.9366 6.38141 16.1267 6.04372 16.4645C5.70603 16.8023 5.51611 17.2602 5.51562 17.7379V20.263C5.51611 20.7407 5.70603 21.1986 6.04372 21.5365C6.38141 21.8743 6.8393 22.0643 7.31695 22.065C7.44272 22.0632 7.56585 22.1012 7.66868 22.1736C7.77151 22.2461 7.84878 22.3492 7.8894 22.4683C8.09809 23.1349 8.36662 23.7813 8.69169 24.3995C8.74764 24.5127 8.76633 24.6406 8.74508 24.765C8.72383 24.8895 8.66373 25.004 8.5734 25.0921L8.56114 25.105C8.22859 25.4442 8.04324 25.9009 8.0453 26.376C8.04737 26.851 8.23668 27.3061 8.57217 27.6424L10.3576 29.4284C10.7009 29.7566 11.1577 29.9398 11.6327 29.9398C12.1077 29.9398 12.5645 29.7566 12.9078 29.4284C12.9961 29.3384 13.1105 29.2785 13.2348 29.2574C13.359 29.2363 13.4868 29.2549 13.5998 29.3107C14.2186 29.636 14.8656 29.9045 15.5329 30.113C15.6512 30.1537 15.7537 30.2306 15.8259 30.3328C15.8981 30.435 15.9362 30.5573 15.935 30.6824C15.9355 31.16 16.1254 31.618 16.4631 31.9558C16.8008 32.2936 17.2586 32.4837 17.7363 32.4843H20.2627C20.7403 32.4837 21.1982 32.2936 21.5359 31.9558C21.8736 31.618 22.0635 31.16 22.064 30.6824C22.0622 30.5569 22.1001 30.434 22.1723 30.3313C22.2445 30.2286 22.3473 30.1514 22.4661 30.1106C22.9153 29.9662 23.3554 29.7947 23.7838 29.5969L22.9331 28.6384C22.6597 28.7505 22.3815 28.8529 22.1014 28.9405C21.732 29.0572 21.4099 29.2895 21.1825 29.6031C20.9551 29.9167 20.8344 30.295 20.8382 30.6824C20.838 30.835 20.7774 30.9814 20.6695 31.0894C20.5616 31.1974 20.4153 31.2582 20.2627 31.2585H17.7363C17.5837 31.2582 17.4374 31.1974 17.3295 31.0894C17.2216 30.9814 17.1609 30.835 17.1608 30.6824C17.1646 30.295 17.0439 29.9167 16.8165 29.6031C16.5891 29.2895 16.267 29.0572 15.8976 28.9405C15.3014 28.754 14.7234 28.514 14.1704 28.2234C13.9136 28.0877 13.6274 28.0168 13.3369 28.0169C13.0954 28.0177 12.8565 28.0662 12.6338 28.1596C12.4112 28.253 12.2092 28.3895 12.0394 28.5611C11.9295 28.6658 11.7835 28.7242 11.6318 28.7242C11.48 28.7242 11.3341 28.6658 11.2242 28.5611L9.4382 26.7758C9.33049 26.6675 9.27002 26.5209 9.27002 26.3682C9.27002 26.2154 9.33049 26.0689 9.4382 25.9606C9.44274 25.9568 9.44685 25.9524 9.45046 25.9477C9.72351 25.6754 9.90236 25.3229 9.96091 24.9417C10.0195 24.5606 9.95464 24.1706 9.77591 23.8289C9.48523 23.2762 9.24522 22.6984 9.05882 22.1024C8.9421 21.733 8.70983 21.4109 8.39624 21.1835C8.08264 20.956 7.7043 20.8354 7.31695 20.8392C7.1643 20.8388 7.01801 20.778 6.91014 20.67C6.80226 20.562 6.74159 20.4157 6.74143 20.263V17.7379C6.74159 17.5852 6.80226 17.4389 6.91014 17.3309C7.01801 17.2229 7.1643 17.1621 7.31695 17.1618C7.70425 17.1657 8.08258 17.0452 8.39618 16.8178C8.70979 16.5905 8.94208 16.2685 9.05882 15.8992C9.24564 15.3028 9.48606 14.7245 9.77714 14.1714C9.95536 13.8298 10.02 13.4403 9.96154 13.0594C9.90311 12.6786 9.72472 12.3263 9.4523 12.0538L9.43882 12.0403C9.3311 11.932 9.27063 11.7855 9.27063 11.6328C9.27063 11.48 9.3311 11.3335 9.43882 11.2252L11.2242 9.43918C11.3338 9.33356 11.4802 9.27456 11.6324 9.27456C11.7846 9.27456 11.9309 9.33356 12.0406 9.43918C12.3129 9.716 12.6669 9.89805 13.0504 9.95852C13.434 10.019 13.8268 9.95467 14.171 9.77505C14.7311 9.48055 15.3171 9.23805 15.9215 9.0506C16.2874 8.93446 16.6059 8.70296 16.8293 8.39074C17.0527 8.07852 17.169 7.70236 17.1608 7.31854C17.1609 7.16589 17.2216 7.01954 17.3295 6.91155C17.4374 6.80355 17.5837 6.74273 17.7363 6.74241H20.2627C20.4153 6.74273 20.5616 6.80355 20.6695 6.91155C20.7774 7.01954 20.838 7.16589 20.8382 7.31854C20.8344 7.70589 20.9551 8.08423 21.1825 8.39783C21.4099 8.71142 21.732 8.94369 22.1014 9.06041C22.6975 9.24694 23.2756 9.48694 23.8285 9.7775C24.173 9.95724 24.5661 10.0214 24.9499 9.96063C25.3336 9.89982 25.6876 9.71722 25.9596 9.43979C26.0695 9.3351 26.2154 9.2767 26.3672 9.2767C26.519 9.2767 26.6649 9.3351 26.7748 9.43979L28.5608 11.2252C28.6685 11.3335 28.729 11.48 28.729 11.6328C28.729 11.7855 28.6685 11.932 28.5608 12.0403C28.5562 12.0442 28.5521 12.0485 28.5485 12.0532C28.2755 12.3255 28.0966 12.678 28.0381 13.0592C27.9795 13.4404 28.0443 13.8303 28.2231 14.172C28.5137 14.7247 28.7538 15.3026 28.9402 15.8986C29.0569 16.2679 29.2891 16.5901 29.6027 16.8175C29.9163 17.0449 30.2947 17.1656 30.682 17.1618C30.8347 17.1621 30.981 17.2229 31.0888 17.3309C31.1967 17.4389 31.2574 17.5852 31.2575 17.7379V20.263C31.2567 20.3406 31.2404 20.4172 31.2095 20.4883C31.1787 20.5595 31.134 20.6238 31.078 20.6774C31.022 20.7311 30.9558 20.773 30.8834 20.8008C30.811 20.8286 30.7338 20.8416 30.6563 20.8392C30.2768 20.8385 29.9068 20.9581 29.5995 21.1809C29.2923 21.4037 29.0636 21.7181 28.9463 22.0791C28.8574 22.3678 28.7532 22.6528 28.6398 22.9341L29.5954 23.7811C29.7975 23.3453 29.9719 22.8972 30.1175 22.4395C30.159 22.3248 30.2363 22.2264 30.338 22.159C30.4396 22.0916 30.5602 22.0586 30.682 22.065Z" fill="white"/>
</svg>
