<svg width="35" height="35" viewBox="0 0 35 35" fill="none" xmlns="http://www.w3.org/2000/svg">
<path d="M2.7795 4.3256H4.37527C5.05352 4.3256 5.05432 3.29941 4.37527 3.29941H2.7795C1.81286 3.29941 1.02619 2.51274 1.02619 1.54583C1.02619 1.25931 1.25931 1.02619 1.54583 1.02619H33.4542C33.7407 1.02619 33.9738 1.25957 33.9738 1.54583C33.9738 2.51274 33.1871 3.29941 32.2205 3.29941H6.42738C5.74913 3.29941 5.74833 4.3256 6.42738 4.3256H23.5859V5.09491C23.5859 5.7526 24.121 6.28773 24.7787 6.28773H25.4794C25.4807 8.38203 25.4759 8.26588 25.4831 8.31341L20.2472 11.4988C18.2474 11.8192 17.8848 14.537 19.6979 15.3854L25.8422 18.26C25.8591 18.3134 25.8783 18.3657 25.8997 18.417L25.0991 20.1871C24.6855 21.1022 25.8836 21.4961 26.1392 21.7447C26.6954 22.1212 27.2794 21.2774 26.7144 20.8947L26.0949 20.4755L26.6335 19.2848C27.2319 19.6624 28.0084 19.6741 28.626 19.2846L29.1646 20.4755L28.5451 20.8947C27.9801 21.2774 28.5638 22.1215 29.1203 21.7447C29.3748 21.4969 30.5743 21.1022 30.1604 20.1868L29.3593 18.4159C29.8616 17.2068 28.9876 15.8575 27.6719 15.8281L24.74 13.8575L28.676 12.3466C30.1158 11.7939 30.7473 10.106 30.0309 8.74546V6.28746H30.7315C31.3892 6.28746 31.9241 5.7526 31.9241 5.09491V4.3256H32.2205C33.7532 4.3256 35 3.07858 35 1.54583C35 0.693474 34.3065 0 33.4542 0H1.54583C0.693474 0 0 0.693474 0 1.54583C0 3.07858 1.24676 4.3256 2.7795 4.3256ZM19.586 13.8249C19.3075 12.91 20.3366 12.1343 21.1404 12.6743L26.4521 16.2447C26.172 16.4717 25.9584 16.778 25.846 17.1286C20.1537 14.3427 19.8191 14.591 19.586 13.8249ZM28.4754 17.7C28.4754 18.1665 28.0957 18.5462 27.6292 18.5462C27.1624 18.5462 26.783 18.1665 26.783 17.7C26.783 17.2332 27.1624 16.8538 27.6292 16.8538C28.0957 16.8538 28.4754 17.2332 28.4754 17.7ZM29.194 10.5092C28.7726 11.5829 27.9438 11.376 23.6991 13.1578C21.0841 11.4003 21.8486 11.9127 21.7014 11.8152L26.9496 8.62236C28.2121 7.85412 29.731 9.13986 29.194 10.5092ZM29.0044 7.6955C28.2231 7.25998 27.2762 7.26665 26.5053 7.6939V6.28746H29.0044V7.6955ZM30.8979 5.09491C30.8979 5.18677 30.8231 5.26127 30.7315 5.26127H24.7787C24.6868 5.26127 24.612 5.18677 24.612 5.09491V4.3256H30.8979V5.09491Z" fill="white"/>
<path d="M31.6945 26.1496L27.1478 25.2454C26.238 25.0643 25.3501 24.5145 24.7613 24.1169C22.2478 22.6451 20.6328 20.5938 17.229 20.5938H11.1677C9.15455 20.5938 7.26158 21.3777 5.83805 22.8015C4.9427 23.6969 3.81451 24.3073 2.57523 24.5669C1.08307 24.8793 0 26.2128 0 27.7373V31.818C0 33.1348 1.3493 33.2912 1.73649 33.5471C2.49619 33.8846 3.37631 33.4723 3.60996 32.6755C4.33735 30.1964 7.86133 30.1918 8.6002 32.6509C8.60554 32.6586 9.11983 34.3182 10.7767 34.3182H25.0668C25.7643 34.3182 26.3493 33.7989 26.4276 33.1099C26.6668 31.0041 29.2167 30.0538 30.7753 31.4907C31.2109 31.8925 31.4902 32.4122 31.5828 32.9932C31.7051 33.7612 32.3591 34.3182 33.1377 34.3182C34.1647 34.3182 35 33.483 35 32.4562V30.1771C35 29.4303 34.7963 28.6975 34.4109 28.0577C33.8155 27.07 32.8256 26.3744 31.6945 26.1496ZM32.997 29.2957C32.997 28.7269 33.6438 28.806 33.6507 28.8036C33.8187 29.1408 33.9233 29.5058 33.9594 29.8807H32.997V29.2957ZM32.5962 32.8319C32.3164 31.076 30.8082 29.7833 29.0132 29.7833C28.1288 29.7833 27.2444 30.101 26.5552 30.7366C25.0834 32.0939 25.7325 33.2923 25.0668 33.2923H10.777C9.89689 33.2923 9.58794 32.3636 9.58313 32.3566C8.54919 28.9144 3.63773 28.9371 2.62543 32.3868C2.56668 32.5868 2.34772 32.6955 2.15332 32.6092C1.56372 32.2877 1.02619 32.2792 1.02619 31.818V27.7373C1.02619 26.6959 1.76613 25.7848 2.78538 25.5714C4.22066 25.2708 5.52696 24.5639 6.56357 23.5273C7.7935 22.2974 9.42852 21.6202 11.1677 21.6202H17.229C20.2162 21.6202 21.5837 23.4245 24.1867 24.9674C24.905 25.4526 25.8681 26.0374 26.9475 26.2521C31.0346 27.1768 31.9059 26.9546 32.9433 27.8788C32.3751 28.0986 31.9708 28.6508 31.9708 29.296V30.0818C31.9708 30.5368 32.3409 30.9072 32.7962 30.9072H33.9738V32.4565C33.9738 33.3489 32.7196 33.6069 32.5962 32.8319Z" fill="white"/>
<path d="M24.0494 25.8297C20.9433 23.9985 19.8589 22.3787 17.3048 22.3787H15.172C14.7079 22.3787 14.321 22.7162 14.3282 23.235L14.3731 26.3606C14.383 27.0413 15.4089 27.0236 15.3993 26.3459L15.3568 23.4049H17.3048C19.46 23.4049 20.4002 24.8695 23.5282 26.7136C23.6497 26.7852 23.725 26.92 23.725 27.0656V31.1463C23.725 31.2456 23.6441 31.3265 23.5447 31.3265H15.4708L15.4295 28.4416C15.4196 27.7564 14.3934 27.7758 14.4033 28.4562L14.4476 31.5207C14.454 31.9794 14.8326 32.3527 15.2917 32.3527H23.5447C24.2102 32.3527 24.7512 31.8115 24.7512 31.1463V27.0656C24.7512 26.5585 24.4823 26.085 24.0494 25.8297Z" fill="white"/>
<path d="M12.2859 22.3874L11.5863 22.3684C8.04097 22.2669 7.53468 24.2996 5.36374 25.4336C5.0863 25.5784 4.91406 25.863 4.91406 26.1762V27.9707C4.91406 28.4326 5.29164 28.8083 5.75547 28.8083C5.75814 28.8083 6.02063 28.7974 6.0938 28.7974C8.02522 28.7974 9.7844 30.0102 10.4715 31.8154C10.6862 32.3799 11.2528 32.3556 11.2595 32.358L12.276 32.3489C12.7343 32.3443 13.1068 31.9684 13.1065 31.5101L13.1009 23.2248C13.1006 22.7676 12.7425 22.3999 12.2859 22.3874ZM11.3834 31.3304C10.4835 29.12 8.26207 27.697 5.94025 27.7744V26.2889C6.39741 26.0401 7.19716 25.5383 8.02869 24.7068C9.57131 23.1642 11.3065 23.4464 12.075 23.4082L12.08 31.3243L11.3834 31.3304Z" fill="white"/>
</svg>
