<svg width="130" height="34" viewBox="0 0 130 34" fill="none" xmlns="http://www.w3.org/2000/svg">
<path fill-rule="evenodd" clip-rule="evenodd" d="M16.8969 33.7937C26.2287 33.7937 33.7937 26.2287 33.7937 16.8968C33.7937 7.56499 26.2287 0 16.8969 0C7.56496 0 0 7.56499 0 16.8968C0 26.2287 7.56496 33.7937 16.8969 33.7937ZM22.1681 7.87127C22.4247 6.95986 21.5402 6.42092 20.7324 6.9964L9.45642 15.0294C8.5804 15.6535 8.71819 16.8968 9.6634 16.8968H12.6327V16.8739H18.4197L13.7044 18.5376L11.6256 25.9225C11.3691 26.8339 12.2534 27.3728 13.0613 26.7973L24.3373 18.7644C25.2133 18.1403 25.0754 16.8968 24.1303 16.8968H19.6275L22.1681 7.87127Z" fill="#666666"/>
<path d="M42.5332 24.5075V21.8348H44.653V11.0515H42.5332V8.37873H50.828C51.8111 8.37873 52.6636 8.5477 53.3856 8.88563C54.1229 9.20821 54.6913 9.67671 55.0906 10.2911C55.5054 10.8902 55.7127 11.6122 55.7127 12.457V12.6874C55.7127 13.4247 55.5745 14.0315 55.298 14.5077C55.0215 14.9685 54.6912 15.3295 54.3072 15.5906C53.9386 15.8364 53.5853 16.013 53.2473 16.1206V16.5353C53.5853 16.6275 53.9539 16.8041 54.3533 17.0652C54.7527 17.311 55.0906 17.672 55.3671 18.1482C55.659 18.6244 55.8049 19.2465 55.8049 20.0145V20.2449C55.8049 21.1358 55.5975 21.9039 55.1828 22.549C54.7681 23.1788 54.192 23.6627 53.4547 24.0006C52.7328 24.3386 51.8879 24.5075 50.9202 24.5075H42.5332ZM47.6944 21.7426H50.5515C51.212 21.7426 51.742 21.5813 52.1414 21.2587C52.5561 20.9362 52.7635 20.4753 52.7635 19.8763V19.6459C52.7635 19.0468 52.5638 18.586 52.1644 18.2634C51.765 17.9408 51.2274 17.7795 50.5515 17.7795H47.6944V21.7426ZM47.6944 15.0146H50.5054C51.1352 15.0146 51.6498 14.8533 52.0492 14.5307C52.4639 14.2081 52.6713 13.7627 52.6713 13.1943V12.9639C52.6713 12.3802 52.4716 11.9347 52.0722 11.6275C51.6729 11.305 51.1506 11.1437 50.5054 11.1437H47.6944V15.0146Z" fill="#666666"/>
<path d="M62.6726 24.8301C61.5359 24.8301 60.5144 24.5997 59.6081 24.1389C58.7019 23.6781 57.9876 23.0099 57.4653 22.1343C56.943 21.2587 56.6819 20.2065 56.6819 18.9777V18.609C56.6819 17.3801 56.943 16.3279 57.4653 15.4524C57.9876 14.5768 58.7019 13.9086 59.6081 13.4478C60.5144 12.987 61.5359 12.7565 62.6726 12.7565C63.8093 12.7565 64.8308 12.987 65.7371 13.4478C66.6434 13.9086 67.3576 14.5768 67.8799 15.4524C68.4022 16.3279 68.6633 17.3801 68.6633 18.609V18.9777C68.6633 20.2065 68.4022 21.2587 67.8799 22.1343C67.3576 23.0099 66.6434 23.6781 65.7371 24.1389C64.8308 24.5997 63.8093 24.8301 62.6726 24.8301ZM62.6726 22.2495C63.5635 22.2495 64.3008 21.9653 64.8846 21.397C65.4683 20.8133 65.7601 19.9838 65.7601 18.9085V18.6781C65.7601 17.6029 65.4683 16.7811 64.8846 16.2127C64.3162 15.629 63.5789 15.3372 62.6726 15.3372C61.7817 15.3372 61.0444 15.629 60.4607 16.2127C59.8769 16.7811 59.5851 17.6029 59.5851 18.6781V18.9085C59.5851 19.9838 59.8769 20.8133 60.4607 21.397C61.0444 21.9653 61.7817 22.2495 62.6726 22.2495Z" fill="#666666"/>
<path d="M70.191 24.5075V8.37873H73.0942V24.5075H70.191Z" fill="#666666"/>
<path d="M79.5371 24.5075C78.7844 24.5075 78.17 24.2771 77.6938 23.8163C77.233 23.3401 77.0026 22.7103 77.0026 21.9269V15.4754H74.1455V13.0791H77.0026V9.53079H79.9058V13.0791H83.0394V15.4754H79.9058V21.42C79.9058 21.8808 80.1208 22.1113 80.5509 22.1113H82.7629V24.5075H79.5371Z" fill="#666666"/>
<path d="M89.2617 24.8301C87.7717 24.8301 86.5506 24.5075 85.5982 23.8624C84.6458 23.2172 84.0698 22.2956 83.8701 21.0974L86.5429 20.4062C86.6504 20.9438 86.8271 21.3663 87.0728 21.6735C87.334 21.9807 87.6489 22.2034 88.0175 22.3417C88.4015 22.4646 88.8163 22.526 89.2617 22.526C89.9376 22.526 90.4368 22.4108 90.7594 22.1804C91.082 21.9346 91.2433 21.6351 91.2433 21.2818C91.2433 20.9285 91.0897 20.6597 90.7825 20.4753C90.4752 20.2756 89.9837 20.1144 89.3078 19.9915L88.6627 19.8763C87.8639 19.7227 87.1343 19.5153 86.4738 19.2542C85.8132 18.9777 85.2833 18.6013 84.8839 18.1251C84.4845 17.649 84.2848 17.0345 84.2848 16.2818C84.2848 15.1451 84.6996 14.2773 85.5291 13.6782C86.3586 13.0638 87.4492 12.7565 88.8009 12.7565C90.0759 12.7565 91.1357 13.0407 91.9806 13.6091C92.8254 14.1774 93.3784 14.9224 93.6396 15.8441L90.9437 16.6735C90.8209 16.0898 90.5674 15.6751 90.1834 15.4293C89.8147 15.1835 89.3539 15.0607 88.8009 15.0607C88.2479 15.0607 87.8255 15.1605 87.5336 15.3602C87.2418 15.5445 87.0959 15.8057 87.0959 16.1436C87.0959 16.5123 87.2495 16.7887 87.5567 16.9731C87.8639 17.142 88.2786 17.2726 88.8009 17.3648L89.4461 17.48C90.3063 17.6336 91.082 17.841 91.7732 18.1021C92.4798 18.3479 93.0328 18.7088 93.4322 19.185C93.8469 19.6459 94.0543 20.2756 94.0543 21.0744C94.0543 22.2725 93.6165 23.2019 92.7409 23.8624C91.8807 24.5075 90.721 24.8301 89.2617 24.8301Z" fill="#666666"/>
<path d="M95.4463 24.5075V8.37873H98.3495V14.4846H98.7642C98.8871 14.2389 99.0791 13.9931 99.3403 13.7473C99.6014 13.5015 99.947 13.3019 100.377 13.1482C100.823 12.9793 101.383 12.8948 102.059 12.8948C102.95 12.8948 103.726 13.1022 104.386 13.5169C105.062 13.9163 105.584 14.477 105.953 15.1989C106.322 15.9055 106.506 16.735 106.506 17.6874V24.5075H103.603V17.9178C103.603 17.0576 103.388 16.4124 102.958 15.9823C102.543 15.5522 101.944 15.3372 101.161 15.3372C100.27 15.3372 99.5784 15.6367 99.0868 16.2358C98.5953 16.8195 98.3495 17.6413 98.3495 18.7012V24.5075H95.4463Z" fill="#666666"/>
<path d="M108.492 24.5075V13.0791H111.396V24.5075H108.492ZM109.944 11.7427C109.422 11.7427 108.976 11.5738 108.608 11.2358C108.254 10.8979 108.078 10.4524 108.078 9.89945C108.078 9.34646 108.254 8.901 108.608 8.56306C108.976 8.22512 109.422 8.05615 109.944 8.05615C110.482 8.05615 110.927 8.22512 111.28 8.56306C111.634 8.901 111.81 9.34646 111.81 9.89945C111.81 10.4524 111.634 10.8979 111.28 11.2358C110.927 11.5738 110.482 11.7427 109.944 11.7427Z" fill="#666666"/>
<path d="M115.35 24.5075V15.4754H112.447V13.0791H115.35V10.9593C115.35 10.1759 115.58 9.55383 116.041 9.093C116.517 8.61682 117.132 8.37873 117.885 8.37873H120.88V10.775H118.898C118.468 10.775 118.253 11.0054 118.253 11.4662V13.0791H121.249V15.4754H118.253V24.5075H115.35Z" fill="#666666"/>
<path d="M126.497 24.5075C125.744 24.5075 125.13 24.2771 124.654 23.8163C124.193 23.3401 123.962 22.7103 123.962 21.9269V15.4754H121.105V13.0791H123.962V9.53079H126.866V13.0791H129.999V15.4754H126.866V21.42C126.866 21.8808 127.081 22.1113 127.511 22.1113H129.723V24.5075H126.497Z" fill="#666666"/>
</svg>
