<svg width="28" height="28" viewBox="0 0 28 28" fill="none" xmlns="http://www.w3.org/2000/svg">
<path d="M17.2666 16.3335H16.7533C16.5602 16.3338 16.3875 16.2134 16.3211 16.032C16.2642 15.8827 16.2031 15.7366 16.1373 15.5919C16.0555 15.416 16.0928 15.2077 16.2306 15.0711L16.5965 14.7048C17.1396 14.1569 17.1386 13.2733 16.5941 12.7266L15.2754 11.4078C14.728 10.8637 13.844 10.8637 13.2967 11.4078L12.9308 11.7732C12.794 11.9105 12.586 11.9478 12.41 11.8666C12.2654 11.8008 12.1193 11.7396 11.9695 11.6799C11.7872 11.614 11.6659 11.4407 11.6666 11.2468V10.7335C11.6666 9.96029 11.0398 9.3335 10.2666 9.3335H8.39997C7.62677 9.3335 6.99998 9.96029 6.99998 10.7335V11.2468C7.00033 11.4399 6.87987 11.6126 6.69851 11.679C6.54918 11.7359 6.40311 11.797 6.25845 11.8628C6.08246 11.9442 5.87444 11.9069 5.73765 11.7695L5.37132 11.4036C4.82404 10.8598 3.9404 10.8598 3.39312 11.4036L2.07433 12.7266C1.5302 13.274 1.5302 14.1579 2.07433 14.7053L2.43973 15.0711C2.57751 15.2077 2.61484 15.416 2.53306 15.5919C2.46726 15.7366 2.40613 15.8827 2.34873 16.0325C2.28193 16.2149 2.10758 16.3355 1.91333 16.3335H1.4C0.62679 16.3335 0 16.9603 0 17.7335V19.6001C0 20.3733 0.62679 21.0001 1.4 21.0001H1.91333C2.10641 20.9998 2.27913 21.1202 2.34546 21.3016C2.40239 21.4509 2.46353 21.597 2.52933 21.7417C2.61111 21.9176 2.57378 22.1259 2.43599 22.2625L2.07013 22.6288C1.52635 23.1761 1.52635 24.0597 2.07013 24.607L3.38892 25.9258C3.93626 26.4699 4.82024 26.4699 5.36758 25.9258L5.73345 25.5604C5.8703 25.4231 6.07826 25.3858 6.25425 25.467C6.39891 25.5328 6.54498 25.594 6.69478 25.6537C6.878 25.7188 7.00033 25.8924 6.99998 26.0868V26.6001C6.99998 27.3733 7.62677 28.0001 8.39997 28.0001H10.2666C11.0398 28.0001 11.6666 27.3733 11.6666 26.6001V26.0868C11.6663 25.8937 11.7867 25.721 11.9681 25.6546C12.1174 25.5977 12.2635 25.5366 12.4082 25.4708C12.5842 25.3894 12.7922 25.4267 12.929 25.5641L13.2953 25.93C13.8433 26.4729 14.7267 26.4718 15.2735 25.9276L16.5923 24.6089C17.1364 24.0615 17.1364 23.1775 16.5923 22.6302L16.2269 22.2643C16.0891 22.1278 16.0518 21.9195 16.1336 21.7435C16.1994 21.5989 16.2605 21.4528 16.3202 21.303C16.3861 21.1207 16.5594 20.9994 16.7533 21.0001H17.2666C18.0398 21.0001 18.6666 20.3733 18.6666 19.6001V17.7335C18.6666 16.9603 18.0398 16.3335 17.2666 16.3335ZM17.7333 19.6001C17.7333 19.8578 17.5243 20.0668 17.2666 20.0668H16.7533C16.1732 20.069 15.654 20.4275 15.4466 20.9693C15.3972 21.1 15.3437 21.2286 15.2861 21.3553C15.0462 21.8849 15.1575 22.5077 15.5661 22.9214L15.931 23.2868C16.1134 23.4689 16.1135 23.7644 15.9314 23.9468C15.9313 23.9469 15.9311 23.947 15.931 23.9471L14.6122 25.2659C14.43 25.4481 14.1346 25.4481 13.9524 25.2659L13.5865 24.9005C13.173 24.4915 12.55 24.3802 12.0204 24.6205C11.8939 24.6779 11.7651 24.7316 11.6354 24.7811C11.094 24.9884 10.7356 25.5071 10.7333 26.0868V26.6001C10.7333 26.8578 10.5244 27.0668 10.2666 27.0668H8.39997C8.14226 27.0668 7.93331 26.8578 7.93331 26.6001V26.0868C7.93115 25.5067 7.57258 24.9875 7.03078 24.7801C6.90011 24.7307 6.77149 24.6772 6.64485 24.6196C6.11518 24.3798 5.49248 24.4911 5.07872 24.8996L4.71332 25.2645C4.5312 25.4469 4.23569 25.447 4.05334 25.2649C4.05322 25.2647 4.0531 25.2646 4.05299 25.2645L2.73419 23.9471C2.55202 23.7649 2.55202 23.4695 2.73419 23.2873L3.09959 22.9214C3.50821 22.5077 3.61951 21.8849 3.37959 21.3553C3.32219 21.2288 3.26852 21.1 3.21906 20.9703C3.01221 20.4283 2.49339 20.0694 1.91333 20.0668H1.4C1.14228 20.0668 0.933331 19.8578 0.933331 19.6001V17.7335C0.933331 17.4758 1.14228 17.2668 1.4 17.2668H1.91333C2.49345 17.2646 3.01262 16.9061 3.21999 16.3643C3.26946 16.2336 3.32295 16.105 3.38052 15.9783C3.62045 15.4487 3.50909 14.8259 3.10052 14.4122L2.73373 14.0468C2.55138 13.8647 2.5512 13.5692 2.73338 13.3868C2.73349 13.3867 2.73361 13.3866 2.73373 13.3865L4.05252 12.0677C4.23475 11.8855 4.53015 11.8855 4.71239 12.0677L5.07825 12.4331C5.49178 12.8421 6.11477 12.9534 6.64438 12.7131C6.77085 12.6557 6.89965 12.602 7.02938 12.5526C7.57153 12.3459 7.93068 11.827 7.93331 11.2468V10.7335C7.93331 10.4758 8.14226 10.2668 8.39997 10.2668H10.2666C10.5244 10.2668 10.7333 10.4758 10.7333 10.7335V11.2468C10.7355 11.8269 11.094 12.3461 11.6358 12.5535C11.7665 12.603 11.8951 12.6564 12.0218 12.714C12.5514 12.9544 13.1744 12.843 13.5879 12.434L13.9533 12.0691C14.1362 11.8881 14.4307 11.8881 14.6136 12.0691L15.9324 13.3879C16.1146 13.5701 16.1146 13.8655 15.9324 14.0477L15.567 14.4136C15.1585 14.8273 15.0471 15.4501 15.287 15.9797C15.3444 16.1062 15.3981 16.235 15.4476 16.3647C15.6549 16.9061 16.1736 17.2645 16.7533 17.2668H17.2666C17.5243 17.2668 17.7333 17.4758 17.7333 17.7335V19.6001Z" fill="white"/>
<path d="M13.5269 18.4804C13.5222 18.3684 13.5143 18.2568 13.5007 18.1458C13.4858 18.0263 13.4681 17.9078 13.4433 17.7916C13.427 17.7155 13.4055 17.6404 13.385 17.5648C13.3589 17.4686 13.3295 17.3739 13.2968 17.2806C13.2739 17.2157 13.2501 17.1513 13.2259 17.0874C13.1658 16.9379 13.0971 16.792 13.0201 16.6506C13.014 16.6398 13.0103 16.6282 13.0042 16.6174C12.8828 16.4014 12.7422 16.1966 12.5842 16.0056C12.5707 15.9888 12.5553 15.973 12.5413 15.9566C12.4769 15.8806 12.4106 15.8068 12.3411 15.7364C12.3047 15.6986 12.2664 15.6631 12.2281 15.6267C12.1815 15.5833 12.1348 15.5404 12.0881 15.4993C12.0315 15.4501 11.9738 15.4025 11.915 15.3565L11.8385 15.2996C11.1164 14.7587 10.2384 14.4666 9.3362 14.467C9.28953 14.467 9.24286 14.474 9.1962 14.4759C9.0968 14.4787 8.99693 14.4843 8.8966 14.4946C8.84387 14.5002 8.79067 14.5062 8.73793 14.5137C8.5858 14.5337 8.43483 14.5619 8.28573 14.5982C6.03868 15.1788 4.6878 17.4712 5.26845 19.7183C5.65112 21.199 6.80798 22.3549 8.289 22.7364C8.29647 22.7364 8.3044 22.7387 8.31233 22.7406C8.47351 22.7807 8.63678 22.812 8.8014 22.8339C8.91013 22.8474 9.01887 22.8502 9.12806 22.8553C9.20086 22.8591 9.26806 22.8698 9.34413 22.8698C9.47713 22.8698 9.61526 22.861 9.7562 22.847C9.77113 22.847 9.78606 22.8428 9.80286 22.8409C9.91626 22.8283 10.0311 22.8115 10.1482 22.7882C10.1949 22.7793 10.2383 22.7676 10.2831 22.7574C10.3652 22.7382 10.4469 22.7182 10.5309 22.6934C10.5962 22.6738 10.6597 22.651 10.7236 22.6286C10.7875 22.6062 10.8538 22.5819 10.9201 22.5567C10.9863 22.5315 11.0419 22.5026 11.1021 22.4746C11.1805 22.4386 11.2584 22.4032 11.3354 22.3612H11.3382C11.7737 22.128 12.176 21.8375 12.5343 21.4974C12.631 21.4071 12.7152 21.304 12.7844 21.1912C13.1486 20.6073 13.3879 19.9543 13.4872 19.2732C13.5003 19.1832 13.5119 19.0931 13.5189 19.0012C13.5255 18.9167 13.5301 18.8327 13.532 18.7487C13.532 18.7221 13.5357 18.6969 13.5357 18.6703C13.5362 18.6045 13.5297 18.5438 13.5269 18.4804ZM12.5968 18.786C12.5968 18.8248 12.5935 18.8635 12.5912 18.9018C12.5828 19.0147 12.5683 19.1276 12.5492 19.241C12.3748 20.2113 11.7724 21.0513 10.9093 21.5277C10.8515 21.558 10.7945 21.5865 10.7376 21.6126L10.6989 21.6313C10.4277 21.7544 10.1415 21.841 9.84766 21.8889C9.82713 21.8922 9.80613 21.8959 9.78513 21.8987C9.7268 21.9071 9.6694 21.9141 9.61246 21.9192C9.53733 21.9258 9.46173 21.9295 9.38473 21.9309C9.35206 21.9309 9.31986 21.9309 9.2872 21.9309C9.17677 21.9296 9.06652 21.9228 8.9568 21.9104L8.9008 21.9038C8.77247 21.887 8.64518 21.863 8.51953 21.832C6.77175 21.3846 5.71756 19.6051 6.16486 17.8573C6.46043 16.7024 7.36168 15.8002 8.51627 15.5035V15.503C8.78437 15.4354 9.0597 15.4009 9.3362 15.4004C9.4696 15.4011 9.6029 15.4102 9.7352 15.4274C9.77066 15.4316 9.80566 15.4382 9.84066 15.4433C9.94146 15.4592 10.0413 15.4792 10.1398 15.5044C10.172 15.5128 10.2042 15.5203 10.2359 15.5292C10.4841 15.6008 10.723 15.7014 10.9476 15.8288C10.9835 15.8498 11.0185 15.8717 11.054 15.8936C11.1277 15.9403 11.1991 15.987 11.2696 16.0402C11.3074 16.0677 11.3457 16.0948 11.3821 16.1242C11.4736 16.1973 11.5613 16.2752 11.6448 16.3575C11.6779 16.3911 11.7083 16.428 11.7405 16.463C11.7941 16.5213 11.8464 16.581 11.8963 16.644C11.9309 16.6874 11.964 16.7322 11.9967 16.7775C12.0433 16.8447 12.09 16.9147 12.132 16.9856C12.1553 17.0244 12.1787 17.0622 12.2025 17.1018C12.2627 17.2126 12.3163 17.3268 12.363 17.4439C12.3817 17.4906 12.3975 17.5372 12.4143 17.5839C12.4447 17.6698 12.4708 17.7566 12.4937 17.8443C12.5053 17.891 12.5184 17.9325 12.5282 17.9778C12.5554 18.1039 12.5752 18.2315 12.5875 18.36C12.5903 18.394 12.5903 18.4286 12.5926 18.4626C12.5991 18.57 12.601 18.6778 12.5968 18.786Z" fill="white"/>
<path d="M26.5987 9.79997H25.131C24.9353 9.80196 24.7603 9.6787 24.6961 9.49384C24.5514 9.06037 24.3763 8.63757 24.172 8.22871C24.0853 8.05213 24.1215 7.83986 24.2616 7.70184L25.3023 6.65978C25.8485 6.11314 25.8485 5.22729 25.3023 4.68065L23.318 2.69966C22.7714 2.15343 21.8855 2.15343 21.3389 2.69966L20.2987 3.73939C20.1609 3.87951 19.9489 3.91579 19.7723 3.82946C19.3634 3.62418 18.9405 3.44813 18.5067 3.30259C18.3211 3.23907 18.197 3.06383 18.1987 2.86766V1.4C18.1987 0.62679 17.5719 0 16.7987 0H13.9987C13.2255 0 12.5987 0.62679 12.5987 1.4V2.86766C12.6007 3.06337 12.4775 3.23842 12.2926 3.30259C11.8591 3.44807 11.4363 3.62401 11.0275 3.82899C10.8509 3.91596 10.6385 3.87986 10.5006 3.73939L9.45854 2.69873C8.91126 2.15407 8.02669 2.15407 7.47941 2.69873L5.49888 4.67925C4.95236 5.22595 4.95236 6.11215 5.49888 6.65885L7.02908 8.19184C7.21417 8.37116 7.50963 8.36649 7.68894 8.18134C7.86388 8.00074 7.86429 7.71398 7.68988 7.53291L6.15875 6.00038C5.97657 5.81815 5.97657 5.52275 6.15875 5.34052L8.13927 3.35999C8.32151 3.17782 8.61691 3.17782 8.79914 3.35999L9.84167 4.40065C10.2635 4.82497 10.9098 4.93102 11.4451 4.66385C11.8148 4.47876 12.197 4.31986 12.5889 4.18832C13.1546 3.99681 13.5345 3.46493 13.5321 2.86766V1.4C13.5321 1.14228 13.741 0.933331 13.9987 0.933331H16.7987C17.0564 0.933331 17.2654 1.14228 17.2654 1.4V2.86766C17.263 3.46482 17.6429 3.99652 18.2085 4.18785C18.6006 4.31945 18.983 4.47847 19.3528 4.66385C19.8882 4.92962 20.5337 4.82345 20.9558 4.40019L21.9983 3.35999C22.1805 3.17782 22.4759 3.17782 22.6582 3.35999L24.6387 5.34098C24.8206 5.52316 24.8206 5.81821 24.6387 6.00038L23.598 7.04291C23.1741 7.46495 23.0681 8.11099 23.3348 8.64637C23.5199 9.01603 23.6788 9.39823 23.8104 9.79017C24.0018 10.356 24.5337 10.7359 25.131 10.7333H26.5987C26.8564 10.7333 27.0654 10.9423 27.0654 11.2V14C27.0654 14.2577 26.8564 14.4666 26.5987 14.4666H25.131C24.5339 14.4642 24.0022 14.8441 23.8108 15.4098C23.6793 15.8019 23.5202 16.1842 23.3348 16.554C23.0686 17.0894 23.1748 17.7351 23.5985 18.157L24.6392 19.1995C24.8213 19.3818 24.8213 19.6772 24.6392 19.8594L22.6577 21.8399C22.4755 22.0218 22.1805 22.0218 21.9983 21.8399L20.4648 20.3097C20.2855 20.1246 19.9901 20.1199 19.805 20.2992C19.6198 20.4786 19.6152 20.774 19.7945 20.9591C19.7982 20.963 19.8021 20.9668 19.8059 20.9705L21.3389 22.5007C21.8855 23.047 22.7714 23.047 23.318 22.5007L25.2986 20.5207C25.8451 19.974 25.8451 19.0878 25.2986 18.5411L24.2593 17.5C24.1193 17.3621 24.0831 17.1501 24.1692 16.9736C24.3745 16.5646 24.5506 16.1417 24.6961 15.708C24.7596 15.5223 24.9349 15.3982 25.131 15.4H26.5987C27.3719 15.4 27.9987 14.7732 27.9987 14V11.2C27.9987 10.4268 27.3719 9.79997 26.5987 9.79997Z" fill="white"/>
<path d="M19.6936 8.31008C17.323 5.94449 13.4849 5.94449 11.1144 8.31008C10.9354 8.49546 10.9405 8.79092 11.1259 8.96994C11.3067 9.14459 11.5934 9.14459 11.7742 8.96994C13.7654 6.95185 17.0156 6.93009 19.0337 8.92129C21.0518 10.9125 21.0735 14.1626 19.0823 16.1807C19.0662 16.1971 19.05 16.2133 19.0337 16.2294C18.8483 16.4085 18.8432 16.7039 19.0223 16.8893C19.2013 17.0746 19.4967 17.0798 19.6821 16.9007C19.686 16.897 19.6898 16.8931 19.6936 16.8893C22.0591 14.5187 22.0591 10.6806 19.6936 8.31008Z" fill="white"/>
</svg>
