<svg width="17" height="25" viewBox="0 0 17 25" fill="none" xmlns="http://www.w3.org/2000/svg">
<path d="M8.34987 1.95338C8.07985 1.95143 7.85963 2.16871 7.85768 2.43825C7.85573 2.70778 8.07252 2.92799 8.34254 2.92995C8.61207 2.9319 8.83229 2.7151 8.83424 2.44557C8.8362 2.17604 8.6194 1.95582 8.34987 1.95338Z" fill="white"/>
<path d="M8.32684 4.8829C6.44153 4.86952 4.89754 6.39047 4.88328 8.27519C4.86907 10.1598 6.39085 11.7045 8.27557 11.7188C8.28431 11.7188 8.293 11.7189 8.30174 11.7189C10.1744 11.7189 11.705 10.2024 11.7191 8.32646C11.7333 6.44194 10.2116 4.89711 8.32684 4.8829ZM8.30164 10.7423C8.29549 10.7423 8.28905 10.7423 8.28289 10.7422C6.93665 10.7321 5.84964 9.62866 5.85979 8.28252C5.8699 6.94243 6.96307 5.85932 8.30076 5.85932C8.30692 5.85932 8.31336 5.85937 8.31951 5.85942C9.66576 5.86957 10.7528 6.97299 10.7426 8.31914C10.7325 9.65923 9.63934 10.7423 8.30164 10.7423Z" fill="white"/>
<path d="M10.4311 2.32362C10.1771 2.23348 9.89786 2.36654 9.80772 2.62074C9.71763 2.87494 9.85069 3.15399 10.1048 3.24413C12.2556 4.00638 13.6889 6.05478 13.6717 8.34125C13.6697 8.61088 13.8867 8.83115 14.1564 8.8332C14.1576 8.8332 14.1589 8.8332 14.1601 8.8332C14.428 8.8332 14.6463 8.61699 14.6483 8.34858C14.6686 5.64608 12.9738 3.22484 10.4311 2.32362Z" fill="white"/>
<path d="M11.2972 18.381C14.5449 14.2006 16.5745 12.0206 16.6019 8.3632C16.6363 3.76148 12.9018 0 8.30044 0C3.75278 0 0.035094 3.68301 0.000523631 8.23869C-0.0274061 11.9953 2.03993 14.1722 5.31006 18.3803C2.05687 18.8664 0.000523631 20.088 0.000523631 21.5821C0.000523631 22.5829 0.925623 23.481 2.60546 24.1109C4.13442 24.6842 6.15722 25 8.30122 25C10.4452 25 12.468 24.6842 13.997 24.1109C15.6768 23.481 16.6019 22.5829 16.6019 21.582C16.6019 20.0888 14.5475 18.8675 11.2972 18.381ZM0.977039 8.24606C1.00751 4.22608 4.28754 0.976564 8.30054 0.976564C12.361 0.976564 15.6557 4.2963 15.6254 8.35592C15.5994 11.8293 13.447 13.9698 10.0106 18.4494C9.39766 19.248 8.83477 20.0031 8.30196 20.7417C7.77071 20.0027 7.21904 19.2611 6.59692 18.4491C3.0185 13.7819 0.950574 11.8032 0.977039 8.24606ZM8.30122 24.0235C4.10927 24.0235 0.977039 22.7346 0.977039 21.5821C0.977039 20.7274 2.8495 19.6477 5.99785 19.2738C6.6938 20.187 7.30396 21.0165 7.90239 21.8638C7.9938 21.9932 8.14234 22.0703 8.30078 22.0704C8.30093 22.0704 8.30108 22.0704 8.30122 22.0704C8.45952 22.0704 8.60801 21.9936 8.69956 21.8644C9.29234 21.0282 9.9192 20.1782 10.6092 19.2744C13.7546 19.6486 15.6254 20.728 15.6254 21.5821C15.6254 22.7346 12.4932 24.0235 8.30122 24.0235Z" fill="white"/>
</svg>
