<svg width="33" height="45" viewBox="0 0 33 45" fill="none" xmlns="http://www.w3.org/2000/svg">
<path d="M14.6994 22.3249C14.515 22.3249 14.3307 22.2543 14.1902 22.1139L10.5895 18.5131C10.3079 18.2315 10.3079 17.7764 10.5895 17.4948C10.871 17.2132 11.3262 17.2132 11.6078 17.4948L14.6994 20.5865L21.3918 13.894C21.6734 13.6124 22.1286 13.6124 22.4101 13.894C22.6917 14.1756 22.6917 14.6307 22.4101 14.9123L15.2086 22.1139C15.0681 22.2543 14.8838 22.3249 14.6994 22.3249ZM32.4031 20.5015C33.3069 22.2803 33.1693 25.1379 32.0912 27.0052C31.0953 28.7322 28.9665 30.1948 27.0775 30.5189L31.9364 38.9383C32.0696 39.168 32.0646 39.4525 31.9249 39.6779C31.7844 39.9033 31.5353 40.0401 31.2667 40.0171L26.1931 39.6944L23.9354 44.2487C23.8173 44.4871 23.5782 44.6405 23.3132 44.6491C23.3053 44.6491 23.2981 44.6491 23.2902 44.6491C23.0345 44.6491 22.7954 44.5123 22.6672 44.289L17.7968 35.8545C17.3589 35.946 16.9218 36.0079 16.4998 36.0079C16.0778 36.0079 15.6406 35.946 15.2021 35.8553L10.3324 44.2898C10.2034 44.513 9.96507 44.6498 9.7087 44.6498C9.7015 44.6498 9.69357 44.6498 9.68565 44.6498C9.41991 44.6412 9.18082 44.4878 9.06344 44.2494L6.80646 39.6952L1.73222 40.0178C1.46216 40.0365 1.21442 39.904 1.07471 39.6786C0.935002 39.4532 0.929961 39.1687 1.06247 38.939L5.9221 30.5196C4.03385 30.1955 1.90506 28.7336 0.908356 27.0074C-0.169722 25.1371 -0.306552 22.2803 0.596527 20.5022C1.28428 19.149 1.28428 16.8611 0.596527 15.5065C-0.306552 13.7291 -0.169722 10.873 0.908356 9.00415C1.98427 7.13965 4.38384 5.56539 6.37076 5.41919C7.89534 5.30829 9.88442 4.16108 10.7162 2.91376C11.8036 1.27972 14.3444 0 16.4998 0C18.6552 0 21.196 1.27972 22.2834 2.91304C23.1137 4.15964 25.1035 5.30757 26.6288 5.41848C28.6172 5.56395 31.0168 7.13821 32.0912 9.00271C33.17 10.873 33.3069 13.7291 32.4023 15.5057C31.716 16.8604 31.716 19.1476 32.4031 20.5015ZM13.7898 35.4203C12.5123 34.8931 11.3586 34.0599 10.7155 33.0949C10.0659 32.1198 8.7084 31.2138 7.41787 30.8077L2.98097 38.4946L7.19246 38.2268C7.48053 38.2051 7.75419 38.3657 7.88309 38.6257L9.75623 42.4051L13.7898 35.4203ZM30.0179 38.4954L25.5803 30.8084C24.289 31.2138 22.9323 32.1205 22.2834 33.0949C21.6403 34.0599 20.4873 34.8931 19.209 35.4203L23.2426 42.4058L25.1158 38.6264C25.2447 38.3665 25.5176 38.2059 25.8071 38.2275L30.0179 38.4954ZM31.119 14.8533C31.801 13.5131 31.6757 11.1632 30.8454 9.72214C30.0121 8.27967 28.0324 6.9661 26.5237 6.85591C24.5526 6.71116 22.1624 5.3299 21.085 3.7117C20.2655 2.48023 18.1655 1.44032 16.4998 1.44032C14.8341 1.44032 12.7341 2.48023 11.9145 3.7117C10.8343 5.33134 8.44554 6.71188 6.47518 6.85519C4.96717 6.96538 2.9889 8.27823 2.15495 9.72214C1.32461 11.1625 1.19786 13.5123 1.87985 14.8533C2.77717 16.6205 2.77717 19.3874 1.87985 21.1539C1.19786 22.4956 1.32389 24.8455 2.15495 26.2858C2.98817 27.729 4.96645 29.0418 6.47518 29.152C8.44626 29.2968 10.8357 30.6773 11.9138 32.2955C12.7341 33.5277 14.8348 34.5676 16.4998 34.5676C18.1648 34.5676 20.2655 33.5277 21.085 32.2962C22.1617 30.678 24.5512 29.2975 26.5237 29.1527C28.0339 29.0426 30.0121 27.7297 30.8439 26.2872C31.6743 24.8469 31.8003 22.4963 31.119 21.1539C30.2224 19.3874 30.2224 16.6205 31.119 14.8533ZM28.0223 18.004C28.0223 24.3572 22.853 29.5265 16.4998 29.5265C10.1466 29.5265 4.97725 24.3572 4.97725 18.004C4.97725 11.6507 10.1466 6.48143 16.4998 6.48143C22.853 6.48143 28.0223 11.6507 28.0223 18.004ZM26.582 18.004C26.582 12.4443 22.0594 7.92175 16.4998 7.92175C10.9402 7.92175 6.41757 12.4443 6.41757 18.004C6.41757 23.5636 10.9402 28.0862 16.4998 28.0862C22.0594 28.0862 26.582 23.5636 26.582 18.004Z" fill="#FF5E15"/>
</svg>
