<svg width="20" height="24" viewBox="0 0 20 24" fill="none" xmlns="http://www.w3.org/2000/svg">
<path d="M9.8491 11.5475C11.4355 11.5475 12.809 10.9785 13.9316 9.85588C15.0539 8.73347 15.623 7.36013 15.623 5.77354C15.623 4.1875 15.054 2.81398 13.9314 1.6912C12.8088 0.568978 11.4353 0 9.8491 0C8.26251 0 6.88918 0.568978 5.76677 1.69139C4.64436 2.8138 4.0752 4.18732 4.0752 5.77354C4.0752 7.36013 4.64436 8.73365 5.76677 9.85606C6.88954 10.9783 8.26306 11.5475 9.8491 11.5475ZM6.76024 2.68468C7.62148 1.82344 8.63177 1.4048 9.8491 1.4048C11.0663 1.4048 12.0767 1.82344 12.9382 2.68468C13.7994 3.5461 14.2182 4.55658 14.2182 5.77354C14.2182 6.99087 13.7994 8.00117 12.9382 8.86259C12.0767 9.72402 11.0663 10.1427 9.8491 10.1427C8.63214 10.1427 7.62184 9.72383 6.76024 8.86259C5.89881 8.00135 5.47999 6.99087 5.47999 5.77354C5.47999 4.55658 5.89881 3.5461 6.76024 2.68468Z" fill="white"/>
<path d="M19.9515 18.4332C19.9192 17.9661 19.8537 17.4566 19.7573 16.9185C19.66 16.3764 19.5347 15.864 19.3848 15.3956C19.2297 14.9115 19.0191 14.4334 18.7585 13.9752C18.4884 13.4997 18.1709 13.0856 17.8146 12.7449C17.4421 12.3885 16.9859 12.1019 16.4585 11.8928C15.9328 11.6849 15.3503 11.5795 14.7272 11.5795C14.4825 11.5795 14.2458 11.6799 13.7888 11.9775C13.5075 12.1609 13.1785 12.3731 12.8112 12.6077C12.4972 12.8078 12.0718 12.9953 11.5464 13.165C11.0337 13.3309 10.5132 13.415 9.99927 13.415C9.48571 13.415 8.9652 13.3309 8.45218 13.165C7.92728 12.9955 7.50169 12.808 7.18821 12.6079C6.82444 12.3755 6.49524 12.1633 6.20974 11.9773C5.75306 11.6798 5.5164 11.5793 5.27169 11.5793C4.64839 11.5793 4.06606 11.6849 3.54061 11.893C3.01352 12.1017 2.5572 12.3883 2.18428 12.7451C1.82801 13.086 1.51051 13.4999 1.24056 13.9752C0.980302 14.4334 0.769611 14.9113 0.614518 15.3958C0.464729 15.8641 0.339448 16.3764 0.242149 16.9185C0.145582 17.4559 0.0802897 17.9656 0.0479178 18.4338C0.0160945 18.8916 0 19.368 0 19.8494C0 21.1007 0.397791 22.1138 1.18222 22.8609C1.95695 23.5981 2.98188 23.9719 4.22865 23.9719H15.7713C17.0178 23.9719 18.0427 23.5981 18.8176 22.8609C19.6022 22.1143 20 21.1009 20 19.8492C19.9998 19.3662 19.9835 18.8897 19.9515 18.4332ZM17.849 21.8431C17.3371 22.3303 16.6575 22.5671 15.7712 22.5671H4.22865C3.34217 22.5671 2.66255 22.3303 2.15081 21.8433C1.64877 21.3654 1.4048 20.713 1.4048 19.8494C1.4048 19.4002 1.41961 18.9567 1.44924 18.5309C1.47814 18.1132 1.53721 17.6543 1.62481 17.1667C1.71132 16.6851 1.82142 16.2332 1.95237 15.8241C2.07802 15.4318 2.24939 15.0433 2.46191 14.6691C2.66474 14.3125 2.89811 14.0065 3.15562 13.76C3.39649 13.5293 3.70009 13.3406 4.05783 13.199C4.38868 13.0681 4.7605 12.9964 5.16415 12.9856C5.21334 13.0118 5.30095 13.0617 5.44287 13.1542C5.73166 13.3424 6.06452 13.5571 6.4325 13.7922C6.8473 14.0566 7.38171 14.2955 8.02019 14.5016C8.67293 14.7127 9.33866 14.8198 9.99945 14.8198C10.6602 14.8198 11.3262 14.7127 11.9785 14.5018C12.6176 14.2953 13.1518 14.0566 13.5671 13.7918C13.9437 13.5511 14.2672 13.3426 14.556 13.1542C14.698 13.0619 14.7856 13.0118 14.8348 12.9856C15.2386 12.9964 15.6104 13.0681 15.9414 13.199C16.299 13.3406 16.6026 13.5295 16.8435 13.76C17.101 14.0063 17.3343 14.3123 17.5372 14.6693C17.7499 15.0433 17.9214 15.432 18.0469 15.8239C18.178 16.2336 18.2883 16.6853 18.3746 17.1665C18.4621 17.655 18.5213 18.1141 18.5502 18.5311V18.5314C18.58 18.9556 18.595 19.3989 18.5952 19.8494C18.595 20.7132 18.351 21.3654 17.849 21.8431Z" fill="white"/>
</svg>
