<svg width="26" height="26" viewBox="0 0 26 26" fill="none" xmlns="http://www.w3.org/2000/svg">
<path fill-rule="evenodd" clip-rule="evenodd" d="M8.90852 15.6916H14.4152C14.6418 15.6916 14.8257 15.5077 14.8257 15.2811C14.8257 15.0545 14.6418 14.8706 14.4152 14.8706H8.90852C8.68195 14.8706 8.49805 15.0545 8.49805 15.2811C8.49805 15.5077 8.68191 15.6916 8.90852 15.6916Z" fill="white"/>
<path fill-rule="evenodd" clip-rule="evenodd" d="M12.3691 15.2811V25.164C12.3691 25.3906 12.553 25.5744 12.7796 25.5744C13.0059 25.5744 13.1901 25.3905 13.1901 25.164V15.2811C13.1901 15.0545 13.0059 14.8706 12.7796 14.8706C12.553 14.8706 12.3691 15.0545 12.3691 15.2811Z" fill="white"/>
<path fill-rule="evenodd" clip-rule="evenodd" d="M3.58065 0C1.983 0 0.685547 1.29746 0.685547 2.89536C0.685547 4.49327 1.983 5.79047 3.58065 5.79047C5.17861 5.79047 6.47606 4.49332 6.47606 2.89536C6.47606 1.29741 5.17861 0 3.58065 0ZM3.58065 0.820998C4.72567 0.820998 5.65506 1.75039 5.65506 2.89536C5.65506 4.04013 4.72567 4.96947 3.58065 4.96947C2.43589 4.96947 1.50654 4.04013 1.50654 2.89536C1.50654 1.75035 2.43594 0.820998 3.58065 0.820998Z" fill="white"/>
<path fill-rule="evenodd" clip-rule="evenodd" d="M22.4188 0C20.8209 0 19.5234 1.29746 19.5234 2.89536C19.5234 4.49327 20.8209 5.79047 22.4188 5.79047C24.0165 5.79047 25.314 4.49332 25.314 2.89536C25.314 1.29741 24.0165 0 22.4188 0ZM22.4188 0.820998C23.5636 0.820998 24.493 1.75039 24.493 2.89536C24.493 4.04013 23.5636 4.96947 22.4188 4.96947C21.2738 4.96947 20.3444 4.04013 20.3444 2.89536C20.3444 1.75035 21.2738 0.820998 22.4188 0.820998Z" fill="white"/>
<path fill-rule="evenodd" clip-rule="evenodd" d="M5.84306 11.6808C5.91093 11.8177 6.0516 11.9088 6.21061 11.9088L6.36305 11.8792L10.1429 10.3683C10.7247 10.136 11.3856 10.4192 11.6182 11.001C11.8506 11.5826 11.5671 12.2435 10.9855 12.4761L5.99361 14.4714C5.51659 14.6621 4.97639 14.5078 4.6707 14.1071C4.56398 13.9673 4.37977 13.9109 4.21287 13.9673C4.04622 14.0236 3.93401 14.1802 3.93401 14.3561V16.4177C3.93401 16.6262 4.09027 16.8014 4.29718 16.8254L7.61976 17.2091C8.40492 17.2997 8.99767 17.9647 8.99767 18.7554V25.1641C8.99767 25.3907 9.18157 25.5746 9.40814 25.5746C9.63476 25.5746 9.81862 25.3907 9.81862 25.1641V18.7554C9.81862 17.5477 8.91335 16.5321 7.71386 16.3936L4.75496 16.0518V15.1947C5.22842 15.4123 5.7845 15.4391 6.29818 15.2339L11.2904 13.2386C12.2926 12.8377 12.7811 11.6986 12.3804 10.6962C11.9798 9.69374 10.8408 9.20526 9.83837 9.60591L6.3803 10.9882L4.39377 7.73678C4.11328 7.27758 3.65596 6.95437 3.12971 6.84297C3.11357 6.83971 3.09743 6.83615 3.08099 6.83284C2.52953 6.71625 1.95455 6.84323 1.50355 7.1812C1.05255 7.51948 0.769313 8.0356 0.726599 8.5977C0.485215 11.7739 0.00111613 18.1393 0.00111613 18.1393C0.000257568 18.1497 0 18.1601 0 18.1706C0 19.3769 0.903377 20.3916 2.1012 20.5317L5.06362 20.9143V25.164C5.06362 25.3907 5.24752 25.5745 5.47409 25.5745C5.70067 25.5745 5.88457 25.3906 5.88457 25.164V20.5534C5.88457 20.3467 5.73132 20.1727 5.52659 20.1461L2.19882 19.7168C1.41916 19.6268 0.829369 18.9705 0.820912 18.1873C0.820912 18.1851 1.54502 8.65986 1.54502 8.65986C1.56992 8.33391 1.73412 8.03427 1.99577 7.8383C2.25767 7.64208 2.59101 7.56846 2.91116 7.63607L2.95959 7.6462C3.26502 7.71081 3.53018 7.89853 3.69301 8.16481C4.31396 9.18122 5.57253 11.2414 5.81803 11.6434C5.82636 11.6565 5.83456 11.6691 5.84306 11.6808Z" fill="white"/>
<path fill-rule="evenodd" clip-rule="evenodd" d="M2.5817 12.278L3.90079 14.4375C4.39802 15.2513 5.41005 15.5879 6.29591 15.2338C6.50634 15.1498 6.60899 14.9106 6.52472 14.7004C6.44071 14.49 6.20151 14.3874 5.99134 14.4714C5.4774 14.6769 4.89011 14.4818 4.60137 14.0094L3.28232 11.8499C3.1641 11.6567 2.91121 11.5957 2.71803 11.7136C2.52477 11.8319 2.46347 12.0848 2.5817 12.278Z" fill="white"/>
<path fill-rule="evenodd" clip-rule="evenodd" d="M19.239 11.6105L15.2643 12.1726C14.1953 12.3236 13.4504 13.3143 13.6015 14.3832C13.7526 15.4519 14.7432 16.1971 15.8122 16.046L20.7007 15.3544C20.8909 15.3276 21.0737 15.2734 21.2442 15.1949V16.052L18.2853 16.3938C17.0858 16.5323 16.1805 17.5478 16.1805 18.7555V25.1642C16.1805 25.3908 16.3644 25.5747 16.591 25.5747C16.8176 25.5747 17.0015 25.3908 17.0015 25.1642V18.7555C17.0015 17.9649 17.5942 17.2998 18.3794 17.2093L21.7008 16.8256H21.7C21.9056 16.8031 22.0651 16.6291 22.0651 16.4178V14.356C22.0651 14.1801 21.9529 14.0238 21.7862 13.9674C21.6196 13.9108 21.4354 13.9672 21.3284 14.107C21.1486 14.3424 20.8823 14.4997 20.5857 14.5416L15.6972 15.2329C15.0768 15.3207 14.502 14.8883 14.4145 14.2679C14.3266 13.6478 14.759 13.0731 15.3791 12.9852L19.5446 12.3963L19.4883 12.4001L19.8385 12.2036L22.0596 8.56799C22.3436 8.10329 22.8639 7.8365 23.4071 7.87754C23.4148 7.87809 23.4222 7.87861 23.4299 7.87917C24.1617 7.93446 24.7371 8.52721 24.7705 9.26008L25.178 18.1794C25.1736 18.9659 24.5825 19.6263 23.8001 19.7169L20.5416 20.0932C20.3366 20.1167 20.1812 20.2888 20.1784 20.4952L20.1144 25.1585C20.1113 25.3851 20.2928 25.5714 20.5191 25.5747C20.7457 25.5777 20.9321 25.3963 20.9354 25.1697L20.9942 20.8671L23.8943 20.5324C25.0937 20.3939 25.999 19.378 25.999 18.1706C25.999 18.1643 25.9988 18.1581 25.9985 18.1518C25.9985 18.1518 25.7264 12.1957 25.5907 9.2226C25.5381 8.07483 24.6373 7.14686 23.4917 7.06062C23.484 7.06006 23.4763 7.05924 23.469 7.05869C22.6184 6.99464 21.8037 7.41224 21.359 8.13996L19.239 11.6105Z" fill="white"/>
<path fill-rule="evenodd" clip-rule="evenodd" d="M16.8775 1.23148C16.8775 0.905008 16.7478 0.591634 16.5168 0.360681C16.2858 0.129685 15.9728 0 15.646 0H9.91902C9.2387 0 8.6875 0.551453 8.6875 1.23148V6.44864C8.6875 6.71681 8.84402 6.96039 9.08815 7.07149C9.33224 7.18258 9.61878 7.14073 9.82101 6.96447C10.2159 6.62048 10.7723 6.13553 11.0823 5.86517C11.1573 5.80004 11.2531 5.7642 11.3522 5.7642H15.646C15.9728 5.7642 16.2858 5.63447 16.5168 5.40352C16.7477 5.17252 16.8775 4.85919 16.8775 4.53272V1.23148H16.8775ZM9.5085 6.14789V1.23148C9.5085 1.0049 9.69214 0.820998 9.91898 0.820998H15.646C15.7549 0.820998 15.8594 0.864226 15.9364 0.941411C16.0132 1.0183 16.0565 1.12257 16.0565 1.23148V4.53272C16.0565 4.64163 16.0133 4.7459 15.9364 4.82279C15.8595 4.89997 15.7549 4.9432 15.646 4.9432H11.3522C11.0547 4.9432 10.7674 5.05074 10.543 5.24614L9.5085 6.14789Z" fill="white"/>
<path fill-rule="evenodd" clip-rule="evenodd" d="M10.9515 2.54263H14.6712C14.8978 2.54263 15.0816 2.35873 15.0816 2.13216C15.0816 1.90558 14.8977 1.72168 14.6712 1.72168H10.9515C10.7249 1.72168 10.541 1.90558 10.541 2.13216C10.541 2.35873 10.7249 2.54263 10.9515 2.54263Z" fill="white"/>
<path fill-rule="evenodd" clip-rule="evenodd" d="M10.9515 4.03995H12.7804C13.0067 4.03995 13.1909 3.85605 13.1909 3.62947C13.1909 3.40285 13.0067 3.21899 12.7804 3.21899H10.9515C10.7249 3.21899 10.541 3.4029 10.541 3.62947C10.541 3.85605 10.7249 4.03995 10.9515 4.03995Z" fill="white"/>
<path fill-rule="evenodd" clip-rule="evenodd" d="M19.4663 15.529L20.6997 15.3545C21.2785 15.2726 21.7903 14.9363 22.0951 14.4377L23.4142 12.2782C23.5324 12.085 23.4711 11.8321 23.2779 11.7139C23.0847 11.5959 22.8318 11.657 22.7136 11.8502L21.3946 14.0097C21.2178 14.2989 20.9205 14.4941 20.5848 14.5417L19.3514 14.716C19.1269 14.7478 18.9704 14.9558 19.0021 15.1802C19.0339 15.4043 19.2419 15.5608 19.4663 15.529Z" fill="white"/>
</svg>
