<svg width="130" height="25" viewBox="0 0 130 25" fill="none" xmlns="http://www.w3.org/2000/svg">
<path opacity="0.8" d="M23.8569 3.76772C23.5729 3.48372 23.2889 3.19972 23.0049 2.91572C22.1529 2.00692 21.2441 1.09813 20.1081 0.530134C18.8017 -0.151462 17.3817 0.0189319 15.9617 0.0189319C13.8033 0.0189319 8.40735 0.0189319 5.22656 0.0189319L7.38495 2.91572C11.3041 2.91572 17.4385 2.91572 20.2785 2.91572C21.4713 2.91572 22.4937 3.14292 23.4593 3.76772C23.6297 3.82452 23.8001 3.82452 23.8569 3.76772Z" fill="#666666"/>
<path opacity="0.9" d="M26.2422 8.42518C25.9582 8.14118 25.6742 7.85718 25.3902 7.57318C24.5382 6.66439 23.6294 5.7556 22.4934 5.1876C21.187 4.506 19.767 4.6764 18.347 4.6764C16.4726 4.6764 11.9855 4.6764 8.80469 4.6764L10.9631 7.57318C14.8255 7.57318 20.1078 7.57318 22.7206 7.57318C23.9134 7.57318 24.9358 7.80038 25.9014 8.42518C26.015 8.48198 26.1286 8.48198 26.2422 8.42518Z" fill="#666666"/>
<path d="M28.9118 12.9691C28.6278 12.6851 28.3438 12.4011 28.0598 12.1171C27.2078 11.2083 26.2991 10.2995 25.1631 9.73154C23.8567 9.04995 22.4367 9.22035 21.0167 9.22035C19.2559 9.22035 15.3935 9.22035 12.2695 9.22035L14.4279 12.1171C18.1767 12.1171 22.9479 12.1171 25.3335 12.1171C26.5263 12.1171 27.5486 12.3443 28.5142 12.9691C28.6846 13.0259 28.7982 13.0827 28.9118 12.9691Z" fill="#666666"/>
<path opacity="0.8" d="M4.99805 20.6373C5.28205 20.9213 5.56604 21.2053 5.85004 21.4893C6.70204 22.3981 7.61083 23.3069 8.74682 23.8749C10.0532 24.5565 11.4732 24.3861 12.8932 24.3861H23.6284L21.47 21.4893C17.5508 21.4893 11.4164 21.4893 8.57643 21.4893C7.38364 21.4893 6.36124 21.2621 5.39564 20.6373C5.22524 20.5805 5.11165 20.5805 4.99805 20.6373Z" fill="#666666"/>
<path opacity="0.9" d="M2.61328 15.9799C2.89728 16.2639 3.18128 16.5479 3.46528 16.8319C4.31727 17.7406 5.22606 18.6494 6.36206 19.2174C7.66845 19.899 9.08844 19.7286 10.5084 19.7286H20.0508L17.8924 16.8319C14.03 16.8319 8.74765 16.8319 6.13486 16.8319C4.94207 16.8319 3.91967 16.6047 2.95407 15.9799C2.84047 15.9231 2.72688 15.9231 2.61328 15.9799Z" fill="#666666"/>
<path d="M0 11.3785C0.283999 11.6625 0.567997 11.9465 0.851996 12.2305C1.70399 13.1393 2.61279 14.0481 3.74878 14.6161C5.05518 15.2977 6.47516 15.1273 7.89516 15.1273H16.6423L14.4839 12.2305C10.7351 12.2305 5.96397 12.2305 3.57838 12.2305C2.38559 12.2305 1.36319 12.0033 0.397596 11.3785C0.227197 11.3217 0.113599 11.3217 0 11.3785Z" fill="#666666"/>
<path d="M35.4375 5.63696V18.7731H38.326V13.3457H43.827V11.1012H38.326V8.06549H44.6733V5.63696H35.4375Z" fill="#666666"/>
<path d="M51.9179 12.9961H47.668C47.6802 12.8122 47.717 12.6036 47.7783 12.3706C47.8519 12.1376 47.9685 11.9168 48.1279 11.7083C48.2996 11.4998 48.5204 11.3281 48.7902 11.1931C49.0723 11.046 49.4219 10.9724 49.8389 10.9724C50.4767 10.9724 50.9489 11.1441 51.2556 11.4875C51.5745 11.8309 51.7952 12.3338 51.9179 12.9961ZM47.668 14.652H54.5304C54.5795 13.916 54.5181 13.2108 54.3464 12.5362C54.1747 11.8616 53.8926 11.2606 53.5001 10.7332C53.1199 10.2058 52.6293 9.78877 52.0283 9.48213C51.4273 9.16324 50.722 9.00379 49.9125 9.00379C49.1889 9.00379 48.5265 9.13257 47.9255 9.39014C47.3368 9.64771 46.8278 10.0034 46.3985 10.4572C45.9692 10.8988 45.6381 11.4262 45.405 12.0394C45.172 12.6527 45.0555 13.315 45.0555 14.0264C45.0555 14.7623 45.1658 15.4369 45.3866 16.0502C45.6197 16.6635 45.9447 17.1909 46.3617 17.6324C46.7787 18.074 47.2877 18.4174 47.8887 18.6627C48.4897 18.8957 49.1643 19.0123 49.9125 19.0123C50.9919 19.0123 51.9118 18.767 52.6722 18.2763C53.4326 17.7857 53.9969 16.9701 54.3648 15.8294H52.0651C51.9792 16.1238 51.7462 16.4059 51.3659 16.6757C50.9857 16.9333 50.5319 17.0621 50.0045 17.0621C49.2686 17.0621 48.7044 16.872 48.3119 16.4917C47.9194 16.1115 47.7048 15.4983 47.668 14.652Z" fill="#666666"/>
<path d="M55.4175 12.1866C55.4543 11.5734 55.6076 11.0644 55.8775 10.6596C56.1473 10.2548 56.4907 9.92982 56.9077 9.68451C57.3248 9.4392 57.7909 9.26749 58.306 9.16937C58.8334 9.05898 59.3608 9.00379 59.8882 9.00379C60.3666 9.00379 60.851 9.04058 61.3417 9.11417C61.8323 9.1755 62.2799 9.30429 62.6847 9.50053C63.0895 9.69677 63.4206 9.97274 63.6782 10.3284C63.9358 10.6719 64.0645 11.1318 64.0645 11.7083V16.6573C64.0645 17.0866 64.0891 17.4975 64.1381 17.89C64.1872 18.2825 64.2731 18.5768 64.3957 18.7731H61.7464C61.6973 18.6259 61.6544 18.4787 61.6176 18.3315C61.5931 18.1721 61.5747 18.0126 61.5624 17.8532C61.1454 18.2825 60.6548 18.583 60.0906 18.7547C59.5264 18.9264 58.9499 19.0123 58.3612 19.0123C57.9074 19.0123 57.4842 18.9571 57.0917 18.8467C56.6992 18.7363 56.3558 18.5646 56.0614 18.3315C55.7671 18.0985 55.534 17.8041 55.3623 17.4484C55.2029 17.0927 55.1231 16.6696 55.1231 16.179C55.1231 15.6393 55.2151 15.1978 55.3991 14.8543C55.5954 14.4986 55.8407 14.2165 56.135 14.008C56.4417 13.7995 56.7851 13.6462 57.1653 13.5481C57.5578 13.4377 57.9503 13.3518 58.3428 13.2905C58.7353 13.2292 59.1216 13.1801 59.5019 13.1433C59.8821 13.1065 60.2194 13.0513 60.5137 12.9777C60.8081 12.9041 61.0412 12.7999 61.2129 12.665C61.3846 12.5178 61.4643 12.3093 61.452 12.0394C61.452 11.7573 61.403 11.5366 61.3049 11.3771C61.219 11.2054 61.0963 11.0766 60.9369 10.9908C60.7897 10.8926 60.6119 10.8313 60.4034 10.8068C60.2071 10.77 59.9925 10.7516 59.7594 10.7516C59.2443 10.7516 58.8395 10.862 58.5452 11.0828C58.2508 11.3035 58.0791 11.6715 58.03 12.1866H55.4175ZM61.452 14.1184C61.3417 14.2165 61.2006 14.2963 61.0289 14.3576C60.8694 14.4066 60.6916 14.4496 60.4953 14.4864C60.3114 14.5232 60.1151 14.5538 59.9066 14.5784C59.6981 14.6029 59.4896 14.6336 59.2811 14.6704C59.0848 14.7071 58.8886 14.7562 58.6923 14.8175C58.5084 14.8789 58.3428 14.9647 58.1956 15.0751C58.0607 15.1732 57.9503 15.302 57.8644 15.4615C57.7786 15.6209 57.7357 15.8233 57.7357 16.0686C57.7357 16.3016 57.7786 16.4979 57.8644 16.6573C57.9503 16.8168 58.0668 16.9456 58.214 17.0437C58.3612 17.1295 58.5329 17.1909 58.7291 17.2277C58.9254 17.2645 59.1278 17.2829 59.3363 17.2829C59.8514 17.2829 60.25 17.197 60.5321 17.0253C60.8142 16.8536 61.0228 16.6512 61.1577 16.4182C61.2926 16.1728 61.3723 15.9275 61.3968 15.6822C61.4336 15.4369 61.452 15.2407 61.452 15.0935V14.1184Z" fill="#666666"/>
<path d="M68.852 9.26136V6.40968H66.2395V9.26136H64.6573V11.0092H66.2395V16.6205C66.2395 17.0989 66.3193 17.4852 66.4787 17.7796C66.6381 18.074 66.8528 18.3009 67.1226 18.4603C67.4047 18.6198 67.7236 18.724 68.0793 18.7731C68.4473 18.8344 68.8336 18.8651 69.2384 18.8651C69.496 18.8651 69.7597 18.8589 70.0295 18.8467C70.2993 18.8344 70.5446 18.8099 70.7654 18.7731V16.7493C70.6428 16.7738 70.514 16.7922 70.3791 16.8045C70.2441 16.8168 70.1031 16.8229 69.9559 16.8229C69.5144 16.8229 69.22 16.7493 69.0728 16.6021C68.9256 16.455 68.852 16.1606 68.852 15.719V11.0092H70.7654V9.26136H68.852Z" fill="#666666"/>
<path d="M71.4565 5.63696V18.7731H74.069V13.7872C74.069 12.8183 74.2285 12.1253 74.5473 11.7083C74.8662 11.279 75.3814 11.0644 76.0928 11.0644C76.7183 11.0644 77.1537 11.2606 77.399 11.6531C77.6443 12.0333 77.767 12.6159 77.767 13.4009V18.7731H80.3795V12.9225C80.3795 12.3338 80.3243 11.8003 80.2139 11.3219C80.1158 10.8313 79.9379 10.4204 79.6804 10.0893C79.4228 9.74584 79.0671 9.48213 78.6133 9.29815C78.1717 9.10191 77.6014 9.00379 76.9023 9.00379C76.4117 9.00379 75.9088 9.13257 75.3937 9.39014C74.8785 9.63545 74.4554 10.0341 74.1242 10.586H74.069V5.63696H71.4565Z" fill="#666666"/>
<path d="M88.2128 12.9961H83.9629C83.9752 12.8122 84.012 12.6036 84.0733 12.3706C84.1469 12.1376 84.2634 11.9168 84.4229 11.7083C84.5946 11.4998 84.8154 11.3281 85.0852 11.1931C85.3673 11.046 85.7169 10.9724 86.1339 10.9724C86.7717 10.9724 87.2439 11.1441 87.5505 11.4875C87.8694 11.8309 88.0902 12.3338 88.2128 12.9961ZM83.9629 14.652H90.8254C90.8744 13.916 90.8131 13.2108 90.6414 12.5362C90.4697 11.8616 90.1876 11.2606 89.7951 10.7332C89.4148 10.2058 88.9242 9.78877 88.3232 9.48213C87.7222 9.16324 87.017 9.00379 86.2075 9.00379C85.4838 9.00379 84.8215 9.13257 84.2205 9.39014C83.6318 9.64771 83.1228 10.0034 82.6935 10.4572C82.2642 10.8988 81.933 11.4262 81.7 12.0394C81.4669 12.6527 81.3504 13.315 81.3504 14.0264C81.3504 14.7623 81.4608 15.4369 81.6816 16.0502C81.9146 16.6635 82.2397 17.1909 82.6567 17.6324C83.0737 18.074 83.5827 18.4174 84.1837 18.6627C84.7847 18.8957 85.4593 19.0123 86.2075 19.0123C87.2868 19.0123 88.2067 18.767 88.9672 18.2763C89.7276 17.7857 90.2918 16.9701 90.6598 15.8294H88.36C88.2742 16.1238 88.0411 16.4059 87.6609 16.6757C87.2807 16.9333 86.8269 17.0621 86.2995 17.0621C85.5635 17.0621 84.9993 16.872 84.6069 16.4917C84.2144 16.1115 83.9997 15.4983 83.9629 14.652Z" fill="#666666"/>
<path d="M91.8229 9.26136V18.7731H94.4354V14.4864C94.4354 14.0571 94.4783 13.6585 94.5642 13.2905C94.65 12.9225 94.7911 12.6036 94.9873 12.3338C95.1958 12.0517 95.4657 11.8309 95.7968 11.6715C96.128 11.512 96.5327 11.4323 97.0111 11.4323C97.1705 11.4323 97.3361 11.4446 97.5078 11.4691C97.6795 11.4814 97.8267 11.4998 97.9494 11.5243V9.09578C97.7409 9.03445 97.5508 9.00379 97.379 9.00379C97.0479 9.00379 96.729 9.05285 96.4224 9.15097C96.1157 9.24909 95.8275 9.39014 95.5576 9.57412C95.2878 9.74584 95.0486 9.96048 94.8401 10.2181C94.6316 10.4634 94.466 10.7332 94.3434 11.0276H94.3066V9.26136H91.8229Z" fill="#666666"/>
<path d="M101.586 16.3446V8.06549H103.647C104.358 8.06549 104.953 8.16975 105.431 8.37826C105.922 8.5745 106.314 8.86274 106.609 9.24296C106.903 9.62318 107.112 10.0831 107.234 10.6228C107.369 11.1502 107.437 11.7451 107.437 12.4074C107.437 13.1311 107.345 13.7443 107.161 14.2472C106.977 14.7501 106.731 15.161 106.425 15.4799C106.118 15.7865 105.769 16.0073 105.376 16.1422C104.984 16.2771 104.579 16.3446 104.162 16.3446H101.586ZM98.6977 5.63696V18.7731H104.364C105.37 18.7731 106.241 18.6075 106.977 18.2763C107.725 17.9329 108.344 17.4668 108.835 16.8781C109.338 16.2894 109.712 15.5902 109.957 14.7807C110.203 13.9712 110.325 13.0881 110.325 12.1314C110.325 11.0398 110.172 10.0893 109.865 9.27975C109.571 8.47025 109.154 7.79565 108.614 7.25598C108.087 6.71631 107.455 6.31155 106.719 6.04172C105.996 5.77188 105.211 5.63696 104.364 5.63696H98.6977Z" fill="#666666"/>
<path d="M117.909 12.9961H113.659C113.671 12.8122 113.708 12.6036 113.769 12.3706C113.843 12.1376 113.96 11.9168 114.119 11.7083C114.291 11.4998 114.512 11.3281 114.781 11.1931C115.063 11.046 115.413 10.9724 115.83 10.9724C116.468 10.9724 116.94 11.1441 117.247 11.4875C117.566 11.8309 117.786 12.3338 117.909 12.9961ZM113.659 14.652H120.521C120.571 13.916 120.509 13.2108 120.338 12.5362C120.166 11.8616 119.884 11.2606 119.491 10.7332C119.111 10.2058 118.62 9.78877 118.019 9.48213C117.418 9.16324 116.713 9.00379 115.904 9.00379C115.18 9.00379 114.518 9.13257 113.917 9.39014C113.328 9.64771 112.819 10.0034 112.39 10.4572C111.96 10.8988 111.629 11.4262 111.396 12.0394C111.163 12.6527 111.047 13.315 111.047 14.0264C111.047 14.7623 111.157 15.4369 111.378 16.0502C111.611 16.6635 111.936 17.1909 112.353 17.6324C112.77 18.074 113.279 18.4174 113.88 18.6627C114.481 18.8957 115.155 19.0123 115.904 19.0123C116.983 19.0123 117.903 18.767 118.663 18.2763C119.424 17.7857 119.988 16.9701 120.356 15.8294H118.056C117.97 16.1238 117.737 16.4059 117.357 16.6757C116.977 16.9333 116.523 17.0621 115.996 17.0621C115.26 17.0621 114.695 16.872 114.303 16.4917C113.91 16.1115 113.696 15.4983 113.659 14.652Z" fill="#666666"/>
<path d="M126.781 18.7731L130 9.26136H127.406L125.401 15.7558H125.364L123.359 9.26136H120.618L123.874 18.7731H126.781Z" fill="#666666"/>
</svg>
