<svg width="130" height="30" viewBox="0 0 130 30" fill="none" xmlns="http://www.w3.org/2000/svg">
<path d="M20.1235 0H8.97497L0 8.97495V20.1235L8.97497 29.0985H20.1235L29.0985 20.1235V8.97495L20.1235 0ZM10.5175 20.2638L4.76796 14.5142L10.5175 8.76461C12.6912 6.59098 16.2671 6.59098 18.4407 8.76461L24.1903 14.5142L18.4407 20.2638C16.2671 22.4374 12.7613 22.4374 10.5175 20.2638Z" fill="#666666"/>
<path d="M41.8894 21.3206C43.675 21.3206 45.1431 20.4079 45.5994 19.039V21.1619H48.2381V15.8051C48.2381 14.5949 47.2858 13.5632 45.9962 13.5632H42.2266V15.8051H44.905C45.2423 15.8051 45.4606 16.0233 45.4606 16.3606C45.4606 17.6502 43.7543 18.9001 42.0283 18.9001C39.7268 18.9001 37.9016 17.0947 37.9016 14.2179C37.9016 11.3411 39.7268 9.67457 42.0878 9.67457C43.8734 9.67457 45.1034 10.6467 45.3217 12.1347H48.2778C48.0993 9.15873 45.5994 7.11523 42.1076 7.11523C38.4372 7.11523 35.0645 9.47617 35.0645 14.2179C35.0645 18.9596 38.338 21.3206 41.8894 21.3206Z" fill="#666666"/>
<path d="M49.3709 21.1619H52.1286V6.81763H49.3709V21.1619Z" fill="#666666"/>
<path d="M58.0773 21.3206C61.1525 21.3206 63.3547 19.1382 63.3547 16.1622C63.3547 13.1862 61.1525 11.0038 58.0773 11.0038C55.0021 11.0038 52.7999 13.1862 52.7999 16.1622C52.7999 19.1382 55.0021 21.3206 58.0773 21.3206ZM58.0773 18.9398C56.5893 18.9398 55.5775 17.8089 55.5775 16.1622C55.5775 14.4957 56.5893 13.3648 58.0773 13.3648C59.5653 13.3648 60.5771 14.4957 60.5771 16.1622C60.5771 17.8089 59.5653 18.9398 58.0773 18.9398Z" fill="#666666"/>
<path d="M69.5255 21.3206C72.4817 21.3206 74.2474 19.2771 74.2474 16.1622C74.2474 13.0474 72.4817 11.0038 69.5652 11.0038C68.3153 11.0038 67.3432 11.48 66.7876 12.2141V6.81763H64.0299V21.1619H66.7876V20.0707C67.3432 20.8444 68.3748 21.3206 69.5255 21.3206ZM69.0891 18.9398C67.6011 18.9398 66.6289 17.8288 66.6289 16.1622C66.6289 14.4758 67.6011 13.3648 69.0891 13.3648C70.5374 13.3648 71.5294 14.4758 71.5294 16.1622C71.5294 17.8288 70.5374 18.9398 69.0891 18.9398Z" fill="#666666"/>
<path d="M78.8638 11.0038C76.1259 11.0038 74.499 12.6109 74.38 14.6147H76.8401C76.8798 13.7814 77.4948 13.0275 78.7051 13.0275C79.8359 13.0275 80.4906 13.6029 80.4906 14.4361C80.4906 14.8528 80.2327 15.1702 79.7367 15.1702H78.0503C75.868 15.1702 74.3998 16.3606 74.3998 18.3248C74.3998 20.031 75.7291 21.3206 77.6734 21.3206C79.0423 21.3206 80.1534 20.7055 80.4906 19.7731V21.1619H83.2285V14.7337C83.2285 12.472 81.3834 11.0038 78.8638 11.0038ZM78.3678 19.3168C77.594 19.3168 77.0385 18.8604 77.0385 18.2057C77.0385 17.432 77.6337 16.9161 78.467 16.9161H80.4906V17.055C80.4906 18.3248 79.7169 19.3168 78.3678 19.3168Z" fill="#666666"/>
<path d="M84.2883 21.1619H87.046V6.81763H84.2883V21.1619Z" fill="#666666"/>
<path d="M88.5109 21.1619H94.1851C97.1214 21.1619 99.1451 19.654 99.1451 17.0153C99.1451 15.1901 98.0737 14.079 96.804 13.583C97.6174 13.1466 98.4309 12.1546 98.4309 10.8451C98.4309 8.52386 96.5461 7.27394 94.0264 7.27394H88.5109V21.1619ZM91.4472 12.5712V9.63489H93.7486C95.0779 9.63489 95.6731 10.1706 95.6731 11.103C95.6731 12.0355 95.0779 12.5712 93.8082 12.5712H91.4472ZM91.4472 18.5827V15.0909H93.9272C95.5739 15.0909 96.308 15.7257 96.308 16.8566C96.308 17.9875 95.5739 18.5827 93.9272 18.5827H91.4472Z" fill="#666666"/>
<path d="M103.943 11.0038C101.205 11.0038 99.5779 12.6109 99.4588 14.6147H101.919C101.959 13.7814 102.574 13.0275 103.784 13.0275C104.915 13.0275 105.569 13.6029 105.569 14.4361C105.569 14.8528 105.312 15.1702 104.816 15.1702H103.129C100.947 15.1702 99.4787 16.3606 99.4787 18.3248C99.4787 20.031 100.808 21.3206 102.752 21.3206C104.121 21.3206 105.232 20.7055 105.569 19.7731V21.1619H108.307V14.7337C108.307 12.472 106.462 11.0038 103.943 11.0038ZM103.447 19.3168C102.673 19.3168 102.117 18.8604 102.117 18.2057C102.117 17.432 102.713 16.9161 103.546 16.9161H105.569V17.055C105.569 18.3248 104.796 19.3168 103.447 19.3168Z" fill="#666666"/>
<path d="M109.208 21.1619H111.986V15.6861C111.986 14.3965 112.839 13.464 114.049 13.464C115.2 13.464 115.974 14.3369 115.974 15.5472V21.1619H118.751V14.9321C118.751 12.6307 117.283 11.0038 115.021 11.0038C113.653 11.0038 112.542 11.5792 111.986 12.5514V11.1626H109.208V21.1619Z" fill="#666666"/>
<path d="M126.668 21.1619H130.001L125.695 15.0909L129.683 11.1626H126.191L122.72 14.575V6.81763H119.942V21.1619H122.72V18.0272L123.831 16.936L126.668 21.1619Z" fill="#666666"/>
</svg>
