<svg width="130" height="33" viewBox="0 0 130 33" fill="none" xmlns="http://www.w3.org/2000/svg">
<path fill-rule="evenodd" clip-rule="evenodd" d="M15.4129 0.0607475C15.0191 -0.0202492 14.6129 -0.0202492 14.219 0.0607476C13.7638 0.154376 13.3569 0.382277 13.0334 0.563461L12.9453 0.612717L1.98185 6.7035C1.95154 6.72034 1.92031 6.73754 1.88831 6.75517C1.54588 6.94378 1.11532 7.18093 0.784676 7.53973C0.49881 7.84993 0.282475 8.2176 0.150137 8.61814C-0.00293189 9.08142 -0.00114103 9.57296 0.000283186 9.9639C0.00041632 10.0004 0.00054618 10.0361 0.00054618 10.0708V22.0966C0.00054618 22.1313 0.00041632 22.1669 0.000283186 22.2035C-0.00114103 22.5944 -0.00293189 23.0859 0.150137 23.5492C0.282476 23.9498 0.498812 24.3174 0.784676 24.6276C1.11532 24.9864 1.54588 25.2236 1.88831 25.4122C1.92031 25.4298 1.95155 25.447 1.98186 25.4639L12.9453 31.5546L13.0334 31.6039C13.3569 31.7851 13.7638 32.013 14.2191 32.1066C14.6129 32.1876 15.0191 32.1876 15.4129 32.1066C15.8681 32.013 16.275 31.7851 16.5985 31.6039L16.6867 31.5546L27.6501 25.4639C27.6635 25.4564 27.6771 25.4489 27.6908 25.4413C27.7081 25.4317 27.7258 25.422 27.7436 25.4122C28.086 25.2236 28.5166 24.9864 28.8473 24.6276C29.1331 24.3174 29.3495 23.9498 29.4818 23.5492C29.6349 23.0859 29.6331 22.5944 29.6316 22.2035C29.6315 22.1669 29.6314 22.1313 29.6314 22.0966V10.0708C29.6314 10.0361 29.6315 10.0004 29.6316 9.9639C29.6331 9.57296 29.6349 9.08142 29.4818 8.61813C29.3495 8.2176 29.1331 7.84993 28.8473 7.53972C28.5166 7.18092 28.086 6.94377 27.7436 6.75516L27.7424 6.7545C27.7108 6.7371 27.68 6.72012 27.6501 6.7035L16.6867 0.612716L16.5985 0.563456C16.275 0.382274 15.8681 0.154375 15.4129 0.0607475ZM14.3843 3.20292C14.6088 3.07819 14.7234 3.01516 14.8089 2.97393L14.816 2.97054L14.823 2.97393C14.9085 3.01516 15.0232 3.07819 15.2477 3.20292L25.0991 8.67593L14.8159 14.3888L4.53279 8.67596L14.3843 3.20292ZM2.96363 11.1939L13.3344 16.9554L13.3344 28.3812L3.42086 22.8737C3.18388 22.742 3.06289 22.6741 2.978 22.62L2.97083 22.6154L2.9703 22.6069C2.96425 22.5064 2.96363 22.3677 2.96363 22.0966V11.1939Z" fill="#666666"/>
<path d="M43.1159 21.0338H47.8321V23.813H39.5156V9.03286H43.1159V21.0338Z" fill="#666666"/>
<path d="M51.1494 10.8435C50.5178 10.8435 49.9985 10.6611 49.5914 10.2961C49.1984 9.91714 49.0019 9.45394 49.0019 8.90653C49.0019 8.34509 49.1984 7.88189 49.5914 7.51695C49.9985 7.13797 50.5178 6.94849 51.1494 6.94849C51.767 6.94849 52.2723 7.13797 52.6653 7.51695C53.0724 7.88189 53.2759 8.34509 53.2759 8.90653C53.2759 9.45394 53.0724 9.91714 52.6653 10.2961C52.2723 10.6611 51.767 10.8435 51.1494 10.8435ZM52.939 12.0647V23.813H49.3388V12.0647H52.939Z" fill="#666666"/>
<path d="M59.8011 11.8962C60.6292 11.8962 61.3521 12.0647 61.9697 12.4015C62.6013 12.7384 63.0855 13.1805 63.4224 13.728V12.0647H67.0227V23.7919C67.0227 24.8727 66.8051 25.8482 66.37 26.7184C65.9489 27.6027 65.2962 28.3045 64.412 28.8239C63.5417 29.3432 62.4539 29.6029 61.1486 29.6029C59.4081 29.6029 57.9974 29.1888 56.9166 28.3607C55.8359 27.5466 55.2183 26.4377 55.0639 25.0341H58.622C58.7343 25.4833 59.001 25.8342 59.4221 26.0868C59.8432 26.3535 60.3625 26.4868 60.9801 26.4868C61.724 26.4868 62.3136 26.2693 62.7487 25.8342C63.1978 25.4131 63.4224 24.7323 63.4224 23.7919V22.1286C63.0715 22.676 62.5873 23.1252 61.9697 23.4761C61.3521 23.813 60.6292 23.9814 59.8011 23.9814C58.8326 23.9814 57.9553 23.7358 57.1693 23.2445C56.3833 22.7392 55.7587 22.0304 55.2955 21.118C54.8463 20.1916 54.6217 19.1249 54.6217 17.9178C54.6217 16.7106 54.8463 15.6509 55.2955 14.7386C55.7587 13.8262 56.3833 13.1244 57.1693 12.6331C57.9553 12.1419 58.8326 11.8962 59.8011 11.8962ZM63.4224 17.9388C63.4224 17.0405 63.1698 16.3317 62.6645 15.8123C62.1732 15.293 61.5696 15.0333 60.8538 15.0333C60.1379 15.0333 59.5274 15.293 59.0221 15.8123C58.5308 16.3176 58.2852 17.0194 58.2852 17.9178C58.2852 18.8161 58.5308 19.5319 59.0221 20.0653C59.5274 20.5846 60.1379 20.8443 60.8538 20.8443C61.5696 20.8443 62.1732 20.5846 62.6645 20.0653C63.1698 19.546 63.4224 18.8371 63.4224 17.9388Z" fill="#666666"/>
<path d="M76.6384 11.9383C77.9859 11.9383 79.0667 12.3875 79.8808 13.2858C80.6949 14.1701 81.1019 15.3912 81.1019 16.9493V23.813H77.5227V17.4335C77.5227 16.6475 77.3192 16.0369 76.9121 15.6018C76.5051 15.1667 75.9577 14.9491 75.2699 14.9491C74.5821 14.9491 74.0347 15.1667 73.6276 15.6018C73.2206 16.0369 73.0171 16.6475 73.0171 17.4335V23.813H69.4168V8.2328H73.0171V13.6437C73.382 13.1244 73.8803 12.7103 74.5119 12.4015C75.1436 12.0927 75.8524 11.9383 76.6384 11.9383Z" fill="#666666"/>
<path d="M89.9411 20.7601V23.813H88.1094C86.804 23.813 85.7864 23.4971 85.0565 22.8655C84.3266 22.2198 83.9617 21.1741 83.9617 19.7284V15.0544H82.53V12.0647H83.9617V9.20129H87.562V12.0647H89.92V15.0544H87.562V19.7705C87.562 20.1214 87.6462 20.3741 87.8146 20.5285C87.983 20.6829 88.2638 20.7601 88.6568 20.7601H89.9411Z" fill="#666666"/>
<path d="M95.3362 13.728C95.6731 13.1805 96.1574 12.7384 96.789 12.4015C97.4206 12.0647 98.1435 11.8962 98.9576 11.8962C99.9261 11.8962 100.803 12.1419 101.589 12.6331C102.375 13.1244 102.993 13.8262 103.442 14.7386C103.905 15.6509 104.137 16.7106 104.137 17.9178C104.137 19.1249 103.905 20.1916 103.442 21.118C102.993 22.0304 102.375 22.7392 101.589 23.2445C100.803 23.7358 99.9261 23.9814 98.9576 23.9814C98.1294 23.9814 97.4066 23.82 96.789 23.4971C96.1714 23.1603 95.6871 22.7181 95.3362 22.1707V23.813H91.736V8.2328H95.3362V13.728ZM100.473 17.9178C100.473 17.0194 100.221 16.3176 99.7155 15.8123C99.2243 15.293 98.6137 15.0333 97.8838 15.0333C97.168 15.0333 96.5574 15.293 96.0521 15.8123C95.5608 16.3317 95.3152 17.0405 95.3152 17.9388C95.3152 18.8371 95.5608 19.546 96.0521 20.0653C96.5574 20.5846 97.168 20.8443 97.8838 20.8443C98.5996 20.8443 99.2102 20.5846 99.7155 20.0653C100.221 19.5319 100.473 18.8161 100.473 17.9178Z" fill="#666666"/>
<path d="M111.163 23.9814C110.012 23.9814 108.973 23.7358 108.047 23.2445C107.135 22.7532 106.412 22.0514 105.878 21.1391C105.359 20.2267 105.099 19.16 105.099 17.9388C105.099 16.7317 105.366 15.672 105.899 14.7596C106.433 13.8332 107.163 13.1244 108.089 12.6331C109.015 12.1419 110.054 11.8962 111.205 11.8962C112.356 11.8962 113.395 12.1419 114.321 12.6331C115.247 13.1244 115.977 13.8332 116.511 14.7596C117.044 15.672 117.311 16.7317 117.311 17.9388C117.311 19.1459 117.037 20.2127 116.49 21.1391C115.956 22.0514 115.219 22.7532 114.279 23.2445C113.353 23.7358 112.314 23.9814 111.163 23.9814ZM111.163 20.8654C111.851 20.8654 112.433 20.6127 112.91 20.1074C113.402 19.6021 113.647 18.8792 113.647 17.9388C113.647 16.9984 113.409 16.2755 112.932 15.7702C112.468 15.2649 111.893 15.0123 111.205 15.0123C110.503 15.0123 109.921 15.2649 109.458 15.7702C108.994 16.2615 108.763 16.9844 108.763 17.9388C108.763 18.8792 108.987 19.6021 109.437 20.1074C109.9 20.6127 110.475 20.8654 111.163 20.8654Z" fill="#666666"/>
<path d="M125.958 23.813L123.705 20.5495L121.81 23.813H117.915L121.789 17.8125L117.81 12.0647H121.853L124.105 15.307L126 12.0647H129.895L125.958 17.9809L130.001 23.813H125.958Z" fill="#666666"/>
</svg>
