<svg width="152" height="35" viewBox="0 0 152 35" fill="none" xmlns="http://www.w3.org/2000/svg">
<path d="M49.99 6.94V28H44.86V6.94H49.99ZM63.9077 11.08C65.8677 11.08 67.4277 11.72 68.5877 13C69.7677 14.26 70.3577 16 70.3577 18.22V28H65.2577V18.91C65.2577 17.79 64.9677 16.92 64.3877 16.3C63.8077 15.68 63.0277 15.37 62.0477 15.37C61.0677 15.37 60.2877 15.68 59.7077 16.3C59.1277 16.92 58.8377 17.79 58.8377 18.91V28H53.7077V11.26H58.8377V13.48C59.3577 12.74 60.0577 12.16 60.9377 11.74C61.8177 11.3 62.8077 11.08 63.9077 11.08ZM72.9025 19.6C72.9025 17.88 73.2225 16.37 73.8625 15.07C74.5225 13.77 75.4125 12.77 76.5325 12.07C77.6525 11.37 78.9025 11.02 80.2825 11.02C81.3825 11.02 82.3825 11.25 83.2825 11.71C84.2025 12.17 84.9225 12.79 85.4425 13.57V5.8H90.5725V28H85.4425V25.6C84.9625 26.4 84.2725 27.04 83.3725 27.52C82.4925 28 81.4625 28.24 80.2825 28.24C78.9025 28.24 77.6525 27.89 76.5325 27.19C75.4125 26.47 74.5225 25.46 73.8625 24.16C73.2225 22.84 72.9025 21.32 72.9025 19.6ZM85.4425 19.63C85.4425 18.35 85.0825 17.34 84.3625 16.6C83.6625 15.86 82.8025 15.49 81.7825 15.49C80.7625 15.49 79.8925 15.86 79.1725 16.6C78.4725 17.32 78.1225 18.32 78.1225 19.6C78.1225 20.88 78.4725 21.9 79.1725 22.66C79.8925 23.4 80.7625 23.77 81.7825 23.77C82.8025 23.77 83.6625 23.4 84.3625 22.66C85.0825 21.92 85.4425 20.91 85.4425 19.63ZM110.814 11.26V28H105.684V25.72C105.164 26.46 104.454 27.06 103.554 27.52C102.674 27.96 101.694 28.18 100.614 28.18C99.3338 28.18 98.2038 27.9 97.2238 27.34C96.2438 26.76 95.4838 25.93 94.9438 24.85C94.4038 23.77 94.1338 22.5 94.1338 21.04V11.26H99.2338V20.35C99.2338 21.47 99.5238 22.34 100.104 22.96C100.684 23.58 101.464 23.89 102.444 23.89C103.444 23.89 104.234 23.58 104.814 22.96C105.394 22.34 105.684 21.47 105.684 20.35V11.26H110.814ZM119.629 14.05C120.229 13.13 120.979 12.41 121.879 11.89C122.779 11.35 123.779 11.08 124.879 11.08V16.51H123.469C122.189 16.51 121.229 16.79 120.589 17.35C119.949 17.89 119.629 18.85 119.629 20.23V28H114.499V11.26H119.629V14.05ZM129.911 9.52C129.011 9.52 128.271 9.26 127.691 8.74C127.131 8.2 126.851 7.54 126.851 6.76C126.851 5.96 127.131 5.3 127.691 4.78C128.271 4.24 129.011 3.97 129.911 3.97C130.791 3.97 131.511 4.24 132.071 4.78C132.651 5.3 132.941 5.96 132.941 6.76C132.941 7.54 132.651 8.2 132.071 8.74C131.511 9.26 130.791 9.52 129.911 9.52ZM132.461 11.26V28H127.331V11.26H132.461ZM142.988 28.24C141.528 28.24 140.228 27.99 139.088 27.49C137.948 26.99 137.048 26.31 136.388 25.45C135.728 24.57 135.358 23.59 135.278 22.51H140.348C140.408 23.09 140.678 23.56 141.158 23.92C141.638 24.28 142.228 24.46 142.928 24.46C143.568 24.46 144.058 24.34 144.398 24.1C144.758 23.84 144.938 23.51 144.938 23.11C144.938 22.63 144.688 22.28 144.188 22.06C143.688 21.82 142.878 21.56 141.758 21.28C140.558 21 139.558 20.71 138.758 20.41C137.958 20.09 137.268 19.6 136.688 18.94C136.108 18.26 135.818 17.35 135.818 16.21C135.818 15.25 136.078 14.38 136.598 13.6C137.138 12.8 137.918 12.17 138.938 11.71C139.978 11.25 141.208 11.02 142.628 11.02C144.728 11.02 146.378 11.54 147.578 12.58C148.798 13.62 149.498 15 149.678 16.72H144.938C144.858 16.14 144.598 15.68 144.158 15.34C143.738 15 143.178 14.83 142.478 14.83C141.878 14.83 141.418 14.95 141.098 15.19C140.778 15.41 140.618 15.72 140.618 16.12C140.618 16.6 140.868 16.96 141.368 17.2C141.888 17.44 142.688 17.68 143.768 17.92C145.008 18.24 146.018 18.56 146.798 18.88C147.578 19.18 148.258 19.68 148.838 20.38C149.438 21.06 149.748 21.98 149.768 23.14C149.768 24.12 149.488 25 148.928 25.78C148.388 26.54 147.598 27.14 146.558 27.58C145.538 28.02 144.348 28.24 142.988 28.24Z" fill="white"/>
<path d="M2.37983 21.588V20.2811H2.88665V17.5018H3.11981V16.9326H5.18859V17.5018H5.42175V19.4535H6.55735V19.9821H7.38906V23.4816H7.8149V20.4496H9.66076V22.3201H10.0159V14.5941H10.1174V13.9026L11.9161 13.6077L13.7481 13.9026V14.5941H13.951V19.8198H14.59V20.1655H15.0769V18.6443H15.4115V13.4957H15.6498V12.5505H15.9742V11.991H17.2579L17.4034 10.3789H17.5971L17.7426 11.991H19.0263V12.5505H19.3507V13.4957H19.589V18.6438H19.9236V20.165H20.4105V19.8192H21.0495V14.5941H21.2524V13.9026L23.0844 13.6077L24.8832 13.9026V14.5941H24.9846V22.3206H25.3398V20.4501H27.1856V23.4821H27.6115V19.9826H28.4432V19.454H29.5788V17.5023H29.8119V16.9331H31.8807V17.5023H32.1139V20.2816H32.6207V21.5885L33.9956 22.8944C34.0837 22.9782 34.1099 23.102 34.0632 23.2145L33.2448 25.1862C33.1982 25.2987 33.0921 25.3675 32.9702 25.3634L30.989 25.3028C30.824 25.2977 30.6805 25.3752 30.5939 25.516C30.3792 25.8659 30.1507 26.207 29.9093 26.5373C29.8119 26.6709 29.7945 26.8342 29.8621 26.9853L30.6713 28.8008C30.721 28.9123 30.698 29.0366 30.6119 29.1229L29.1037 30.6312C29.0176 30.7175 28.8936 30.7401 28.7824 30.6898L26.9729 29.874C26.8223 29.8062 26.6593 29.8231 26.5261 29.9202C26.1956 30.1612 25.8553 30.3893 25.5058 30.6035C25.3654 30.6893 25.2875 30.8336 25.2921 30.9991L25.348 32.9857C25.3515 33.1079 25.2829 33.2138 25.1701 33.2605L23.2018 34.0763C23.0896 34.1231 22.9661 34.0963 22.8825 34.0075L21.5235 32.5634C21.4103 32.4432 21.254 32.3964 21.0936 32.4349C20.6974 32.53 20.2957 32.6101 19.8883 32.6738C19.7253 32.6995 19.5977 32.8028 19.5393 32.9574L18.8337 34.814C18.7901 34.9281 18.6866 35 18.5646 35H16.4349C16.3129 35 16.2094 34.9281 16.1658 34.814L15.4602 32.9574C15.4013 32.8028 15.2742 32.6995 15.1107 32.6738C14.7033 32.6101 14.3015 32.53 13.9054 32.4349C13.745 32.3964 13.5882 32.4432 13.4755 32.5634L12.1164 34.0075C12.0329 34.0963 11.9094 34.1231 11.7972 34.0763L9.82884 33.2605C9.7161 33.2138 9.64743 33.1079 9.65102 32.9857L9.70688 30.9991C9.71149 30.8342 9.6336 30.6898 9.49319 30.6035C9.14369 30.3893 8.80342 30.1612 8.47289 29.9202C8.33965 29.8231 8.17669 29.8062 8.02603 29.874L6.21656 30.6898C6.10536 30.7401 5.98135 30.717 5.89526 30.6312L4.38711 29.1229C4.30102 29.0366 4.27796 28.9123 4.32766 28.8008L5.13683 26.9853C5.20396 26.8342 5.18705 26.6709 5.08968 26.5373C4.84832 26.2065 4.62028 25.8659 4.40556 25.516C4.31947 25.3752 4.17547 25.2977 4.01046 25.3028L2.02931 25.3634C1.90735 25.367 1.80179 25.2987 1.75515 25.1862L0.936766 23.2145C0.890133 23.102 0.916268 22.9782 1.00441 22.8944L2.37983 21.588ZM17.2666 13.3154V13.7829H17.7329V13.3154H17.2666ZM17.2666 14.4235V14.891H17.7329V14.4235H17.2666ZM17.2666 15.5316V15.9991H17.7329V15.5316H17.2666ZM17.2666 16.6398V17.1073H17.7329V16.6398H17.2666ZM17.2666 17.7479V18.2154H17.7329V17.7479H17.2666ZM17.2666 18.856V19.3235H17.7329V18.856H17.2666ZM17.2666 19.9641V20.4321H17.7329V19.9641H17.2666ZM17.2666 21.0722V21.5397H17.7329V21.0722H17.2666ZM17.2666 22.1803V22.6478H17.7329V22.1803H17.2666ZM31.6106 19.1509H31.1443V19.6184H31.6106V19.1509ZM31.6106 20.259H31.1443V20.7265H31.6106V20.259ZM31.6106 21.3671H31.1443V21.8346H31.6106V21.3671ZM31.6106 22.4752H31.1443V22.9427H31.6106V22.4752ZM30.5463 18.5103H30.0799V18.9777H30.5463V18.5103ZM30.5463 19.6184H30.0799V20.0859H30.5463V19.6184ZM30.5463 20.7265H30.0799V21.194H30.5463V20.7265ZM30.5463 21.8346H30.0799V22.3021H30.5463V21.8346ZM30.5463 22.9427H30.0799V23.4102H30.5463V22.9427ZM31.6106 18.0428H31.1443V18.5103H31.6106V18.0428ZM29.2785 21.2145H28.8121V21.682H29.2785V21.2145ZM29.2785 22.3227H28.8121V22.7901H29.2785V22.3227ZM29.2785 23.4308H28.8121V23.8983H29.2785V23.4308ZM28.376 20.5739H27.9097V21.0414H28.376V20.5739ZM28.376 21.682H27.9097V22.1495H28.376V21.682ZM28.376 22.7901H27.9097V23.2576H28.376V22.7901ZM28.376 23.8983H27.9097V24.3658H28.376V23.8983ZM29.2785 20.1064H28.8121V20.5739H29.2785V20.1064ZM26.4917 21.8336V22.2302H26.8874V21.8336H26.4917ZM26.4917 20.8945V21.2911H26.8874V20.8945H26.4917ZM26.4917 22.7732V23.1698H26.8874V22.7732H26.4917ZM25.636 21.8336V22.2302H26.0316V21.8336H25.636ZM25.636 22.7732V23.1698H26.0316V22.7732H25.636ZM25.636 23.7123V24.1089H26.0316V23.7123H25.636ZM25.636 20.8945V21.2911H26.0316V20.8945H25.636ZM22.8339 16.0808V16.5483H23.3002V16.0808H22.8339ZM22.8339 17.1889V17.6569H23.3002V17.1889H22.8339ZM22.8339 18.2971V18.7646H23.3002V18.2971H22.8339ZM22.8339 19.4052V19.8727H23.3002V19.4052H22.8339ZM22.8339 20.5133V20.9808H23.3002V20.5133H22.8339ZM23.8987 15.4402V15.9077H24.3651V15.4402H23.8987ZM23.8987 16.5483V17.0158H24.3651V16.5483H23.8987ZM23.8987 17.6564V18.1239H24.3651V17.6564H23.8987ZM23.8987 18.7646V19.232H24.3651V18.7646H23.8987ZM23.8987 19.8727V20.3402H24.3651V19.8727H23.8987ZM24.3651 21.4483V20.9808H23.8987V21.4483H24.3651ZM22.2353 15.4402H21.769V15.9077H22.2353V15.4402ZM22.2353 16.5483H21.769V17.0158H22.2353V16.5483ZM22.2353 17.6564H21.769V18.1239H22.2353V17.6564ZM22.2353 18.7646H21.769V19.232H22.2353V18.7646ZM22.2353 19.8727H21.769V20.3402H22.2353V19.8727ZM21.769 21.4483H22.2353V20.9808H21.769V21.4483ZM22.8339 21.6214V22.0894H23.3002V21.6214H22.8339ZM22.8339 22.7295V23.197H23.3002V22.7295H22.8339ZM22.8339 23.8376V24.3051H23.3002V23.8376H22.8339ZM23.8987 22.0889V22.5564H24.3651V22.0889H23.8987ZM23.8987 23.197V23.6645H24.3651V23.197H23.8987ZM22.2353 22.0889H21.769V22.5564H22.2353V22.0889ZM22.2353 23.197H21.769V23.6645H22.2353V23.197ZM22.8339 14.9727V15.4402H23.3002V14.9727H22.8339ZM18.3315 13.7829V14.2509H18.7978V13.7829H18.3315ZM18.3315 14.891V15.3585H18.7978V14.891H18.3315ZM18.3315 15.9991V16.4666H18.7978V15.9991H18.3315ZM18.3315 17.1073V17.5747H18.7978V17.1073H18.3315ZM18.3315 18.2154V18.6829H18.7978V18.2154H18.3315ZM18.7978 19.7915V19.324H18.3315V19.7915H18.7978ZM18.3315 20.4316V20.8991H18.7978V20.4316H18.3315ZM18.3315 21.5397V22.0072H18.7978V21.5397H18.3315ZM3.38885 19.1509V19.6184H3.85518V19.1509H3.38885ZM3.38885 20.259V20.7265H3.85518V20.259H3.38885ZM3.38885 21.3671V21.8346H3.85518V21.3671H3.38885ZM3.38885 22.4752V22.9427H3.85518V22.4752H3.38885ZM4.45373 18.5103V18.9777H4.92006V18.5103H4.45373ZM4.45373 19.6184V20.0859H4.92006V19.6184H4.45373ZM4.45373 20.7265V21.194H4.92006V20.7265H4.45373ZM4.45373 21.8346V22.3021H4.92006V21.8346H4.45373ZM4.45373 22.9427V23.4102H4.92006V22.9427H4.45373ZM3.38885 18.0428V18.5103H3.85518V18.0428H3.38885ZM5.72102 21.2145V21.682H6.18735V21.2145H5.72102ZM5.72102 22.3227V22.7901H6.18735V22.3227H5.72102ZM5.72102 23.4308V23.8983H6.18735V23.4308H5.72102ZM6.62345 20.5739V21.0414H7.0903V20.5739H6.62345ZM6.62345 21.682V22.1495H7.0903V21.682H6.62345ZM6.62345 22.7901V23.2576H7.0903V22.7901H6.62345ZM6.62345 23.8983V24.3658H7.0903V23.8983H6.62345ZM5.72102 20.1064V20.5739H6.18735V20.1064H5.72102ZM8.50774 21.8336H8.11213V22.2302H8.50774V21.8336ZM8.50774 20.8945H8.11213V21.2911H8.50774V20.8945ZM8.50774 22.7732H8.11213V23.1698H8.50774V22.7732ZM9.36353 21.8336H8.96792V22.2302H9.36353V21.8336ZM9.36353 22.7732H8.96792V23.1698H9.36353V22.7732ZM9.36353 23.7123H8.96792V24.1089H9.36353V23.7123ZM9.36353 20.8945H8.96792V21.2911H9.36353V20.8945ZM12.1656 16.0808H11.6993V16.5483H12.1656V16.0808ZM12.1656 17.1889H11.6993V17.6569H12.1656V17.1889ZM12.1656 18.2971H11.6993V18.7646H12.1656V18.2971ZM12.1656 19.4052H11.6993V19.8727H12.1656V19.4052ZM12.1656 20.5133H11.6993V20.9808H12.1656V20.5133ZM11.1007 15.4402H10.6344V15.9077H11.1007V15.4402ZM11.1007 16.5483H10.6344V17.0158H11.1007V16.5483ZM11.1007 17.6564H10.6344V18.1239H11.1007V17.6564ZM11.1007 18.7646H10.6344V19.232H11.1007V18.7646ZM11.1007 19.8727H10.6344V20.3402H11.1007V19.8727ZM10.6344 21.4483H11.1007V20.9808H10.6344V21.4483ZM12.7642 15.4402V15.9077H13.2305V15.4402H12.7642ZM12.7642 16.5483V17.0158H13.2305V16.5483H12.7642ZM12.7642 17.6564V18.1239H13.2305V17.6564H12.7642ZM12.7642 18.7646V19.232H13.2305V18.7646H12.7642ZM12.7642 19.8727V20.3402H13.2305V19.8727H12.7642ZM13.2305 21.4483V20.9808H12.7642V21.4483H13.2305ZM12.1656 21.6214H11.6993V22.0894H12.1656V21.6214ZM12.1656 22.7295H11.6993V23.197H12.1656V22.7295ZM12.1656 23.8376H11.6993V24.3051H12.1656V23.8376ZM11.1007 22.0889H10.6344V22.5564H11.1007V22.0889ZM11.1007 23.197H10.6344V23.6645H11.1007V23.197ZM12.7642 22.0889V22.5564H13.2305V22.0889H12.7642ZM12.7642 23.197V23.6645H13.2305V23.197H12.7642ZM12.1656 14.9727H11.6993V15.4402H12.1656V14.9727ZM16.668 13.7829H16.2017V14.2509H16.668V13.7829ZM16.668 14.891H16.2017V15.3585H16.668V14.891ZM16.668 15.9991H16.2017V16.4666H16.668V15.9991ZM16.668 17.1073H16.2017V17.5747H16.668V17.1073ZM16.668 18.2154H16.2017V18.6829H16.668V18.2154ZM16.2017 19.7915H16.668V19.324H16.2017V19.7915ZM16.668 20.4316H16.2017V20.8991H16.668V20.4316ZM16.668 21.5397H16.2017V22.0072H16.668V21.5397Z" fill="#FF5E15"/>
<path fill-rule="evenodd" clip-rule="evenodd" d="M16.4349 0C16.3129 0 16.2094 0.0719224 16.1658 0.185971L15.4602 2.0426C15.4013 2.19723 15.2742 2.30049 15.1107 2.32618C14.7033 2.38988 14.3015 2.47002 13.9054 2.56506C13.745 2.60359 13.5882 2.55684 13.4755 2.43663L12.1164 0.992529C12.0329 0.903653 11.9094 0.876939 11.7972 0.923689L9.82884 1.74001C9.7161 1.78676 9.64743 1.89259 9.65102 2.01485L9.70688 4.00145C9.71149 4.16636 9.6336 4.31072 9.49319 4.39703C9.14369 4.61125 8.80342 4.83935 8.47289 5.08029C8.33965 5.17738 8.17669 5.19434 8.02603 5.12652L6.21708 4.31021C6.10587 4.25986 5.98186 4.28298 5.89577 4.36929L4.38762 5.8776C4.30153 5.96391 4.27847 6.08823 4.32818 6.19971L5.13734 8.01524C5.20447 8.16627 5.18756 8.32964 5.09019 8.46321C4.84883 8.79405 4.62079 9.13466 4.40607 9.48451C4.31998 9.62527 4.17598 9.70284 4.01097 9.69771L2.02983 9.63709C1.90786 9.63349 1.8023 9.70182 1.75567 9.81432L0.937279 11.786C0.890646 11.8985 0.91678 12.0223 1.00492 12.1061L2.44184 13.4711C2.56124 13.5846 2.60787 13.7418 2.56893 13.9026C2.4731 14.2997 2.39213 14.703 2.32756 15.1119C2.30143 15.2753 2.19791 15.4027 2.04366 15.4613L0.191148 16.164C0.0773836 16.2072 0.00564002 16.311 0.00512757 16.4332L2.72717e-06 18.5683C-0.000509725 18.6906 0.0712339 18.7949 0.184486 18.8385L2.03444 19.55C2.04879 19.5557 2.06314 19.5619 2.07697 19.5685H2.08312L2.33166 19.6641V16.9454H2.56483V16.3762H5.22497C5.8107 10.0969 11.0828 5.18201 17.4997 5.18201C23.9167 5.18201 29.1888 10.0969 29.7745 16.3762H32.4347V16.9454H32.6678V19.6641L32.9164 19.5685H32.9225C32.9364 19.5619 32.9502 19.5557 32.965 19.55L34.8155 18.8385C34.9293 18.7949 35.0005 18.6906 35 18.5683L34.9949 16.4332C34.9949 16.311 34.9231 16.2072 34.8089 16.164L32.9563 15.4613C32.8021 15.4027 32.6986 15.2753 32.6724 15.1119C32.6079 14.7035 32.5274 14.3002 32.4311 13.9026C32.3921 13.7423 32.4388 13.5851 32.5582 13.4711L33.9951 12.1061C34.0837 12.0223 34.1099 11.8985 34.0627 11.786L33.2443 9.81432C33.1977 9.70182 33.0916 9.63298 32.9702 9.63709L30.989 9.69771C30.8245 9.70284 30.6805 9.62527 30.5939 9.48451C30.3792 9.13466 30.1507 8.79354 29.9098 8.46321C29.8124 8.32964 29.795 8.16627 29.8627 8.01524L30.6718 6.19971C30.7215 6.08823 30.6985 5.96391 30.6124 5.8776L29.1042 4.36929C29.0181 4.28298 28.8941 4.26037 28.7829 4.31021L26.9735 5.12601C26.8228 5.19382 26.6598 5.17687 26.5266 5.07978C26.1961 4.83884 25.8563 4.61074 25.5063 4.39651C25.3659 4.31021 25.288 4.16636 25.2926 4.00094L25.3485 2.01434C25.3521 1.89207 25.2834 1.78624 25.1706 1.73949L23.2023 0.923175C23.0896 0.876426 22.9666 0.90314 22.8831 0.992015L21.5245 2.43611C21.4118 2.55633 21.255 2.60308 21.0946 2.56455C20.6985 2.46951 20.2967 2.38936 19.8893 2.32566C19.7258 2.29998 19.5987 2.19672 19.5398 2.04208L18.8337 0.185971C18.7906 0.0719224 18.6866 0 18.5646 0H16.4349Z" fill="#FF5E15"/>
</svg>
