<svg width="140" height="114" viewBox="0 0 140 114" fill="none" xmlns="http://www.w3.org/2000/svg">
<g clip-path="url(#clip0_2354_6)">
<rect y="-26.2935" width="140" height="140" rx="70" fill="#FF5E15"/>
</g>
<mask id="mask0_2354_6" style="mask-type:alpha" maskUnits="userSpaceOnUse" x="0" y="0" width="140" height="109">
<path d="M6.18648 49.4772V43.7085H8.32548V31.4407H9.30951V28.9282H18.0406V31.4407H19.0247V40.0555H23.8174V42.3887H27.3276V57.8356H29.1248V44.4523H36.9151V52.7087H38.4139V18.606H38.8423V15.5537L46.4336 14.252L54.1654 15.5537V18.606H55.0217V41.6724H57.7186V43.1983H59.7735V36.4837H61.1856V13.7576H62.1914V9.58549H63.5605V7.11585H68.9782L69.5923 0H70.4098L71.0239 7.11585H76.4416V9.58549H77.8107V13.7576H78.8165V36.4815H80.2286V43.1961H82.2835V41.6697H84.9804V18.606H85.8367V15.5537L93.5685 14.252L101.16 15.5537V18.606H101.588V52.7109H103.087V44.4545H110.877V57.8378H112.675V42.391H116.185V40.0577H120.978V31.4429H121.961V28.9304H130.693V31.4429H131.677V43.7108H133.816V49.4794L139.618 55.2437C139.99 55.6136 140.101 56.1601 139.904 56.6566L136.45 65.3598C136.253 65.8563 135.805 66.16 135.291 66.1419L126.929 65.8744C126.233 65.8519 125.627 66.194 125.262 66.8155C124.356 68.36 123.391 69.8656 122.372 71.3236C121.961 71.9133 121.888 72.6341 122.173 73.301L125.588 81.3147C125.798 81.8069 125.701 82.3555 125.338 82.7365L118.973 89.3941C118.609 89.7751 118.086 89.8748 117.617 89.6528L109.98 86.0518C109.344 85.7526 108.656 85.8272 108.094 86.2558C106.699 87.3195 105.263 88.3264 103.788 89.2719C103.195 89.6506 102.867 90.2875 102.886 91.0181L103.122 99.7869C103.137 100.326 102.847 100.794 102.371 101L94.064 104.601C93.5905 104.807 93.0693 104.689 92.7164 104.297L86.9809 97.9229C86.5031 97.3923 85.8435 97.1858 85.1665 97.3557C83.4944 97.7755 81.799 98.129 80.0796 98.4102C79.3917 98.5237 78.8532 98.9796 78.6067 99.662L75.6288 107.857C75.4448 108.361 75.008 108.678 74.4931 108.678H65.5048C64.9899 108.678 64.5531 108.361 64.3691 107.857L61.3912 99.662C61.1426 98.9796 60.6062 98.5237 59.9161 98.4102C58.1967 98.129 56.501 97.7755 54.8293 97.3557C54.1523 97.1858 53.4906 97.3923 53.0149 97.9229L47.2789 104.297C46.9265 104.689 46.4053 104.807 45.9318 104.601L37.6245 101C37.1487 100.794 36.8588 100.326 36.874 99.7869L37.1097 91.0181C37.1292 90.2902 36.8005 89.6528 36.2079 89.2719C34.7328 88.3264 33.2968 87.3195 31.9018 86.2558C31.3394 85.8272 30.6517 85.7526 30.0158 86.0518L22.3791 89.6528C21.9098 89.8748 21.3864 89.7729 21.0231 89.3941L14.6581 82.7365C14.2947 82.3555 14.1974 81.8069 14.4072 81.3147L17.8222 73.301C18.1055 72.6341 18.0341 71.9133 17.6232 71.3236C16.6046 69.8634 15.6421 68.36 14.7359 66.8155C14.3726 66.194 13.7648 65.8519 13.0684 65.8744L4.70714 66.1419C4.19242 66.1578 3.74691 65.8563 3.55007 65.3598L0.0961438 56.6566C-0.100667 56.1601 0.00963362 55.6136 0.38163 55.2437L6.18648 49.4772ZM69.0149 12.9618V15.0253H70.9829V12.9618H69.0149ZM69.0149 17.853V19.9165H70.9829V17.853H69.0149ZM69.0149 22.7441V24.8077H70.9829V22.7441H69.0149ZM69.0149 27.6358V29.6993H70.9829V27.6358H69.0149ZM69.0149 32.5269V34.5905H70.9829V32.5269H69.0149ZM69.0149 37.4181V39.4817H70.9829V37.4181H69.0149ZM69.0149 42.3093V44.3751H70.9829V42.3093H69.0149ZM69.0149 47.2005V49.264H70.9829V47.2005H69.0149ZM69.0149 52.0917V54.1552H70.9829V52.0917H69.0149ZM129.553 38.7198H127.585V40.7834H129.553V38.7198ZM129.553 43.611H127.585V45.6745H129.553V43.611ZM129.553 48.5022H127.585V50.5657H129.553V48.5022ZM129.553 53.3934H127.585V55.4569H129.553V53.3934ZM125.061 35.8922H123.093V37.9553H125.061V35.8922ZM125.061 40.7834H123.093V42.8469H125.061V40.7834ZM125.061 45.6745H123.093V47.7381H125.061V45.6745ZM125.061 50.5657H123.093V52.6293H125.061V50.5657ZM125.061 55.4569H123.093V57.5205H125.061V55.4569ZM129.553 33.8286H127.585V35.8922H129.553V33.8286ZM119.71 47.8286H117.742V49.8921H119.71V47.8286ZM119.71 52.7202H117.742V54.7833H119.71V52.7202ZM119.71 57.6114H117.742V59.675H119.71V57.6114ZM115.901 45.001H113.933V47.0645H115.901V45.001ZM115.901 49.8921H113.933V51.9557H115.901V49.8921ZM115.901 54.7833H113.933V56.8469H115.901V54.7833ZM115.901 59.675H113.933V61.7385H115.901V59.675ZM119.71 42.9374H117.742V45.001H119.71V42.9374ZM107.949 50.5613V52.3119H109.619V50.5613H107.949ZM107.949 46.4161V48.1667H109.619V46.4161H107.949ZM107.949 54.7087V56.4593H109.619V54.7087H107.949ZM104.337 50.5613V52.3119H106.007V50.5613H104.337ZM104.337 54.7087V56.4593H106.007V54.7087H104.337ZM104.337 58.8539V60.6045H106.007V58.8539H104.337ZM104.337 46.4161V48.1667H106.007V46.4161H104.337ZM92.5113 25.1683V27.2319H94.4793V25.1683H92.5113ZM92.5113 30.0595V32.1253H94.4793V30.0595H92.5113ZM92.5113 34.9511V37.0147H94.4793V34.9511H92.5113ZM92.5113 39.8423V41.9059H94.4793V39.8423H92.5113ZM92.5113 44.7335V46.797H94.4793V44.7335H92.5113ZM97.0052 22.3407V24.4043H98.9736V22.3407H97.0052ZM97.0052 27.2319V29.2954H98.9736V27.2319H97.0052ZM97.0052 32.1231V34.1866H98.9736V32.1231H97.0052ZM97.0052 37.0147V39.0778H98.9736V37.0147H97.0052ZM97.0052 41.9059V43.9694H98.9736V41.9059H97.0052ZM98.9736 48.8606V46.797H97.0052V48.8606H98.9736ZM89.985 22.3407H88.017V24.4043H89.985V22.3407ZM89.985 27.2319H88.017V29.2954H89.985V27.2319ZM89.985 32.1231H88.017V34.1866H89.985V32.1231ZM89.985 37.0147H88.017V39.0778H89.985V37.0147ZM89.985 41.9059H88.017V43.9694H89.985V41.9059ZM88.017 48.8606H89.985V46.797H88.017V48.8606ZM92.5113 49.6247V51.6904H94.4793V49.6247H92.5113ZM92.5113 54.5158V56.5794H94.4793V54.5158H92.5113ZM92.5113 59.407V61.4706H94.4793V59.407H92.5113ZM97.0052 51.6882V53.7518H98.9736V51.6882H97.0052ZM97.0052 56.5794V58.6429H98.9736V56.5794H97.0052ZM89.985 51.6882H88.017V53.7518H89.985V51.6882ZM89.985 56.5794H88.017V58.6429H89.985V56.5794ZM92.5113 20.2771V22.3407H94.4793V20.2771H92.5113ZM73.5093 15.0253V17.0911H75.4773V15.0253H73.5093ZM73.5093 19.9165V21.9801H75.4773V19.9165H73.5093ZM73.5093 24.8077V26.8713H75.4773V24.8077H73.5093ZM73.5093 29.6993V31.7624H75.4773V29.6993H73.5093ZM73.5093 34.5905V36.654H75.4773V34.5905H73.5093ZM75.4773 41.5474V39.4839H73.5093V41.5474H75.4773ZM73.5093 44.3729V46.4364H75.4773V44.3729H73.5093ZM73.5093 49.264V51.3276H75.4773V49.264H73.5093ZM10.445 38.7198V40.7834H12.4131V38.7198H10.445ZM10.445 43.611V45.6745H12.4131V43.611H10.445ZM10.445 48.5022V50.5657H12.4131V48.5022H10.445ZM10.445 53.3934V55.4569H12.4131V53.3934H10.445ZM14.9392 35.8922V37.9553H16.9073V35.8922H14.9392ZM14.9392 40.7834V42.8469H16.9073V40.7834H14.9392ZM14.9392 45.6745V47.7381H16.9073V45.6745H14.9392ZM14.9392 50.5657V52.6293H16.9073V50.5657H14.9392ZM14.9392 55.4569V57.5205H16.9073V55.4569H14.9392ZM10.445 33.8286V35.8922H12.4131V33.8286H10.445ZM20.2877 47.8286V49.8921H22.2558V47.8286H20.2877ZM20.2877 52.7202V54.7833H22.2558V52.7202H20.2877ZM20.2877 57.6114V59.675H22.2558V57.6114H20.2877ZM24.0964 45.001V47.0645H26.0667V45.001H24.0964ZM24.0964 49.8921V51.9557H26.0667V49.8921H24.0964ZM24.0964 54.7833V56.8469H26.0667V54.7833H24.0964ZM24.0964 59.675V61.7385H26.0667V59.675H24.0964ZM20.2877 42.9374V45.001H22.2558V42.9374H20.2877ZM32.0489 50.5613H30.3792V52.3119H32.0489V50.5613ZM32.0489 46.4161H30.3792V48.1667H32.0489V46.4161ZM32.0489 54.7087H30.3792V56.4593H32.0489V54.7087ZM35.6607 50.5613H33.991V52.3119H35.6607V50.5613ZM35.6607 54.7087H33.991V56.4593H35.6607V54.7087ZM35.6607 58.8539H33.991V60.6045H35.6607V58.8539ZM35.6607 46.4161H33.991V48.1667H35.6607V46.4161ZM47.4866 25.1683H45.5186V27.2319H47.4866V25.1683ZM47.4866 30.0595H45.5186V32.1253H47.4866V30.0595ZM47.4866 34.9511H45.5186V37.0147H47.4866V34.9511ZM47.4866 39.8423H45.5186V41.9059H47.4866V39.8423ZM47.4866 44.7335H45.5186V46.797H47.4866V44.7335ZM42.9922 22.3407H41.0243V24.4043H42.9922V22.3407ZM42.9922 27.2319H41.0243V29.2954H42.9922V27.2319ZM42.9922 32.1231H41.0243V34.1866H42.9922V32.1231ZM42.9922 37.0147H41.0243V39.0778H42.9922V37.0147ZM42.9922 41.9059H41.0243V43.9694H42.9922V41.9059ZM41.0243 48.8606H42.9922V46.797H41.0243V48.8606ZM50.0129 22.3407V24.4043H51.9809V22.3407H50.0129ZM50.0129 27.2319V29.2954H51.9809V27.2319H50.0129ZM50.0129 32.1231V34.1866H51.9809V32.1231H50.0129ZM50.0129 37.0147V39.0778H51.9809V37.0147H50.0129ZM50.0129 41.9059V43.9694H51.9809V41.9059H50.0129ZM51.9809 48.8606V46.797H50.0129V48.8606H51.9809ZM47.4866 49.6247H45.5186V51.6904H47.4866V49.6247ZM47.4866 54.5158H45.5186V56.5794H47.4866V54.5158ZM47.4866 59.407H45.5186V61.4706H47.4866V59.407ZM42.9922 51.6882H41.0243V53.7518H42.9922V51.6882ZM42.9922 56.5794H41.0243V58.6429H42.9922V56.5794ZM50.0129 51.6882V53.7518H51.9809V51.6882H50.0129ZM50.0129 56.5794V58.6429H51.9809V56.5794H50.0129ZM47.4866 20.2771H45.5186V22.3407H47.4866V20.2771ZM66.4886 15.0253H64.5206V17.0911H66.4886V15.0253ZM66.4886 19.9165H64.5206V21.9801H66.4886V19.9165ZM66.4886 24.8077H64.5206V26.8713H66.4886V24.8077ZM66.4886 29.6993H64.5206V31.7624H66.4886V29.6993ZM66.4886 34.5905H64.5206V36.654H66.4886V34.5905ZM64.5206 41.5474H66.4886V39.4839H64.5206V41.5474ZM66.4886 44.3729H64.5206V46.4364H66.4886V44.3729ZM66.4886 49.264H64.5206V51.3276H66.4886V49.264Z" fill="#FF5E15"/>
</mask>
<g mask="url(#mask0_2354_6)">
<rect width="140" height="62.3072" fill="#FF5E15"/>
</g>
<defs>
<clipPath id="clip0_2354_6">
<rect width="140" height="52.2936" fill="white" transform="translate(0 61.7065)"/>
</clipPath>
</defs>
</svg>
