<svg width="35" height="35" viewBox="0 0 35 35" fill="none" xmlns="http://www.w3.org/2000/svg">
<path d="M24.1472 20.733H22.8184C22.7168 20.1803 22.5713 19.6364 22.3838 19.1075L23.5335 18.4438C23.6514 18.3758 23.7372 18.2638 23.7724 18.1325C23.8077 18.0011 23.7892 17.8611 23.7212 17.7434L22.2946 15.2729C22.153 15.0277 21.8395 14.9437 21.5944 15.0852L20.4422 15.7503C20.0777 15.3236 19.6797 14.9257 19.253 14.5612L19.9181 13.4095C19.9861 13.2917 20.0045 13.1517 19.9693 13.0204C19.9341 12.889 19.8482 12.777 19.7304 12.7091L17.2594 11.2827C17.0142 11.141 16.7007 11.225 16.5591 11.4702L15.8953 12.6199C15.3661 12.4323 14.822 12.2869 14.2693 12.1853V10.8569C14.2693 10.5737 14.0397 10.3442 13.7566 10.3442H10.9033C10.6202 10.3442 10.3907 10.5737 10.3907 10.8569V12.1853C9.83804 12.2869 9.29383 12.4323 8.76466 12.6199L8.10083 11.4702C7.95919 11.2251 7.64556 11.1412 7.40049 11.2827L4.92951 12.7091C4.81173 12.777 4.7258 12.889 4.6906 13.0204C4.65539 13.1517 4.67385 13.2917 4.74187 13.4095L5.40693 14.5612C4.98017 14.9257 4.58225 15.3235 4.21769 15.7503L3.06556 15.0852C2.82036 14.9435 2.5068 15.0276 2.36523 15.2728L0.93857 17.7434C0.870553 17.8612 0.852165 18.0011 0.887301 18.1325C0.922506 18.2638 1.00843 18.3758 1.12622 18.4438L2.27602 19.1075C2.08844 19.6365 1.94297 20.1804 1.84139 20.733H0.512693C0.22955 20.733 0 20.9625 0 21.2457V24.0984C0 24.3816 0.22955 24.6111 0.512693 24.6111H1.84139C1.94304 25.1636 2.08851 25.7075 2.27602 26.2366L1.12622 26.9003C1.00843 26.9682 0.922506 27.0803 0.887301 27.2116C0.852096 27.343 0.870553 27.4829 0.93857 27.6007L2.36523 30.0712C2.50687 30.3164 2.82029 30.4003 3.06556 30.2588L4.21769 29.5938C4.58225 30.0205 4.98023 30.4184 5.40693 30.7829L4.74187 31.9346C4.67385 32.0524 4.65546 32.1924 4.6906 32.3237C4.7258 32.455 4.81173 32.567 4.92951 32.635L7.40049 34.0614C7.64556 34.2028 7.95912 34.119 8.10083 33.8737L8.76466 32.7242C9.29376 32.9117 9.8379 33.0571 10.3907 33.1587V34.4871C10.3907 34.7703 10.6202 34.9998 10.9033 34.9998H13.7566C14.0397 34.9998 14.2693 34.7703 14.2693 34.4871V33.1587C14.822 33.0571 15.3662 32.9117 15.8953 32.7242L16.5591 33.8737C16.7007 34.119 17.0144 34.2029 17.2594 34.0614L19.7304 32.635C19.8482 32.567 19.9341 32.455 19.9693 32.3237C20.0045 32.1923 19.9861 32.0524 19.9181 31.9346L19.253 30.7829C19.6798 30.4184 20.0777 30.0205 20.4422 29.5938L21.5944 30.2588C21.8394 30.4004 22.153 30.3164 22.2946 30.0712L23.7212 27.6006C23.7892 27.4828 23.8077 27.3429 23.7724 27.2116C23.7372 27.0803 23.6514 26.9682 23.5335 26.9003L22.3838 26.2366C22.5713 25.7077 22.7168 25.1637 22.8184 24.6111H24.1472C24.4304 24.6111 24.6599 24.3816 24.6599 24.0984V21.2457C24.6599 20.9625 24.4304 20.733 24.1472 20.733ZM23.6345 23.5857H22.3824C22.1269 23.5857 21.9103 23.7739 21.8747 24.0269C21.7664 24.7967 21.5645 25.5518 21.2747 26.2712C21.1792 26.508 21.2727 26.7791 21.4939 26.9068L22.5769 27.532L21.663 29.1146L20.5779 28.4882C20.3568 28.3604 20.0757 28.415 19.9183 28.6157C19.4388 29.2267 18.8858 29.7794 18.2748 30.2587C18.0739 30.4163 18.0196 30.6975 18.1472 30.9186L18.7736 32.0033L17.1907 32.917L16.5653 31.834C16.4376 31.6129 16.1665 31.5195 15.9298 31.6149C15.2102 31.9047 14.4549 32.1066 13.6852 32.2148C13.4321 32.2505 13.2438 32.467 13.2438 32.7225V33.9744H11.416V32.7226C11.416 32.4671 11.2278 32.2505 10.9746 32.2149C10.2048 32.1066 9.44955 31.9048 8.73001 31.6149C8.49307 31.5195 8.22217 31.6131 8.09447 31.8341L7.46912 32.9171L5.8862 32.0033L6.51264 30.9186C6.64027 30.6976 6.58585 30.4163 6.38508 30.2588C5.77409 29.7795 5.22113 29.2267 4.74159 28.6157C4.58409 28.415 4.30293 28.3607 4.082 28.4882L2.99686 29.1146L2.08297 27.532L3.16598 26.9068C3.38719 26.7792 3.48071 26.5082 3.38521 26.2712C3.0953 25.5516 2.89337 24.7965 2.78516 24.027C2.74954 23.7739 2.53305 23.5857 2.27745 23.5857H1.02539V21.7584H2.27745C2.53298 21.7584 2.74954 21.5702 2.78516 21.3172C2.89337 20.5477 3.0953 19.7926 3.38521 19.0729C3.48064 18.836 3.38719 18.565 3.16598 18.4373L2.08297 17.8121L2.99686 16.2295L4.082 16.8559C4.30293 16.9835 4.58409 16.9291 4.74159 16.7284C5.22106 16.1174 5.77402 15.5647 6.38508 15.0854C6.58592 14.9278 6.64027 14.6466 6.51264 14.4255L5.8862 13.3408L7.46912 12.4271L8.09447 13.51C8.22217 13.7312 8.49314 13.8247 8.72994 13.7292C9.44983 13.4393 10.2051 13.2375 10.9746 13.1293C11.2277 13.0936 11.416 12.8771 11.416 12.6216V11.3698H13.2438V12.6216C13.2438 12.8771 13.432 13.0936 13.6852 13.1293C14.4547 13.2375 15.21 13.4393 15.9299 13.7292C16.1667 13.8247 16.4377 13.7312 16.5654 13.51L17.1907 12.4271L18.7737 13.3408L18.1473 14.4255C18.0197 14.6466 18.074 14.9279 18.2749 15.0854C18.8858 15.5647 19.4388 16.1175 19.9183 16.7284C20.0758 16.9292 20.357 16.9836 20.5779 16.8559L21.6631 16.2295L22.5769 17.8121L21.4939 18.4373C21.2727 18.565 21.1792 18.8361 21.2747 19.0729C21.5645 19.7923 21.7664 20.5474 21.8747 21.3172C21.9103 21.5702 22.1268 21.7584 22.3824 21.7584H23.6345V23.5857Z" fill="white"/>
<path d="M34.4876 5.43708H33.5407C33.4649 5.22407 33.3779 5.01469 33.2803 4.8105L33.949 4.14325C34.0454 4.04706 34.0996 3.9165 34.0996 3.78026C34.0996 3.64402 34.0454 3.51352 33.949 3.41727L31.5746 1.04829C31.3744 0.848678 31.0505 0.848678 30.8504 1.04829L30.1805 1.71663C29.9753 1.61888 29.7649 1.53186 29.5508 1.45605V0.512693C29.5508 0.229482 29.3213 0 29.0381 0H25.6801C25.3968 0 25.1674 0.229482 25.1674 0.512693V1.45619C24.9532 1.53193 24.7429 1.61902 24.5376 1.71677L23.8677 1.04842C23.6677 0.848883 23.3437 0.848815 23.1435 1.04842L20.769 3.41741C20.6726 3.51359 20.6184 3.64416 20.6184 3.7804C20.6184 3.91663 20.6725 4.04713 20.769 4.14338L21.4378 4.81064C21.3401 5.01489 21.2532 5.22421 21.1774 5.43722H20.2305C19.9473 5.43722 19.7178 5.6667 19.7178 5.94991V9.30012C19.7178 9.58333 19.9473 9.81281 20.2305 9.81281H21.1774C21.2531 10.0258 21.3401 10.2351 21.4378 10.4394L20.769 11.1066C20.6726 11.2028 20.6184 11.3334 20.6184 11.4696C20.6184 11.6059 20.6725 11.7364 20.769 11.8326L23.1435 14.2016C23.3437 14.4012 23.6676 14.4012 23.8677 14.2016L24.5376 13.5333C24.7429 13.631 24.9532 13.718 25.1674 13.7938V14.7373C25.1674 15.0205 25.3968 15.25 25.6801 15.25H29.0381C29.3213 15.25 29.5508 15.0205 29.5508 14.7373V13.7938C29.7649 13.7181 29.9753 13.631 30.1805 13.5333L30.8504 14.2016C31.0505 14.4012 31.3745 14.4013 31.5746 14.2016L33.949 11.8326C34.0454 11.7364 34.0996 11.6059 34.0996 11.4696C34.0996 11.3334 34.0454 11.2029 33.949 11.1066L33.2803 10.4394C33.3779 10.2352 33.4649 10.0258 33.5407 9.81281H34.4876C34.7709 9.81281 35.0003 9.58333 35.0003 9.30012V5.94977C35.0003 5.66663 34.7708 5.43708 34.4876 5.43708ZM33.975 8.78729H33.1674C32.9391 8.78729 32.7384 8.93823 32.6749 9.15752C32.5614 9.55004 32.4031 9.93087 32.2046 10.2893C32.0937 10.4896 32.1291 10.739 32.2911 10.9007L32.8611 11.4694L31.2126 13.1142L30.6408 12.5438C30.4794 12.3826 30.2309 12.3476 30.0312 12.4578C29.6719 12.6558 29.29 12.8138 28.8962 12.9272C28.6766 12.9904 28.5254 13.1913 28.5254 13.4198V14.2244H26.1928V13.4198C26.1928 13.1913 26.0416 12.9904 25.822 12.9272C25.4282 12.8138 25.0464 12.6558 24.6871 12.4578C24.4873 12.3475 24.2388 12.3826 24.0774 12.5438L23.5057 13.1142L21.8571 11.4694L22.4272 10.9007C22.5892 10.739 22.6245 10.4895 22.5137 10.2893C22.315 9.93066 22.1568 9.5499 22.0433 9.15759C21.9799 8.93829 21.7791 8.78729 21.5508 8.78729H20.7433V6.46247H21.5508C21.7791 6.46247 21.9799 6.31153 22.0433 6.09216C22.1568 5.69992 22.315 5.31909 22.5137 4.96041C22.6245 4.76019 22.5892 4.51074 22.4272 4.34907L21.8571 3.78033L23.5057 2.13554L24.0774 2.706C24.2389 2.86712 24.4875 2.90225 24.6871 2.79199C25.0464 2.59395 25.4282 2.43598 25.822 2.32257C26.0416 2.25934 26.1928 2.05843 26.1928 1.8299V1.02539H28.5254V1.8299C28.5254 2.05843 28.6766 2.25934 28.8962 2.32257C29.29 2.43598 29.6719 2.59395 30.0312 2.79199C30.231 2.90219 30.4794 2.86719 30.6408 2.706L31.2126 2.13554L32.8611 3.78033L32.2911 4.34907C32.1291 4.51074 32.0937 4.76025 32.2046 4.96041C32.4031 5.31882 32.5614 5.69965 32.6749 6.09223C32.7384 6.31153 32.9391 6.46247 33.1674 6.46247H33.975V8.78729Z" fill="white"/>
<path d="M27.3588 3.53979C26.6854 3.53979 26.0176 3.70666 25.4273 4.02241C25.1777 4.15592 25.0835 4.46661 25.2171 4.71626C25.3506 4.9659 25.6611 5.06024 25.9109 4.92653C26.3529 4.69014 26.8536 4.56518 27.3588 4.56518C29.0504 4.56518 30.4267 5.9377 30.4267 7.62473C30.4267 9.31183 29.0504 10.6843 27.3588 10.6843C25.6672 10.6843 24.291 9.31183 24.291 7.62473C24.291 7.14505 24.399 6.68609 24.612 6.26035C24.7388 6.00715 24.6362 5.69912 24.383 5.57245C24.1296 5.44585 23.8217 5.54825 23.6951 5.80152C23.4101 6.37096 23.2656 6.98441 23.2656 7.6248C23.2656 9.87723 25.1018 11.7098 27.3588 11.7098C29.6158 11.7098 31.452 9.87723 31.452 7.6248C31.452 5.37237 29.6158 3.53979 27.3588 3.53979Z" fill="white"/>
<path d="M12.3296 15.3389C8.28538 15.3389 4.99512 18.6286 4.99512 22.6722C4.99512 23.6619 5.18912 24.6223 5.57173 25.5268C5.68199 25.7875 5.98284 25.9094 6.24363 25.7992C6.50442 25.6889 6.62637 25.388 6.51604 25.1273C6.18716 24.3499 6.02044 23.5239 6.02044 22.6722C6.02044 19.194 8.85071 16.3643 12.3296 16.3643C15.8084 16.3643 18.6387 19.194 18.6387 22.6722C18.6387 26.1503 15.8084 28.98 12.3296 28.98C10.4649 28.98 8.70551 28.1615 7.50273 26.7343C7.32028 26.5178 6.99688 26.4902 6.78032 26.6727C6.56382 26.8552 6.53621 27.1786 6.71872 27.3951C8.1168 29.054 10.1619 30.0054 12.3296 30.0054C16.374 30.0054 19.6642 26.7157 19.6642 22.6722C19.6642 18.6286 16.3739 15.3389 12.3296 15.3389Z" fill="white"/>
<path d="M12.3299 18.544C12.7507 18.544 13.1656 18.607 13.5631 18.7311C13.8334 18.8156 14.1209 18.6649 14.2053 18.3946C14.2897 18.1243 14.139 17.8368 13.8688 17.7523C13.3723 17.5972 12.8545 17.5186 12.3299 17.5186C9.48789 17.5186 7.17578 19.8303 7.17578 22.6719C7.17578 25.5134 9.48796 27.8253 12.3299 27.8253C15.172 27.8253 17.4841 25.5135 17.4841 22.6719C17.4841 21.3333 16.9732 20.0649 16.0456 19.1003C15.8493 18.8964 15.5247 18.8899 15.3207 19.0862C15.1166 19.2825 15.1103 19.6071 15.3066 19.8111C16.0496 20.5837 16.4588 21.5997 16.4588 22.6719C16.4588 24.9481 14.6066 26.7999 12.33 26.7999C10.0534 26.7999 8.20124 24.9481 8.20124 22.6719C8.20124 20.3958 10.0532 18.544 12.3299 18.544Z" fill="white"/>
<path d="M34.4877 20.1297H34.0686C33.9806 19.5079 33.735 18.9362 33.3737 18.4562L33.6711 18.1589C33.8714 17.9586 33.8714 17.634 33.6712 17.4338C33.4709 17.2337 33.1463 17.2336 32.9462 17.4338L32.6487 17.7313C32.1686 17.3699 31.5967 17.1243 30.9748 17.0363V16.6174C30.9748 16.3342 30.7453 16.1047 30.4621 16.1047C30.1789 16.1047 29.9494 16.3342 29.9494 16.6174V17.0363C29.3276 17.1243 28.7556 17.3699 28.2756 17.7313L27.978 17.4338C27.7777 17.2335 27.453 17.2336 27.253 17.4338C27.0528 17.6341 27.0528 17.9587 27.2531 18.1589L27.5506 18.4563C27.1892 18.9362 26.9436 19.508 26.8556 20.1297H26.4365C26.1533 20.1297 25.9238 20.3591 25.9238 20.6423C25.9238 20.9256 26.1533 21.155 26.4365 21.155H26.8556C26.9436 21.7768 27.1892 22.3485 27.5506 22.8284L27.2531 23.1258C27.0529 23.3259 27.0528 23.6506 27.2531 23.8508C27.3531 23.9509 27.4844 24.001 27.6156 24.001C27.7468 24.001 27.878 23.9509 27.9782 23.8508L28.2757 23.5534C28.7557 23.9147 29.3276 24.1603 29.9496 24.2483V24.6672C29.9496 24.9504 30.179 25.1799 30.4623 25.1799C30.7455 25.1799 30.975 24.9504 30.975 24.6672V24.2483C31.5968 24.1603 32.1687 23.9148 32.6487 23.5534L32.9462 23.8509C33.0464 23.951 33.1775 24.001 33.3087 24.001C33.44 24.001 33.5712 23.951 33.6713 23.8508C33.8715 23.6506 33.8715 23.326 33.6712 23.1258L33.3738 22.8285C33.7352 22.3485 33.9808 21.7768 34.0687 21.1551H34.4878C34.771 21.1551 35.0005 20.9256 35.0005 20.6424C35.0005 20.3592 34.7708 20.1297 34.4877 20.1297ZM30.4621 23.2589C29.019 23.2589 27.8449 22.0851 27.8449 20.6423C27.8449 19.1996 29.019 18.0258 30.4621 18.0258C31.9051 18.0258 33.0792 19.1996 33.0792 20.6423C33.0792 22.0851 31.9051 23.2589 30.4621 23.2589Z" fill="white"/>
<path d="M30.4618 18.9434C29.5249 18.9434 28.7627 19.7054 28.7627 20.6423C28.7627 21.579 29.5249 22.3412 30.4618 22.3412C31.3986 22.3412 32.1608 21.5791 32.1608 20.6423C32.1609 19.7055 31.3986 18.9434 30.4618 18.9434ZM30.4618 21.3157C30.0902 21.3157 29.7881 21.0136 29.7881 20.6422C29.7881 20.2708 30.0903 19.9687 30.4618 19.9687C30.8332 19.9687 31.1354 20.2708 31.1354 20.6422C31.1354 21.0136 30.8333 21.3157 30.4618 21.3157Z" fill="white"/>
</svg>
