<svg width="18" height="18" viewBox="0 0 18 18" fill="none" xmlns="http://www.w3.org/2000/svg">
<path d="M14.2126 11.1502C13.8441 10.7665 13.3996 10.5614 12.9285 10.5614C12.4612 10.5614 12.013 10.7627 11.6293 11.1464L10.4288 12.3431C10.33 12.2899 10.2312 12.2405 10.1362 12.1912C9.99947 12.1228 9.8703 12.0582 9.76013 11.9898C8.63562 11.2756 7.61368 10.3448 6.63353 9.14054C6.15866 8.54029 5.83954 8.03502 5.6078 7.52215C5.91932 7.23722 6.20804 6.9409 6.48917 6.65597C6.59554 6.5496 6.70192 6.43943 6.80829 6.33306C7.60608 5.53526 7.60608 4.50193 6.80829 3.70413L5.77115 2.667C5.65338 2.54923 5.53182 2.42766 5.41785 2.30609C5.1899 2.07055 4.95057 1.82741 4.70363 1.59947C4.33512 1.23477 3.89444 1.04102 3.43096 1.04102C2.96747 1.04102 2.51919 1.23477 2.13929 1.59947C2.13549 1.60327 2.13549 1.60327 2.13169 1.60707L0.840021 2.91014C0.353746 3.39641 0.0764168 3.98906 0.0156324 4.67668C-0.0755442 5.786 0.251172 6.81933 0.501908 7.49556C1.11735 9.15573 2.03671 10.6943 3.40816 12.3431C5.07213 14.33 7.07422 15.899 9.36123 17.0045C10.235 17.4186 11.4013 17.9087 12.7044 17.9923C12.7842 17.9961 12.8677 17.9999 12.9437 17.9999C13.8213 17.9999 14.5583 17.6845 15.1358 17.0577C15.1396 17.0501 15.1471 17.0463 15.1509 17.0387C15.3485 16.7994 15.5764 16.5828 15.8158 16.3511C15.9791 16.1953 16.1463 16.032 16.3096 15.861C16.6858 15.4697 16.8833 15.0138 16.8833 14.5465C16.8833 14.0755 16.682 13.6234 16.2983 13.2435L14.2126 11.1502ZM15.5726 15.1506C15.5688 15.1506 15.5688 15.1544 15.5726 15.1506C15.4245 15.3102 15.2725 15.4545 15.1092 15.6141C14.8622 15.8496 14.6115 16.0965 14.3759 16.3739C13.9922 16.7842 13.5402 16.9779 12.9475 16.9779C12.8905 16.9779 12.8297 16.9779 12.7728 16.9741C11.6444 16.9019 10.5959 16.4613 9.80952 16.0852C7.65927 15.0442 5.77115 13.5664 4.20216 11.6935C2.90669 10.1321 2.04051 8.68845 1.46686 7.13845C1.11355 6.19249 0.984384 5.45548 1.04137 4.76026C1.07936 4.31577 1.25032 3.94727 1.56563 3.63195L2.8611 2.33648C3.04725 2.16173 3.2448 2.06675 3.43855 2.06675C3.67789 2.06675 3.87164 2.21112 3.99321 2.33268C3.99701 2.33648 4.00081 2.34028 4.00461 2.34408C4.23635 2.56063 4.45669 2.78477 4.68843 3.02411C4.8062 3.14568 4.92777 3.26724 5.04934 3.39261L6.08647 4.42975C6.48917 4.83244 6.48917 5.20475 6.08647 5.60744C5.9763 5.71762 5.86993 5.82779 5.75976 5.93416C5.44064 6.26087 5.13672 6.5648 4.8062 6.86112C4.7986 6.86872 4.79101 6.87252 4.78721 6.88012C4.46049 7.20683 4.52128 7.52595 4.58966 7.74249C4.59346 7.75389 4.59726 7.76529 4.60106 7.77669C4.87079 8.43012 5.25069 9.04556 5.82814 9.77877L5.83194 9.78257C6.88047 11.0742 7.98599 12.081 9.20547 12.8522C9.36123 12.951 9.52079 13.0307 9.67275 13.1067C9.80952 13.1751 9.93868 13.2397 10.0489 13.3081C10.0641 13.3157 10.0792 13.3271 10.0944 13.3347C10.2236 13.3992 10.3452 13.4296 10.4705 13.4296C10.7859 13.4296 10.9834 13.2321 11.048 13.1675L12.3473 11.8682C12.4764 11.7391 12.6816 11.5833 12.9209 11.5833C13.1565 11.5833 13.3502 11.7315 13.468 11.8606C13.4718 11.8644 13.4718 11.8644 13.4756 11.8682L15.5688 13.9615C15.9601 14.349 15.9601 14.7479 15.5726 15.1506Z" fill="#FF5E15"/>
<path d="M9.71415 4.28157C10.7095 4.44872 11.6137 4.9198 12.3355 5.64162C13.0573 6.36343 13.5246 7.2676 13.6955 8.26295C13.7373 8.51368 13.9539 8.68844 14.2008 8.68844C14.2312 8.68844 14.2578 8.68464 14.2882 8.68084C14.5693 8.63525 14.7555 8.36932 14.7099 8.08819C14.5047 6.8839 13.9349 5.78598 13.0649 4.916C12.1949 4.04603 11.097 3.47617 9.8927 3.27103C9.61158 3.22544 9.34944 3.41159 9.30005 3.68892C9.25067 3.96625 9.43302 4.23598 9.71415 4.28157Z" fill="#FF5E15"/>
<path d="M17.9656 7.94018C17.6275 5.95709 16.6929 4.15255 15.2569 2.71652C13.8208 1.28049 12.0163 0.345932 10.0332 0.00781895C9.75588 -0.0415684 9.49375 0.148383 9.44436 0.425712C9.39877 0.70684 9.58493 0.968972 9.86605 1.01836C11.6364 1.31848 13.251 2.15807 14.5351 3.43834C15.8191 4.72241 16.6549 6.337 16.955 8.10734C16.9968 8.35808 17.2134 8.53283 17.4603 8.53283C17.4907 8.53283 17.5173 8.52903 17.5477 8.52523C17.825 8.48344 18.015 8.21751 17.9656 7.94018Z" fill="#FF5E15"/>
</svg>
