<svg width="130" height="30" viewBox="0 0 130 30" fill="none" xmlns="http://www.w3.org/2000/svg">
<circle cx="14.6327" cy="14.6327" r="11.6327" stroke="#666666" stroke-width="6"/>
<path d="M48.4233 12.0082C48.4233 12.773 48.239 13.49 47.8702 14.1592C47.5151 14.8284 46.9484 15.3679 46.1699 15.7776C45.4051 16.1873 44.4354 16.3922 43.2609 16.3922H40.8641V21.8823H37.9961V7.5833H43.2609C44.3672 7.5833 45.3095 7.7745 46.088 8.1569C46.8664 8.5393 47.4468 9.0651 47.8292 9.7343C48.2253 10.4035 48.4233 11.1615 48.4233 12.0082ZM43.138 14.0773C43.9301 14.0773 44.5174 13.8997 44.8998 13.5447C45.2822 13.1759 45.4734 12.6638 45.4734 12.0082C45.4734 10.6152 44.6949 9.91867 43.138 9.91867H40.8641V14.0773H43.138Z" fill="#666666"/>
<path d="M54.6796 22.0667C53.5871 22.0667 52.6038 21.8277 51.7297 21.3497C50.8556 20.8581 50.166 20.1684 49.6606 19.2807C49.169 18.3929 48.9232 17.3687 48.9232 16.2078C48.9232 15.0469 49.1758 14.0227 49.6811 13.1349C50.2001 12.2472 50.9034 11.5644 51.7912 11.0864C52.6789 10.5947 53.669 10.3489 54.7616 10.3489C55.8542 10.3489 56.8443 10.5947 57.732 11.0864C58.6197 11.5644 59.3163 12.2472 59.8216 13.1349C60.3405 14.0227 60.6 15.0469 60.6 16.2078C60.6 17.3687 60.3337 18.3929 59.8011 19.2807C59.2821 20.1684 58.5719 20.8581 57.6706 21.3497C56.7828 21.8277 55.7859 22.0667 54.6796 22.0667ZM54.6796 19.5675C55.1986 19.5675 55.6834 19.4445 56.1341 19.1987C56.5985 18.9392 56.9672 18.5568 57.2404 18.0515C57.5135 17.5462 57.6501 16.9316 57.6501 16.2078C57.6501 15.1289 57.3633 14.3026 56.7897 13.729C56.2297 13.1418 55.54 12.8481 54.7206 12.8481C53.9012 12.8481 53.2115 13.1418 52.6516 13.729C52.1053 14.3026 51.8321 15.1289 51.8321 16.2078C51.8321 17.2867 52.0984 18.1198 52.6311 18.7071C53.1774 19.2807 53.8602 19.5675 54.6796 19.5675Z" fill="#666666"/>
<path d="M64.7524 6.7229V21.8823H61.8844V6.7229H64.7524Z" fill="#666666"/>
<path d="M77.624 10.5332L70.5974 27.2496H67.545L70.0033 21.5955L65.4555 10.5332H68.6717L71.6012 18.4612L74.5716 10.5332H77.624Z" fill="#666666"/>
<path d="M92.4448 10.3694C93.8378 10.3694 94.9577 10.7996 95.8044 11.66C96.6648 12.5067 97.095 13.6949 97.095 15.2245V21.8823H94.227V15.6137C94.227 14.726 94.0017 14.05 93.551 13.5856C93.1003 13.1076 92.4858 12.8686 91.7073 12.8686C90.9288 12.8686 90.3074 13.1076 89.8431 13.5856C89.3924 14.05 89.1671 14.726 89.1671 15.6137V21.8823H86.2991V15.6137C86.2991 14.726 86.0737 14.05 85.623 13.5856C85.1723 13.1076 84.5578 12.8686 83.7793 12.8686C82.9872 12.8686 82.359 13.1076 81.8946 13.5856C81.4439 14.05 81.2186 14.726 81.2186 15.6137V21.8823H78.3506V10.5332H81.2186V11.9058C81.5873 11.4278 82.0585 11.0522 82.6321 10.7791C83.2194 10.5059 83.8613 10.3694 84.5578 10.3694C85.4455 10.3694 86.2376 10.5606 86.9341 10.943C87.6306 11.3117 88.1701 11.8443 88.5525 12.5408C88.9212 11.8853 89.4539 11.3595 90.1504 10.9634C90.8606 10.5674 91.6254 10.3694 92.4448 10.3694Z" fill="#666666"/>
<path d="M98.2597 16.1668C98.2597 15.0196 98.485 14.0022 98.9357 13.1144C99.4001 12.2267 100.021 11.5439 100.8 11.0659C101.592 10.5879 102.473 10.3489 103.443 10.3489C104.289 10.3489 105.027 10.5196 105.655 10.861C106.297 11.2024 106.809 11.6326 107.191 12.1516V10.5332H110.08V21.8823H107.191V20.223C106.823 20.7556 106.311 21.1995 105.655 21.5546C105.013 21.896 104.269 22.0667 103.422 22.0667C102.466 22.0667 101.592 21.8209 100.8 21.3292C100.021 20.8376 99.4001 20.1479 98.9357 19.2602C98.485 18.3588 98.2597 17.3277 98.2597 16.1668ZM107.191 16.2078C107.191 15.5113 107.055 14.9172 106.782 14.4255C106.509 13.9202 106.14 13.5378 105.676 13.2783C105.211 13.0052 104.713 12.8686 104.18 12.8686C103.647 12.8686 103.156 12.9984 102.705 13.2579C102.254 13.5173 101.886 13.8997 101.599 14.4051C101.326 14.8967 101.189 15.484 101.189 16.1668C101.189 16.8497 101.326 17.4506 101.599 17.9696C101.886 18.4749 102.254 18.8641 102.705 19.1373C103.169 19.4104 103.661 19.547 104.18 19.547C104.713 19.547 105.211 19.4172 105.676 19.1577C106.14 18.8846 106.509 18.5022 106.782 18.0105C107.055 17.5052 107.191 16.9043 107.191 16.2078Z" fill="#666666"/>
<path d="M115.401 12.8891V18.3793C115.401 18.7617 115.49 19.0417 115.667 19.2192C115.858 19.3831 116.172 19.465 116.609 19.465H117.941V21.8823H116.138C113.721 21.8823 112.512 20.7078 112.512 18.3588V12.8891H111.16V10.5332H112.512V7.7267H115.401V10.5332H117.941V12.8891H115.401Z" fill="#666666"/>
<path d="M125.576 10.3694C126.436 10.3694 127.201 10.5606 127.87 10.943C128.54 11.3117 129.059 11.8648 129.427 12.6023C129.81 13.3261 130.001 14.2002 130.001 15.2245V21.8823H127.133V15.6137C127.133 14.7123 126.908 14.0227 126.457 13.5447C126.006 13.053 125.392 12.8072 124.613 12.8072C123.821 12.8072 123.193 13.053 122.728 13.5447C122.278 14.0227 122.052 14.7123 122.052 15.6137V21.8823H119.184V6.7229H122.052V11.9468C122.421 11.4551 122.913 11.0727 123.527 10.7996C124.142 10.5128 124.825 10.3694 125.576 10.3694Z" fill="#666666"/>
</svg>
