<svg width="23" height="25" viewBox="0 0 23 25" fill="none" xmlns="http://www.w3.org/2000/svg">
<path d="M17.8413 12.278H19.5852C19.9794 12.278 20.3001 11.9573 20.3001 11.563V9.81919C20.3001 9.42495 19.9794 9.1042 19.5852 9.1042H17.8413C17.4471 9.1042 17.1263 9.42495 17.1263 9.81919V11.563C17.1263 11.9573 17.4471 12.278 17.8413 12.278ZM17.8587 9.83662H19.5677V11.5456H17.8587V9.83662ZM17.8413 16.9167H19.5852C19.9794 16.9167 20.3001 16.5959 20.3001 16.2017V14.4579C20.3001 14.0636 19.9794 13.7429 19.5852 13.7429H17.8413C17.4471 13.7429 17.1263 14.0636 17.1263 14.4579V16.2017C17.1263 16.5959 17.4471 16.9167 17.8413 16.9167ZM17.8587 14.4753H19.5677V16.1843H17.8587V14.4753ZM12.8649 12.278H14.6088C15.003 12.278 15.3238 11.9573 15.3238 11.563V9.81919C15.3238 9.42495 15.003 9.1042 14.6088 9.1042H12.8649C12.4707 9.1042 12.15 9.42495 12.15 9.81919V11.563C12.15 11.9573 12.4707 12.278 12.8649 12.278ZM12.8824 9.83662H14.5914V11.5456H12.8824V9.83662ZM4.65605 18.1641H2.91221C2.51797 18.1641 2.19722 18.4848 2.19722 18.8791V20.6229C2.19722 21.0171 2.51797 21.3379 2.91221 21.3379H4.65605C5.05029 21.3379 5.37105 21.0171 5.37105 20.6229V18.8791C5.37105 18.4848 5.05029 18.1641 4.65605 18.1641ZM4.63862 20.6055H2.92964V18.8965H4.63862V20.6055ZM4.65605 9.1042H2.91221C2.51797 9.1042 2.19722 9.42495 2.19722 9.81919V11.563C2.19722 11.9573 2.51797 12.278 2.91221 12.278H4.65605C5.05029 12.278 5.37105 11.9573 5.37105 11.563V9.81919C5.37105 9.4249 5.05029 9.1042 4.65605 9.1042ZM4.63862 11.5456H2.92964V9.83662H4.63862V11.5456ZM12.8649 16.808H14.6088C15.003 16.808 15.3238 16.4872 15.3238 16.093V14.3491C15.3238 13.9549 15.003 13.6341 14.6088 13.6341H12.8649C12.4707 13.6341 12.15 13.9549 12.15 14.3491V16.093C12.15 16.4872 12.4707 16.808 12.8649 16.808ZM12.8824 14.3666H14.5914V16.0755H12.8824V14.3666ZM20.6639 1.67354H19.0981V1.11362C19.0981 0.499561 18.5986 0 17.9845 0H17.8164C17.2023 0 16.7028 0.499561 16.7028 1.11362V1.67354H5.79458V1.11362C5.79458 0.499561 5.29502 0 4.68096 0H4.51279C3.89873 0 3.39917 0.499561 3.39917 1.11362V1.67354H1.8335C0.82251 1.67354 0 2.49604 0 3.50703V23.1689C0 24.1786 0.821387 25 1.83105 25H20.6664C21.6761 25 22.4975 24.1786 22.4975 23.1689V3.50703C22.4974 2.49604 21.6749 1.67354 20.6639 1.67354ZM17.4352 1.11362C17.4352 0.903418 17.6062 0.732422 17.8164 0.732422H17.9846C18.1948 0.732422 18.3658 0.903418 18.3658 1.11362V1.67354H17.4352V1.11362ZM4.13164 1.11362C4.13164 0.903418 4.30264 0.732422 4.51284 0.732422H4.68101C4.89121 0.732422 5.06221 0.903418 5.06221 1.11362V1.67354H4.13169V1.11362H4.13164ZM21.765 23.1689C21.765 23.7748 21.2722 24.2676 20.6664 24.2676H1.83101C1.2252 24.2676 0.732373 23.7748 0.732373 23.1689V23.1667C1.03921 23.3979 1.42061 23.5352 1.8335 23.5352H16.6813C17.171 23.5352 17.6315 23.3444 17.9778 22.9981L21.765 19.2109V23.1689ZM17.6041 22.336C17.6328 22.2175 17.6484 22.0939 17.6484 21.9667V19.5222C17.6484 19.0612 18.0235 18.6862 18.4845 18.6862H20.929C21.0562 18.6862 21.1797 18.6706 21.2982 18.6418L17.6041 22.336ZM21.765 6.90693H6.16079C5.95855 6.90693 5.79458 7.0709 5.79458 7.27314C5.79458 7.47539 5.95855 7.63936 6.16079 7.63936H21.765V17.1178C21.765 17.5788 21.3899 17.9538 20.929 17.9538H18.4845C17.6196 17.9538 16.916 18.6574 16.916 19.5222V21.9667C16.916 22.4277 16.541 22.8028 16.08 22.8028H1.8335C1.22637 22.8028 0.732422 22.3088 0.732422 21.7017V7.63936H4.69595C4.89819 7.63936 5.06216 7.47539 5.06216 7.27314C5.06216 7.0709 4.89819 6.90693 4.69595 6.90693H0.732373V3.50703C0.732373 2.8999 1.22632 2.40596 1.83345 2.40596H3.39917V3.48271C3.39917 4.09678 3.89873 4.59634 4.51279 4.59634C4.71504 4.59634 4.879 4.43237 4.879 4.23013C4.879 4.02788 4.71504 3.86392 4.51279 3.86392C4.30259 3.86392 4.13159 3.69292 4.13159 3.48271V2.40596H16.7028V3.48271C16.7028 4.09678 17.2023 4.59634 17.8164 4.59634C18.0187 4.59634 18.1826 4.43237 18.1826 4.23013C18.1826 4.02788 18.0187 3.86392 17.8164 3.86392C17.6062 3.86392 17.4352 3.69292 17.4352 3.48271V2.40596H20.6639C21.271 2.40596 21.765 2.8999 21.765 3.50703V6.90693ZM4.65605 13.6341H2.91221C2.51797 13.6341 2.19722 13.9549 2.19722 14.3491V16.093C2.19722 16.4872 2.51797 16.808 2.91221 16.808H4.65605C5.05029 16.808 5.37105 16.4872 5.37105 16.093V14.3491C5.37105 13.9548 5.05029 13.6341 4.65605 13.6341ZM4.63862 16.0755H2.92964V14.3666H4.63862V16.0755ZM7.88857 12.278H9.63242C10.0267 12.278 10.3474 11.9573 10.3474 11.563V9.81919C10.3474 9.42495 10.0267 9.1042 9.63242 9.1042H7.88857C7.49434 9.1042 7.17358 9.42495 7.17358 9.81919V11.563C7.17358 11.9573 7.49434 12.278 7.88857 12.278ZM7.90601 9.83662H9.61499V11.5456H7.90601V9.83662ZM12.8819 20.6055C12.8729 20.4113 12.7125 20.2567 12.5161 20.2567C12.3139 20.2567 12.1499 20.4207 12.1499 20.6229C12.1499 21.0171 12.4707 21.3379 12.8649 21.3379H14.6087C15.003 21.3379 15.3237 21.0171 15.3237 20.6229V18.8791C15.3237 18.4848 15.003 18.1641 14.6087 18.1641H12.8649C12.4707 18.1641 12.1499 18.4848 12.1499 18.8791V19.382C12.1499 19.5842 12.3139 19.7482 12.5161 19.7482C12.7184 19.7482 12.8823 19.5842 12.8823 19.382V18.8965H14.5913V20.6055H12.8819ZM7.88857 16.808H9.63242C10.0267 16.808 10.3474 16.4872 10.3474 16.093V14.3491C10.3474 13.9549 10.0267 13.6341 9.63242 13.6341H7.88857C7.49434 13.6341 7.17358 13.9549 7.17358 14.3491V16.093C7.17358 16.4872 7.49434 16.808 7.88857 16.808ZM7.90601 14.3666H9.61499V16.0755H7.90601V14.3666ZM7.88857 21.3379H9.63242C10.0267 21.3379 10.3474 21.0171 10.3474 20.6229V18.8791C10.3474 18.4848 10.0267 18.1641 9.63242 18.1641H7.88857C7.49434 18.1641 7.17358 18.4848 7.17358 18.8791V20.6229C7.17358 21.0171 7.49434 21.3379 7.88857 21.3379ZM7.90601 18.8965H9.61499V20.6055H7.90601V18.8965Z" fill="white"/>
</svg>
