<svg width="20" height="20" viewBox="0 0 20 20" fill="none" xmlns="http://www.w3.org/2000/svg">
<path d="M19.6527 17.9806L15.8081 14.136C16.9733 12.6107 17.6123 10.7605 17.6126 8.80824C17.6126 6.45553 16.6963 4.24349 15.0324 2.5799C13.3688 0.916307 11.157 0 8.80404 0C6.45134 0 4.23929 0.916307 2.5757 2.5799C-0.858567 6.01446 -0.858567 11.6026 2.5757 15.0366C4.23929 16.7005 6.45134 17.6168 8.80404 17.6168C10.7563 17.6165 12.6065 16.9775 14.1318 15.8123L17.9764 19.6569C18.2076 19.8884 18.5112 20.0042 18.8145 20.0042C19.1178 20.0042 19.4214 19.8884 19.6527 19.6569C20.1158 19.1941 20.1158 18.4434 19.6527 17.9806ZM4.25203 13.3603C1.74217 10.8504 1.74246 6.76637 4.25203 4.25622C5.46789 3.04066 7.08459 2.37094 8.80404 2.37094C10.5238 2.37094 12.1402 3.04066 13.3561 4.25622C14.5719 5.47208 15.2416 7.08879 15.2416 8.80824C15.2416 10.528 14.5719 12.1444 13.3561 13.3603C12.1402 14.5761 10.5238 15.2458 8.80404 15.2458C7.08459 15.2458 5.46789 14.5761 4.25203 13.3603Z" fill="white"/>
</svg>
