<svg width="130" height="39" viewBox="0 0 130 39" fill="none" xmlns="http://www.w3.org/2000/svg">
<circle cx="19.1089" cy="19.1072" r="15.4859" stroke="#666666" stroke-width="3"/>
<path d="M25.1446 25.1448C21.9843 28.3051 18.4156 30.3555 15.26 31.1669C12.0667 31.9881 9.59065 31.4912 8.15778 30.0583C6.72492 28.6255 6.22805 26.1494 7.0492 22.9561C7.86064 19.8005 9.91098 16.2318 13.0713 13.0715C16.2316 9.91117 19.8003 7.86083 22.9559 7.04939C26.1493 6.22824 28.6253 6.7251 30.0581 8.15797C31.491 9.59084 31.9879 12.0669 31.1667 15.2602C30.3553 18.4158 28.3049 21.9845 25.1446 25.1448Z" stroke="#666666" stroke-width="3"/>
<path d="M25.1448 13.0719C28.3051 16.2323 30.3555 19.8009 31.1669 22.9565C31.9881 26.1499 31.4912 28.6259 30.0583 30.0588C28.6255 31.4916 26.1494 31.9885 22.9561 31.1674C19.8005 30.3559 16.2318 28.3056 13.0715 25.1452C9.91117 21.9849 7.86083 18.4163 7.04939 15.2606C6.22824 12.0673 6.7251 9.59128 8.15797 8.15842C9.59084 6.72555 12.0669 6.22868 15.2602 7.04983C18.4158 7.86128 21.9845 9.91161 25.1448 13.0719Z" stroke="#666666" stroke-width="3"/>
<path d="M50.6482 26.8215C54.2847 26.8215 56.7399 24.9222 56.7399 21.8879C56.7399 15.4718 48.2161 18.205 48.2161 14.8233C48.2161 13.8736 49.0731 13.2251 50.4397 13.2251C51.9916 13.2251 52.9644 14.0589 53.0802 15.3329H56.3925C56.2998 12.2522 53.9372 10.2371 50.4397 10.2371C47.1506 10.2371 44.8343 12.1364 44.8343 14.8233C44.8343 21.193 53.2424 18.7609 53.2424 21.9342C53.2424 23.1618 52.2 23.8104 50.6482 23.8104C48.9341 23.8104 47.8455 22.768 47.7065 21.1235H44.3711C44.5101 24.5747 46.9653 26.8215 50.6482 26.8215Z" fill="#666666"/>
<path d="M57.5276 31.3614H60.7472V25.5939C61.3726 26.3814 62.5076 26.8215 63.8278 26.8215C67.1864 26.8215 69.4563 24.4357 69.4563 20.7992C69.4563 17.1627 67.3717 14.777 64.1058 14.777C62.6002 14.777 61.4421 15.3329 60.7472 16.2362V14.9623H57.5276V31.3614ZM63.4341 24.042C61.6969 24.042 60.5619 22.7449 60.5619 20.7992C60.5619 18.8304 61.6969 17.5333 63.4341 17.5333C65.1249 17.5333 66.2831 18.8304 66.2831 20.7992C66.2831 22.7449 65.1249 24.042 63.4341 24.042Z" fill="#666666"/>
<path d="M70.2354 26.6362H73.455V20.2433C73.455 18.7378 74.4509 17.6491 75.8639 17.6491C77.2073 17.6491 78.1338 18.6683 78.1338 20.0812V26.6362H81.3534V19.3631C81.3534 16.6763 79.6394 14.777 77.022 14.777C75.4006 14.777 74.1267 15.4487 73.455 16.5836V9.88965H70.2354V26.6362Z" fill="#666666"/>
<path d="M90.36 22.6754C90.1052 23.6714 89.2482 24.181 87.9511 24.181C86.3297 24.181 85.2874 23.1618 85.0558 21.5173H93.4406C93.4638 21.2625 93.487 20.915 93.487 20.4749C93.487 17.8112 91.8424 14.777 87.7195 14.777C83.7587 14.777 81.952 17.8112 81.952 20.7761C81.952 23.7177 83.9903 26.8215 87.9511 26.8215C90.8233 26.8215 93.0469 25.2001 93.5101 22.6754H90.36ZM87.7195 17.1395C89.2714 17.1395 90.1747 18.1819 90.2674 19.479H85.1021C85.3801 17.8576 86.2602 17.1395 87.7195 17.1395Z" fill="#666666"/>
<path d="M101.931 17.6491V14.9623H100.27C98.8567 14.9623 97.9765 15.4487 97.3511 16.9079V14.9623H94.1084V26.6362H97.3511V20.9614C97.3511 18.9694 98.0692 17.6491 99.6674 17.6491H101.931Z" fill="#666666"/>
<path d="M113.049 14.9623H109.806V21.3551C109.806 22.8375 108.81 23.9493 107.397 23.9493C106.077 23.9493 105.15 22.9302 105.15 21.5173V14.9623H101.931V22.2353C101.931 24.899 103.645 26.8215 106.262 26.8215C107.86 26.8215 109.158 26.1266 109.806 25.0148V26.6362H113.049V14.9623Z" fill="#666666"/>
<path d="M114.439 26.6362H117.658V9.88965H114.439V26.6362Z" fill="#666666"/>
<path d="M126.85 22.6754C126.595 23.6714 125.738 24.181 124.441 24.181C122.82 24.181 121.778 23.1618 121.546 21.5173H129.931C129.954 21.2625 129.977 20.915 129.977 20.4749C129.977 17.8112 128.333 14.777 124.21 14.777C120.249 14.777 118.442 17.8112 118.442 20.7761C118.442 23.7177 120.48 26.8215 124.441 26.8215C127.313 26.8215 129.537 25.2001 130 22.6754H126.85ZM124.21 17.1395C125.761 17.1395 126.665 18.1819 126.757 19.479H121.592C121.87 17.8576 122.75 17.1395 124.21 17.1395Z" fill="#666666"/>
</svg>
