<svg width="26" height="39" viewBox="0 0 26 39" fill="none" xmlns="http://www.w3.org/2000/svg">
<path d="M11.0316 4.14537C11.7998 4.14537 12.5191 4.4943 13 5.08804C13.4809 4.49437 14.2002 4.14537 14.9685 4.14537C15.6644 4.14537 16.2964 4.43056 16.756 4.88797C17.0817 5.21363 17.3199 5.62855 17.4306 6.09047L17.4582 6.07553C17.8477 5.86705 18.2902 5.74784 18.7564 5.74784C19.516 5.74784 20.2034 6.05646 20.7013 6.55441C21.1993 7.05236 21.5058 7.73971 21.5058 8.49733C21.5058 8.74837 21.4718 8.98882 21.4058 9.23145C21.9739 9.47619 22.4677 9.85913 22.8464 10.34C23.3486 10.9721 23.6487 11.7722 23.6487 12.6383C23.6487 13.5044 23.3486 14.3046 22.8464 14.9388C22.4676 15.4175 21.9739 15.8006 21.4058 16.0453C21.4718 16.2878 21.5058 16.5285 21.5058 16.7796C21.5058 17.5392 21.1993 18.2266 20.7013 18.7224C20.2034 19.2203 19.516 19.5289 18.7564 19.5289C18.286 19.5289 17.8434 19.4119 17.4306 19.1863C17.3199 19.6481 17.0817 20.0631 16.756 20.3886C16.6113 20.5334 16.4496 20.6611 16.2751 20.7675L14.9599 27.7944H17.6242V25.313C17.6242 24.8534 17.7413 24.464 17.9583 24.1297C18.1881 23.7786 18.4882 23.5446 18.8456 23.3403C20.6736 22.306 22.2016 20.7951 23.2613 18.9778C24.287 17.2221 24.8744 15.1792 24.8744 13.0001C24.8744 11.3531 24.5402 9.78683 23.9358 8.36536C23.3082 6.8842 22.3888 5.55851 21.2503 4.45811C21.0268 4.24334 21.0183 3.88787 21.2333 3.66446C21.4482 3.44105 21.8037 3.43452 22.0271 3.64952C23.2762 4.85404 24.2827 6.30547 24.9701 7.92476C25.634 9.48677 26 11.2019 26 13.0001C26 15.3857 25.3574 17.6223 24.2338 19.5439C23.0762 21.5272 21.4057 23.1786 19.401 24.3149C19.2138 24.4192 19.0202 24.5617 18.9009 24.7449C18.8031 24.8959 18.7498 25.0811 18.7498 25.313V28.3583V32.6888C18.75 35.8637 16.1751 38.4366 13 38.4366C11.4126 38.4366 9.97609 37.7939 8.93545 36.7533C7.89488 35.7127 7.25009 34.2762 7.25009 32.6887V28.3582V25.3129C7.25009 25.1043 7.19687 24.9213 7.09898 24.7681C6.97338 24.5681 6.80319 24.4318 6.60095 24.3169C6.24774 24.1169 5.90091 23.8977 5.56256 23.6594C5.22632 23.4253 4.89856 23.1721 4.58146 22.9018C4.34528 22.7018 4.31758 22.3485 4.51757 22.1122C4.71764 21.876 5.07092 21.8484 5.30717 22.0484C5.59237 22.291 5.89033 22.5208 6.20525 22.74C6.51372 22.9571 6.83292 23.1572 7.16068 23.3422C7.52883 23.5508 7.83745 23.8295 8.05028 24.17C8.25875 24.502 8.37586 24.8849 8.37586 25.3128V27.7941H11.0401L9.72497 20.7673C9.55051 20.6608 9.38873 20.5332 9.24407 20.3884C8.91848 20.0629 8.68013 19.648 8.56947 19.1861L8.54185 19.201C8.15238 19.4095 7.70983 19.5287 7.24379 19.5287C6.48407 19.5287 5.79671 19.2201 5.29876 18.7221C4.80074 18.2264 4.4943 17.539 4.4943 16.7794C4.4943 16.5282 4.52831 16.2876 4.59429 16.0451C4.02615 15.8004 3.53241 15.4173 3.15367 14.9385C2.65152 14.3044 2.35139 13.5043 2.35139 12.6381C2.35139 11.772 2.65145 10.9719 3.15367 10.3398C3.53248 9.8589 4.02615 9.47589 4.59429 9.23123C4.52831 8.98852 4.4943 8.74807 4.4943 8.49711C4.4943 7.73949 4.80074 7.05213 5.29876 6.55418C5.79671 6.05623 6.48407 5.74762 7.24379 5.74762C7.71411 5.74762 8.15666 5.86683 8.56947 6.09024C8.6802 5.6284 8.91856 5.21341 9.24407 4.88775C9.70373 4.43056 10.3358 4.14537 11.0316 4.14537ZM15.0642 21.1292C14.2683 21.1612 13.5001 20.8057 13 20.1887C12.5 20.8058 11.7317 21.1612 10.9359 21.1292L12.1829 27.7943H13.8172L15.0642 21.1292ZM17.6243 32.1249V28.9201H8.37579V32.1249H11.7253C12.036 32.1249 12.2871 32.3759 12.2871 32.6888C12.2871 32.9995 12.036 33.2506 11.7253 33.2506H8.4098C8.53749 34.3018 9.0184 35.2446 9.73135 35.9575C10.5677 36.7937 11.7232 37.3108 13 37.3108C15.3622 37.3108 17.3115 35.5381 17.5903 33.2506H14.2748C13.964 33.2506 13.713 32.9994 13.713 32.6888C13.713 32.3759 13.9641 32.1249 14.2748 32.1249H17.6243ZM3.62392 20.2908C3.81543 20.5333 3.77286 20.8866 3.5282 21.0782C3.28347 21.2675 2.93236 21.2249 2.74086 20.9802C1.8641 19.8566 1.17036 18.5884 0.70004 17.22C0.246759 15.8963 0 14.4768 0 13C0 9.41012 1.45556 6.16066 3.80695 3.80687C6.16058 1.45556 9.41005 0 13 0C14.2492 0 15.4622 0.178745 16.6135 0.510711C17.8009 0.853337 18.916 1.36187 19.9353 2.00456C20.197 2.17069 20.2757 2.51744 20.112 2.77914C19.946 3.04084 19.5991 3.11959 19.3374 2.95586C18.4032 2.3664 17.3839 1.90253 16.3007 1.58964C15.258 1.28747 14.1514 1.1257 13.0001 1.1257C9.72077 1.1257 6.75222 2.45574 4.60503 4.6051C2.45566 6.75237 1.1257 9.72092 1.1257 13.0002C1.1257 14.3515 1.35128 15.6475 1.7662 16.8542C2.19599 18.1096 2.83012 19.2693 3.62392 20.2908ZM19.6671 15.4345C19.4054 15.258 19.0904 15.1558 18.7564 15.1558C18.5775 15.1558 18.4264 15.1793 18.2562 15.2345C17.9605 15.3303 17.6434 15.1686 17.5476 14.8728C17.4518 14.5792 17.6136 14.2621 17.9072 14.1642C18.1732 14.079 18.4775 14.0302 18.7564 14.0302C19.318 14.0302 19.8523 14.2005 20.297 14.5027C20.5183 14.6516 20.7183 14.8346 20.8885 15.0454C21.3163 14.8749 21.6887 14.5963 21.9675 14.243C22.3144 13.8046 22.5229 13.2471 22.5229 12.6385C22.5229 12.0299 22.3144 11.4724 21.9675 11.034C21.6122 10.5849 21.1098 10.2572 20.5332 10.121C20.2311 10.0507 20.0417 9.74855 20.1119 9.44653C20.1268 9.38257 20.1523 9.32304 20.1864 9.27192C20.2459 9.15916 20.2949 9.03995 20.3289 8.9124C20.363 8.78253 20.38 8.64425 20.38 8.49748C20.38 8.05058 20.1992 7.64415 19.9055 7.35047C19.6118 7.05679 19.2054 6.87586 18.7564 6.87586C18.4775 6.87586 18.2179 6.94403 17.9903 7.06527C17.637 7.25475 17.3646 7.56967 17.2284 7.94413C17.1667 8.11439 17.1348 8.29952 17.1348 8.49748C17.1348 8.82727 17.2305 9.13161 17.3987 9.38693C17.5711 9.65088 17.818 9.86153 18.1095 9.98907C18.3926 10.1126 18.5223 10.4424 18.3989 10.7276C18.2755 11.0128 17.9456 11.1425 17.6605 11.017C17.1667 10.8021 16.7475 10.4466 16.456 10.002C16.1729 9.56988 16.007 9.05286 16.007 8.49748C16.007 8.17182 16.0666 7.8569 16.173 7.56322C16.2262 7.41428 16.2943 7.26954 16.3731 7.13328V6.6758C16.3731 6.29061 16.2134 5.93942 15.9602 5.68418C15.7049 5.42879 15.3537 5.27129 14.9685 5.27129C14.5812 5.27129 14.2301 5.42879 13.9768 5.68418C13.7215 5.93942 13.564 6.29061 13.564 6.6758V12.4938C13.564 12.8811 13.7193 13.2322 13.9747 13.4854C14.2279 13.7408 14.5791 13.8983 14.9685 13.8983C15.3558 13.8983 15.7069 13.7408 15.9602 13.4854C16.2156 13.2322 16.3731 12.8811 16.3731 12.4938C16.3731 12.1809 16.6242 11.9299 16.9348 11.9299C17.2455 11.9299 17.4988 12.1809 17.4988 12.4938C17.4988 13.1918 17.2157 13.8239 16.756 14.2814C16.2985 14.741 15.6663 15.024 14.9685 15.024C14.4471 15.024 13.964 14.8665 13.564 14.5985V18.6013C13.564 18.9865 13.7215 19.3377 13.9768 19.593C14.2301 19.8484 14.5812 20.0058 14.9685 20.0058C15.3537 20.0058 15.7049 19.8484 15.9602 19.593C16.2134 19.3377 16.3731 18.9865 16.3731 18.6013V17.9885C16.3731 17.6777 16.6242 17.4245 16.9348 17.4245C17.1433 17.4245 17.3242 17.5373 17.4221 17.7054C17.5669 17.9162 17.7626 18.0906 17.9903 18.2119C18.2179 18.3331 18.4775 18.4034 18.7564 18.4034C19.2053 18.4034 19.6118 18.2204 19.9055 17.9267C20.1992 17.6331 20.38 17.2287 20.38 16.7798C20.38 16.6329 20.363 16.4946 20.3289 16.3647C20.229 15.9856 19.9949 15.6559 19.6671 15.4345ZM5.11146 15.0452C5.28172 14.8345 5.48171 14.6515 5.70302 14.5025C6.14782 14.2004 6.68195 14.0301 7.24371 14.0301C7.52245 14.0301 7.82679 14.0789 8.09277 14.1641C8.38645 14.2621 8.54815 14.579 8.45244 14.8727C8.35672 15.1684 8.03962 15.3302 7.74384 15.2344C7.57358 15.1791 7.42253 15.1556 7.24379 15.1556C6.90972 15.1556 6.5948 15.2578 6.33295 15.4344C6.00526 15.6558 5.77119 15.9856 5.67112 16.3644C5.63711 16.4943 5.61999 16.6326 5.61999 16.7795C5.61999 17.2284 5.80084 17.6328 6.09452 17.9264C6.3882 18.2201 6.79464 18.4031 7.24371 18.4031C7.52245 18.4031 7.78205 18.3328 8.00974 18.2116C8.23743 18.0903 8.43322 17.9159 8.57788 17.7051C8.67585 17.537 8.8567 17.4242 9.06524 17.4242C9.37597 17.4242 9.62693 17.6774 9.62693 17.9882V18.601C9.62693 18.9862 9.7866 19.3374 10.0419 19.5927C10.2951 19.8481 10.6463 20.0056 11.0315 20.0056C11.4188 20.0056 11.7699 19.8481 12.0232 19.5927C12.2785 19.3374 12.436 18.9862 12.436 18.601V14.5982C12.036 14.8662 11.5529 15.0237 11.0315 15.0237C10.3336 15.0237 9.7014 14.7407 9.24399 14.2811C8.78433 13.8236 8.50131 13.1915 8.50131 12.4935C8.50131 12.1806 8.75452 11.9296 9.06524 11.9296C9.37597 11.9296 9.62693 12.1806 9.62693 12.4935C9.62693 12.8807 9.78443 13.2319 10.0398 13.4851C10.2931 13.7405 10.6443 13.898 11.0315 13.898C11.421 13.898 11.7721 13.7405 12.0253 13.4851C12.2806 13.2319 12.436 12.8807 12.436 12.4935V6.6755C12.436 6.29031 12.2785 5.93912 12.0232 5.68388C11.7699 5.42849 11.4188 5.27099 11.0315 5.27099C10.6463 5.27099 10.2951 5.42849 10.0419 5.68388C9.7866 5.93912 9.62693 6.29031 9.62693 6.6755V7.13298C9.70568 7.26916 9.77384 7.4139 9.82699 7.56292C9.93337 7.8566 9.99298 8.17152 9.99298 8.49718C9.99298 9.05256 9.82699 9.56958 9.54397 10.0017C9.25247 10.4464 8.83327 10.8018 8.33961 11.0167C8.05659 11.1422 7.72462 11.0124 7.60113 10.7273C7.47771 10.4421 7.60751 10.1123 7.89053 9.98878C8.18211 9.86123 8.42887 9.6505 8.6013 9.38663C8.76939 9.13138 8.86518 8.82697 8.86518 8.49718C8.86518 8.29922 8.83327 8.11402 8.77157 7.94383C8.63539 7.56937 8.36303 7.25437 8.00974 7.06497C7.78205 6.94373 7.52245 6.87556 7.24371 6.87556C6.79471 6.87556 6.38828 7.05649 6.09452 7.35016C5.80084 7.64384 5.61999 8.05028 5.61999 8.49718C5.61999 8.64395 5.63703 8.78223 5.67112 8.9121C5.72637 9.11637 5.84776 9.27807 5.88815 9.44623C5.95842 9.74825 5.76901 10.0505 5.46685 10.1207C4.89015 10.2569 4.38792 10.5846 4.03253 11.0337C3.6857 11.4721 3.47716 12.0296 3.47716 12.6382C3.47716 13.2468 3.6857 13.8043 4.03253 14.2427C4.31338 14.5961 4.6837 14.8749 5.11146 15.0452Z" fill="white"/>
</svg>
