<svg width="32" height="32" viewBox="0 0 32 32" fill="none" xmlns="http://www.w3.org/2000/svg">
<path d="M29.4328 2.30884H25.3428C25.0839 2.30884 24.874 2.51871 24.874 2.77759C24.874 3.03646 25.0839 3.24634 25.3428 3.24634H29.4328C29.6917 3.24634 29.9016 3.03646 29.9016 2.77759C29.9016 2.51871 29.6918 2.30884 29.4328 2.30884Z" fill="white"/>
<path d="M23.0205 3.24609H23.5191C23.7779 3.24609 23.9878 3.03622 23.9878 2.77734C23.9878 2.51847 23.7779 2.30859 23.5191 2.30859H23.0205C22.7616 2.30859 22.5518 2.51847 22.5518 2.77734C22.5518 3.03622 22.7616 3.24609 23.0205 3.24609Z" fill="white"/>
<path d="M23.0205 5.44824H29.4332C29.6921 5.44824 29.902 5.23837 29.902 4.97949C29.902 4.72062 29.6921 4.51074 29.4332 4.51074H23.0205C22.7616 4.51074 22.5518 4.72062 22.5518 4.97949C22.5518 5.23837 22.7616 5.44824 23.0205 5.44824Z" fill="white"/>
<path d="M24.7151 27.7367C24.7151 25.8642 24.09 24.0273 22.9514 22.5431L23.0383 20.9428C23.0974 19.8534 22.2329 18.9318 21.1334 18.9318H16.0023C15.7662 18.765 15.623 18.4941 15.623 18.2015V16.8926C16.4186 16.3781 16.9771 15.7914 17.3875 15.0931H18.2946C19.344 15.0931 20.1978 14.2394 20.1978 13.19V9.68922C20.1978 9.09879 19.8562 8.57685 19.3454 8.32992V5.87305C19.3454 4.75455 18.4355 3.84455 17.317 3.84455H17.2644C17.2324 3.84455 17.2064 3.81849 17.2064 3.78655C17.2064 2.66805 16.2964 1.75806 15.1779 1.75806H10.2136C7.74942 1.75806 5.74461 3.76286 5.74461 6.22705V8.32985C5.23386 8.57679 4.89224 9.09873 4.89224 9.68916V11.4695C4.89224 12.3025 5.56992 12.9802 6.40292 12.9802H7.00804C7.16467 14.305 7.7861 15.5148 8.75948 16.356C8.98785 16.5533 9.22404 16.7296 9.46698 16.8871V18.2014C9.46698 18.4931 9.32323 18.7641 9.0861 18.9318H3.9568C2.86581 18.9318 1.99237 19.8449 2.05199 20.9428L2.13887 22.5431C1.00018 24.0273 0.375062 25.8642 0.375062 27.7367V29.5022C0.142 29.7634 0 30.1075 0 30.4842C0 31.2985 0.662436 31.9609 1.47668 31.9609H23.6135C24.4277 31.9609 25.0902 31.2984 25.0902 30.4842C25.0902 30.1075 24.9482 29.7634 24.7151 29.5023V27.7367ZM23.7776 27.7367V29.0169C23.7237 29.0109 23.669 29.0075 23.6135 29.0075H22.6005L22.8651 24.1332C23.4584 25.2351 23.7776 26.4766 23.7776 27.7367ZM19.2122 9.46035C19.243 9.53085 19.2604 9.60822 19.2604 9.68929V11.4697C19.2604 11.7857 19.0033 12.0428 18.6872 12.0428H18.1298V10.2758L18.4186 10.1752C18.776 10.0507 19.0571 9.78816 19.2122 9.46035ZM16.0826 14.8915H14.9063C14.7167 14.8915 14.5623 14.7372 14.5623 14.5476C14.5623 14.358 14.7167 14.2037 14.9063 14.2037H16.0826C16.2723 14.2037 16.4265 14.358 16.4265 14.5476C16.4265 14.7372 16.2723 14.8915 16.0826 14.8915ZM18.2947 14.1557H17.8209C17.9529 13.7793 18.044 13.3851 18.0921 12.9803H18.6872C18.89 12.9803 19.0835 12.9399 19.2604 12.8671V13.1901C19.2604 13.7225 18.8271 14.1557 18.2947 14.1557ZM6.68223 6.22717C6.68223 4.27993 8.26648 2.69568 10.2137 2.69568H15.178C15.7796 2.69568 16.269 3.18512 16.269 3.78668C16.269 4.33561 16.7156 4.78217 17.2645 4.78217H17.3171C17.9186 4.78217 18.408 5.27161 18.408 5.87317V8.87085C18.408 9.05948 18.2883 9.22785 18.1102 9.28991L17.1251 9.63297C17.0855 9.64672 17.0445 9.6181 17.0445 9.57541L17.0463 7.71267C17.052 6.35323 15.7791 5.16761 13.9956 5.74048C13.0986 6.02873 11.9885 6.02773 11.0945 5.74048C9.32954 5.17324 8.03811 6.3378 8.04379 7.71123L8.04598 9.57554C8.04598 9.61854 8.0041 9.64685 7.96535 9.63297L6.97998 9.28985C6.80186 9.22785 6.68217 9.05941 6.68217 8.87079L6.68223 6.22717ZM5.82986 11.4697V9.68922C5.82986 9.60822 5.84724 9.53079 5.87805 9.46029C6.03323 9.78816 6.3143 10.0507 6.6718 10.1752L6.96061 10.2757V12.0428H6.40311C6.08698 12.0428 5.82986 11.7857 5.82986 11.4697ZM7.90667 12.4389C7.89111 11.8227 7.90067 11.1685 7.89804 10.5697C7.92692 10.5722 7.95585 10.5736 7.98479 10.5736C8.5421 10.5736 8.98441 10.1206 8.98348 9.57416L8.98129 7.70867C8.9781 6.94754 9.66085 6.26436 10.8077 6.63298C11.8947 6.98223 13.199 6.98117 14.2824 6.63298C15.3751 6.28192 16.1122 6.89998 16.1088 7.71023L16.107 9.57429C16.1063 10.1553 16.6029 10.6208 17.1921 10.5697V12.4768C17.1785 12.882 17.1118 13.2773 16.9987 13.6533C16.7659 13.4148 16.4415 13.2662 16.0826 13.2662H14.9063C14.1997 13.2662 13.6248 13.841 13.6248 14.5475C13.6248 15.2541 14.1997 15.8289 14.9063 15.8289H15.5018C14.636 16.5047 13.6515 16.8571 12.5697 16.875C10.2032 16.8561 7.97435 15.1078 7.90667 12.4389ZM10.4047 18.2015V17.3813C11.0822 17.6619 11.805 17.8073 12.5684 17.8126H12.5717C12.5742 17.8126 12.5766 17.8126 12.579 17.8126C13.3222 17.801 14.0258 17.657 14.6857 17.3851V18.2015C14.6857 18.4574 14.7393 18.7051 14.8379 18.9318H10.2519C10.3508 18.7051 10.4047 18.4573 10.4047 18.2015ZM2.22512 24.1332L2.29912 25.497C2.31318 25.7556 2.53462 25.9544 2.79256 25.9397C3.05105 25.9257 3.24924 25.7047 3.23524 25.4462L2.98805 20.8921C2.95799 20.3381 3.39762 19.8694 3.9568 19.8694H21.1334C21.6885 19.8694 22.1324 20.3339 22.1022 20.8921L21.6617 29.0076H14.3112C14.4008 28.4722 14.6419 27.9686 15.0133 27.5559L15.0268 27.5409C16.4456 25.9536 16.021 23.4713 14.187 22.4292C13.7163 22.1618 13.1187 22.4953 13.1187 23.0496V25.1764C13.1187 25.2739 13.0393 25.3532 12.9418 25.3532H12.1483C12.0508 25.3532 11.9715 25.2739 11.9715 25.1764V23.0496C11.9715 22.4963 11.3748 22.1613 10.9032 22.4292C9.06398 23.4742 8.64791 25.9574 10.0648 27.5425L10.0768 27.5559C10.4483 27.9685 10.6894 28.4721 10.779 29.0075H3.42855L3.35337 27.6217C3.33937 27.3632 3.11843 27.1648 2.85993 27.1791C2.60143 27.1931 2.40324 27.414 2.41724 27.6725L2.48968 29.0075H1.47668C1.42118 29.0075 1.3665 29.0109 1.31256 29.0169V27.7367C1.31256 26.4766 1.63187 25.2351 2.22512 24.1332ZM11.7262 29.0075C11.6302 28.2395 11.301 27.5144 10.7737 26.9287L10.7624 26.9161C9.85672 25.9029 9.97804 24.3363 11.0341 23.4722V25.1764C11.0341 25.7908 11.534 26.2906 12.1484 26.2906H12.9419C13.5563 26.2906 14.0562 25.7907 14.0562 25.1764V23.4722C15.1053 24.3305 15.2396 25.8961 14.3267 26.9174L14.3166 26.9287C13.7893 27.5144 13.46 28.2395 13.3641 29.0075H11.7262ZM23.6135 31.0234H1.47668C1.17937 31.0234 0.937498 30.7815 0.937498 30.4843C0.937498 30.187 1.17937 29.9451 1.47668 29.9451H23.6135C23.9108 29.9451 24.1527 30.187 24.1527 30.4843C24.1527 30.7816 23.9108 31.0234 23.6135 31.0234Z" fill="white"/>
<path d="M31.5302 3.20793C31.7891 3.20793 31.999 2.99805 31.999 2.73918V1.83193C31.999 0.82181 31.1771 0 30.167 0H22.2832C21.273 0 20.4512 0.82181 20.4512 1.83193V5.77492C20.4512 6.78511 21.273 7.60692 22.2832 7.60692C22.4637 7.60692 22.6105 7.75379 22.6105 7.93429V10.3727C22.6105 10.7249 22.8385 11.0247 23.178 11.1186C23.5194 11.2131 23.8682 11.071 24.0482 10.7707L25.8501 7.76592C25.9089 7.66785 26.0165 7.60692 26.1309 7.60692H30.167C31.1772 7.60692 31.999 6.78511 31.999 5.77492V4.93067C31.999 4.6718 31.7891 4.46193 31.5303 4.46193C31.2714 4.46193 31.0615 4.6718 31.0615 4.93067V5.77492C31.0615 6.26817 30.6603 6.66942 30.167 6.66942H26.1308C25.689 6.66942 25.2733 6.90486 25.046 7.28379L23.548 9.78191V7.93429C23.548 7.23686 22.9805 6.66942 22.2831 6.66942C21.7899 6.66942 21.3886 6.26817 21.3886 5.77492V1.83193C21.3886 1.33875 21.7899 0.937498 22.2831 0.937498H30.167C30.6602 0.937498 31.0615 1.33875 31.0615 1.83193V2.73918C31.0615 2.99805 31.2713 3.20793 31.5302 3.20793Z" fill="white"/>
</svg>
