<svg width="30" height="23" viewBox="0 0 30 23" fill="none" xmlns="http://www.w3.org/2000/svg">
<path d="M26.4689 9.91373C25.4481 9.40338 23.5341 9.39746 23.4531 9.39746C23.2104 9.39746 23.0137 9.59422 23.0137 9.83691C23.0137 10.0796 23.2104 10.2764 23.4531 10.2764C23.947 10.2764 25.381 10.3525 26.0758 10.6999C26.1389 10.7315 26.206 10.7463 26.272 10.7463C26.4332 10.7463 26.5884 10.6573 26.6654 10.5034C26.774 10.2863 26.686 10.0223 26.4689 9.91373Z" fill="white"/>
<path d="M28.6589 16.1704L26.844 15.6519C26.7656 15.6295 26.7109 15.5569 26.7109 15.4754V14.8696C26.8586 14.7673 26.9994 14.6528 27.1311 14.525C27.7692 13.9058 28.1205 13.0753 28.1205 12.1863V11.3503L28.296 10.9994C28.4886 10.6141 28.5904 10.1828 28.5904 9.75217V7.48752C28.5904 7.24482 28.3937 7.04807 28.151 7.04807H23.9221C22.3843 7.04807 21.1332 8.29916 21.1332 9.83689V9.86308C21.1332 10.2212 21.2179 10.5799 21.378 10.9001L21.6031 11.3503V12.068C21.6031 13.2056 22.1637 14.2262 23.0128 14.8404L23.0129 15.4753C23.0129 15.5732 23.0129 15.6138 22.65 15.7175L21.7644 15.9705L19.2026 15.039C19.2118 14.9181 19.1711 14.7952 19.0829 14.7025L18.2643 13.8425V12.3987C18.3508 12.3274 18.4361 12.2542 18.5188 12.1767C19.5515 11.2087 20.1438 9.84211 20.1438 8.42725V7.27424C20.4556 6.59566 20.6136 5.8776 20.6136 5.13809V0.439453C20.6136 0.196758 20.4169 0 20.1742 0H13.5959C11.2809 0 9.3975 1.88344 9.3975 4.19842V5.1382C9.3975 5.87771 9.55553 6.59578 9.86736 7.27435V8.26641C9.86736 9.90914 10.5978 11.3891 11.7469 12.3648V13.8425L10.9283 14.7026C10.8401 14.7952 10.7993 14.9181 10.8085 15.039L8.10469 16.0222C7.90875 16.0934 7.7267 16.1899 7.56141 16.3068L7.13684 16.0945C8.4007 15.5444 8.80107 14.7707 8.82029 14.7322C8.88217 14.6085 8.88217 14.4629 8.82029 14.3392C8.50348 13.7055 8.4651 12.5442 8.43428 11.611C8.42402 11.3003 8.4143 11.0068 8.39572 10.7455C8.2459 8.63766 6.64348 7.04807 4.66828 7.04807C2.69309 7.04807 1.09061 8.6376 0.94084 10.7455C0.922266 11.0069 0.912539 11.3004 0.902285 11.6111C0.871465 12.5442 0.833027 13.7055 0.51627 14.3391C0.454395 14.4628 0.454395 14.6085 0.51627 14.7322C0.535488 14.7706 0.935039 15.5428 2.20143 16.0935L1.02211 16.6832C0.391641 16.9986 0 17.6323 0 18.3371V21.5838C0 21.8265 0.196758 22.0232 0.439453 22.0232C0.682148 22.0232 0.878906 21.8265 0.878906 21.5838V18.3371C0.878906 17.9673 1.08439 17.6348 1.41516 17.4694L2.88369 16.7351L3.39451 17.2206C3.7517 17.56 4.2099 17.7296 4.66828 17.7296C5.12654 17.7296 5.58498 17.5599 5.94205 17.2206L6.45281 16.7352L6.93164 16.9746C6.70617 17.3354 6.5782 17.7584 6.5782 18.2016V21.5839C6.5782 21.8266 6.77496 22.0233 7.01766 22.0233C7.26035 22.0233 7.45711 21.8266 7.45711 21.5839V18.2016C7.45711 17.5983 7.83803 17.0544 8.40504 16.8482L11.2557 15.8116L12.4424 17.5918C12.5941 17.8194 12.8372 17.9653 13.1094 17.9923C13.1398 17.9953 13.1699 17.9967 13.2001 17.9967C13.4402 17.9967 13.6702 17.9022 13.8421 17.7304L14.5661 17.0064V21.5839C14.5661 21.8266 14.7628 22.0234 15.0055 22.0234C15.2482 22.0234 15.445 21.8266 15.445 21.5839V17.0064L16.1689 17.7304C16.3408 17.9023 16.5708 17.9968 16.811 17.9968C16.841 17.9968 16.8713 17.9953 16.9015 17.9923C17.1738 17.9654 17.4169 17.8194 17.5686 17.5918L18.7553 15.8118L21.606 16.8483C22.1729 17.0545 22.5539 17.5984 22.5539 18.2017V21.584C22.5539 21.8267 22.7507 22.0235 22.9934 22.0235C23.2361 22.0235 23.4328 21.8267 23.4328 21.584V18.2017C23.4328 17.5907 23.1901 17.0176 22.7828 16.5938L22.8914 16.5628C23.0009 16.5315 23.1503 16.4887 23.3003 16.4152L24.4223 17.5372V21.584C24.4223 21.8267 24.6191 22.0235 24.8618 22.0235C25.1045 22.0235 25.3013 21.8267 25.3013 21.584V17.5372L26.4155 16.4229C26.4747 16.4531 26.5369 16.4785 26.6024 16.4972L28.4174 17.0157C28.8317 17.1341 29.1211 17.5177 29.1211 17.9486V21.584C29.1211 21.8267 29.3179 22.0235 29.5605 22.0235C29.8032 22.0235 30 21.8267 30 21.584V17.9486C30 17.1272 29.4485 16.3961 28.6589 16.1704ZM2.81924 15.3942C1.99723 15.0984 1.5849 14.7041 1.40889 14.4888C1.52889 14.1751 1.6067 13.8158 1.65937 13.4365C1.90172 14.0176 2.3076 14.5136 2.81924 14.8675V15.3942ZM5.33672 16.5836C4.96189 16.9397 4.37473 16.9396 4.00002 16.5835L3.59133 16.1951C3.66029 16.0659 3.6982 15.9195 3.6982 15.766V15.2976C4.00477 15.3934 4.33066 15.4451 4.6684 15.4451C5.00572 15.4451 5.33145 15.3932 5.63854 15.2979L5.63848 15.7659C5.63848 15.9195 5.67633 16.066 5.74535 16.1953L5.33672 16.5836ZM4.66852 14.5662C3.35625 14.5662 2.28873 13.4986 2.28873 12.1864C2.28873 11.9437 2.09197 11.7469 1.84928 11.7469C1.82467 11.7469 1.80064 11.7495 1.77715 11.7534C1.77844 11.7156 1.77967 11.6777 1.78096 11.6403C1.79074 11.3381 1.80018 11.0527 1.81758 10.8079C1.87371 10.0183 2.18924 9.29068 2.70604 8.759C3.22746 8.22252 3.92438 7.92709 4.6684 7.92709C5.41242 7.92709 6.10928 8.22252 6.63076 8.759C7.14756 9.29068 7.46309 10.0183 7.51922 10.8079C7.53656 11.0527 7.54605 11.338 7.55602 11.6401C7.55689 11.6661 7.55777 11.6924 7.55865 11.7185C7.08053 10.9819 6.34213 10.439 5.38805 10.1324C4.50662 9.84926 3.74854 9.86678 3.71654 9.8676C3.60146 9.87082 3.49225 9.91898 3.41238 10.0018L2.61949 10.8241C2.45104 10.9989 2.45607 11.2771 2.6308 11.4455C2.80553 11.614 3.08373 11.6089 3.25219 11.4342L3.91195 10.75C4.48014 10.7778 6.30809 10.9904 7.019 12.5558C6.84012 13.7094 5.84859 14.5662 4.66852 14.5662ZM6.51732 15.3957L6.51738 14.8716C7.02861 14.5196 7.43508 14.0245 7.6776 13.439C7.73027 13.8174 7.80803 14.1759 7.92779 14.4889C7.75277 14.7022 7.33852 15.1 6.51732 15.3957ZM10.7463 8.26635V7.17603C10.7463 7.10988 10.7313 7.04455 10.7026 6.98496C10.4198 6.39937 10.2764 5.77805 10.2764 5.1382V4.19848C10.2764 2.36807 11.7656 0.878965 13.5959 0.878965H19.7347V5.13826C19.7347 5.77811 19.5913 6.39943 19.3086 6.98502C19.2798 7.04461 19.2649 7.10994 19.2649 7.17609V8.42736C19.2649 9.61746 18.7864 10.7213 17.9177 11.5356C17.8093 11.6372 17.6967 11.7325 17.5804 11.8212C17.5778 11.823 17.5753 11.8249 17.5728 11.8267C16.759 12.4446 15.7622 12.7449 14.7212 12.6775C12.4922 12.5331 10.7463 10.5956 10.7463 8.26635ZM13.2206 17.1088C13.2176 17.1118 13.2105 17.119 13.1961 17.1175C13.1818 17.1161 13.1762 17.1077 13.1738 17.1041L11.8071 15.054L12.2469 14.5919L14.3203 16.0091L13.2206 17.1088ZM15.0056 15.4129L12.6258 13.7862V12.9659C13.2415 13.2988 13.931 13.507 14.6643 13.5544C14.7802 13.5619 14.8953 13.5656 15.0101 13.5656C15.8504 13.5656 16.6591 13.3648 17.3854 12.9835V13.7862L15.0056 15.4129ZM16.8373 17.1042C16.8349 17.1078 16.8293 17.1162 16.815 17.1176C16.8006 17.1195 16.7936 17.1119 16.7905 17.1089L15.6909 16.0093L17.7642 14.592L18.2041 15.0541L16.8373 17.1042ZM24.8618 16.7334L23.8645 15.7362C23.8819 15.6572 23.8918 15.5706 23.8917 15.4752L23.8917 15.2897C24.1684 15.3806 24.4601 15.4345 24.7619 15.4435C24.7958 15.4445 24.8293 15.445 24.8631 15.445C25.1966 15.445 25.5221 15.3946 25.832 15.2985V15.4754C25.832 15.5631 25.843 15.649 25.8637 15.7315L24.8618 16.7334ZM26.519 13.8943C26.0532 14.3463 25.4379 14.585 24.7883 14.565C23.5166 14.5269 22.482 13.4067 22.482 12.0681V11.2466C22.482 11.1783 22.4661 11.1111 22.4356 11.0501L22.1641 10.5071C22.0647 10.3082 22.0121 10.0856 22.0121 9.86314V9.83695C22.0121 8.78379 22.869 7.92703 23.9221 7.92703H27.7115V9.75222C27.7115 10.0472 27.6418 10.3426 27.5099 10.6064L27.288 11.0501C27.2575 11.1111 27.2416 11.1783 27.2416 11.2466V12.1863C27.2416 12.8355 26.985 13.4421 26.519 13.8943Z" fill="white"/>
<path d="M27.6816 18.3252C27.4389 18.3252 27.2422 18.522 27.2422 18.7646V21.5839C27.2422 21.8266 27.4389 22.0233 27.6816 22.0233C27.9243 22.0233 28.1211 21.8266 28.1211 21.5839V18.7646C28.1211 18.522 27.9243 18.3252 27.6816 18.3252Z" fill="white"/>
<path d="M2.31836 18.906C2.07566 18.906 1.87891 19.1028 1.87891 19.3455V21.5838C1.87891 21.8265 2.07566 22.0233 2.31836 22.0233C2.56105 22.0233 2.75781 21.8265 2.75781 21.5838V19.3455C2.75781 19.1028 2.56105 18.906 2.31836 18.906Z" fill="white"/>
<path d="M18.6058 5.29746C16.9437 3.63539 13.4662 3.95314 12.0481 4.16689C11.6015 4.23421 11.2773 4.6122 11.2773 5.06566V6.07804C11.2773 6.32074 11.4741 6.51749 11.7168 6.51749C11.9595 6.51749 12.1562 6.32074 12.1562 6.07804V5.0656C12.1562 5.05066 12.1661 5.03789 12.1792 5.03589C12.7456 4.95052 13.8696 4.8188 15.0342 4.89644C16.4046 4.98767 17.3972 5.33167 17.9843 5.9189C18.156 6.09052 18.4342 6.09052 18.6058 5.9189C18.7774 5.74728 18.7774 5.46902 18.6058 5.29746Z" fill="white"/>
<path d="M9.83789 19.2649C9.5952 19.2649 9.39844 19.4617 9.39844 19.7043V21.5839C9.39844 21.8266 9.5952 22.0233 9.83789 22.0233C10.0806 22.0233 10.2773 21.8266 10.2773 21.5839V19.7043C10.2773 19.4617 10.0806 19.2649 9.83789 19.2649Z" fill="white"/>
<path d="M20.1738 19.2649C19.9311 19.2649 19.7344 19.4617 19.7344 19.7043V21.5839C19.7344 21.8266 19.9311 22.0233 20.1738 22.0233C20.4165 22.0233 20.6133 21.8266 20.6133 21.5839V19.7043C20.6133 19.4617 20.4165 19.2649 20.1738 19.2649Z" fill="white"/>
</svg>
