<svg width="130" height="29" viewBox="0 0 130 29" fill="none" xmlns="http://www.w3.org/2000/svg">
<path fill-rule="evenodd" clip-rule="evenodd" d="M0 14.3148C9.00866 14.3148 14.1731 9.09875 14.1731 0C14.1731 9.09875 19.3375 14.3148 28.3461 14.3148C19.3375 14.3148 14.1731 19.5309 14.1731 28.6296C14.1731 19.5309 9.00866 14.3148 0 14.3148Z" fill="#666666"/>
<path d="M33.9453 20.7624L38.893 7.09826H41.6761L46.6238 20.7624H43.9953L42.913 17.6001H37.6368L36.5351 20.7624H33.9453ZM38.3132 15.6481H42.2366L40.2652 9.96772L38.3132 15.6481Z" fill="#666666"/>
<path d="M51.5857 20.9966C50.6064 20.9966 49.7432 20.7819 48.9958 20.3525C48.2485 19.923 47.6558 19.3244 47.2178 18.5566C46.7926 17.7888 46.58 16.9104 46.58 15.9214C46.58 14.9324 46.7926 14.0539 47.2178 13.2862C47.6558 12.5184 48.2485 11.9197 48.9958 11.4903C49.7432 11.0609 50.6064 10.8461 51.5857 10.8461C52.8097 10.8461 53.8405 11.1715 54.678 11.8221C55.5155 12.4598 56.0502 13.3447 56.2821 14.4769H53.673C53.5441 14.0084 53.2864 13.644 52.8999 13.3838C52.5262 13.1105 52.0817 12.9738 51.5663 12.9738C50.8834 12.9738 50.3036 13.2341 49.8269 13.7546C49.3502 14.2752 49.1118 14.9974 49.1118 15.9214C49.1118 16.8453 49.3502 17.5676 49.8269 18.0881C50.3036 18.6087 50.8834 18.8689 51.5663 18.8689C52.0817 18.8689 52.5262 18.7388 52.8999 18.4785C53.2864 18.2183 53.5441 17.8474 53.673 17.3659H56.2821C56.0502 18.459 55.5155 19.3374 54.678 20.0011C53.8405 20.6648 52.8097 20.9966 51.5857 20.9966Z" fill="#666666"/>
<path d="M57.5115 20.7624V11.0804H59.6954L59.908 12.3882C60.2172 11.9197 60.6231 11.5489 61.1256 11.2756C61.641 10.9893 62.2337 10.8461 62.9037 10.8461C64.3854 10.8461 65.4355 11.4252 66.054 12.5834C66.4019 12.0499 66.8657 11.6269 67.4455 11.3146C68.0382 11.0023 68.6824 10.8461 69.3782 10.8461C70.628 10.8461 71.5879 11.2235 72.2579 11.9783C72.9279 12.7331 73.2629 13.8392 73.2629 15.2967V20.7624H70.7891V15.531C70.7891 14.6981 70.628 14.0605 70.3059 13.618C69.9967 13.1755 69.5135 12.9543 68.8564 12.9543C68.1864 12.9543 67.6452 13.2016 67.2329 13.6961C66.8335 14.1906 66.6338 14.8803 66.6338 15.7652V20.7624H64.1599V15.531C64.1599 14.6981 63.9989 14.0605 63.6768 13.618C63.3546 13.1755 62.8586 12.9543 62.1886 12.9543C61.5315 12.9543 60.9968 13.2016 60.5845 13.6961C60.185 14.1906 59.9853 14.8803 59.9853 15.7652V20.7624H57.5115Z" fill="#666666"/>
<path d="M79.303 20.9966C78.3367 20.9966 77.4799 20.7884 76.7325 20.372C75.9852 19.9556 75.399 19.3699 74.9738 18.6152C74.5486 17.8604 74.336 16.9885 74.336 15.9995C74.336 14.9974 74.5422 14.106 74.9545 13.3252C75.3797 12.5444 75.9595 11.9393 76.6939 11.5098C77.4412 11.0674 78.3173 10.8461 79.3223 10.8461C80.2629 10.8461 81.094 11.0543 81.8155 11.4708C82.5371 11.8872 83.0975 12.4598 83.497 13.1886C83.9093 13.9043 84.1154 14.7046 84.1154 15.5895C84.1154 15.7327 84.109 15.8823 84.0961 16.0385C84.0961 16.1947 84.0897 16.3573 84.0768 16.5265H76.7905C76.8421 17.2813 77.0998 17.8734 77.5636 18.3028C78.0403 18.7323 78.6137 18.947 79.2837 18.947C79.7862 18.947 80.2049 18.8364 80.5399 18.6152C80.8878 18.3809 81.1455 18.0816 81.313 17.7172H83.8255C83.6451 18.3289 83.3423 18.8884 82.9172 19.396C82.5048 19.8905 81.9895 20.2809 81.371 20.5672C80.7654 20.8535 80.0761 20.9966 79.303 20.9966ZM79.3223 12.8762C78.7168 12.8762 78.1821 13.0519 77.7182 13.4033C77.2544 13.7416 76.958 14.2622 76.8292 14.9649H81.6029C81.5643 14.3272 81.3323 13.8197 80.9072 13.4423C80.482 13.0649 79.9537 12.8762 79.3223 12.8762Z" fill="#666666"/>
<path d="M95.0533 20.9966C93.6875 20.9966 92.515 20.7038 91.5358 20.1182C90.5565 19.5196 89.8028 18.6932 89.2745 17.6392C88.7462 16.5721 88.4821 15.3423 88.4821 13.9498C88.4821 12.5574 88.7462 11.3276 89.2745 10.2605C89.8028 9.19342 90.5565 8.36056 91.5358 7.76194C92.515 7.16332 93.6875 6.86401 95.0533 6.86401C96.6767 6.86401 98.0038 7.27394 99.0346 8.09378C100.078 8.90062 100.729 10.0393 100.987 11.5098H98.2615C98.094 10.7681 97.7332 10.189 97.1792 9.77252C96.6381 9.34308 95.9165 9.12836 95.0146 9.12836C93.7648 9.12836 92.7856 9.5578 92.0769 10.4167C91.3683 11.2756 91.0139 12.4533 91.0139 13.9498C91.0139 15.4464 91.3683 16.6241 92.0769 17.483C92.7856 18.3289 93.7648 18.7518 95.0146 18.7518C95.9165 18.7518 96.6381 18.5566 97.1792 18.1662C97.7332 17.7628 98.094 17.2097 98.2615 16.507H100.987C100.729 17.9124 100.078 19.0121 99.0346 19.8059C98.0038 20.5997 96.6767 20.9966 95.0533 20.9966Z" fill="#666666"/>
<path d="M106.752 20.9966C105.824 20.9966 104.987 20.7819 104.239 20.3525C103.505 19.923 102.919 19.3309 102.481 18.5761C102.055 17.8083 101.843 16.9234 101.843 15.9214C101.843 14.9193 102.062 14.0409 102.5 13.2862C102.938 12.5184 103.524 11.9197 104.259 11.4903C105.006 11.0609 105.844 10.8461 106.771 10.8461C107.686 10.8461 108.511 11.0609 109.245 11.4903C109.992 11.9197 110.579 12.5184 111.004 13.2862C111.442 14.0409 111.661 14.9193 111.661 15.9214C111.661 16.9234 111.442 17.8083 111.004 18.5761C110.579 19.3309 109.992 19.923 109.245 20.3525C108.498 20.7819 107.667 20.9966 106.752 20.9966ZM106.752 18.8299C107.396 18.8299 107.957 18.5891 108.433 18.1076C108.91 17.6131 109.148 16.8844 109.148 15.9214C109.148 14.9584 108.91 14.2361 108.433 13.7546C107.957 13.2601 107.403 13.0129 106.771 13.0129C106.114 13.0129 105.547 13.2601 105.07 13.7546C104.607 14.2361 104.375 14.9584 104.375 15.9214C104.375 16.8844 104.607 17.6131 105.07 18.1076C105.547 18.5891 106.108 18.8299 106.752 18.8299Z" fill="#666666"/>
<path d="M112.906 20.7624V11.0804H115.11L115.342 12.8958C115.69 12.2711 116.16 11.7766 116.753 11.4122C117.358 11.0348 118.067 10.8461 118.879 10.8461V13.4814H118.183C117.642 13.4814 117.158 13.5659 116.733 13.7351C116.308 13.9043 115.973 14.1971 115.728 14.6135C115.496 15.03 115.38 15.6091 115.38 16.3508V20.7624H112.906Z" fill="#666666"/>
<path d="M119.603 25.0568V11.0804H121.806L122.077 12.4663C122.386 12.0369 122.792 11.6595 123.294 11.3341C123.81 11.0088 124.473 10.8461 125.285 10.8461C126.187 10.8461 126.992 11.0674 127.701 11.5098C128.41 11.9523 128.97 12.5574 129.382 13.3252C129.795 14.093 130.001 14.9649 130.001 15.9409C130.001 16.9169 129.795 17.7888 129.382 18.5566C128.97 19.3114 128.41 19.91 127.701 20.3525C126.992 20.7819 126.187 20.9966 125.285 20.9966C124.564 20.9966 123.932 20.86 123.391 20.5867C122.85 20.3134 122.412 19.9295 122.077 19.435V25.0568H119.603ZM124.763 18.8104C125.549 18.8104 126.2 18.5436 126.715 18.01C127.231 17.4765 127.488 16.7868 127.488 15.9409C127.488 15.095 127.231 14.3988 126.715 13.8522C126.2 13.3057 125.549 13.0324 124.763 13.0324C123.964 13.0324 123.307 13.3057 122.792 13.8522C122.289 14.3858 122.038 15.0755 122.038 15.9214C122.038 16.7673 122.289 17.4635 122.792 18.01C123.307 18.5436 123.964 18.8104 124.763 18.8104Z" fill="#666666"/>
</svg>
