<svg width="30" height="30" viewBox="0 0 30 30" fill="none" xmlns="http://www.w3.org/2000/svg">
<path d="M30 12.5806H28.9127L27.2922 13.4333C27.1098 13.3327 26.92 13.2474 26.7154 13.1961L24.6769 12.686V12.4542C25.5788 11.8248 26.129 10.785 26.129 9.67742V8.83159C26.129 6.95186 24.6562 5.37881 22.8459 5.324C22.754 5.32164 22.6635 5.32494 22.5725 5.32943L23.1011 4.09211L20.5388 1.53053L19.0283 2.51362C18.4544 2.19041 17.8475 1.93879 17.2171 1.7623L16.844 0H13.1564L12.7834 1.76277C12.153 1.93926 11.5456 2.19089 10.9722 2.5141L9.46171 1.531L6.90154 4.09117L7.42109 5.32943C7.40124 5.32849 7.38234 5.32494 7.36249 5.32447C6.43586 5.29754 5.5631 5.63563 4.90014 6.27922C4.23623 6.92233 3.87097 7.78541 3.87097 8.70968V9.67742C3.87097 10.785 4.42076 11.8244 5.32258 12.4538V12.686L3.99288 13.0184L1.58274 11.6129H0V21.6393L4.76027 23.2258H5.68737L5.80314 22.8204L7.26232 23.6962C7.28618 24.4896 7.92244 25.128 8.71511 25.1559C8.74299 25.9452 9.37736 26.5796 10.1667 26.6075C10.1946 27.3968 10.829 28.0312 11.6183 28.0591C11.6472 28.8669 12.3087 29.5161 13.1231 29.5161C13.4255 29.5161 13.722 29.4219 13.9713 29.2539L14.3999 29.6324C14.6685 29.8689 15.0144 30 15.3735 30H15.4631C16.2683 30 16.9234 29.3491 16.9336 28.5465C17.73 28.5363 18.375 27.8913 18.3852 27.0949C19.1821 27.0847 19.8276 26.4388 19.8368 25.6419C20.6411 25.623 21.2903 24.9659 21.2903 24.1572C21.2903 24.1085 21.288 24.0605 21.283 24.0121L30 19.6539V12.5806ZM25.1613 8.83159V9.67742C25.1613 10.5362 24.6973 11.3386 23.9502 11.7712L23.7083 11.9111L23.7101 13.4423L26.1276 14.0462L20.8065 16.8469V15.5434C20.8065 14.893 20.5437 14.2973 20.1135 13.8572L21.7742 13.4423V11.9099L21.5327 11.7703C20.7861 11.3386 20.3226 10.5362 20.3226 9.67742V8.70968C20.3226 8.04979 20.5834 7.43266 21.0576 6.97313C21.5313 6.51383 22.1598 6.26622 22.8168 6.29174C24.1094 6.33049 25.1613 7.46999 25.1613 8.83159ZM15.7296 16.4665L13.5392 15.7664C12.541 15.4465 11.4605 15.3988 10.4387 15.6252L10.1613 15.6866V15.5434C10.1613 14.8762 10.6137 14.2969 11.2606 14.1348L14.0323 13.4423V11.9099L13.7908 11.7703C13.0442 11.3386 12.5806 10.5362 12.5806 9.67742V8.70968C12.5806 8.04979 12.8415 7.43266 13.3157 6.97313C13.7894 6.51383 14.4219 6.26622 15.0749 6.29174C16.3675 6.33049 17.4194 7.46999 17.4194 8.83159V9.67742C17.4194 10.5362 16.9553 11.3386 16.2083 11.7712L15.9663 11.9111L15.9682 13.4423L18.7394 14.1348C19.3863 14.2969 19.8387 14.8762 19.8387 15.5434V17.3565L19.7192 17.4194H19.4226L16.4478 16.5693C16.2135 16.5029 15.972 16.4757 15.7296 16.4665ZM10.2697 7.242C11.1784 5.48135 13.0073 4.35484 15 4.35484C16.9738 4.35484 18.7949 5.46623 19.7104 7.20301C19.4801 7.66491 19.3548 8.17643 19.3548 8.70968V9.67742C19.3548 10.785 19.9046 11.8244 20.8065 12.4538V12.686L18.871 13.1706L16.935 12.686V12.4542C17.8368 11.8248 18.3871 10.785 18.3871 9.67742V8.83159C18.3871 6.95186 16.9142 5.37881 15.104 5.324C14.1778 5.29683 13.3046 5.63516 12.6416 6.27875C11.9782 6.92233 11.6129 7.78541 11.6129 8.70968V9.67742C11.6129 10.785 12.1627 11.8244 13.0645 12.4538V12.686L11.129 13.1706L9.19308 12.686V12.4542C10.0949 11.8248 10.6452 10.785 10.6452 9.67742V8.83159C10.6452 8.26219 10.5081 7.72162 10.2697 7.242ZM8.04435 4.31562L9.59024 2.76974L10.9509 3.65526L11.2113 3.49554C11.8636 3.09578 12.5686 2.80305 13.3065 2.62656L13.6041 2.55521L13.9408 0.967742H16.0596L16.3954 2.55473L16.6931 2.62585C17.4309 2.80258 18.1359 3.09531 18.7883 3.49507L19.0486 3.65479L20.4093 2.76926L21.9533 4.31373L21.4044 5.59877C21.0309 5.75943 20.6845 5.98554 20.3831 6.2778C20.3632 6.29717 20.3462 6.31797 20.3268 6.33781C19.1869 4.52566 17.1715 3.3871 15 3.3871C12.8129 3.3871 10.7919 4.53629 9.65474 6.36687C9.35043 6.04839 8.98847 5.79039 8.58729 5.61012L8.04435 4.31562ZM6.29032 13.4423V11.9099L6.04886 11.7703C5.30226 11.3386 4.83871 10.5362 4.83871 9.67742V8.70968C4.83871 8.04979 5.09955 7.43266 5.57373 6.97313C6.04744 6.51383 6.67732 6.26622 7.33296 6.29174C8.62557 6.33049 9.67742 7.46999 9.67742 8.83159V9.67742C9.67742 10.5362 9.21339 11.3386 8.46632 11.7712L8.22439 11.9111L8.22628 13.4423L9.88651 13.8572C9.45627 14.2973 9.19355 14.893 9.19355 15.5434V15.9018L7.68429 16.2373L7.72351 16.1003L7.74194 15.206L5.19004 13.7173L6.29032 13.4423ZM0.967742 12.5806H1.32049L4.80043 14.6104L3.04451 21.6339L0.967742 20.9414V12.5806ZM4.91715 22.2581L3.96476 21.9408L5.6706 15.1181L6.77419 15.7617V15.8999L4.95779 22.2581H4.91715ZM8.22581 23.6511C8.22581 23.5084 8.28345 23.3685 8.38458 23.2674L9.23513 22.4168C9.33625 22.3157 9.47612 22.2581 9.61882 22.2581C9.91794 22.2581 10.1613 22.5014 10.1613 22.8005C10.1613 22.9432 10.1036 23.0831 10.0025 23.1842L9.15197 24.0348C9.05084 24.1359 8.91098 24.1935 8.76827 24.1935C8.46916 24.1935 8.22581 23.9502 8.22581 23.6511ZM9.67742 25.1027C9.67742 24.96 9.73507 24.8201 9.83619 24.719L10.6867 23.8684C10.7879 23.7673 10.9277 23.7097 11.0704 23.7097C11.3695 23.7097 11.6129 23.953 11.6129 24.2521C11.6129 24.3948 11.5553 24.5347 11.4541 24.6358L10.6036 25.4864C10.5025 25.5875 10.3626 25.6452 10.2199 25.6452C9.92077 25.6452 9.67742 25.4018 9.67742 25.1027ZM11.129 26.5543C11.129 26.4116 11.1867 26.2717 11.2878 26.1706L12.1384 25.3201C12.2395 25.2189 12.3793 25.1613 12.5221 25.1613C12.8212 25.1613 13.0645 25.4046 13.0645 25.7038C13.0645 25.8465 13.0069 25.9863 12.9057 26.0874L12.0552 26.938C11.9541 27.0391 11.8142 27.0968 11.6715 27.0968C11.3724 27.0968 11.129 26.8534 11.129 26.5543ZM13.1231 28.5484C12.824 28.5484 12.5806 28.305 12.5806 28.0059C12.5806 27.8632 12.6383 27.7233 12.7394 27.6222L13.59 26.7717C13.6911 26.6706 13.831 26.6129 13.9737 26.6129C14.2728 26.6129 14.5161 26.8563 14.5161 27.1554C14.5161 27.2981 14.4585 27.4379 14.3574 27.5391L13.5068 28.3896C13.4057 28.4907 13.2658 28.5484 13.1231 28.5484ZM15.4631 29.0323H15.3735C15.2502 29.0323 15.1321 28.9874 15.0402 28.9059L14.6782 28.5867L15.0416 28.2233C15.1713 28.0936 15.2719 27.9393 15.3464 27.7737L15.7863 28.1399C15.9014 28.2358 15.9677 28.3771 15.9677 28.5276C15.9677 28.8059 15.7414 29.0323 15.4631 29.0323ZM19.8023 24.6774H19.7187C19.5972 24.6774 19.4786 24.6344 19.3858 24.5565L16.7618 22.3698L16.1419 23.1136L18.69 25.2367C18.8046 25.3326 18.871 25.4739 18.871 25.6244C18.871 25.9027 18.6446 26.129 18.3663 26.129H18.2607C18.1433 26.129 18.0284 26.0874 17.938 26.0118L15.3097 23.8219L14.6898 24.5657L17.2379 26.689C17.353 26.7842 17.4194 26.9255 17.4194 27.076C17.4194 27.3543 17.193 27.5806 16.9147 27.5806C16.729 27.5806 16.548 27.5147 16.4055 27.3964L15.3256 26.4962C15.0877 26.01 14.5988 25.6709 14.0264 25.6506C13.9985 24.8612 13.3641 24.2269 12.5747 24.199C12.5469 23.4096 11.9125 22.7752 11.1231 22.7474C11.0948 21.9396 10.4332 21.2903 9.61882 21.2903C9.22119 21.2903 8.83206 21.4515 8.55091 21.7326L7.70035 22.5832C7.64956 22.634 7.6075 22.6916 7.56474 22.7488L6.07839 21.8569L7.38139 17.2965L10.648 16.5702C11.5049 16.3786 12.4084 16.4202 13.2441 16.6876L13.9569 16.9156L11.5404 18.1239C10.9882 18.4006 10.6452 18.956 10.6452 19.5736V19.6693C10.6452 20.5631 11.3724 21.2903 12.2662 21.2903C12.5599 21.2903 12.8488 21.2105 13.1 21.059L14.9017 19.9786C15.2637 19.7617 15.7494 19.8092 16.062 20.0903L20.1503 23.7697C20.2597 23.8689 20.3226 24.0097 20.3226 24.1572C20.3226 24.4442 20.0894 24.6774 19.8023 24.6774ZM29.0323 19.0557L20.8804 23.132C20.8539 23.1039 20.8263 23.0772 20.7972 23.0512L16.7096 19.3718C16.3514 19.0486 15.8884 18.871 15.4059 18.871C15.0532 18.871 14.7068 18.9669 14.4034 19.1488L12.601 20.2297C12.4998 20.2907 12.3843 20.3226 12.2662 20.3226C11.9056 20.3226 11.6129 20.0298 11.6129 19.6693V19.5736C11.6129 19.3244 11.7514 19.1009 11.9739 18.9896L14.673 17.64C15.1349 17.4087 15.6833 17.357 16.1811 17.5002L19.2218 18.3687L19.9583 18.3871L29.0323 13.6112V19.0557Z" fill="white"/>
</svg>
