<svg width="33" height="33" viewBox="0 0 33 33" fill="none" xmlns="http://www.w3.org/2000/svg">
<path d="M28.2084 24.5573L27.6582 24.3572C28.2584 23.3569 28.6085 22.5067 29.9089 22.1066C32.7097 21.3563 33.9601 17.9053 32.1596 15.5046C31.9595 15.2045 31.5094 15.2545 31.3093 15.5546L30.0589 17.6552L28.5585 16.755L29.8089 14.6544C30.0089 14.3543 29.8089 13.9541 29.4588 13.9041C26.4579 13.404 24.0572 16.1048 24.7073 18.9556C24.8574 19.6558 24.7574 20.4061 24.4073 21.0062L23.407 22.7067L23.1069 22.6067C21.6064 22.0566 20.6061 20.6061 20.6061 19.0056V18.6055C22.1566 16.905 23.2069 14.2042 23.457 11.1033H24.0071C24.9074 11.1033 25.6076 10.4031 25.6076 9.50282C25.6076 8.70259 25.0074 8.05239 24.2072 7.90235C24.1572 5.00149 22.4067 2.40071 19.7059 1.20036C19.6058 0.450134 19.0056 0 18.4055 0H14.6544C14.0042 0 13.404 0.450134 13.354 1.20036C10.6532 2.40071 8.90265 5.00149 8.80262 7.95236C8.00238 8.05239 7.4022 8.70259 7.4022 9.55284C7.4022 10.4531 8.10241 11.1533 9.00268 11.1533H9.60285C9.85293 14.3043 10.9032 16.955 12.4537 18.6555V19.0557C12.4537 20.206 11.9035 21.3063 11.0533 22.0065V21.9565C11.0533 21.7565 10.9032 21.5564 10.7032 21.5064L9.90294 21.2063C9.80291 21.0062 9.7529 20.8062 9.65287 20.6061L10.003 19.8559C10.103 19.6558 10.053 19.4558 9.90294 19.3057C9.40279 18.8056 9.40279 18.8056 8.90265 18.3054C8.7526 18.1554 8.50253 18.1054 8.35248 18.2054L7.55224 18.5055C7.35219 18.4055 7.15213 18.3555 6.95207 18.2554L6.65198 17.4552C6.60196 17.2551 6.4019 17.1051 6.20184 17.1051H4.80143C4.60137 17.1051 4.40131 17.2551 4.35129 17.4552L4.0512 18.2554C3.85114 18.3555 3.65108 18.4055 3.45103 18.5055L2.7008 18.1554C2.50074 18.0554 2.30068 18.1054 2.15064 18.2554C1.65049 18.7556 1.65049 18.7556 1.15034 19.2557C1.0003 19.4058 0.950282 19.6558 1.05031 19.8059L1.40042 20.5561C1.30039 20.7562 1.25037 20.9562 1.15034 21.1563L0.350104 21.4564C0.150045 21.5564 0 21.7565 0 21.9565V23.3569C0 23.557 0.150045 23.7571 0.350104 23.8071L1.15034 24.1072C1.25037 24.3072 1.30039 24.5073 1.40042 24.7073L1.0003 25.4576C0.900268 25.6576 0.950282 25.8577 1.10033 26.0077C1.55046 26.4579 1.60048 26.5079 1.95058 26.858C1.45043 27.7082 1.15034 28.7085 1.15034 29.7588V32.5097C1.15034 32.8098 1.3504 33.0098 1.65049 33.0098H31.3593C31.6594 33.0098 31.8595 32.8098 31.8595 32.5097V29.8089C31.8595 27.4582 30.409 25.4076 28.2084 24.5573ZM25.7076 18.8056C25.3075 16.905 26.6579 15.0545 28.5585 14.9044L27.4582 16.755C27.3081 17.0051 27.4081 17.3051 27.6082 17.4552L29.9589 18.8556C30.209 19.0056 30.5091 18.9056 30.6591 18.7056L31.7594 16.855C32.5097 18.6055 31.5594 20.7062 29.6588 21.2063C27.9583 21.7065 27.4582 22.8068 26.7079 24.0571L24.3072 23.1569C25.2575 21.5564 26.1078 20.5561 25.7076 18.8056ZM19.6058 2.25067C21.7565 3.351 23.1069 5.50164 23.2569 7.95236H18.8556L19.6058 2.25067ZM14.6043 1.0003H18.3555C18.5555 1.0003 18.7056 1.20036 18.7056 1.40042L17.8553 7.95236H15.1545L14.3043 1.40042C14.2542 1.20036 14.4043 1.0003 14.6043 1.0003ZM13.404 2.25067L14.1542 7.95236H9.7529C9.85293 5.50164 11.2533 3.351 13.404 2.25067ZM9.00268 10.153C8.65257 10.153 8.4025 9.90294 8.4025 9.55284C8.4025 9.20274 8.65257 8.95266 9.00268 8.95266H24.0071C24.3572 8.95266 24.6073 9.20274 24.6073 9.55284C24.6073 9.90294 24.3572 10.153 24.0071 10.153H9.00268ZM10.6032 11.1533H22.4567C22.0065 15.9547 19.5058 19.6558 16.5049 19.6558C13.504 19.6558 11.0033 15.9547 10.6032 11.1533ZM2.40071 24.5573C2.25067 24.1572 2.15064 23.9571 2.00059 23.557C1.95058 23.407 1.85055 23.3069 1.70051 23.2569L1.0003 23.0068V22.3066L1.70051 22.0566C1.85055 22.0065 1.95058 21.9065 2.00059 21.7565C2.60077 20.3561 2.60077 20.7062 2.10062 19.7059C2.30068 19.5058 2.40071 19.4058 2.60077 19.2057L3.20095 19.5058C3.351 19.5558 3.45103 19.5558 3.60107 19.5058C4.00119 19.3558 4.20125 19.2557 4.60137 19.1057C4.75141 19.0557 4.85144 18.9556 4.90146 18.8056L5.15153 18.1054H5.85174L6.10181 18.8056C6.15183 18.9556 6.25186 19.0557 6.4019 19.1057C6.80202 19.2557 7.00208 19.3558 7.4022 19.5058C7.55224 19.5558 7.70229 19.5558 7.80232 19.5058L8.45251 19.2057L8.95266 19.7059L8.65257 20.3561C8.60256 20.5061 8.60256 20.6061 8.65257 20.7562C9.25275 22.1566 9.00268 21.9065 10.053 22.3066V22.6067C9.65287 22.7568 10.8532 22.3066 8.15242 23.3069C8.60256 21.5564 7.30217 19.9059 5.55165 19.9059C2.90086 19.9059 1.80054 23.407 4.10122 24.8574C3.55106 25.1575 3.10092 25.5576 2.65079 26.0077L2.60077 26.0577C2.40071 25.8577 2.30068 25.7577 2.10062 25.5576L2.40071 24.9074C2.45073 24.8074 2.45073 24.6573 2.40071 24.5573ZM6.65198 23.8571L5.40161 24.3072C4.50134 24.2572 3.80113 23.507 3.80113 22.6067C3.80113 21.6564 4.55135 20.9062 5.50164 20.9062C7.00208 20.9562 7.80232 22.8068 6.65198 23.8571ZM16.0048 32.0095H2.15064V29.8089C2.15064 27.9083 3.351 26.2078 5.10152 25.5076C10.4031 23.557 10.4531 23.557 11.0033 23.2069L15.9547 28.1584V32.0095H16.0048ZM11.8535 22.6067C12.7038 21.8065 13.2539 20.7062 13.404 19.5558C15.3546 21.0563 17.7053 21.0563 19.6558 19.5558C19.7559 20.7562 20.3561 21.8065 21.2063 22.6067L16.5049 27.2581L11.8535 22.6067ZM30.8592 32.0095H17.0051V28.1584L21.9565 23.2069C22.4567 23.507 22.2566 23.407 27.8583 25.5076C29.6588 26.1578 30.8092 27.9083 30.8092 29.8089V32.0095H30.8592Z" fill="white"/>
</svg>
