<svg width="35" height="43" viewBox="0 0 35 43" fill="none" xmlns="http://www.w3.org/2000/svg">
<path d="M17.5005 34.6164C13.6102 34.6164 10.4453 31.4515 10.4453 27.5612C10.4453 26.5063 10.7091 25.4513 11.1706 24.4622C11.3025 24.1326 11.6981 24.0007 12.0278 24.1326C12.3575 24.2644 12.4893 24.6601 12.3575 24.9897C11.9618 25.781 11.764 26.6381 11.764 27.4953C11.764 30.6602 14.3355 33.2317 17.5005 33.2317C20.6654 33.2317 23.2369 30.6602 23.2369 27.4953C23.2369 26.6381 23.0391 25.781 22.6435 24.9897C22.5116 24.6601 22.6435 24.2644 22.9732 24.1326C23.3028 24.0007 23.6985 24.1326 23.8303 24.4622C24.2919 25.4513 24.5556 26.5063 24.5556 27.5612C24.5556 31.4515 21.3907 34.6164 17.5005 34.6164Z" fill="#FF5E15"/>
<path d="M14.467 42.1989C14.4011 42.1989 14.4011 42.1989 14.3351 42.1989C12.5548 41.8032 10.9064 41.1439 9.38991 40.1548C9.12617 39.957 8.9943 39.5614 9.1921 39.2977C10.0493 37.8471 10.1152 36.3965 9.38991 35.6712C8.66462 34.9459 7.21402 35.0118 5.76343 35.869C5.43375 36.0668 5.03813 35.9349 4.90626 35.6712C3.91722 34.1547 3.25786 32.5063 2.86224 30.726C2.79631 30.3963 2.99411 30.0666 3.3238 29.9347C4.9722 29.5391 6.02717 28.5501 6.02717 27.561C6.02717 26.7039 5.23594 25.8467 3.98316 25.3852C3.65348 25.2533 3.45567 24.8577 3.58754 24.528C3.71941 24.1983 4.11503 24.0005 4.44471 24.1324C6.29092 24.8577 7.34589 26.1105 7.34589 27.561C7.34589 29.0776 6.15905 30.3963 4.2469 31.0557C4.57658 32.2425 5.03813 33.3634 5.63156 34.4184C7.41183 33.5612 9.1921 33.6272 10.313 34.6821C11.368 35.7371 11.4339 37.5174 10.5768 39.3636C11.6317 39.957 12.7527 40.4845 13.9395 40.7483C14.5989 38.9021 15.9176 37.6493 17.4341 37.6493C18.9506 37.6493 20.2694 38.8361 20.9287 40.7483C22.1156 40.4186 23.2365 39.957 24.2915 39.3636C23.4343 37.5174 23.5002 35.7371 24.5552 34.6821C25.6102 33.6272 27.3905 33.5612 29.1707 34.4184C29.7642 33.3634 30.2257 32.2425 30.5554 31.0557C28.6432 30.3963 27.4564 29.0776 27.4564 27.561C27.4564 26.1105 28.5114 24.8577 30.3576 24.1324C30.6873 24.0005 31.0829 24.1983 31.2147 24.528C31.3466 24.8577 31.1488 25.2533 30.8191 25.3852C29.5663 25.8467 28.7751 26.7039 28.7751 27.561C28.7751 28.616 29.896 29.5391 31.4785 29.9347C31.8082 30.0007 32.006 30.3963 31.94 30.726C31.5444 32.5063 30.8851 34.1547 29.896 35.6712C29.6982 35.9349 29.3026 36.0668 29.0389 35.869C27.5883 35.0118 26.1377 34.9459 25.4124 35.6712C24.6871 36.3965 24.753 37.8471 25.6102 39.2977C25.808 39.6273 25.6761 40.023 25.4124 40.1548C23.8958 41.1439 22.2474 41.8032 20.4672 42.1989C20.1375 42.2648 19.8078 42.067 19.6759 41.7373C19.2803 40.0889 18.2913 39.0339 17.3022 39.0339C16.2473 39.0339 15.3242 40.1548 14.9285 41.7373C14.9945 42.001 14.7307 42.1989 14.467 42.1989Z" fill="#FF5E15"/>
<path d="M32.995 23.4074H2.00503C1.2138 23.4074 0.488498 22.9459 0.158818 22.1546C-0.170862 21.3634 0.0269462 20.5722 0.620371 19.9787C1.80722 18.8578 3.32375 18.2644 4.97215 18.2644H30.0279C31.6763 18.2644 33.1928 18.8578 34.3796 19.9787C34.9731 20.5722 35.1709 21.4293 34.8412 22.1546C34.5115 22.9459 33.8521 23.4074 32.995 23.4074ZM4.97215 19.5831C3.71936 19.5831 2.46658 20.0447 1.54348 20.9678C1.2138 21.2315 1.34567 21.6271 1.4116 21.6931C1.47754 21.759 1.60941 22.0887 2.00503 22.0887H32.995C33.3906 22.0887 33.5884 21.759 33.5884 21.6931C33.6543 21.5612 33.7203 21.2315 33.4565 20.9678C32.5334 20.1106 31.2806 19.5831 30.0279 19.5831H4.97215Z" fill="#FF5E15"/>
<path d="M11.3685 19.5831H3.71991C3.32429 19.5831 3.06055 19.3193 3.06055 18.9237V16.1544C3.06055 13.6488 3.71991 11.1433 4.97269 8.96736C6.62109 6.06617 9.25854 3.82435 12.4235 2.6375C12.7531 2.50563 13.1488 2.70343 13.2806 3.03311C13.4125 3.36279 13.2147 3.75841 12.885 3.89028C10.0498 4.94526 7.61013 6.98928 6.09361 9.62672C4.97269 11.6048 4.37927 13.8466 4.37927 16.1544V18.2643H11.3685C11.7641 18.2643 12.0279 18.5281 12.0279 18.9237C12.0279 19.3193 11.7641 19.5831 11.3685 19.5831Z" fill="#FF5E15"/>
<path d="M31.2817 19.5831H23.6331C23.2375 19.5831 22.9738 19.3193 22.9738 18.9237C22.9738 18.5281 23.2375 18.2643 23.6331 18.2643H30.6224V16.1544C30.6224 10.6817 27.1937 5.80243 22.1166 3.89028C21.7869 3.75841 21.5891 3.36279 21.721 3.03311C21.8529 2.70343 22.2485 2.50563 22.5782 2.6375C28.1827 4.74745 31.9411 10.1542 31.9411 16.1544V18.9237C31.9411 19.3193 31.6114 19.5831 31.2817 19.5831Z" fill="#FF5E15"/>
<path d="M23.6324 19.583H11.3683C10.9727 19.583 10.709 19.3193 10.709 18.9237C10.709 18.528 10.9727 18.2643 11.3683 18.2643C12.3574 18.2643 13.1486 17.4731 13.1486 16.484L14.0717 2.04402C14.1377 0.857169 15.1267 0 16.2476 0H18.7532C19.8741 0 20.8631 0.857169 20.9291 2.04402L21.8522 16.484C21.8522 17.539 22.6434 18.3302 23.6324 18.3302C24.0281 18.3302 24.2918 18.594 24.2918 18.9896C24.2918 19.3852 24.0281 19.583 23.6324 19.583ZM13.9399 18.2643H21.0609C20.6653 17.7368 20.4675 17.1434 20.4675 16.484L19.6104 2.10995C19.6104 1.6484 19.2147 1.31872 18.7532 1.31872H16.2476C15.7861 1.31872 15.4564 1.6484 15.3904 2.10995L14.4673 16.484C14.4673 17.1434 14.2695 17.8027 13.9399 18.2643Z" fill="#FF5E15"/>
</svg>
