<svg width="33" height="37" viewBox="0 0 33 37" fill="none" xmlns="http://www.w3.org/2000/svg">
<path fill-rule="evenodd" clip-rule="evenodd" d="M26.0917 18.8134V31.566C26.0917 31.7048 26.0366 31.8379 25.9385 31.936L21.8796 35.9949C21.7815 36.093 21.6484 36.1481 21.5097 36.1481H0.523172C0.234249 36.1481 0 35.9139 0 35.625V3.1648C0 2.87588 0.234249 2.64163 0.523172 2.64163H20.2117C20.7429 1.95509 21.4488 1.41148 22.2629 1.07744C22.3406 0.801949 22.5129 0.58157 22.7436 0.409661C23.1255 0.124971 23.7119 0 24.1662 0C24.6239 0 25.2113 0.125409 25.5924 0.409953C25.823 0.582081 25.9948 0.802533 26.0714 1.0781C27.8099 1.79223 29.0586 3.46197 29.1604 5.4383H29.2292C29.5515 5.4383 29.8132 5.7 29.8132 6.02228C29.8132 6.34456 29.5515 6.60626 29.2292 6.60626H28.9456C28.9456 6.61663 28.9457 6.62692 28.9457 6.63728C28.9457 8.30586 28.0828 9.77953 26.7805 10.6349C30.116 11.6602 32.613 14.596 32.9966 18.1644C33.0144 18.3299 32.9611 18.4951 32.8498 18.6189C32.7387 18.7427 32.5801 18.8134 32.4137 18.8134H26.0917ZM19.5899 3.6879H1.04627V35.1019H20.9865V31.566C20.9865 31.2771 21.2208 31.0429 21.5097 31.0429H25.0455V18.8134H15.9231C15.7568 18.8134 15.5984 18.7428 15.4872 18.6191C15.3759 18.4955 15.3225 18.3304 15.3401 18.165C15.7201 14.5968 18.2188 11.661 21.5525 10.6354C20.2499 9.77997 19.3868 8.30608 19.3868 6.63728C19.3868 6.62692 19.3868 6.61663 19.3869 6.60626H19.1076C18.7853 6.60626 18.5236 6.34456 18.5236 6.02228C18.5236 5.7 18.7853 5.4383 19.1076 5.4383H19.1764C19.2082 4.8179 19.3528 4.22779 19.5899 3.6879ZM22.0328 34.362L24.3056 32.0892H22.0328V34.362ZM27.9857 5.4383C27.8956 4.10165 27.1198 2.95479 26.0092 2.34577L25.8024 3.92653C25.7604 4.24742 25.4659 4.47379 25.145 4.43182C24.8241 4.38984 24.5978 4.0953 24.6397 3.77447L24.9387 1.489C24.9391 1.47396 24.94 1.45893 24.9415 1.44381C24.9492 1.36739 24.8795 1.33651 24.8186 1.30527C24.6229 1.20468 24.3689 1.17248 24.1662 1.17248C23.9654 1.17248 23.7126 1.20482 23.5171 1.30527C23.4582 1.33556 23.3916 1.36578 23.3908 1.4352C23.3917 1.44082 23.3925 1.44644 23.3932 1.45214L23.6971 3.77447C23.7391 4.0953 23.5127 4.38984 23.1918 4.43182C22.871 4.47379 22.5764 4.24742 22.5344 3.92653L22.3273 2.34373C21.2157 2.95223 20.4409 4.10019 20.351 5.4383H27.9857ZM24.1662 10.2442C26.1526 10.2442 27.7732 8.62369 27.7732 6.63728C27.7732 6.62692 27.7731 6.61655 27.773 6.60626H20.5595C20.5593 6.61655 20.5593 6.62692 20.5593 6.63728C20.5593 8.62369 22.1798 10.2442 24.1662 10.2442ZM24.1662 11.4167C22.8124 11.4167 21.5396 11.7661 20.4334 12.3795V13.9425H27.899V12.3784C26.7932 11.7656 25.5206 11.4167 24.1662 11.4167ZM19.2609 13.179C19.0898 13.3203 18.9249 13.469 18.7666 13.6243V17.6408H29.5659V13.6223C29.4076 13.4671 29.2427 13.3186 29.0716 13.1773V14.5288C29.0716 14.8526 28.8091 15.1151 28.4853 15.1151H19.8472C19.5234 15.1151 19.2609 14.8526 19.2609 14.5288V13.179ZM17.594 15.0961C17.1217 15.8655 16.781 16.7241 16.6032 17.6408H17.594V15.0961ZM30.7385 17.6408H31.7329C31.554 16.7226 31.2121 15.8627 30.7385 15.0924V17.6408ZM13.7499 31.0188C13.4611 31.0188 13.2268 30.7844 13.2268 30.4957C13.2268 30.207 13.4611 29.9726 13.7499 29.9726H18.2651C18.5539 29.9726 18.7883 30.207 18.7883 30.4957C18.7883 30.7844 18.5539 31.0188 18.2651 31.0188H13.7499ZM5.58379 18.5768H9.82077C10.4129 18.5768 10.8968 19.0606 10.8968 19.6527V23.8898C10.8968 24.4819 10.4129 24.9657 9.82077 24.9657H5.58379C4.9917 24.9657 4.50788 24.4819 4.50788 23.8898V19.6527C4.50788 19.0606 4.9917 18.5768 5.58379 18.5768ZM5.58379 19.6231C5.56743 19.6231 5.55415 19.6364 5.55415 19.6527V23.8898C5.55415 23.906 5.56743 23.9194 5.58379 23.9194H9.82077C9.83712 23.9194 9.85048 23.906 9.85048 23.8898V19.6527C9.85048 19.6364 9.83712 19.6231 9.82077 19.6231H5.58379ZM6.20448 22.0317C6.00038 21.8275 6.00038 21.496 6.20448 21.2919C6.40866 21.0877 6.74014 21.0877 6.94431 21.2919L7.46259 21.8102L8.42156 20.6242C8.6031 20.3997 8.93276 20.3648 9.1573 20.5463C9.38177 20.7279 9.41666 21.0575 9.23511 21.2821L7.91058 22.9201C7.81736 23.0354 7.67947 23.1058 7.53136 23.1136C7.38324 23.1214 7.23878 23.066 7.13389 22.9611L6.20448 22.0317ZM5.58379 26.203H9.82077C10.4125 26.203 10.8968 26.6891 10.8968 27.2808V31.5178C10.8968 32.1099 10.4129 32.5938 9.82077 32.5938H5.58379C4.9917 32.5938 4.50788 32.1099 4.50788 31.5178V27.2808C4.50788 26.6891 4.99214 26.2031 5.58379 26.203ZM5.58379 27.2493C5.567 27.2493 5.55415 27.264 5.55415 27.2808V31.5178C5.55415 31.5341 5.56743 31.5475 5.58379 31.5475H9.82077C9.83712 31.5475 9.85048 31.5341 9.85048 31.5178V27.2808C9.85048 27.264 9.83763 27.2493 9.82077 27.2493H5.58379ZM6.20485 29.6601C6.00053 29.4562 6.00016 29.1247 6.20412 28.9203C6.40807 28.716 6.73963 28.7156 6.94395 28.9196L7.46223 29.4368L8.42156 28.2504C8.6031 28.0259 8.93276 27.9911 9.1573 28.1726C9.38177 28.3541 9.41666 28.6838 9.23511 28.9083L7.91058 30.5463C7.81736 30.6616 7.67969 30.7319 7.53165 30.7398C7.38361 30.7477 7.23922 30.6924 7.13425 30.5877L6.20485 29.6601ZM13.7499 21.198C13.4611 21.198 13.2268 20.9636 13.2268 20.6749C13.2268 20.3862 13.4611 20.1517 13.7499 20.1517H20.686C20.9748 20.1517 21.2092 20.3862 21.2092 20.6749C21.2092 20.9636 20.9748 21.198 20.686 21.198H13.7499ZM13.7499 23.3907C13.4611 23.3907 13.2268 23.1563 13.2268 22.8676C13.2268 22.5789 13.4611 22.3444 13.7499 22.3444H18.2651C18.5539 22.3444 18.7883 22.5789 18.7883 22.8676C18.7883 23.1563 18.5539 23.3907 18.2651 23.3907H13.7499ZM13.7499 28.8261C13.4611 28.8261 13.2268 28.5917 13.2268 28.303C13.2268 28.0143 13.4611 27.7799 13.7499 27.7799H20.686C20.9748 27.7799 21.2092 28.0143 21.2092 28.303C21.2092 28.5917 20.9748 28.8261 20.686 28.8261H13.7499ZM10.6365 5.91738C10.9775 6.02002 11.3071 6.1566 11.621 6.32537L12.2528 6.04447C12.4736 5.94629 12.7321 5.99425 12.903 6.16514L13.9665 7.22871C14.1372 7.39938 14.1853 7.65742 14.0875 7.87817L13.8075 8.51018C13.9766 8.82458 14.1134 9.15482 14.2161 9.49696L14.8602 9.74485C15.0857 9.83165 15.2344 10.0482 15.2344 10.2899V11.7943C15.2344 12.0358 15.0857 12.2525 14.8602 12.3393L14.2157 12.5873C14.1128 12.9283 13.9757 13.2579 13.8073 13.5718L14.0875 14.2045C14.1853 14.4252 14.1372 14.6832 13.9665 14.8539L12.903 15.9174C12.7323 16.0881 12.4742 16.1362 12.2536 16.0385C12.2536 16.0385 11.6218 15.7586 11.6218 15.7586C11.3081 15.9274 10.9778 16.0641 10.6363 16.1668L10.3883 16.8111C10.3016 17.0366 10.0849 17.1853 9.84333 17.1853H8.33893C8.09738 17.1853 7.88072 17.0366 7.79393 16.8111C7.79393 16.8111 7.54596 16.1669 7.54603 16.1669C7.20404 16.0639 6.87401 15.9268 6.55983 15.7582L5.92724 16.0385C5.70657 16.1362 5.44845 16.0881 5.27778 15.9174L4.21421 14.8539C4.04332 14.6831 3.99536 14.4245 4.09355 14.2037L4.37437 13.5723C4.2056 13.2587 4.06895 12.9287 3.96565 12.5875L3.32058 12.3393C3.09509 12.2525 2.94632 12.0358 2.94632 11.7943V10.2899C2.94632 10.0482 3.09509 9.83165 3.32058 9.74485C3.32058 9.74485 3.96551 9.49666 3.96544 9.49666C4.0688 9.15475 4.20552 8.8248 4.37444 8.51069L4.09355 7.8789C3.99536 7.65808 4.04332 7.3996 4.21421 7.22871L5.27778 6.16514C5.44867 5.99425 5.70715 5.94629 5.92797 6.04447C5.92797 6.04447 6.55976 6.32537 6.55969 6.32544C6.8738 6.15652 7.2036 6.01995 7.54471 5.91724L7.79415 5.27099C7.88101 5.0458 8.09752 4.89725 8.33893 4.89725H9.84333C10.085 4.89725 10.3018 5.04616 10.3885 5.2718L10.6365 5.91738ZM9.65273 6.61334L9.44213 6.0652H8.73954L8.52777 6.61407C8.45842 6.79364 8.3052 6.92752 8.11796 6.97205C7.68764 7.07432 7.27718 7.24433 6.9 7.47675C6.7359 7.57786 6.53253 7.59151 6.35639 7.51318L5.82001 7.2747L5.32377 7.77093L5.56225 8.30732C5.64058 8.48339 5.62693 8.68683 5.52583 8.85093C5.29311 9.22854 5.12303 9.63945 5.0193 10.0716C4.9744 10.2585 4.84053 10.4113 4.66117 10.4804L4.11428 10.6908V11.3933L4.66117 11.6037C4.84038 11.6727 4.97426 11.8254 5.01923 12.0121C5.12288 12.4427 5.29275 12.8548 5.52532 13.2309C5.62686 13.3951 5.64072 13.5989 5.56225 13.7753L5.32377 14.3117L5.82044 14.8083L6.35712 14.5706C6.53261 14.4929 6.7351 14.5063 6.89876 14.6066C7.2763 14.8379 7.68699 15.0096 8.11906 15.112C8.30666 15.1564 8.46017 15.2906 8.52945 15.4705L8.7399 16.0174H9.44235L9.65288 15.4705C9.72201 15.2907 9.87545 15.1567 10.0628 15.1121C10.4929 15.0099 10.9043 14.8401 11.28 14.6079C11.4439 14.5065 11.6474 14.4925 11.8236 14.5706L12.3604 14.8083L12.8575 14.3113L12.6197 13.7745C12.542 13.599 12.5554 13.3966 12.6557 13.233C12.887 12.8553 13.0588 12.4445 13.1612 12.0138C13.2057 11.8263 13.3398 11.6729 13.5195 11.6037L14.0664 11.3933V10.6908L13.5195 10.4804C13.3397 10.4111 13.2055 10.2575 13.1611 10.07C13.0589 9.63843 12.8889 9.22803 12.6564 8.85093C12.5555 8.68705 12.5417 8.48404 12.6197 8.30805L12.8575 7.7713L12.3608 7.2747L11.8244 7.51318C11.6483 7.59151 11.4448 7.57786 11.2808 7.47675C10.9035 7.24433 10.4931 7.07432 10.0628 6.97205C9.8753 6.92745 9.72186 6.79321 9.65273 6.61334ZM9.09036 7.83335C10.8628 7.83335 12.2998 9.26884 12.2998 11.0413C12.2998 12.8137 10.8627 14.2508 9.09036 14.2508C7.31791 14.2508 5.88242 12.8137 5.88242 11.0413C5.88242 9.26877 7.31784 7.83335 9.09036 7.83335ZM9.09036 9.0013C7.96321 9.0013 7.05038 9.91414 7.05038 11.0413C7.05038 12.1686 7.96314 13.0828 9.09036 13.0828C10.2177 13.0828 11.1319 12.1687 11.1319 11.0413C11.1319 9.91399 10.2177 9.0013 9.09036 9.0013Z" fill="white"/>
</svg>
