<svg width="35" height="35" viewBox="0 0 35 35" fill="none" xmlns="http://www.w3.org/2000/svg">
<path d="M17.4996 6.00288C11.1606 6.00288 6.00288 11.1606 6.00288 17.4996C6.00288 23.8387 11.1606 28.9964 17.4996 28.9964C23.8387 28.9964 28.9964 23.8394 28.9964 17.4996C28.9964 11.1598 23.8387 6.00288 17.4996 6.00288ZM17.4996 28.125C11.6405 28.125 6.87423 23.3587 6.87423 17.4996C6.87423 11.6405 11.6405 6.87423 17.4996 6.87423C23.358 6.87423 28.125 11.6405 28.125 17.4996C28.125 23.358 23.3587 28.125 17.4996 28.125ZM34.9993 14.5203C34.9993 14.3083 34.8468 14.1275 34.6384 14.0912L31.7934 13.5945C31.4659 12.3935 30.9874 11.2383 30.3673 10.1541L32.0287 7.78988C32.1507 7.61634 32.1303 7.38107 31.98 7.23149L27.7671 3.01923C27.6175 2.86965 27.3815 2.84932 27.2087 2.97058L24.8444 4.63196C23.7603 4.01185 22.6058 3.53333 21.404 3.20585L20.9073 0.360885C20.871 0.152486 20.6895 0 20.4782 0H17.4996H14.5203C14.3083 0 14.1275 0.152486 14.0912 0.360885L13.5945 3.20585C12.3928 3.53333 11.2375 4.01257 10.1541 4.63196L7.79061 2.97058C7.61706 2.84859 7.3818 2.86965 7.23221 3.01923L3.01923 7.23221C2.86965 7.3818 2.84932 7.61779 2.97058 7.79061L4.63196 10.1541C4.01185 11.2383 3.53333 12.3928 3.20512 13.5945L0.360885 14.0912C0.152486 14.1275 0 14.309 0 14.5203V17.4996V20.4789C0 20.691 0.152486 20.8718 0.360885 20.9081L3.20585 21.4047C3.53333 22.6065 4.01185 23.761 4.63196 24.8451L2.97058 27.2094C2.84859 27.3829 2.86892 27.6182 3.01923 27.7678L7.23221 31.9808C7.3818 32.1303 7.61779 32.1507 7.79061 32.0294L10.1549 30.368C11.239 30.9882 12.3935 31.4667 13.5953 31.7942L14.0919 34.6391C14.1282 34.8475 14.3098 35 14.5211 35H17.5004H20.4797C20.6917 35 20.8725 34.8475 20.9088 34.6391L21.4055 31.7942C22.6072 31.4667 23.7617 30.9882 24.8459 30.368L27.2094 32.0294C27.3829 32.1514 27.6182 32.1303 27.7678 31.9808L31.9808 27.7678C32.1303 27.6182 32.1507 27.3822 32.0294 27.2094L30.368 24.8459C30.9882 23.7625 31.4667 22.6072 31.7949 21.4055L34.6391 20.9088C34.8475 20.8725 35 20.691 35 20.4797V17.5004L34.9993 14.5203ZM34.1279 20.1122L31.3686 20.5937C31.1995 20.6234 31.0629 20.7498 31.0208 20.9161C30.6904 22.226 30.1705 23.4793 29.4756 24.6418C29.387 24.7892 29.3943 24.9751 29.4931 25.116L31.1043 27.4091L27.4091 31.1043L25.116 29.4931C24.9751 29.3943 24.7899 29.387 24.6418 29.4756C23.4786 30.1705 22.2253 30.6904 20.9161 31.0201C20.749 31.0622 20.6227 31.198 20.5937 31.3679L20.1122 34.1272L17.4996 34.1279H14.887L14.4056 31.3686C14.3758 31.1995 14.2495 31.0629 14.0832 31.0208C12.774 30.6912 11.5207 30.1713 10.3575 29.4764C10.2101 29.3885 10.0242 29.395 9.8833 29.4938L7.59019 31.1051L3.89494 27.4098L5.50621 25.1167C5.60497 24.9758 5.61223 24.7899 5.52364 24.6425C4.82874 23.48 4.30883 22.226 3.97917 20.9168C3.93706 20.7498 3.80127 20.6234 3.63136 20.5944L0.872077 20.113L0.871351 17.4996V14.887L3.63063 14.4056C3.79982 14.3758 3.93633 14.2495 3.97844 14.0832C4.30883 12.7733 4.82874 11.52 5.52364 10.3575C5.61223 10.2101 5.60497 10.0242 5.50621 9.8833L3.89494 7.59019L7.59019 3.89494L9.8833 5.50621C10.0242 5.60497 10.2101 5.61223 10.3575 5.52364C11.52 4.82874 12.7733 4.30883 14.0832 3.97917C14.2502 3.93706 14.3766 3.80127 14.4056 3.63136L14.887 0.872077L17.4996 0.871351H20.1122L20.5937 3.63063C20.6234 3.79982 20.7498 3.93633 20.9161 3.97844C22.2253 4.30811 23.4786 4.82801 24.6418 5.52291C24.7892 5.61078 24.9751 5.60424 25.116 5.50549L27.4091 3.89421L31.1043 7.58947L29.4931 9.88258C29.3943 10.0234 29.387 10.2093 29.4756 10.3567C30.1705 11.52 30.6904 12.7733 31.0201 14.0825C31.0622 14.2495 31.198 14.3758 31.3679 14.4049L34.1272 14.8863V17.4989L34.1279 20.1122ZM23.732 10.9304L22.605 11.4067C22.2732 11.5469 22.1134 11.9259 22.2405 12.2599C21.3474 12.5257 20.5065 12.326 19.6896 12.1328C18.8401 11.9317 18.037 11.7415 17.2905 12.1205C17.2767 12.1278 17.2629 12.1357 17.2491 12.1445C16.9151 12.363 16.6334 12.5801 16.3901 12.782C16.0677 12.6469 15.6698 12.6832 15.282 12.7195C14.7055 12.7733 14.0629 12.8321 13.4319 12.4727C13.5822 12.1648 13.4754 11.7865 13.1763 11.6064L12.1285 10.9739C11.976 10.8817 11.7959 10.8549 11.6216 10.8977C11.4481 10.9405 11.3014 11.0487 11.2092 11.2012L8.0629 16.4112C7.97069 16.5644 7.94309 16.7437 7.98666 16.918C8.0295 17.0916 8.13769 17.2382 8.29018 17.3304L9.33798 17.9629C9.44617 18.0283 9.56526 18.0588 9.68289 18.0588C9.90944 18.0588 10.1316 17.9433 10.2573 17.7356L10.4112 17.48C10.8614 17.5977 11.186 17.8017 11.3552 17.9564L10.9783 18.3855C10.7452 18.6505 10.629 18.9918 10.6523 19.3462C10.6755 19.7005 10.8338 20.0237 11.0996 20.2567C11.3508 20.4775 11.663 20.5864 11.9738 20.5864C11.9912 20.5864 12.0079 20.5842 12.0246 20.5835C12.0668 20.9023 12.2185 21.1913 12.4618 21.404C12.713 21.6248 13.0252 21.7337 13.336 21.7337C13.344 21.7337 13.352 21.733 13.3593 21.7322C13.3963 22.0612 13.5495 22.3603 13.7993 22.5796C14.0505 22.8004 14.3628 22.9093 14.6736 22.9093C14.6844 22.9093 14.6946 22.9078 14.7055 22.9078C14.7425 23.2215 14.8899 23.5229 15.1448 23.7472C15.3881 23.9614 15.6952 24.0762 16.0176 24.0762C16.0467 24.0762 16.0757 24.0754 16.1055 24.0733C16.3422 24.058 16.5644 23.9803 16.7561 23.8525C17.0015 24.0326 17.2869 24.1219 17.5686 24.1219C17.9368 24.1219 18.2976 23.9716 18.5561 23.6775C18.7006 23.5127 18.7965 23.3217 18.8459 23.1213C18.9461 23.1453 19.0485 23.1583 19.1538 23.1583C19.1828 23.1583 19.2126 23.1576 19.2416 23.1554C19.596 23.1329 19.9191 22.9739 20.1522 22.7081C20.2996 22.5404 20.3969 22.3443 20.4448 22.1396C20.5392 22.1606 20.635 22.1715 20.7302 22.1715C21.0983 22.1715 21.4657 22.019 21.7271 21.7213C21.8891 21.5369 21.9893 21.3198 22.0321 21.0947C22.0946 21.1034 22.157 21.1092 22.2195 21.1092C22.5876 21.1092 22.955 20.9567 23.2164 20.659C23.5947 20.2284 23.6419 19.6207 23.3805 19.145C23.8692 18.8495 24.05 18.5627 24.2003 18.3209C24.3063 18.151 24.3877 18.0217 24.6208 17.8961C24.7304 18.1473 24.9758 18.2984 25.2351 18.2984C25.3215 18.2984 25.4101 18.2817 25.495 18.2454L26.622 17.769C26.9618 17.6253 27.1215 17.2317 26.9778 16.8919L24.6077 11.2854C24.4654 10.9463 24.0718 10.7866 23.732 10.9304ZM9.61536 17.1126L8.9132 16.6886L11.8504 11.8242L12.5525 12.2483L9.61536 17.1126ZM11.6747 19.6025C11.5839 19.5226 11.5302 19.4123 11.5222 19.2903C11.5142 19.1683 11.5541 19.0514 11.6333 18.9606L12.5794 17.8838C12.6694 17.7814 12.7951 17.7291 12.9214 17.7291C13.0282 17.7291 13.1349 17.7661 13.2213 17.8416C13.4094 18.0072 13.4282 18.2955 13.2627 18.4835L12.3412 19.5328L12.3165 19.5604C12.151 19.7492 11.8627 19.7681 11.6747 19.6025ZM13.0369 20.7498C12.9461 20.6706 12.8924 20.5595 12.8844 20.4375C12.8764 20.3156 12.9156 20.1994 12.9948 20.1086L13.9169 19.0594C13.9249 19.0499 13.9322 19.0397 13.9402 19.0303L13.9416 19.0318C14.1072 18.8437 14.3954 18.8248 14.5835 18.9904C14.7716 19.1559 14.7905 19.4442 14.6249 19.6323L14.3315 19.9663L13.6788 20.7091C13.5132 20.8972 13.2257 20.9153 13.0369 20.7498ZM14.3751 21.9254C14.2844 21.8455 14.2306 21.7351 14.2226 21.6131C14.2146 21.4911 14.2546 21.3742 14.3337 21.2835L14.9865 20.5407C15.1521 20.3526 15.4396 20.3337 15.6284 20.4993C15.7192 20.5791 15.7729 20.6895 15.7809 20.8115C15.7889 20.9335 15.7489 21.0504 15.6698 21.1412L15.1259 21.7598C15.1259 21.7598 15.1259 21.7598 15.1252 21.7605L15.0562 21.8397L15.0177 21.884C14.8515 22.0728 14.5632 22.0909 14.3751 21.9254ZM16.0503 23.2034C15.9283 23.2121 15.8114 23.1721 15.7206 23.0923C15.5326 22.9267 15.5137 22.6384 15.6792 22.4504L15.685 22.4438L15.7794 22.3364C15.8695 22.2347 15.9951 22.1824 16.1207 22.1824C16.2275 22.1824 16.3342 22.2195 16.4206 22.2957C16.6087 22.4613 16.6276 22.7495 16.462 22.9376L16.3618 23.0523C16.2826 23.1416 16.1716 23.1961 16.0503 23.2034ZM17.9026 23.1024C17.761 23.2636 17.5229 23.2941 17.3275 23.1867C17.5171 22.7699 17.4771 22.2797 17.2208 21.8978L17.8612 22.4605L17.862 22.4613C18.0493 22.6268 18.0675 22.9144 17.9026 23.1024ZM22.5629 20.0846C22.3974 20.2727 22.1091 20.2916 21.921 20.126L21.6081 19.8516L21.6073 19.8508C21.6073 19.8508 21.6066 19.8508 21.6066 19.8501L19.4239 17.9317C19.2431 17.7727 18.9679 17.7908 18.8088 17.9716C18.6498 18.1524 18.668 18.4276 18.8488 18.5866L21.033 20.5058C21.221 20.6714 21.2392 20.9589 21.0736 21.147C20.9081 21.335 20.6205 21.3539 20.4317 21.1884L18.1786 19.2082C17.9978 19.0492 17.7226 19.0673 17.5635 19.2481C17.4045 19.429 17.4227 19.7042 17.6035 19.8632L19.4602 21.4948C19.6453 21.6603 19.662 21.9472 19.4979 22.1338C19.4181 22.2245 19.3077 22.2783 19.1857 22.2863C19.0637 22.2935 18.9468 22.2543 18.856 22.1752L17.6797 21.1412C17.4989 20.9821 17.2237 21.0003 17.0647 21.1811C16.9514 21.3103 16.9282 21.4868 16.9899 21.6356C16.8541 21.5173 16.7009 21.4316 16.5397 21.3779C16.7677 20.8623 16.6479 20.2364 16.2028 19.845C16.0227 19.6867 15.8107 19.5872 15.5907 19.543C15.6604 19.108 15.5137 18.6476 15.1586 18.3354C14.8936 18.1023 14.561 17.9956 14.2335 18.0079C14.1929 17.7015 14.0462 17.4074 13.7964 17.1874C13.2489 16.706 12.4131 16.759 11.9295 17.3029C11.6747 17.0705 11.3138 16.8556 10.8766 16.7089L12.9839 13.2198C13.5546 13.5488 14.1297 13.6294 14.6307 13.6294C14.9001 13.6294 15.1484 13.6061 15.3634 13.5865C15.3895 13.5844 15.4186 13.5815 15.4476 13.5786C14.4855 14.349 14.6133 15.2 14.7171 15.8869C14.7919 16.3829 14.8565 16.8105 14.5755 17.2484C14.5029 17.3609 14.4862 17.5011 14.5305 17.6282C14.5748 17.7552 14.675 17.854 14.8021 17.8968C15.3365 18.0776 15.9385 17.9527 16.4547 17.5555C17.0327 17.1104 17.3791 16.4228 17.337 15.8027C17.3254 15.627 17.4314 15.3401 17.5722 15.2574C17.5955 15.2436 17.6543 15.2087 17.8032 15.2973L22.5208 19.4428C22.7103 19.6083 22.7285 19.8966 22.5629 20.0846ZM23.4626 17.8605C23.3275 18.0769 23.207 18.2686 22.7626 18.4944L18.3521 14.6191C18.3354 14.6046 18.318 14.5915 18.2998 14.5799C17.761 14.2342 17.3355 14.386 17.13 14.508C16.6595 14.7861 16.438 15.4128 16.4685 15.8622C16.4903 16.1897 16.2667 16.6021 15.9239 16.8665C15.8586 16.9173 15.7402 16.9972 15.5943 17.0516C15.7039 16.5811 15.6364 16.1382 15.579 15.7584C15.4825 15.1179 15.4186 14.6946 16.0379 14.2241C16.1984 14.1028 16.3625 13.9583 16.5361 13.8066C16.8548 13.527 17.2157 13.2111 17.7044 12.8895C18.164 12.6687 18.7791 12.8139 19.4885 12.9824C20.362 13.1894 21.4258 13.4413 22.5796 13.0681L24.2817 17.0937C23.8351 17.3137 23.6456 17.5664 23.4626 17.8605ZM25.3425 17.3653L23.13 12.1314L23.8852 11.8119L26.0977 17.0458L25.3425 17.3653Z" fill="white"/>
</svg>
