<svg width="48" height="48" viewBox="0 0 48 48" fill="none" xmlns="http://www.w3.org/2000/svg">
<path d="M3.26377 29.6064V27.8141H3.95883V24.0025H4.2786V23.2218H7.11577V24.0025H7.43554V26.679H8.99293V27.404H10.1336V32.2034H10.7176V28.0452H13.249V30.6104H13.7361V20.0147H13.8752V19.0664L16.342 18.662L18.8545 19.0664V20.0147H19.1328V27.1814H20.0092V27.6555H20.6768V25.5694H21.1358V18.5084H21.4626V17.2121H21.9074V16.4448H23.6679L23.8675 14.2339H24.1332L24.3328 16.4448H26.0933V17.2121H26.5381V18.5084H26.8649V25.5687H27.3239V27.6548H27.9915V27.1807H28.8679V20.0147H29.1462V19.0664L31.6587 18.662L34.1255 19.0664V20.0147H34.2646V30.6111H34.7517V28.0459H37.2831V32.2041H37.8671V27.4047H39.0078V26.6797H40.5652V24.0032H40.8849V23.2225H43.7221V24.0032H44.0419V27.8148H44.7369V29.6071L46.6225 31.3981C46.7434 31.5129 46.7792 31.6827 46.7153 31.837L45.5929 34.5411C45.529 34.6954 45.3835 34.7898 45.2162 34.7841L42.4992 34.701C42.2729 34.694 42.0762 34.8003 41.9574 34.9934C41.6629 35.4732 41.3495 35.941 41.0185 36.394C40.8849 36.5772 40.861 36.8012 40.9538 37.0084L42.0635 39.4982C42.1317 39.6511 42.1001 39.8216 41.982 39.94L39.9137 42.0085C39.7956 42.1269 39.6255 42.1579 39.473 42.0889L36.9915 40.97C36.7848 40.877 36.5614 40.9003 36.3786 41.0335C35.9253 41.3639 35.4587 41.6767 34.9794 41.9705C34.7868 42.0882 34.68 42.2861 34.6863 42.513L34.7629 45.2375C34.7678 45.4052 34.6737 45.5503 34.519 45.6144L31.8196 46.7332C31.6657 46.7973 31.4963 46.7607 31.3818 46.6388L29.518 44.6583C29.3627 44.4935 29.1483 44.4294 28.9283 44.4822C28.3851 44.6125 27.8341 44.7225 27.2754 44.8098C27.0519 44.845 26.8769 44.9867 26.7968 45.1987L25.829 47.745C25.7693 47.9014 25.6273 48 25.4601 48H22.5392C22.372 48 22.23 47.9014 22.1703 47.745L21.2025 45.1987C21.1217 44.9867 20.9474 44.845 20.7232 44.8098C20.1645 44.7225 19.6135 44.6125 19.0703 44.4822C18.8503 44.4294 18.6352 44.4935 18.4806 44.6583L16.6168 46.6388C16.5023 46.7607 16.3329 46.7973 16.179 46.7332L13.4796 45.6144C13.3249 45.5503 13.2308 45.4052 13.2357 45.2375L13.3123 42.513C13.3186 42.2868 13.2118 42.0889 13.0192 41.9705C12.5399 41.6767 12.0733 41.3639 11.62 41.0335C11.4372 40.9003 11.2138 40.877 11.0071 40.97L8.52557 42.0889C8.37307 42.1579 8.20299 42.1262 8.08492 42.0085L6.01661 39.94C5.89854 39.8216 5.86691 39.6511 5.93508 39.4982L7.04479 37.0084C7.13686 36.8012 7.11366 36.5772 6.98013 36.394C6.64912 35.9403 6.33638 35.4732 6.04191 34.9934C5.92384 34.8003 5.72635 34.694 5.50005 34.701L2.78306 34.7841C2.6158 34.7891 2.47102 34.6954 2.40707 34.5411L1.28471 31.837C1.22075 31.6827 1.2566 31.5129 1.37748 31.3981L3.26377 29.6064ZM23.6799 18.2611V18.9023H24.3194V18.2611H23.6799ZM23.6799 19.7808V20.422H24.3194V19.7808H23.6799ZM23.6799 21.3005V21.9417H24.3194V21.3005H23.6799ZM23.6799 22.8202V23.4614H24.3194V22.8202H23.6799ZM23.6799 24.3399V24.9811H24.3194V24.3399H23.6799ZM23.6799 25.8597V26.5008H24.3194V25.8597H23.6799ZM23.6799 27.3794V28.0212H24.3194V27.3794H23.6799ZM23.6799 28.8991V29.5402H24.3194V28.8991H23.6799ZM23.6799 30.4188V31.0599H24.3194V30.4188H23.6799ZM43.3517 26.2641H42.7122V26.9052H43.3517V26.2641ZM43.3517 27.7838H42.7122V28.4249H43.3517V27.7838ZM43.3517 29.3035H42.7122V29.9446H43.3517V29.3035ZM43.3517 30.8232H42.7122V31.4643H43.3517V30.8232ZM41.892 25.3855H41.2525V26.0266H41.892V25.3855ZM41.892 26.9052H41.2525V27.5463H41.892V26.9052ZM41.892 28.4249H41.2525V29.066H41.892V28.4249ZM41.892 29.9446H41.2525V30.5857H41.892V29.9446ZM41.892 31.4643H41.2525V32.1054H41.892V31.4643ZM43.3517 24.7444H42.7122V25.3855H43.3517V24.7444ZM40.1533 29.0942H39.5138V29.7354H40.1533V29.0942ZM40.1533 30.6139H39.5138V31.2551H40.1533V30.6139ZM40.1533 32.1336H39.5138V32.7748H40.1533V32.1336ZM38.9157 28.2157H38.2762V28.8568H38.9157V28.2157ZM38.9157 29.7354H38.2762V30.3765H38.9157V29.7354ZM38.9157 31.2551H38.2762V31.8962H38.9157V31.2551ZM38.9157 32.7748H38.2762V33.4159H38.9157V32.7748ZM40.1533 27.5745H39.5138V28.2157H40.1533V27.5745ZM36.3315 29.9432V30.4871H36.8741V29.9432H36.3315ZM36.3315 28.6553V29.1992H36.8741V28.6553H36.3315ZM36.3315 31.2318V31.7757H36.8741V31.2318H36.3315ZM35.1579 29.9432V30.4871H35.7004V29.9432H35.1579ZM35.1579 31.2318V31.7757H35.7004V31.2318H35.1579ZM35.1579 32.5197V33.0636H35.7004V32.5197H35.1579ZM35.1579 28.6553V29.1992H35.7004V28.6553H35.1579ZM31.315 22.0537V22.6948H31.9546V22.0537H31.315ZM31.315 23.5734V24.2152H31.9546V23.5734H31.315ZM31.315 25.0931V25.7342H31.9546V25.0931H31.315ZM31.315 26.6128V27.2539H31.9546V26.6128H31.315ZM31.315 28.1325V28.7737H31.9546V28.1325H31.315ZM32.7754 21.1751V21.8163H33.415V21.1751H32.7754ZM32.7754 22.6948V23.336H33.415V22.6948H32.7754ZM32.7754 24.2145V24.8557H33.415V24.2145H32.7754ZM32.7754 25.7342V26.3754H33.415V25.7342H32.7754ZM32.7754 27.2539V27.8951H33.415V27.2539H32.7754ZM33.415 29.4148V28.7737H32.7754V29.4148H33.415ZM30.4941 21.1751H29.8546V21.8163H30.4941V21.1751ZM30.4941 22.6948H29.8546V23.336H30.4941V22.6948ZM30.4941 24.2145H29.8546V24.8557H30.4941V24.2145ZM30.4941 25.7342H29.8546V26.3754H30.4941V25.7342ZM30.4941 27.2539H29.8546V27.8951H30.4941V27.2539ZM29.8546 29.4148H30.4941V28.7737H29.8546V29.4148ZM31.315 29.6522V30.2941H31.9546V29.6522H31.315ZM31.315 31.1719V31.8131H31.9546V31.1719H31.315ZM31.315 32.6916V33.3328H31.9546V32.6916H31.315ZM32.7754 30.2934V30.9345H33.415V30.2934H32.7754ZM32.7754 31.8131V32.4542H33.415V31.8131H32.7754ZM30.4941 30.2934H29.8546V30.9345H30.4941V30.2934ZM30.4941 31.8131H29.8546V32.4542H30.4941V31.8131ZM31.315 20.534V21.1751H31.9546V20.534H31.315ZM25.1403 18.9023V19.5441H25.7798V18.9023H25.1403ZM25.1403 20.422V21.0631H25.7798V20.422H25.1403ZM25.1403 21.9417V22.5828H25.7798V21.9417H25.1403ZM25.1403 23.4614V24.1025H25.7798V23.4614H25.1403ZM25.1403 24.9811V25.6222H25.7798V24.9811H25.1403ZM25.7798 27.1426V26.5015H25.1403V27.1426H25.7798ZM25.1403 28.0205V28.6616H25.7798V28.0205H25.1403ZM25.1403 29.5402V30.1813H25.7798V29.5402H25.1403ZM4.64757 26.2641V26.9052H5.28711V26.2641H4.64757ZM4.64757 27.7838V28.4249H5.28711V27.7838H4.64757ZM4.64757 29.3035V29.9446H5.28711V29.3035H4.64757ZM4.64757 30.8232V31.4643H5.28711V30.8232H4.64757ZM6.10797 25.3855V26.0266H6.74751V25.3855H6.10797ZM6.10797 26.9052V27.5463H6.74751V26.9052H6.10797ZM6.10797 28.4249V29.066H6.74751V28.4249H6.10797ZM6.10797 29.9446V30.5857H6.74751V29.9446H6.10797ZM6.10797 31.4643V32.1054H6.74751V31.4643H6.10797ZM4.64757 24.7444V25.3855H5.28711V24.7444H4.64757ZM7.84597 29.0942V29.7354H8.48552V29.0942H7.84597ZM7.84597 30.6139V31.2551H8.48552V30.6139H7.84597ZM7.84597 32.1336V32.7748H8.48552V32.1336H7.84597ZM9.08359 28.2157V28.8568H9.72383V28.2157H9.08359ZM9.08359 29.7354V30.3765H9.72383V29.7354H9.08359ZM9.08359 31.2551V31.8962H9.72383V31.2551H9.08359ZM9.08359 32.7748V33.4159H9.72383V32.7748H9.08359ZM7.84597 27.5745V28.2157H8.48552V27.5745H7.84597ZM11.6678 29.9432H11.1252V30.4871H11.6678V29.9432ZM11.6678 28.6553H11.1252V29.1992H11.6678V28.6553ZM11.6678 31.2318H11.1252V31.7757H11.6678V31.2318ZM12.8414 29.9432H12.2989V30.4871H12.8414V29.9432ZM12.8414 31.2318H12.2989V31.7757H12.8414V31.2318ZM12.8414 32.5197H12.2989V33.0636H12.8414V32.5197ZM12.8414 28.6553H12.2989V29.1992H12.8414V28.6553ZM16.6843 22.0537H16.0447V22.6948H16.6843V22.0537ZM16.6843 23.5734H16.0447V24.2152H16.6843V23.5734ZM16.6843 25.0931H16.0447V25.7342H16.6843V25.0931ZM16.6843 26.6128H16.0447V27.2539H16.6843V26.6128ZM16.6843 28.1325H16.0447V28.7737H16.6843V28.1325ZM15.2239 21.1751H14.5843V21.8163H15.2239V21.1751ZM15.2239 22.6948H14.5843V23.336H15.2239V22.6948ZM15.2239 24.2145H14.5843V24.8557H15.2239V24.2145ZM15.2239 25.7342H14.5843V26.3754H15.2239V25.7342ZM15.2239 27.2539H14.5843V27.8951H15.2239V27.2539ZM14.5843 29.4148H15.2239V28.7737H14.5843V29.4148ZM17.5051 21.1751V21.8163H18.1447V21.1751H17.5051ZM17.5051 22.6948V23.336H18.1447V22.6948H17.5051ZM17.5051 24.2145V24.8557H18.1447V24.2145H17.5051ZM17.5051 25.7342V26.3754H18.1447V25.7342H17.5051ZM17.5051 27.2539V27.8951H18.1447V27.2539H17.5051ZM18.1447 29.4148V28.7737H17.5051V29.4148H18.1447ZM16.6843 29.6522H16.0447V30.2941H16.6843V29.6522ZM16.6843 31.1719H16.0447V31.8131H16.6843V31.1719ZM16.6843 32.6916H16.0447V33.3328H16.6843V32.6916ZM15.2239 30.2934H14.5843V30.9345H15.2239V30.2934ZM15.2239 31.8131H14.5843V32.4542H15.2239V31.8131ZM17.5051 30.2934V30.9345H18.1447V30.2934H17.5051ZM17.5051 31.8131V32.4542H18.1447V31.8131H17.5051ZM16.6843 20.534H16.0447V21.1751H16.6843V20.534ZM22.859 18.9023H22.2195V19.5441H22.859V18.9023ZM22.859 20.422H22.2195V21.0631H22.859V20.422ZM22.859 21.9417H22.2195V22.5828H22.859V21.9417ZM22.859 23.4614H22.2195V24.1025H22.859V23.4614ZM22.859 24.9811H22.2195V25.6222H22.859V24.9811ZM22.2195 27.1426H22.859V26.5015H22.2195V27.1426ZM22.859 28.0205H22.2195V28.6616H22.859V28.0205ZM22.859 29.5402H22.2195V30.1813H22.859V29.5402Z" fill="#FF5E15"/>
<path fill-rule="evenodd" clip-rule="evenodd" d="M22.5392 0C22.372 0 22.23 0.0986364 22.1703 0.255046L21.2025 2.80127C21.1217 3.01334 20.9474 3.15496 20.7232 3.19018C20.1645 3.27755 19.6135 3.38746 19.0703 3.5178C18.8503 3.57064 18.6352 3.50652 18.4806 3.34166L16.6168 1.36118C16.5023 1.2393 16.3329 1.20266 16.179 1.26677L13.4796 2.3863C13.3249 2.45041 13.2308 2.59555 13.2357 2.76323L13.3123 5.48771C13.3186 5.71387 13.2118 5.91184 13.0192 6.03021C12.5399 6.324 12.0733 6.63682 11.62 6.96725C11.4372 7.10041 11.2138 7.12366 11.0071 7.03066L8.52628 5.91114C8.37377 5.84209 8.2037 5.8738 8.08563 5.99216L6.01731 8.06071C5.89924 8.17907 5.86761 8.34957 5.93579 8.50246L7.04549 10.9923C7.13756 11.1995 7.11437 11.4235 6.98084 11.6067C6.64982 12.0604 6.33708 12.5275 6.04261 13.0073C5.92454 13.2004 5.72706 13.3068 5.50076 13.2997L2.78376 13.2166C2.6165 13.2116 2.47172 13.3053 2.40777 13.4596L1.28541 16.1637C1.22146 16.318 1.2573 16.4878 1.37818 16.6026L3.34881 18.4746C3.51256 18.6303 3.57651 18.8459 3.5231 19.0664C3.39168 19.611 3.28064 20.1641 3.19209 20.7249C3.15624 20.949 3.01428 21.1237 2.80274 21.204L0.262146 22.1678C0.106126 22.227 0.00773488 22.3693 0.00703209 22.537L3.74012e-06 25.4651C-0.000699052 25.6328 0.0976923 25.7758 0.253009 25.8357L2.79009 26.8115C2.80977 26.8192 2.82945 26.8277 2.84842 26.8369H2.85685L3.19771 26.9679V23.2394H3.51748V22.4588H7.16567C7.96896 13.8471 15.1993 7.10675 23.9996 7.10675C32.8 7.10675 40.0303 13.8471 40.8336 22.4588H44.4818V23.2394H44.8016V26.9679L45.1424 26.8369H45.1509C45.1699 26.8277 45.1888 26.8192 45.2092 26.8115L47.747 25.8357C47.903 25.7758 48.0007 25.6328 48 25.4651L47.993 22.537C47.993 22.3693 47.8946 22.227 47.7379 22.1678L45.1973 21.204C44.9857 21.1237 44.8438 20.949 44.8079 20.7249C44.7194 20.1648 44.609 19.6117 44.4769 19.0664C44.4235 18.8466 44.4874 18.631 44.6512 18.4746L46.6218 16.6026C46.7434 16.4878 46.7792 16.318 46.7146 16.1637L45.5922 13.4596C45.5283 13.3053 45.3828 13.2109 45.2162 13.2166L42.4992 13.2997C42.2736 13.3068 42.0762 13.2004 41.9574 13.0073C41.6629 12.5275 41.3495 12.0597 41.0192 11.6067C40.8856 11.4235 40.8617 11.1995 40.9545 10.9923L42.0642 8.50246C42.1324 8.34957 42.1008 8.17907 41.9827 8.06071L39.9144 5.99216C39.7963 5.8738 39.6262 5.8428 39.4737 5.91114L36.9922 7.02996C36.7855 7.12296 36.5621 7.09971 36.3793 6.96655C35.926 6.63612 35.4601 6.3233 34.9801 6.0295C34.7875 5.91114 34.6807 5.71387 34.687 5.487L34.7636 2.76252C34.7685 2.59484 34.6744 2.44971 34.5197 2.38559L31.8203 1.26607C31.6657 1.20196 31.497 1.23859 31.3825 1.36048L29.5194 3.34096C29.3648 3.50582 29.1497 3.56993 28.9297 3.51709C28.3865 3.38675 27.8355 3.27684 27.2768 3.18948C27.0526 3.15425 26.8783 3.01264 26.7975 2.80057L25.829 0.255046C25.77 0.0986364 25.6273 0 25.4601 0H22.5392Z" fill="#FF5E15"/>
</svg>
