<svg width="200" height="199" viewBox="0 0 200 199" fill="none" xmlns="http://www.w3.org/2000/svg">
<path fill-rule="evenodd" clip-rule="evenodd" d="M93.9137 0C93.2166 0 92.6251 0.410985 92.376 1.06269L88.344 11.672C88.0074 12.5556 87.2811 13.1457 86.3468 13.2925C84.0188 13.6565 81.7228 14.1144 79.4594 14.6575C78.5428 14.8777 77.6468 14.6105 77.0028 13.9236L69.2366 5.67159C68.7594 5.16373 68.0537 5.01108 67.4126 5.27822L56.1648 9.94291C55.5206 10.2101 55.1282 10.8148 55.1487 11.5134L55.4679 22.8654C55.4942 23.8078 55.0491 24.6327 54.2468 25.1259C52.2496 26.35 50.3052 27.6534 48.4165 29.0302C47.6551 29.585 46.7239 29.6819 45.863 29.2944L35.5262 24.6298C34.8907 24.3421 34.1821 24.4742 33.6901 24.9674L25.0721 33.5863C24.5802 34.0795 24.4484 34.7899 24.7325 35.4269L29.3562 45.8014C29.7398 46.6644 29.6432 47.5979 29.0868 48.3612C27.7076 50.2517 26.4045 52.1981 25.1775 54.1972C24.6856 55.0015 23.8627 55.4448 22.9198 55.4155L11.599 55.0691C10.9021 55.0485 10.2989 55.439 10.0324 56.0818L5.35588 67.3486C5.0894 67.9914 5.23874 68.6989 5.7424 69.1777L13.9534 76.9777C14.6357 77.6263 14.9021 78.5246 14.6796 79.4434C14.132 81.7126 13.6693 84.0171 13.3003 86.3537C13.151 87.2874 12.5595 88.0154 11.6781 88.3503L1.09227 92.3657C0.442192 92.6126 0.0322287 93.2057 0.0293004 93.904L1.55838e-05 106.105C-0.00291271 106.803 0.407051 107.399 1.05421 107.649L11.6254 111.714C11.7074 111.747 11.7894 111.782 11.8684 111.82H11.9035L13.3238 112.366V96.8309H14.6562V93.5783H29.857C33.204 57.6966 63.3303 29.6115 99.9983 29.6115C136.667 29.6115 166.793 57.6966 170.14 93.5783H185.341V96.8309H186.673V112.366L188.094 111.82H188.129C188.208 111.782 188.287 111.747 188.371 111.714L198.946 107.649C199.596 107.399 200.003 106.803 200 106.105L199.971 93.904C199.971 93.2057 199.561 92.6126 198.908 92.3657L188.322 88.3503C187.441 88.0154 186.849 87.2874 186.699 86.3537C186.331 84.02 185.871 81.7154 185.321 79.4434C185.098 78.5274 185.365 77.6291 186.047 76.9777L194.258 69.1777C194.764 68.6989 194.914 67.9914 194.644 67.3486L189.967 56.0818C189.701 55.439 189.095 55.0456 188.401 55.0691L177.08 55.4155C176.14 55.4448 175.317 55.0015 174.822 54.1972C173.595 52.1981 172.29 50.2488 170.913 48.3612C170.357 47.5979 170.257 46.6644 170.644 45.8014L175.267 35.4269C175.551 34.7899 175.42 34.0795 174.928 33.5863L166.31 24.9674C165.818 24.4742 165.109 24.345 164.474 24.6298L154.134 29.2915C153.273 29.679 152.342 29.5821 151.581 29.0273C149.692 27.6505 147.75 26.3471 145.75 25.1229C144.948 24.6298 144.503 23.8078 144.529 22.8625L144.849 11.5105C144.869 10.8118 144.477 10.2071 143.832 9.93994L132.585 5.27529C131.941 5.00815 131.238 5.1608 130.761 5.66866L122.997 13.9206C122.353 14.6076 121.457 14.8747 120.541 14.6546C118.277 14.1115 115.981 13.6535 113.653 13.2895C112.719 13.1427 111.993 12.5527 111.656 11.669L107.621 1.06269C107.375 0.410985 106.781 0 106.083 0H93.9137Z" fill="#FF5E15"/>
<path fill-rule="evenodd" clip-rule="evenodd" d="M93.9137 198.08C93.2166 198.08 92.6251 197.669 92.376 197.018L88.344 186.408C88.0074 185.525 87.2811 184.935 86.3468 184.788C84.0188 184.424 81.7228 183.966 79.4594 183.423C78.5428 183.203 77.6468 183.47 77.0028 184.157L69.2366 192.409C68.7594 192.917 68.0537 193.069 67.4126 192.802L56.1648 188.137C55.5206 187.87 55.1282 187.266 55.1487 186.567L55.4679 175.215C55.4942 174.273 55.0491 173.448 54.2468 172.954C52.2496 171.73 50.3052 170.427 48.4165 169.05C47.6551 168.495 46.7239 168.398 45.863 168.786L35.5262 173.451C34.8907 173.738 34.1821 173.606 33.6901 173.113L25.0721 164.494C24.5802 164.001 24.4484 163.29 24.7325 162.653L29.3562 152.279C29.7398 151.416 29.6432 150.482 29.0868 149.719C27.7076 147.829 26.4045 145.882 25.1775 143.883C24.6856 143.079 23.8627 142.636 22.9198 142.665L11.599 143.011C10.9021 143.032 10.2989 142.641 10.0324 141.999L5.35588 130.732C5.0894 130.089 5.23874 129.381 5.7424 128.903L13.9534 121.103C14.6357 120.454 14.9021 119.556 14.6796 118.637C14.132 116.368 13.6693 114.063 13.3003 111.727C13.151 110.793 12.5595 110.065 11.6781 109.73L1.09227 105.715C0.442192 105.468 0.0322287 104.875 0.0293004 104.176L1.55838e-05 91.9758C-0.00291271 91.2769 0.407051 90.6809 1.05421 90.4318L11.6254 86.3661C11.7074 86.3335 11.7894 86.2981 11.8684 86.2603H11.9035L13.3238 85.7141V101.249H14.6562V104.502H29.857C33.204 140.384 63.3303 168.469 99.9983 168.469C136.667 168.469 166.793 140.384 170.14 104.502H185.341V101.249H186.673V85.7141L188.094 86.2603H188.129C188.208 86.2981 188.287 86.3335 188.371 86.3661L198.946 90.4318C199.596 90.6809 200.003 91.2769 200 91.9758L199.971 104.176C199.971 104.875 199.561 105.468 198.908 105.715L188.322 109.73C187.441 110.065 186.849 110.793 186.699 111.727C186.331 114.06 185.871 116.365 185.321 118.637C185.098 119.553 185.365 120.451 186.047 121.103L194.258 128.903C194.764 129.381 194.914 130.089 194.644 130.732L189.967 141.999C189.701 142.641 189.095 143.035 188.401 143.011L177.08 142.665C176.14 142.636 175.317 143.079 174.822 143.883C173.595 145.882 172.29 147.832 170.913 149.719C170.357 150.482 170.257 151.416 170.644 152.279L175.267 162.653C175.551 163.29 175.42 164.001 174.928 164.494L166.31 173.113C165.818 173.606 165.109 173.735 164.474 173.451L154.134 168.789C153.273 168.401 152.342 168.498 151.581 169.053C149.692 170.43 147.75 171.733 145.75 172.957C144.948 173.451 144.503 174.273 144.529 175.218L144.849 186.57C144.869 187.269 144.477 187.873 143.832 188.14L132.585 192.805C131.941 193.072 131.238 192.92 130.761 192.412L122.997 184.16C122.353 183.473 121.457 183.206 120.541 183.426C118.277 183.969 115.981 184.427 113.653 184.791C112.719 184.938 111.993 185.528 111.656 186.411L107.621 197.018C107.375 197.669 106.781 198.08 106.083 198.08H93.9137Z" fill="#FF5E15"/>
<path d="M188.571 91.4286H169.911C170.579 98.3221 170.514 102.071 169.677 108.571H188.571V91.4286Z" fill="#FF5E15"/>
<path d="M11.4286 91.4286H30.0893C29.4214 98.3221 29.4862 102.071 30.3225 108.571H11.4286V91.4286Z" fill="#FF5E15"/>
</svg>
