<svg width="18" height="13" viewBox="0 0 18 13" fill="none" xmlns="http://www.w3.org/2000/svg">
<path d="M16.418 0H1.58203C0.707941 0 0 0.712336 0 1.58203V11.0742C0 11.9491 0.713145 12.6562 1.58203 12.6562H16.418C17.2847 12.6562 18 11.9521 18 11.0742V1.58203C18 0.713883 17.2949 0 16.418 0ZM16.1964 1.05469C15.8732 1.37619 10.3107 6.90936 10.1187 7.1004C9.81984 7.39923 9.42258 7.56376 9 7.56376C8.57742 7.56376 8.18016 7.3992 7.88034 7.09942C7.75118 6.97092 2.25011 1.49885 1.80359 1.05469H16.1964ZM1.05469 10.8596V1.79736L5.61227 6.33094L1.05469 10.8596ZM1.80425 11.6016L6.36005 7.07474L7.13556 7.84617C7.63358 8.3442 8.29571 8.61845 9 8.61845C9.70429 8.61845 10.3664 8.3442 10.8635 7.84716L11.64 7.07474L16.1957 11.6016H1.80425ZM16.9453 10.8596L12.3877 6.33094L16.9453 1.79736V10.8596Z" fill="#FF5E15"/>
</svg>
