<svg width="130" height="31" viewBox="0 0 130 31" fill="none" xmlns="http://www.w3.org/2000/svg">
<path d="M19.3532 0.812815L16.3198 0L13.7635 9.54034L11.4556 0.927257L8.4221 1.74007L10.9156 11.0459L4.70484 4.83511L2.48419 7.05575L9.29665 13.8683L0.812814 11.595L0 14.6284L9.26966 17.1123C9.16353 16.6545 9.10738 16.1775 9.10738 15.6875C9.10738 12.2186 11.9194 9.40652 15.3883 9.40652C18.8572 9.40652 21.6693 12.2186 21.6693 15.6875C21.6693 16.1744 21.6138 16.6484 21.509 17.1035L29.9334 19.3607L30.7462 16.3273L21.4397 13.8336L29.9241 11.5602L29.1112 8.52681L19.8051 11.0203L26.0159 4.80961L23.7952 2.58896L17.0773 9.30695L19.3532 0.812815Z" fill="#666666"/>
<path d="M21.5002 17.1388C21.2401 18.2383 20.691 19.2261 19.9376 20.0175L26.0407 26.1207L28.2614 23.9L21.5002 17.1388Z" fill="#666666"/>
<path d="M19.876 20.0813C19.1135 20.8601 18.15 21.4412 17.0694 21.7407L19.2902 30.0288L22.3237 29.216L19.876 20.0813Z" fill="#666666"/>
<path d="M16.9561 21.771C16.4548 21.8999 15.9293 21.9684 15.3878 21.9684C14.8077 21.9684 14.2459 21.8897 13.7125 21.7425L11.4897 30.0382L14.5231 30.8509L16.9561 21.771Z" fill="#666666"/>
<path d="M13.6053 21.7119C12.5412 21.3975 11.5948 20.809 10.8479 20.028L4.72976 26.1461L6.9504 28.3668L13.6053 21.7119Z" fill="#666666"/>
<path d="M10.7975 19.9739C10.0634 19.188 9.52864 18.2134 9.27412 17.1308L0.82221 19.3955L1.63502 22.4289L10.7975 19.9739Z" fill="#666666"/>
<path d="M48.9995 7.12817V18.0594L41.9923 7.12817H39.1895V22.2206H41.9923V11.3756L48.9995 22.2206H51.8024V7.12817H48.9995Z" fill="#666666"/>
<path d="M53.0654 9.95262H55.9545V7.12817H53.0654V9.95262ZM53.1085 22.2206V11.4403H55.9114V22.2206H53.1085Z" fill="#666666"/>
<path d="M67.9711 16.8305C67.9711 13.1005 65.3191 11.3325 62.5162 11.3109C59.6918 11.2894 57.0829 13.1005 57.0829 16.8305C57.0829 20.5605 59.6918 22.3715 62.5162 22.35C65.0819 22.3284 66.8499 21.1426 67.6692 19.1806L65.4916 18.275C64.8232 19.6118 63.7667 20.0861 62.5162 20.1077C61.4382 20.1292 60.2092 19.6118 59.9505 17.6929H67.9064C67.9495 17.4126 67.9711 17.1323 67.9711 16.8305ZM62.5162 13.5317C63.5942 13.5532 64.6938 14.1354 65.0388 15.6877H59.9936C60.3601 14.1138 61.4597 13.5101 62.5162 13.5317Z" fill="#666666"/>
<path d="M74.4487 13.4454V11.3109H72.6807V8.42181L69.8778 9.28424V11.3109H68.1098V13.4454H69.8778V19.0296C69.8778 21.1426 70.0503 22.2206 73.3275 22.2206H74.0821V19.7627H73.3275C72.8101 19.7627 72.6807 19.6765 72.6807 19.0296V13.4454H74.4487Z" fill="#666666"/>
<path d="M78.6136 19.8705L84.5643 13.7904V11.4403H75.6382V13.7904H81.4165L75.4657 19.8705V22.2206H84.629V19.8705H78.6136Z" fill="#666666"/>
<path d="M85.6339 19.1806L88.4584 18.7494C88.6524 19.8274 89.9245 20.237 90.7007 20.237C91.4984 20.237 92.8783 20.0646 92.8783 18.7709C92.8783 16.2483 85.9573 19.3962 85.9573 14.5666C85.9573 11.4619 89.558 11.2894 90.7007 11.2894C91.7787 11.2894 94.905 11.4619 95.5518 13.9629L92.8783 14.5235C92.6411 13.3808 91.4337 13.1652 90.7869 13.1652C90.1401 13.1652 88.7602 13.3161 88.7602 14.5666C88.7602 17.0676 95.6812 13.8767 95.6812 18.7709C95.6812 22.0697 91.8865 22.35 90.7007 22.35C89.6226 22.35 86.1945 22.0697 85.6339 19.1806Z" fill="#666666"/>
<path d="M99.3224 16.8305C99.3224 19.4609 100.724 20.2586 102.19 20.237C103.505 20.2155 104.411 19.6765 104.95 18.1672L107.257 19.2884C106.416 21.4876 104.368 22.3284 102.19 22.35C99.3655 22.3715 96.5195 20.5605 96.5195 16.8305C96.5195 13.1005 99.3655 11.2894 102.19 11.3109C104.368 11.3325 106.416 12.1734 107.257 14.3725L104.95 15.4937C104.411 13.9845 103.505 13.4454 102.19 13.4239C100.724 13.4023 99.3224 14.2001 99.3224 16.8305Z" fill="#666666"/>
<path d="M114.781 11.2678C113.337 11.2678 112.021 12.0224 111.181 13.6395V7.12817H108.378V22.2206H111.181V18.4044C111.181 13.467 113.229 13.0574 113.983 13.0574C115.191 13.0574 115.363 14.3079 115.363 16.1405V22.2206H118.166V16.1405C118.166 13.8551 117.8 11.2678 114.781 11.2678Z" fill="#666666"/>
<path d="M130 16.8305C130 13.1005 127.348 11.3325 124.545 11.3109C121.721 11.2894 119.112 13.1005 119.112 16.8305C119.112 20.5605 121.721 22.3715 124.545 22.35C127.111 22.3284 128.879 21.1426 129.698 19.1806L127.521 18.275C126.852 19.6118 125.796 20.0861 124.545 20.1077C123.467 20.1292 122.238 19.6118 121.979 17.6929H129.935C129.978 17.4126 130 17.1323 130 16.8305ZM124.545 13.5317C125.623 13.5532 126.723 14.1354 127.068 15.6877H122.023C122.389 14.1138 123.489 13.5101 124.545 13.5317Z" fill="#666666"/>
</svg>
