<svg width="34" height="34" viewBox="0 0 34 34" fill="none" xmlns="http://www.w3.org/2000/svg">
<path d="M33.502 33.005H25.2228V31.0114C25.2228 30.4951 24.8027 30.0751 24.2864 30.0751H23.3381V27.9217C23.3381 27.4936 22.9898 27.1454 22.5617 27.1454H21.9365L19.6239 9.27695H20.4959C21.1236 9.27695 21.6344 8.76628 21.6344 8.13855V6.20679L26.9549 6.77808V21.5466C26.9549 21.7247 27.0499 21.8892 27.2041 21.9781C27.356 22.0657 27.546 22.0683 27.7024 21.9777C29.1755 21.1252 30.3595 19.781 31.2218 17.9821C31.3407 17.7341 31.236 17.4366 30.9879 17.3177C30.7401 17.1987 30.4425 17.3033 30.3236 17.5515C29.7042 18.8435 28.9083 19.8694 27.9509 20.6122C27.9509 19.9953 27.9509 5.38069 27.9509 4.61596L31.1596 1.87849C32.1409 7.56313 32.0946 12.2256 31.0216 15.7408C30.9413 16.0039 31.0894 16.2823 31.3525 16.3626C31.6155 16.4428 31.8939 16.2948 31.9742 16.0317C33.1115 12.3063 33.1507 7.39041 32.0907 1.42062C32.0387 1.12804 31.8325 0.883861 31.5527 0.783521C31.2728 0.683181 30.9587 0.740556 30.7325 0.9334L27.3124 3.85129L12.8074 1.02285C12.5371 0.970189 12.2759 1.14643 12.2233 1.41637C12.1706 1.68631 12.3468 1.94789 12.6168 2.00055L26.9548 4.79652V5.77634C26.1552 5.69041 4.25146 3.33837 3.51262 3.25908L3.63096 3.04372C4.46111 1.53358 6.15533 0.740622 7.84683 1.0704L10.6255 1.61227C10.8961 1.66513 11.157 1.48869 11.2096 1.21875C11.2623 0.948806 11.0861 0.687232 10.8161 0.634571L8.03748 0.0926964C5.91939 -0.320417 3.79764 0.672755 2.75812 2.56387L2.27953 3.43452C2.19924 3.58049 2.19732 3.75693 2.27435 3.90468C2.35138 4.05243 2.49714 4.15185 2.66282 4.16964L4.25737 4.34084V5.27205C4.25737 5.88126 4.75303 6.37692 5.3623 6.37692H5.8893V21.1346L3.83489 23.1889C3.64039 23.3835 3.64039 23.6988 3.83489 23.8933C4.0294 24.0877 4.3447 24.0878 4.53927 23.8933L7.16503 21.2675C7.86496 20.5676 8.99805 20.5675 9.69817 21.2675C10.3966 21.966 10.3966 23.1023 9.69817 23.8007L5.54213 27.9566C4.84387 28.655 3.70739 28.6552 3.009 27.9566C2.31054 27.2582 2.31054 26.1219 3.009 25.4235L3.13119 25.3013C3.32569 25.1067 3.32569 24.7914 3.13119 24.5969C2.93662 24.4025 2.62132 24.4025 2.42682 24.5969L2.30463 24.7191C1.21789 25.8059 1.21789 27.5742 2.30463 28.661C2.40125 28.7576 2.50352 28.8453 2.60996 28.9247L1.28277 33.0048H0.498047C0.222926 33.0048 0 33.2278 0 33.5029C0 33.778 0.222926 34.0009 0.498047 34.0009H33.502C33.7771 34.0009 34 33.778 34 33.5029C34 33.2278 33.777 33.005 33.502 33.005ZM22.342 30.0751H12.5228V28.1415H22.342V30.0751ZM20.5532 24.2178L15.4488 22.2375L20.0411 20.2607L20.5532 24.2178ZM19.8466 18.7583L15.8945 16.8506L19.3528 14.9429L19.8466 18.7583ZM18.6427 9.45618L19.1318 13.2356L16.3639 11.4407L18.6427 9.45618ZM17.2974 9.30683L16.1073 10.3432L16.2414 9.30683H17.2974ZM15.8544 12.2974L18.7189 14.155L15.3752 15.9994L15.8544 12.2974ZM15.1673 17.6057L19.1848 19.5449L14.6645 21.4907L15.1673 17.6057ZM14.4783 22.9295L19.8873 25.0279L15.9994 27.1394C15.9959 27.1413 15.9929 27.1436 15.9895 27.1455H13.9326L14.4783 22.9295ZM18.0754 27.1454L20.7445 25.6959L20.9321 27.1454H18.0754ZM20.6382 8.13861C20.6382 8.2171 20.5743 8.28092 20.4958 8.28092H14.3689C14.2904 8.28092 14.2265 8.2171 14.2265 8.13861V5.41131L20.6381 6.09981V8.13861H20.6382ZM5.2534 5.27205V4.44782L7.52104 4.69133V5.27212C7.52104 5.33208 7.4723 5.38089 7.41227 5.38089H5.36224C5.30227 5.38083 5.2534 5.33202 5.2534 5.27205ZM10.4025 24.5051C11.4891 23.4184 11.4891 21.6501 10.4025 20.5633C9.43334 19.5942 7.95182 19.5001 6.88527 20.2141V6.37692H7.41233C8.02154 6.37692 8.5172 5.88126 8.5172 5.27205V4.79824L13.2306 5.30439V8.13861C13.2306 8.76635 13.7412 9.27701 14.369 9.27701H15.241L12.9284 27.1455H12.3032C11.8751 27.1455 11.5269 27.4937 11.5269 27.9218V30.0752H10.5785C10.0622 30.0752 9.64219 30.4951 9.64219 31.0114V33.005H7.8799L6.41279 28.4949L10.4025 24.5051ZM2.33013 33.005L3.51256 29.37C3.76165 29.4404 4.01851 29.4762 4.27557 29.4761C4.72441 29.4761 5.17318 29.3685 5.57972 29.1536L6.83247 33.005H2.33013ZM10.6381 33.005V31.0713H24.2267V33.005H10.6381Z" fill="white"/>
</svg>
