<svg width="26" height="30" viewBox="0 0 26 30" fill="none" xmlns="http://www.w3.org/2000/svg">
<path d="M25.5732 17.6659L23.2868 13.7059C23.2335 13.6135 23.1502 13.5421 23.0508 13.5034L18.2234 11.6264C18.3736 11.1193 18.4547 10.5827 18.4547 10.0276C18.4547 6.91945 15.9261 4.39084 12.818 4.39084C9.7099 4.39084 7.18128 6.91945 7.18128 10.0276C7.18128 10.5828 7.26238 11.1193 7.41261 11.6264L2.58525 13.5034C2.48581 13.5421 2.40249 13.6135 2.34917 13.7059L0.0627868 17.6659C-0.00559211 17.7843 -0.0188343 17.9268 0.0265759 18.0558C0.0719274 18.1848 0.17142 18.2876 0.298861 18.3371L2.2863 19.1099V25.5599C2.2863 25.7532 2.40501 25.9267 2.58525 25.9968L12.6481 29.9095C12.7027 29.9308 12.7603 29.9414 12.8179 29.9414C12.8755 29.9414 12.9332 29.9308 12.9878 29.9095L23.0506 25.9968C23.2309 25.9267 23.3496 25.7532 23.3496 25.5599V19.1099L25.337 18.3371C25.4645 18.2876 25.564 18.1848 25.6093 18.0558C25.6548 17.9268 25.6416 17.7844 25.5732 17.6659ZM12.8181 5.32834C15.4093 5.32834 17.5173 7.43643 17.5173 10.0276C17.5173 12.6187 15.4092 14.7268 12.8181 14.7268C10.2269 14.7268 8.11884 12.6187 8.11884 10.0276C8.11884 7.43643 10.2269 5.32834 12.8181 5.32834ZM12.8181 15.6643C15.0515 15.6643 16.9858 14.3585 17.8975 12.4703L21.5968 13.9366L12.8181 17.3501L4.03925 13.9366L7.73857 12.4703C8.65029 14.3585 10.5845 15.6643 12.8181 15.6643ZM1.148 17.6614L2.96007 14.5229L12.1388 18.0919L10.3268 21.2304L1.148 17.6614ZM3.22392 19.4745L10.3619 22.2499C10.5774 22.3337 10.822 22.2478 10.9377 22.0474L12.3493 19.6024V28.7875L3.22392 25.2393V19.4745ZM22.4122 25.2393L13.2868 28.7875V19.6024L14.6985 22.0475C14.8142 22.2478 15.0587 22.3338 15.2743 22.25L22.4122 19.4745V25.2393ZM15.3094 21.2304L13.4972 18.0919L22.6761 14.5229L24.4881 17.6614L15.3094 21.2304ZM11.6518 13.0724C11.9762 13.0724 12.2816 12.9458 12.5116 12.7158L16.1658 9.0617C16.6405 8.58686 16.6405 7.81424 16.1657 7.33928C15.9357 7.1093 15.6299 6.98262 15.3046 6.98262C14.9794 6.98262 14.6735 7.1093 14.4435 7.33928L11.7536 10.0291L11.0358 9.1258C10.8036 8.83377 10.4563 8.66625 10.083 8.66625C9.80956 8.66625 9.54091 8.76012 9.32646 8.93051C8.80146 9.34799 8.71392 10.1147 9.13122 10.6397L10.6607 12.5644C10.8893 12.8829 11.2586 13.0725 11.6518 13.0724ZM9.90976 9.66434C9.97281 9.61424 10.0387 9.60369 10.083 9.60369C10.1688 9.60369 10.2485 9.64213 10.3018 9.70904L11.3465 11.0238C11.4296 11.1284 11.5534 11.1925 11.6868 11.2001C11.8199 11.2076 11.9505 11.1581 12.0449 11.0636L15.1063 8.00221C15.1592 7.94924 15.2296 7.92012 15.3045 7.92012C15.3795 7.92012 15.4498 7.9493 15.5027 8.00215C15.612 8.11154 15.6121 8.28949 15.5028 8.39883L11.8487 12.0529C11.7808 12.1207 11.7041 12.1349 11.6516 12.1349C11.5578 12.1349 11.4734 12.091 11.4199 12.0144C11.4143 12.0064 11.4086 11.9987 11.4026 11.9912L9.86511 10.0564C9.76937 9.93598 9.78947 9.76008 9.90976 9.66434ZM12.3493 2.6642V0.46875C12.3493 0.209883 12.5591 0 12.8181 0C13.0769 0 13.2868 0.209883 13.2868 0.46875V2.6642C13.2868 2.92307 13.0769 3.13295 12.8181 3.13295C12.5591 3.13295 12.3493 2.92307 12.3493 2.6642ZM7.61617 1.92205C7.48673 1.69787 7.56361 1.41117 7.78779 1.28174C8.01191 1.15236 8.29867 1.22912 8.4281 1.4533L9.52579 3.35461C9.65523 3.57879 9.57841 3.86549 9.35423 3.99492C9.2804 4.03752 9.19978 4.05779 9.12027 4.05779C8.95826 4.05779 8.80076 3.97371 8.71386 3.82336L7.61617 1.92205ZM4.07224 4.90693C4.20167 4.6827 4.48837 4.60588 4.71255 4.73537L6.61386 5.83307C6.83804 5.9625 6.91486 6.2492 6.78542 6.47338C6.69865 6.62373 6.54103 6.70781 6.37902 6.70781C6.29951 6.70781 6.21894 6.68754 6.14511 6.64494L4.2438 5.54725C4.01962 5.41781 3.94281 5.13111 4.07224 4.90693ZM2.66716 9.90416C2.66716 9.64529 2.87699 9.43541 3.13591 9.43541H5.3313C5.59023 9.43541 5.80005 9.64529 5.80005 9.90416C5.80005 10.163 5.59023 10.3729 5.3313 10.3729H3.13591C2.87699 10.3729 2.66716 10.1631 2.66716 9.90416ZM16.0773 3.47795L17.175 1.57664C17.3044 1.3524 17.5911 1.27553 17.8153 1.40508C18.0395 1.53451 18.1163 1.82121 17.9869 2.04539L16.8892 3.9467C16.8023 4.09705 16.6448 4.18113 16.4827 4.18113C16.4032 4.18113 16.3226 4.16086 16.2488 4.11826C16.0247 3.98889 15.9478 3.70219 16.0773 3.47795ZM18.7274 6.68707C18.5979 6.46289 18.6747 6.17619 18.8989 6.04676L20.8002 4.94906C21.0244 4.81969 21.3111 4.8965 21.4405 5.12063C21.57 5.3448 21.4932 5.6315 21.269 5.76094L19.3677 6.85863C19.2938 6.90123 19.2133 6.9215 19.1338 6.9215C18.9717 6.9215 18.8141 6.83742 18.7274 6.68707ZM20.0581 9.68215H22.2535C22.5124 9.68215 22.7222 9.89203 22.7222 10.1509C22.7222 10.4098 22.5124 10.6196 22.2535 10.6196H20.0581C19.7992 10.6196 19.5893 10.4098 19.5893 10.1509C19.5893 9.89203 19.7992 9.68215 20.0581 9.68215Z" fill="white"/>
</svg>
