<svg width="30" height="34" viewBox="0 0 30 34" fill="none" xmlns="http://www.w3.org/2000/svg">
<path fill-rule="evenodd" clip-rule="evenodd" d="M18.6038 20.7413C18.6836 20.9264 18.8595 21.0519 19.0605 21.0668C19.0741 21.0678 19.0874 21.0683 19.1009 21.0683C19.287 21.0683 19.4614 20.9723 19.5605 20.8125L20.8714 18.7001L23.3069 19.1989C23.5046 19.2392 23.7079 19.1666 23.8351 19.0103C23.9623 18.854 23.9921 18.6399 23.9124 18.4548L22.1037 14.2553C22.159 14.2318 22.2156 14.2077 22.2752 14.1822C23.208 13.7827 23.7537 12.8374 23.6333 11.8299C23.6109 11.6428 23.59 11.4763 23.5713 11.3268C23.4962 10.7273 23.4584 10.4263 23.4989 10.1964C23.5395 9.96646 23.6779 9.69655 23.9536 9.15889C24.0224 9.02478 24.0989 8.87552 24.184 8.70726C24.6417 7.8017 24.4522 6.72672 23.7123 6.03243C23.575 5.90347 23.4519 5.78937 23.3415 5.68685C22.8985 5.27593 22.6761 5.06966 22.5594 4.86744C22.4426 4.66523 22.3752 4.36955 22.2408 3.7805C22.2073 3.63361 22.1699 3.46994 22.1269 3.28639C21.8955 2.29846 21.0593 1.59687 20.0462 1.54053C19.8581 1.53005 19.6905 1.52173 19.54 1.51422C18.9365 1.4842 18.6336 1.46911 18.4142 1.38924C18.1948 1.30937 17.9531 1.12623 17.4714 0.7613C17.3514 0.670271 17.2175 0.568961 17.0667 0.456019C16.2544 -0.151973 15.163 -0.15204 14.3506 0.456019C14.1998 0.568961 14.0659 0.670271 13.9459 0.7613C13.4642 1.12623 13.2225 1.30937 13.0031 1.38924C12.7837 1.46911 12.4808 1.4842 11.8773 1.51422C11.7268 1.52173 11.5592 1.53005 11.3711 1.54053C10.358 1.59687 9.52175 2.29853 9.29039 3.28639C9.24738 3.46994 9.21004 3.63354 9.1765 3.7805C9.04212 4.36955 8.97469 4.6653 8.85789 4.86744C8.74117 5.06966 8.5188 5.27593 8.07582 5.68685C7.96538 5.78937 7.84237 5.90347 7.70501 6.03243C6.96521 6.72679 6.77557 7.80176 7.23329 8.70733C7.3183 8.87546 7.39486 9.02472 7.46357 9.15876C7.7393 9.69648 7.87774 9.96639 7.91831 10.1963C7.95889 10.4262 7.92109 10.7272 7.84595 11.3266C7.82722 11.4762 7.80632 11.6427 7.78393 11.8299C7.66355 12.8374 8.20926 13.7827 9.14201 14.1822C9.31528 14.2564 9.46988 14.3216 9.60872 14.38C9.65092 14.3978 9.69096 14.4147 9.73005 14.4312L7.51132 19.1967C7.42624 19.3794 7.44984 19.5942 7.57239 19.7543C7.695 19.9142 7.89633 19.993 8.09496 19.958L10.544 19.5301L11.7931 21.6796C11.8903 21.8467 12.0687 21.9488 12.2608 21.9488C12.2689 21.9488 12.2772 21.9486 12.2854 21.9482C12.4868 21.9391 12.6663 21.8188 12.7514 21.6361L14.9595 16.8933C15.3137 16.7869 15.5284 16.7332 15.7088 16.7332C15.9423 16.7332 16.2321 16.8226 16.8095 17.0008C16.8764 17.0215 16.9471 17.0433 17.0213 17.066L18.6038 20.7413ZM20.719 17.5643C20.4971 17.519 20.2702 17.6166 20.1507 17.8091L19.1876 19.3612L18.2681 17.2262C18.8992 17.1386 19.4769 16.785 19.8461 16.2203C19.9493 16.0625 20.0403 15.9215 20.122 15.7949C20.4498 15.2873 20.6143 15.0325 20.7932 14.8824C20.8735 14.815 20.9743 14.7542 21.1111 14.6863L22.5084 17.9307L20.719 17.5643ZM12.2075 20.2397L11.2898 18.6604C11.1759 18.4645 10.9521 18.3604 10.7289 18.3993L8.92951 18.7136L10.6864 14.9402C10.8434 15.0961 11.0055 15.347 11.2948 15.795C11.3766 15.9216 11.4676 16.0625 11.5707 16.2203C12.0272 16.9184 12.8018 17.2945 13.6025 17.2432L12.2075 20.2397ZM15.7084 15.6506C15.3402 15.6506 14.9719 15.756 14.2886 15.9669C14.1463 16.0108 13.9881 16.0596 13.81 16.1135C13.2948 16.269 12.7711 16.0787 12.4763 15.628C12.3744 15.4723 12.2845 15.333 12.2038 15.208C11.4279 14.0065 11.3466 13.9384 10.0286 13.3829C9.89148 13.3252 9.73877 13.2608 9.56767 13.1875C9.07269 12.9754 8.79412 12.493 8.85803 11.9583C8.88015 11.7735 8.90077 11.6089 8.9193 11.4613C9.09724 10.0423 9.07877 9.93772 8.42608 8.66492C8.35818 8.53251 8.28264 8.38514 8.19871 8.21911C7.95578 7.73853 8.05256 7.18992 8.44522 6.8214C8.58095 6.69406 8.70241 6.58139 8.8115 6.48014C9.8601 5.50743 9.91312 5.41552 10.2313 4.02119C10.2643 3.87606 10.3012 3.71449 10.3437 3.53318C10.4664 3.00891 10.8932 2.65081 11.4309 2.62092C11.6167 2.61057 11.7822 2.60232 11.9309 2.59495C13.3593 2.5238 13.4592 2.48748 14.5991 1.62378C14.7177 1.5339 14.8498 1.43381 14.9988 1.32229C15.43 0.999628 15.987 0.999628 16.4181 1.32229C16.5671 1.43381 16.6992 1.5339 16.8178 1.62378C17.9578 2.48748 18.0576 2.5238 19.4861 2.59495C19.6346 2.60232 19.8002 2.61057 19.986 2.62092C20.5237 2.65081 20.9504 3.00891 21.0733 3.53318C21.1157 3.71442 21.1526 3.87599 21.1857 4.02112C21.5038 5.41545 21.5568 5.50743 22.6054 6.48008C22.7145 6.58132 22.836 6.69399 22.9717 6.82134C23.3644 7.18985 23.461 7.73846 23.2181 8.21904C23.1342 8.38514 23.0586 8.53264 22.9906 8.66506C22.3381 9.93772 22.3196 10.0423 22.4976 11.4614C22.5161 11.6091 22.5368 11.7735 22.5588 11.9582C22.6227 12.4929 22.3442 12.9754 21.8492 13.1874C21.6781 13.2606 21.5254 13.325 21.3883 13.3828C20.0703 13.9383 19.989 14.0065 19.2131 15.208C19.1324 15.333 19.0425 15.4722 18.9406 15.628C18.646 16.0786 18.1226 16.2693 17.607 16.1135C17.4288 16.0596 17.2705 16.0107 17.1283 15.9669C16.4449 15.756 16.0766 15.6506 15.7084 15.6506ZM21.078 8.62374C21.078 5.66291 18.6692 3.25413 15.7084 3.25413C12.7476 3.25413 10.3389 5.66291 10.3389 8.62374C10.3389 11.5846 12.7476 13.9934 15.7084 13.9934C18.6692 13.9934 21.078 11.5846 21.078 8.62374ZM15.7083 12.9113C13.3442 12.9113 11.4209 10.9879 11.4209 8.62374C11.4209 6.2596 13.3442 4.33621 15.7083 4.33621C18.0725 4.33621 19.9958 6.2596 19.9958 8.62374C19.9959 10.9879 18.0725 12.9113 15.7083 12.9113ZM18.6798 7.34804L14.9853 10.7009C14.882 10.7947 14.7518 10.8413 14.6218 10.8413C14.483 10.8413 14.3445 10.7882 14.2391 10.6829L12.718 9.16173C12.5067 8.95046 12.5067 8.60791 12.718 8.39664C12.9293 8.18536 13.2718 8.18536 13.4832 8.39664L14.6398 9.55331L17.9527 6.54683C18.1739 6.3461 18.5161 6.3626 18.7169 6.58389C18.9177 6.80504 18.9011 7.14724 18.6798 7.34804ZM28.9511 25.0749C29.6643 24.3619 30.0264 23.4623 29.9985 22.4735L29.735 13.1722C29.709 12.2537 28.7959 11.4307 27.8113 11.4307C27.8018 11.4307 27.7924 11.4308 27.783 11.4309C27.3026 11.4386 25.7364 11.6974 25.7478 14.7037L25.767 19.7563C25.7675 19.8718 25.7602 19.984 25.7452 20.0933C25.707 20.0478 25.6662 20.0032 25.6226 19.9596C24.9549 19.2919 23.8613 19.2835 23.1329 19.9404C23.1148 19.9567 23.0978 19.9742 23.0821 19.9928C22.2671 20.9564 21.2657 21.8004 20.4609 22.4785C20.1787 22.7164 19.9123 22.941 19.6934 23.1382C18.7757 23.9653 18.6533 25.1049 18.6545 26.1106L18.6588 29.7089L18.1922 29.7049C17.8763 29.702 17.5786 29.823 17.3527 30.0449C17.1269 30.267 17.0009 30.5631 16.9982 30.8785L16.9861 32.2861C16.9834 32.6015 17.1042 32.8997 17.3262 33.1256C17.5482 33.3515 17.8443 33.4774 18.1598 33.4801L25.4716 33.5429C25.4751 33.5429 25.4785 33.543 25.482 33.543C25.7936 33.543 26.0877 33.4224 26.3111 33.2028C26.537 32.9808 26.6629 32.6847 26.6656 32.3692L26.6777 30.9617C26.6804 30.6462 26.5596 30.3481 26.3376 30.1222C26.1156 29.8963 25.8195 29.7704 25.504 29.7677L24.9025 29.7626V29.1236L28.9511 25.0749ZM25.5956 30.9525L25.5835 32.36C25.5832 32.3939 25.5665 32.4175 25.5525 32.4312C25.5386 32.445 25.5168 32.4611 25.4808 32.4609L18.169 32.3981C18.1351 32.3978 18.1115 32.3811 18.0978 32.3671C18.0841 32.3531 18.0678 32.3294 18.0681 32.2955L18.0802 30.8879C18.0805 30.854 18.0972 30.8305 18.1112 30.8167C18.125 30.8031 18.1485 30.787 18.1819 30.787H18.1828H18.1829L25.4948 30.8498C25.5499 30.8503 25.5961 30.8973 25.5956 30.9525ZM19.7409 29.7183L19.7366 26.1094C19.7352 25.0073 19.9326 24.3795 20.4179 23.942C20.6233 23.7569 20.8712 23.5479 21.1582 23.3061C21.9855 22.6088 23.0131 21.7428 23.8815 20.7232C24.1852 20.4684 24.5999 20.4673 24.8575 20.7249C25.1317 20.999 25.132 21.3251 24.8598 21.6942C24.4296 22.1778 23.9773 22.6158 23.4987 23.0789C23.2689 23.3013 23.0313 23.5312 22.7916 23.771C22.5803 23.9823 22.5803 24.3248 22.7917 24.5361C22.8973 24.6417 23.0357 24.6945 23.1742 24.6945C23.3127 24.6945 23.4512 24.6417 23.5568 24.536C23.7901 24.3026 24.0245 24.0758 24.2512 23.8565C24.7512 23.3726 25.2235 22.9155 25.6862 22.3936C25.6886 22.3908 26.0485 21.9505 26.0485 21.9505C26.5903 21.2836 26.8522 20.5645 26.8491 19.7523L26.8298 14.6997C26.8248 13.3605 27.1967 12.5226 27.8003 12.5129C27.804 12.5129 27.8076 12.5129 27.8113 12.5129C28.2131 12.5129 28.6438 12.8642 28.6533 13.2029L28.9168 22.5042C28.9364 23.1978 28.6905 23.8053 28.186 24.3098L23.9788 28.5169C23.8774 28.6184 23.8204 28.756 23.8204 28.8994V29.7533L19.7409 29.7183ZM18.6007 31.4382C18.6899 31.2137 18.9443 31.1041 19.1687 31.1934C19.3932 31.2826 19.5028 31.5369 19.4136 31.7614C19.3244 31.9858 19.0701 32.0955 18.8456 32.0062C18.6211 31.9169 18.5114 31.6626 18.6007 31.4382ZM12.6472 30.0451C12.4213 29.823 12.1229 29.7026 11.8076 29.705L11.3411 29.709L11.3455 26.1107C11.3467 25.105 11.2242 23.9654 10.3065 23.1383C10.0878 22.941 9.82121 22.7165 9.53906 22.4787C8.7344 21.8005 7.73294 20.9565 6.91793 19.9929C6.90224 19.9743 6.88527 19.9568 6.86714 19.9405C6.13843 19.2836 5.04479 19.2921 4.37735 19.9598C4.33373 20.0033 4.29295 20.0479 4.25481 20.0935C4.23973 19.9841 4.23249 19.872 4.23296 19.7565L4.25224 14.7038C4.2636 11.6974 2.69736 11.4388 2.21699 11.431C2.20752 11.4308 2.19825 11.4308 2.18872 11.4308C1.20409 11.4308 0.29089 12.2538 0.264987 13.1722L0.00150174 22.4736C-0.0264294 23.4625 0.335728 24.3619 1.04882 25.075L5.09748 29.1237V29.7627L4.49591 29.7679C4.18042 29.7706 3.88433 29.8964 3.66237 30.1223C3.44034 30.3482 3.31956 30.6464 3.32226 30.9619L3.33437 32.3694C3.33707 32.6849 3.46293 32.9809 3.68881 33.2029C3.9122 33.4225 4.20625 33.5431 4.51796 33.5431C4.5214 33.5431 4.52492 33.5431 4.5283 33.543L11.8402 33.4802C12.1557 33.4775 12.4517 33.3516 12.6737 33.1257C12.8957 32.8999 13.0165 32.6017 13.0138 32.2862L13.0017 30.8787C12.9991 30.5632 12.8731 30.2671 12.6472 30.0451ZM6.17955 28.8994C6.17955 28.7559 6.12254 28.6184 6.0211 28.5169L1.81391 24.3097C1.30939 23.8053 1.06349 23.1978 1.08311 22.5042L1.34659 13.2028C1.35626 12.861 1.79755 12.507 2.19961 12.5129C2.80327 12.5226 3.17517 13.3605 3.17009 14.6996L3.15082 19.7523C3.14778 20.5645 3.40964 21.2835 3.95237 21.9517L4.29971 22.3769C4.30208 22.3798 4.31141 22.3908 4.31385 22.3936C4.7765 22.9155 5.24876 23.3726 5.74882 23.8565C5.97551 24.0759 6.20978 24.3026 6.44324 24.536C6.54888 24.6417 6.68732 24.6945 6.82582 24.6945C6.96426 24.6945 7.10277 24.6417 7.20834 24.5361C7.41968 24.3248 7.41968 23.9823 7.2084 23.771C6.96872 23.5313 6.73107 23.3013 6.50133 23.0789C6.02272 22.6157 5.57041 22.1778 5.14022 21.6942C4.86807 21.3252 4.86835 20.999 5.14252 20.7249C5.40025 20.4673 5.81476 20.4684 6.11855 20.7232C6.98692 21.7429 8.01448 22.6089 8.84187 23.3062C9.12882 23.5481 9.37668 23.7569 9.58214 23.9422C10.0674 24.3795 10.2648 25.0074 10.2634 26.1094L10.2591 29.7184L6.17962 29.7534L6.17955 28.8994ZM11.902 32.3672C11.8883 32.3812 11.8648 32.3979 11.8309 32.3982L4.51904 32.461C4.48448 32.4611 4.46128 32.4451 4.44735 32.4313C4.43335 32.4175 4.41665 32.3941 4.41638 32.36L4.40427 30.9525C4.40393 30.9186 4.42023 30.8948 4.43396 30.8808C4.44769 30.8669 4.47122 30.8501 4.50511 30.8499L11.8169 30.787H11.8179C11.8513 30.787 11.8749 30.8032 11.8887 30.8168C11.9027 30.8305 11.9194 30.8541 11.9196 30.888L11.9317 32.2955C11.9321 32.3295 11.9158 32.3532 11.902 32.3672ZM11.3992 31.4382C11.4885 31.6626 11.3789 31.9169 11.1544 32.0062C10.9299 32.0955 10.6756 31.9858 10.5864 31.7614C10.4971 31.5369 10.6067 31.2826 10.8312 31.1934C11.0557 31.1041 11.3099 31.2137 11.3992 31.4382Z" fill="white"/>
</svg>
