<svg width="18" height="18" viewBox="0 0 18 18" fill="none" xmlns="http://www.w3.org/2000/svg">
<path d="M16.8075 7.03723L15.807 6.86145C15.6813 6.45982 15.5203 6.07018 15.3257 5.69707L15.9086 4.86633C16.3112 4.29353 16.2433 3.51404 15.7475 3.01957L14.9801 2.25211C14.4856 1.75637 13.7061 1.68841 13.1333 2.09109L12.3022 2.67399C11.9291 2.47936 11.5395 2.31831 11.1379 2.1927L10.9621 1.19215C10.8411 0.502946 10.2426 0.00021191 9.54281 9.72777e-07H8.45719C7.75688 -0.000807621 7.15767 0.502559 7.03758 1.1925L6.8618 2.1927C6.46017 2.31827 6.0705 2.47932 5.69742 2.67399L4.86668 2.09109C4.29388 1.68841 3.5144 1.75637 3.01992 2.25211L2.25211 3.01992C1.75637 3.5144 1.68841 4.29388 2.09109 4.86668L2.67363 5.69742C2.47901 6.07054 2.31796 6.46017 2.19234 6.8618L1.19215 7.03758C0.502349 7.15781 -0.00080762 7.75702 9.73184e-07 8.45719V9.54281C7.12857e-05 10.2428 0.503016 10.8416 1.1925 10.9624L2.1927 11.1382C2.31827 11.5398 2.47932 11.9295 2.67399 12.3026L2.09109 13.1333C1.68841 13.7061 1.75637 14.4856 2.25211 14.9801L3.01992 15.7479C3.5144 16.2436 4.29388 16.3116 4.86668 15.9089L5.69742 15.3264C6.0705 15.521 6.46017 15.6821 6.8618 15.8077L7.03758 16.8082C7.15795 17.4979 7.75712 18.0008 8.45719 18H9.54281C10.243 18.0008 10.8422 17.4977 10.9624 16.8079C11.0061 16.5592 10.84 16.3223 10.5913 16.2786C10.3427 16.2349 10.1058 16.401 10.0621 16.6496C10.0178 16.9019 9.79886 17.0859 9.54281 17.0859H8.45719C8.201 17.086 7.9818 16.902 7.93758 16.6496L7.71293 15.3689C7.68248 15.1943 7.55381 15.053 7.38281 15.0064C6.8632 14.8674 6.36395 14.661 5.89781 14.3926C5.74355 14.3033 5.55138 14.3118 5.40563 14.4144L4.34215 15.1604C4.13244 15.3074 3.84747 15.2825 3.66645 15.1014L2.89863 14.3336C2.71751 14.1525 2.69258 13.8676 2.83957 13.6579L3.58594 12.5947C3.68859 12.449 3.6971 12.2568 3.60774 12.1025C3.33911 11.6363 3.13249 11.1369 2.9932 10.6172C2.94722 10.4455 2.80582 10.316 2.63074 10.2853L1.35035 10.0607C1.09867 10.0165 0.914837 9.79833 0.914063 9.54281V8.45719C0.914134 8.20114 1.09814 7.98216 1.35035 7.93793L2.63109 7.71328C2.80568 7.68266 2.9468 7.55385 2.9932 7.38281C3.13242 6.8631 3.3389 6.36374 3.60738 5.89746C3.69675 5.7432 3.68824 5.55103 3.58559 5.40527L2.83957 4.34215C2.69258 4.13244 2.71751 3.84747 2.89863 3.66645L3.66645 2.89863C3.84747 2.71751 4.13244 2.69258 4.34215 2.83957L5.40527 3.58594C5.55103 3.68859 5.7432 3.6971 5.89746 3.60774C6.3637 3.33918 6.86306 3.1327 7.38281 2.99356C7.55452 2.94754 7.68396 2.80617 7.71469 2.63109L7.93934 1.35035C7.98346 1.09867 8.20167 0.914837 8.45719 0.914063H9.54281C9.799 0.913958 10.0182 1.098 10.0624 1.35035L10.2871 2.63109C10.3175 2.80572 10.4462 2.94697 10.6172 2.99356C11.1368 3.13281 11.636 3.33928 12.1022 3.60774C12.2565 3.6971 12.4486 3.68859 12.5944 3.58594L13.6579 2.83992C13.8676 2.69293 14.1525 2.71786 14.3336 2.89899L15.1014 3.6668C15.2825 3.84782 15.3074 4.13279 15.1604 4.3425L14.4141 5.40563C14.3114 5.55138 14.3029 5.74355 14.3923 5.89781C14.6607 6.36398 14.8672 6.8632 15.0064 7.38281C15.0526 7.55438 15.1939 7.68368 15.3689 7.71434L16.6496 7.93898C16.9015 7.98314 17.0853 8.20153 17.0859 8.45719V9.54281C17.086 9.799 16.902 10.0182 16.6496 10.0624C16.401 10.1061 16.2349 10.3431 16.2786 10.5917C16.3223 10.8403 16.5592 11.0065 16.8079 10.9628C17.4978 10.8425 18.001 10.2431 18 9.54281V8.45719C18.0001 7.75709 17.4971 7.15813 16.8075 7.03723Z" fill="#FF5E15"/>
<path d="M16.7022 13.7648L13.7786 10.7522C13.3963 10.3604 13.2048 9.82084 13.2544 9.27567C13.4642 6.87545 11.6886 4.7596 9.28838 4.54979C9.03354 4.5275 8.77721 4.52768 8.5224 4.55032C8.32271 4.56656 8.13508 4.65241 7.99224 4.79289C7.64472 5.13468 7.63938 5.69325 7.98029 6.04164L9.23994 7.3259C9.49595 7.58666 9.49212 8.00554 9.23136 8.26155C9.23129 8.26162 9.23122 8.26169 9.23115 8.26176L8.25592 9.21836C7.99502 9.47412 7.57624 9.47001 7.32041 9.20922L6.06076 7.92496C5.71897 7.57745 5.16041 7.5721 4.81201 7.91301C4.66861 8.05311 4.57899 8.23912 4.55889 8.4386C4.29971 10.834 6.03147 12.9859 8.42685 13.2451C8.68134 13.2726 8.93777 13.2777 9.19318 13.2603C9.73803 13.2212 10.2727 13.4223 10.6567 13.8108L13.5786 16.8213C13.7544 17.0024 14.0438 17.0067 14.2249 16.8309C14.4061 16.6551 14.4104 16.3657 14.2346 16.1846L11.311 13.1724C10.7398 12.5922 9.94345 12.291 9.13131 12.348C7.23122 12.4782 5.58534 11.0434 5.45512 9.14334C5.44313 8.96833 5.44451 8.79269 5.45924 8.61789L6.66721 9.84836C6.95925 10.1477 7.3589 10.3177 7.77709 10.3205H7.79256C8.20494 10.3218 8.60115 10.1602 8.89506 9.87086L9.87029 8.91426C10.4915 8.30486 10.5011 7.3073 9.89174 6.68606L8.68377 5.45559C10.5842 5.33145 12.2255 6.77145 12.3497 8.67193C12.3611 8.84704 12.3592 9.02279 12.3439 9.19762C12.2711 10.0076 12.5563 10.8088 13.1244 11.3907L16.0462 14.4014C16.222 14.5826 16.5114 14.5869 16.6926 14.4111C16.8737 14.2353 16.878 13.9459 16.7022 13.7648Z" fill="#FF5E15"/>
</svg>
