<svg width="34" height="35" viewBox="0 0 34 35" fill="none" xmlns="http://www.w3.org/2000/svg">
<path fill-rule="evenodd" clip-rule="evenodd" d="M3.49988 7.11429C3.26512 7.83195 2.58976 8.35089 1.79417 8.35089C0.80396 8.35089 0 7.54693 0 6.55666C0 5.56645 0.80396 4.76249 1.79417 4.76249C2.58976 4.76249 3.26512 5.28143 3.49988 5.99903H5.97895C6.12687 5.99903 6.26871 6.05779 6.37327 6.16241L9.32584 9.11491L9.5852 8.85555C9.74838 8.69237 9.9952 8.64658 10.2061 8.74033L11.2207 9.19145C11.3825 9.10063 11.5476 9.01614 11.7156 8.93822V5.15067C10.998 4.91591 10.479 4.24055 10.479 3.44495C10.479 2.45468 11.2829 1.65072 12.2732 1.65072C13.2635 1.65072 14.0674 2.45468 14.0674 3.44495C14.0674 4.24055 13.5484 4.91591 12.8308 5.15067V8.4634L13.2032 7.49842C13.2862 7.28332 13.4929 7.14154 13.7234 7.14154H15.8503C16.0811 7.14154 16.288 7.28366 16.3708 7.49912L16.7691 8.53589C17.3204 8.69112 17.8509 8.91089 18.3509 9.19145L19.3655 8.74033C19.5764 8.64658 19.8232 8.69237 19.9864 8.85555L21.4899 10.3591C21.6529 10.5221 21.6988 10.7685 21.6055 10.9792L21.1559 11.9941C21.4367 12.4946 21.6567 13.0257 21.812 13.5787L22.8466 13.9769C23.0619 14.0597 23.2039 14.2666 23.2039 14.4973V16.6241C23.2039 16.8549 23.0619 17.0617 22.8466 17.1445L21.8116 17.5429C21.6561 18.0941 21.4353 18.6246 21.1556 19.1246L21.6055 20.1401C21.6988 20.3508 21.6529 20.5973 21.4899 20.7603L19.9864 22.2638C19.8234 22.4268 19.5769 22.4727 19.3662 22.3793L18.3517 21.93C17.8524 22.2106 17.3207 22.4304 16.769 22.5856L16.3707 23.6205C16.2878 23.8358 16.0809 23.9779 15.8503 23.9779H13.7234C13.4928 23.9779 13.2859 23.8358 13.203 23.6205C13.203 23.6205 12.9193 22.8832 12.8308 22.6534V25.97C13.5484 26.2047 14.0674 26.8801 14.0674 27.6757C14.0674 28.6659 13.2635 29.4699 12.2732 29.4699C11.2829 29.4699 10.479 28.6659 10.479 27.6757C10.479 26.8801 10.998 26.2047 11.7156 25.97V22.1823C11.5476 22.1044 11.3826 22.02 11.2209 21.9296L10.2054 22.3793C9.99464 22.4727 9.74817 22.4268 9.5852 22.2638L9.32584 22.0044L6.37327 24.957C6.26871 25.0615 6.12687 25.1203 5.97895 25.1203H3.49988C3.26512 25.8379 2.58976 26.3568 1.79417 26.3568C0.80396 26.3568 0 25.5529 0 24.5627C0 23.5724 0.80396 22.7684 1.79417 22.7684C2.58976 22.7684 3.26512 23.2874 3.49988 24.005H5.74803L8.53721 21.2158L8.08163 20.7603C7.91845 20.5971 7.87266 20.3503 7.96641 20.1394L8.41739 19.1252C8.1369 18.6261 7.91699 18.0947 7.76065 17.5432L6.72499 17.1445C6.50968 17.0617 6.36762 16.8549 6.36762 16.6241V16.1173H3.49988C3.26512 16.8349 2.58976 17.3539 1.79417 17.3539C0.80396 17.3539 0 16.5499 0 15.5597C0 14.5694 0.80396 13.7655 1.79417 13.7655C2.58976 13.7655 3.26512 14.2845 3.49988 15.0021H6.36762V14.4973C6.36762 14.2666 6.50968 14.0597 6.72499 13.9769C6.72499 13.9769 7.76044 13.5784 7.76044 13.5784C7.91685 13.0256 8.13684 12.4948 8.41753 11.9945L7.96641 10.98C7.87266 10.7691 7.91845 10.5223 8.08163 10.3591L8.53721 9.90354L5.74803 7.11429H3.49988ZM2.47315 6.55666C2.47315 6.182 2.16889 5.87775 1.79417 5.87775C1.41944 5.87775 1.11526 6.182 1.11526 6.55666C1.11526 6.93138 1.41944 7.23564 1.79417 7.23564C2.16889 7.23564 2.47315 6.93138 2.47315 6.55666ZM12.2732 4.12387C12.6479 4.12387 12.9522 3.81961 12.9522 3.44495C12.9522 3.07023 12.6479 2.76597 12.2732 2.76597C11.8985 2.76597 11.5943 3.07023 11.5943 3.44495C11.5943 3.81961 11.8985 4.12387 12.2732 4.12387ZM12.2732 26.9967C11.8985 26.9967 11.5943 27.301 11.5943 27.6757C11.5943 28.0504 11.8985 28.3546 12.2732 28.3546C12.6479 28.3546 12.9522 28.0504 12.9522 27.6757C12.9522 27.301 12.6479 26.9967 12.2732 26.9967ZM2.47315 24.5627C2.47315 24.1879 2.16889 23.8837 1.79417 23.8837C1.41944 23.8837 1.11526 24.1879 1.11526 24.5627C1.11526 24.9374 1.41944 25.2416 1.79417 25.2416C2.16889 25.2416 2.47315 24.9374 2.47315 24.5627ZM2.47315 15.5597C2.47315 15.185 2.16889 14.8807 1.79417 14.8807C1.41944 14.8807 1.11526 15.185 1.11526 15.5597C1.11526 15.9344 1.41944 16.2386 1.79417 16.2386C2.16889 16.2386 2.47315 15.9344 2.47315 15.5597ZM15.8309 9.20351L15.4671 8.25679H14.106L13.7404 9.20427C13.6742 9.37574 13.5278 9.50358 13.3491 9.54603C12.7129 9.69722 12.1062 9.94857 11.5485 10.2921C11.3919 10.3887 11.1977 10.4017 11.0295 10.3269L10.103 9.91497L9.14112 10.8769L9.55307 11.8034C9.62786 11.9716 9.61483 12.1658 9.51829 12.3225C9.17444 12.8805 8.92295 13.4877 8.76974 14.1262C8.72688 14.3047 8.59904 14.4506 8.42778 14.5165L7.48288 14.8802V16.2413L8.42778 16.6049C8.5989 16.6708 8.72674 16.8166 8.7696 16.9948C8.92281 17.6312 9.17409 18.2403 9.5178 18.7961C9.61476 18.9529 9.62793 19.1475 9.55307 19.3159L9.14112 20.2425L10.1034 21.2048L11.0302 20.7942C11.1978 20.72 11.3911 20.7328 11.5474 20.8286C12.1053 21.1704 12.7123 21.4241 13.3508 21.5754C13.5299 21.6178 13.6765 21.7459 13.7427 21.9177L14.1063 22.8626H15.4674L15.8311 21.9177C15.8971 21.746 16.0436 21.618 16.2225 21.5755C16.8584 21.4243 17.4669 21.1733 18.0223 20.8298C18.1788 20.733 18.3731 20.7196 18.5413 20.7942L19.4682 21.2048L20.4309 20.2421L20.0203 19.3153C19.9461 19.1477 19.959 18.9543 20.0547 18.7981C20.3966 18.2401 20.6503 17.633 20.8015 16.9964C20.8441 16.8175 20.9721 16.671 21.1438 16.6049L22.0887 16.2413V14.8802L21.1438 14.5165C20.972 14.4504 20.8439 14.3038 20.8015 14.1247C20.6503 13.4866 20.399 12.88 20.0554 12.3225C19.959 12.166 19.9459 11.9721 20.0203 11.8041L20.4309 10.8772L19.4686 9.91497L18.5421 10.3269C18.3739 10.4017 18.1797 10.3887 18.023 10.2921C17.4654 9.94857 16.8587 9.69722 16.2225 9.54603C16.0435 9.50351 15.8969 9.37533 15.8309 9.20351ZM14.7858 11.2924C17.1436 11.2924 19.0552 13.2019 19.0552 15.5597C19.0552 17.9173 17.1434 19.8291 14.7858 19.8291C12.4281 19.8291 10.5185 17.9174 10.5185 15.5597C10.5185 13.2018 12.4279 11.2924 14.7858 11.2924ZM14.7858 12.4076C13.0442 12.4076 11.6338 13.818 11.6338 15.5597C11.6338 17.3014 13.0441 18.7139 14.7858 18.7139C16.5276 18.7139 17.9399 17.3014 17.9399 15.5597C17.9399 13.8179 16.5275 12.4076 14.7858 12.4076ZM14.7578 25.6263C14.7578 25.3186 15.0076 25.0687 15.3154 25.0687H25.0694C25.3354 21.7704 26.1906 20.1193 26.9943 18.7325C27.7635 17.4056 28.4972 16.3499 28.4972 14.0952C28.4972 9.65233 24.8954 6.05061 20.4525 6.05061C19.3043 6.05061 18.2122 6.29102 17.224 6.7245C16.9422 6.84816 16.613 6.71969 16.4893 6.43788C16.3657 6.15607 16.4941 5.82686 16.776 5.70321C17.9013 5.2095 19.1449 4.93535 20.4525 4.93535C25.5113 4.93535 29.6124 9.03643 29.6124 14.0952C29.6124 16.1338 29.0927 17.3086 28.4392 18.4647C27.5501 20.0376 26.3857 21.5716 26.1463 25.659C26.1461 25.6624 26.1459 25.6657 26.1456 25.6691L26.1444 27.0245C26.1444 27.9073 25.5532 28.6569 24.7491 28.8986V29.8208C24.7491 30.7171 24.1372 31.4763 23.3135 31.7057V32.6171C23.3135 33.6901 22.4336 34.5729 21.3606 34.5729H19.5444C18.4718 34.5729 17.5886 33.6898 17.5886 32.6171V31.7053C16.7642 31.4754 16.1559 30.7165 16.1559 29.8208V28.899C15.3491 28.6578 14.7578 27.9076 14.7578 27.0245V25.6263ZM25.0299 26.184H15.873V27.0245C15.873 27.4872 16.2508 27.8651 16.7135 27.8651H24.1915C24.6522 27.8651 25.0291 27.4869 25.0291 27.0242L25.0299 26.184ZM23.6339 28.9803H17.2711V29.8208C17.2711 30.2836 17.649 30.6614 18.1117 30.6614H22.7933C23.2543 30.6614 23.6339 30.2836 23.6339 29.8208V28.9803ZM22.1983 31.7766H18.7039V32.6171C18.7039 33.0781 19.0834 33.4577 19.5444 33.4577H21.3606C21.8212 33.4577 22.1983 33.0778 22.1983 32.6171V31.7766ZM21.0102 2.58426C21.0102 2.892 20.7603 3.14188 20.4525 3.14188C20.1447 3.14188 19.8949 2.892 19.8949 2.58426V0.557628C19.8949 0.249887 20.1447 0 20.4525 0C20.7603 0 21.0102 0.249887 21.0102 0.557628V2.58426ZM27.4216 4.60161C27.2676 4.86809 26.9262 4.95933 26.6598 4.80536C26.3933 4.65131 26.302 4.30998 26.456 4.0435L27.4708 2.28788C27.6247 2.0214 27.9662 1.93016 28.2326 2.08413C28.499 2.23818 28.5903 2.57952 28.4363 2.84599L27.4216 4.60161ZM31.969 9.556C31.7027 9.71018 31.3613 9.61915 31.207 9.35281C31.0528 9.0864 31.1439 8.745 31.4102 8.59081L33.163 7.57607C33.4293 7.42189 33.7708 7.51292 33.925 7.77926C34.0791 8.04559 33.9881 8.387 33.7218 8.54125L31.969 9.556Z" fill="white"/>
</svg>
