<svg width="342" height="13" viewBox="0 0 342 13" fill="none" xmlns="http://www.w3.org/2000/svg">
<path d="M20.7549 2.18872C20.7369 2.18872 20.7369 2.18872 20.7549 2.18872C20.7369 2.18872 20.7188 2.18872 20.7188 2.17061L20.7549 2.18872Z" fill="#FF5E15"/>
<path d="M341.98 7.55302C341.717 5.42493 339.958 6.32188 338.761 6.25154C332.57 5.82944 326.344 4.77417 320.207 5.16111C312.556 5.65356 304.975 4.86211 297.36 4.8973C289.286 4.93246 281.162 5.05558 273.142 4.22897C265.051 3.38477 256.96 2.98024 248.87 3.17371C242.854 3.33199 236.839 3.92997 230.824 4.29932C228.116 4.4576 225.425 3.96516 222.751 3.87722C213.483 3.57822 204.178 3.40237 194.91 3.85963C184.146 4.40485 173.399 4.86211 162.618 5.03799C160.859 5.07317 159.223 3.75409 157.377 4.63348C157.852 5.46009 159.241 4.54554 159.294 5.79425C155.952 6.83192 152.417 5.28421 149.005 6.65604C147.703 7.18367 146.191 6.32188 145.329 5.61837C143.377 4.0355 141.336 4.36966 139.279 4.40485C137.01 4.44001 134.794 4.15863 132.56 3.75409C131.434 3.54306 131.382 3.66616 131.153 4.95005C131.065 5.47768 130.766 5.68874 130.379 5.56562C128.55 4.8973 126.299 5.7415 124.821 4.01791C123.661 2.66367 122.447 2.90989 121.269 3.49028C119.826 4.19379 118.578 5.3018 117.276 3.22649C116.872 2.59333 115.658 3.24406 115.077 4.15863C114.902 4.42244 114.356 4.65107 114.093 4.54554C112.193 3.80687 110.276 4.35207 108.377 4.36967C108.095 4.36967 107.603 4.4576 107.55 4.33448C105.809 0.412479 103.892 4.24657 102.098 4.10585C99.4065 3.87722 96.5573 4.65107 94.0423 3.03302C92.3891 1.96016 90.8941 0.957678 89.4869 3.50787C89.0298 4.31691 81.2205 3.34959 80.482 2.64608C80.007 2.17123 79.409 1.81947 78.3186 1.11596C80.007 3.38477 79.4618 4.24657 77.5271 3.64859C74.4843 2.69886 71.1954 5.09077 68.3109 2.66367C64.2658 5.14352 59.8863 3.1913 55.6827 3.71894C54.4341 3.87722 53.0973 4.01791 51.8133 3.24406C50.8638 2.68126 49.8259 2.98024 49.1401 4.00034C52.4289 5.77668 56.1578 4.91489 59.5521 6.19878C57.5823 7.39474 55.5245 6.83192 53.5193 6.91986C51.233 7.0078 49.2807 6.84951 48.1903 4.08826C47.61 2.59333 45.9741 3.10336 44.8486 2.96267C40.821 2.48779 36.7933 1.46772 32.7129 2.32951C33.0645 2.39986 33.4164 2.50539 33.7856 2.52298C34.665 2.57573 35.6502 2.66367 35.6502 3.87722C35.6502 5.3194 34.4893 5.02039 33.7155 4.96764C30.6727 4.72142 27.5595 5.10833 24.7455 3.2089C23.5847 2.43504 21.7555 4.07069 20.7354 2.18882C19.2052 4.79177 16.9716 3.64859 14.861 3.59581C11.6248 3.54306 8.2655 4.95005 5.13484 2.48779C5.9087 1.5029 7.01676 2.27676 7.98409 1.5029C7.08711 1.18633 6.29564 0.641109 5.53935 0.693862C4.80065 0.746641 4.13233 -0.818662 3.35845 0.588357C2.74288 1.69637 2.6901 2.83955 3.39363 3.77169C3.7102 4.19379 3.85092 4.52795 3.93886 5.02042C4.06196 5.81184 1.98658 5.54803 3.23532 6.67364C4.36096 7.67612 4.48408 5.35456 5.4866 5.63597C5.80319 4.01791 6.59464 4.35207 7.5268 5.00283C9.56701 6.42741 11.6424 5.56562 13.753 5.17871C15.8284 4.79177 17.9389 5.70631 20.0846 5.09077C21.052 4.80936 21.1048 5.81184 20.8585 6.53294C20.4716 7.64096 21.2279 7.44749 21.7027 7.48268C22.2128 7.53543 22.7404 7.32437 22.6173 6.65604C22.0545 3.66616 24.6575 4.98524 24.851 5.19627C27.1375 7.8344 29.5997 6.23394 32.0445 5.81184C33.2758 5.60081 34.6299 5.7239 33.2581 8.64345C37.1977 5.16111 41.1198 7.25402 44.6904 7.4123C47.7329 7.55302 51.022 8.83692 54.1877 8.66104C58.0925 8.44997 62.3485 7.58818 65.831 8.52032C69.5422 9.50524 73.3939 7.60577 76.7885 9.92734C78.5296 8.2565 80.8159 9.71628 82.6805 8.67863C83.9819 7.95753 85.0372 8.18616 86.4969 8.87208C88.1327 9.66352 90.3489 11.774 92.3186 9.03036C92.4769 8.81932 93.2331 8.76654 93.3212 8.94242C95.5901 12.5831 98.0523 9.31177 100.427 9.20624C100.761 9.18864 101.306 8.80173 101.412 8.92485C103.364 11.1409 105.914 9.85699 108.13 10.4022C108.957 10.5957 109.783 11.0002 110.346 9.87459C110.381 9.78665 110.47 9.71628 110.54 9.64593C112.299 11.7389 114.62 9.76905 116.467 10.5957C118.191 11.3871 118.173 11.5982 119.404 9.98009C119.932 9.29418 120.6 10.0153 120.706 10.2263C122.166 13.1283 123.889 12.2841 125.771 10.8419C126.439 10.3143 127.143 9.78665 128.093 10.2791C133.369 13.0403 138.927 12.5655 144.502 11.9147C145.61 11.7916 146.877 11.6333 147.879 12.0554C149.849 12.882 151.872 12.6886 153.736 12.3017C157.113 11.5806 160.507 12.5303 163.708 12.0203C166.522 11.563 169.301 12.1961 172.01 11.5278C174.314 10.9474 176.847 12.8293 178.975 10.7012C183.073 13.4624 187.294 11.3168 191.269 10.5605C193.661 10.1032 195.736 10.9826 197.987 10.7188C203.211 10.1208 208.435 11.6861 213.764 10.8771C215.681 10.5781 217.985 11.475 220.201 11.5278C223.965 11.6157 227.711 11.5278 231.475 11.3871C240.726 11.0529 250.03 10.9298 259.264 11.563C270.748 12.3544 282.27 11.9499 293.718 12.8117C303.57 13.5504 313.223 11.8796 322.967 11.4223C327.522 11.2112 332.096 9.75146 336.705 11.1936C337.548 11.4575 338.568 11.4399 339.447 10.8419C340.627 10.068 342.191 9.31177 341.98 7.55302ZM38.5344 4.44001C38.3938 5.07317 38.0069 4.98524 37.6374 4.98524C36.8107 4.98524 36.8461 4.14104 36.7229 3.66616C36.5646 3.06818 37.1803 3.2089 37.444 3.33199C37.9365 3.54306 38.517 3.73653 38.5344 4.44001ZM44.9188 5.26664C42.5093 6.55051 40.9792 4.96764 39.4315 3.47271C41.1024 4.29932 43.4241 3.08577 44.9188 5.26664ZM62.208 6.74398C61.3636 6.90227 60.9065 6.21635 60.1854 5.26664C61.1176 5.16111 61.9088 4.61589 62.3662 5.63597C62.4894 5.93497 62.3311 6.72639 62.208 6.74398ZM67.0623 5.98772C67.115 6.93745 66.4817 6.86711 65.9365 6.84951C65.5145 6.83192 64.8638 6.90227 64.987 6.1636C65.0748 5.56562 65.4794 5.10833 66.1652 5.09077C66.7457 5.07317 66.9744 5.42493 67.0623 5.98772ZM76.894 6.55051C74.3614 8.13341 71.5473 7.21886 68.7332 6.62088C71.5119 6.11084 74.1854 3.82447 76.894 6.55051ZM84.8262 6.77917C83.3312 6.77917 81.7483 6.77917 80.1829 6.77917C81.7657 6.91986 83.4718 1.36221 84.8262 6.77917ZM88.3614 6.65604C87.4994 6.63845 86.8136 6.18119 85.8111 5.07317C87.0423 5.3194 88.0974 4.40485 88.5724 5.86462C88.6602 6.07566 88.4492 6.65604 88.3614 6.65604ZM90.1025 6.76157C89.786 6.67364 89.5222 6.40982 89.0825 6.11084C89.4869 5.88219 89.7506 5.61837 89.9092 5.67115C90.1376 5.75909 90.3135 6.04047 90.4544 6.28672C90.7005 6.74398 90.2961 6.83192 90.1025 6.76157ZM96.1527 9.75146C96.1527 9.69868 96.2408 9.62834 96.2759 9.55799C96.3286 9.61077 96.4341 9.66352 96.4341 9.71628C96.4341 9.76905 96.3463 9.8394 96.311 9.90975C96.2582 9.85699 96.1527 9.80421 96.1527 9.75146ZM97.1553 6.65604C95.6075 6.74398 94.5875 7.57062 93.3386 7.21886C93.2859 7.20127 93.2685 6.51535 93.409 6.40982C94.4994 5.53043 95.6075 5.63597 97.1553 6.65604ZM102.133 7.20127C101.763 7.57062 101.324 7.53543 100.673 7.18367C101.253 6.97264 101.693 6.83192 102.115 6.67364C102.115 6.84951 102.203 7.13092 102.133 7.20127ZM105.474 6.8847C105.439 7.78165 104.63 7.34196 104.173 7.50024C103.61 7.44749 102.836 7.57062 102.907 6.74398C102.942 6.21635 103.505 5.7415 104.138 5.7239C104.876 5.70631 105.51 6.07566 105.474 6.8847ZM163.972 9.10073C163.902 9.17108 163.831 9.24142 163.761 9.31177C163.603 9.24142 163.445 9.17108 163.286 9.08314C163.357 9.01279 163.444 8.87208 163.497 8.88967C163.656 8.92485 163.814 9.01279 163.972 9.10073Z" fill="#FF5E15"/>
<path d="M14.7571 2.5583C12.8048 2.99799 11.2043 1.90757 9.16406 1.43269C11.2043 -0.0798323 13.051 1.48547 14.7571 0.746776C15.2143 0.553332 15.7596 0.992998 15.7244 1.57341C15.6892 2.06585 15.2847 2.43518 14.7571 2.5583Z" fill="#FF5E15"/>
<path d="M24.8867 1.55575C26.6279 0.869837 27.8415 1.34469 29.2133 2.18889C27.5954 3.34969 26.3641 2.82205 24.8867 1.55575Z" fill="#FF5E15"/>
<path d="M0 2.31189C1.19598 2.82193 1.95227 3.17369 1.95227 4.36964C0.756286 4.56309 0.35176 3.78926 0 2.31189Z" fill="#FF5E15"/>
<path d="M18.8711 0.693824C19.2756 1.52043 21.5093 -0.748354 20.7178 2.11841C20.4188 1.09833 19.2404 1.57321 18.8711 0.693824Z" fill="#FF5E15"/>
<path d="M20.7364 2.18872L20.7012 2.17113C20.7012 2.15356 20.7012 2.13597 20.7188 2.11838C20.7188 2.13597 20.7364 2.15356 20.7364 2.18872Z" fill="#FF5E15"/>
<path d="M22.8119 1.32708C22.7416 1.04567 22.9175 0.799449 23.3396 0.904981C23.4451 1.06326 23.6034 1.2919 23.7441 1.52055C23.6034 1.60849 23.4275 1.80193 23.3044 1.76677C23.1285 1.69643 22.8647 1.52055 22.8119 1.32708Z" fill="#FF5E15"/>
<path d="M154.071 4.3873C153.913 3.94761 154.264 3.9652 154.493 3.93002C154.651 3.91242 154.81 4.03555 154.968 4.0883C154.827 4.28177 154.686 4.49284 154.546 4.68628C154.335 4.56318 154.124 4.5104 154.071 4.3873Z" fill="#FF5E15"/>
<path d="M24.939 7.57065C25.0797 7.55306 25.238 7.69377 25.3963 7.78171C25.3259 7.95759 25.2908 8.23897 25.2028 8.25657C25.0445 8.29175 24.8159 8.22141 24.7104 8.09828C24.4465 7.78171 24.64 7.58824 24.939 7.57065Z" fill="#FF5E15"/>
<path d="M16.9554 6.79686C16.8851 6.97274 16.8147 7.13102 16.7619 7.28931C16.6213 7.20137 16.4805 7.11343 16.3398 7.04308C16.4454 6.84961 16.5509 6.63858 16.6564 6.44511C16.7619 6.55064 16.8499 6.67374 16.9554 6.79686Z" fill="#FF5E15"/>
<path d="M128.85 3.40184L129.026 3.47239L128.85 3.54297V3.40184Z" fill="#FF5E15"/>
<path d="M46.0094 9.18874C46.0444 9.34703 45.974 9.57566 45.8862 9.69878C45.5697 10.1033 45.4816 9.68119 45.4288 9.47013C45.3937 9.32943 45.552 9.15356 45.6398 8.99527C45.763 9.06562 45.9917 9.1008 46.0094 9.18874Z" fill="#FF5E15"/>
<path d="M60.3965 1.57263L60.5552 1.55501L60.5023 1.74902L60.3965 1.57263Z" fill="#FF5E15"/>
<path d="M125.86 3.349L125.948 3.50775L125.807 3.52539L125.86 3.349Z" fill="#FF5E15"/>
<path d="M108.131 2.80377L108.29 2.78612L108.237 2.9978L108.131 2.80377Z" fill="#FF5E15"/>
</svg>
