<?xml version="1.0" encoding="UTF-8"?>
<svg version="1.1" xmlns="http://www.w3.org/2000/svg" width="491" height="304">
<path d="M0 0 C0.98033203 0.87011719 0.98033203 0.87011719 1.98046875 1.7578125 C20.42681987 19.19640572 34.28963093 44.28769981 35.28125 69.79296875 C35.91120505 97.62254557 27.40502247 121.07196918 9 142 C8.31808594 142.80308594 7.63617188 143.60617188 6.93359375 144.43359375 C-5.57878991 158.95383545 -22.13052034 170.11832356 -39 179 C-39.89887939 179.48412354 -39.89887939 179.48412354 -40.81591797 179.97802734 C-103.48279738 213.6133485 -182.56071979 217.06727738 -249.91015625 196.953125 C-292.88200191 183.69758728 -334.54287689 160.13554196 -356.83984375 119.66015625 C-368.72325814 96.92339088 -371.02627493 71.78787941 -363.71142578 47.15429688 C-357.84631738 29.39392745 -346.80371008 15.29017323 -334 2 C-333.35804688 1.29488281 -332.71609375 0.58976562 -332.0546875 -0.13671875 C-268.41801024 -68.04338951 -141.51019437 -70.72583973 0 0 Z " fill="#EAEDEF" transform="translate(402,69)"/>
<path d="M0 0 C4.1781367 1.39271223 4.75049902 3.62783952 6.73046875 7.40234375 C11.79699398 17.76923384 13.05203506 26.28429659 13.125 37.6875 C13.12983398 38.41267822 13.13466797 39.13785645 13.13964844 39.88500977 C13.12633119 44.02810211 12.80636388 47.93618205 12 52 C12.66 52 13.32 52 14 52 C14.103125 51.21625 14.20625 50.4325 14.3125 49.625 C14.863837 46.71795035 15.57649763 44.37836512 16.5625 41.625 C19.44241878 32.35306636 18.57974147 21.47844884 17 12 C20.4372046 15.0120577 21.83332096 17.53057255 23.1875 21.875 C23.67283203 23.38707031 23.67283203 23.38707031 24.16796875 24.9296875 C27.70294563 37.97425005 25.12624387 49.1879827 22 62 C27.98281649 49.47287292 31.42441645 39.9529391 32 26 C36.40854089 31.55859503 36.21216946 36.22935941 36.25 43.0625 C36.2809375 44.41891602 36.2809375 44.41891602 36.3125 45.80273438 C36.36015802 54.13693122 34.43551735 61.40994955 30.875 68.9375 C29.76824704 71.30114683 28.82842987 73.5147104 28 76 C28.70576172 74.98679688 28.70576172 74.98679688 29.42578125 73.953125 C30.04839844 73.06109375 30.67101562 72.1690625 31.3125 71.25 C32.23482422 69.92742187 32.23482422 69.92742187 33.17578125 68.578125 C35 66 35 66 36.56640625 64.12109375 C38.52495976 61.22328843 39.55679039 58.11262964 40.625 54.8125 C40.84373779 54.14919678 41.06247559 53.48589355 41.2878418 52.80249023 C42.87181293 47.82264988 43.72618261 43.2025305 44 38 C44.66 38 45.32 38 46 38 C49.48810855 52.97334402 46.06030685 67.05953951 38.17578125 79.9921875 C37.25345703 81.41917969 37.25345703 81.41917969 36.3125 82.875 C35.68988281 83.84179688 35.06726563 84.80859375 34.42578125 85.8046875 C33.95527344 86.52914062 33.48476563 87.25359375 33 88 C44.75804858 79.22286514 51.02358284 66.07033568 54 52 C54.66 52 55.32 52 56 52 C57.21796912 68.96134772 53.01553815 81.85033607 42 95 C41.43410156 95.70382813 40.86820312 96.40765625 40.28515625 97.1328125 C31.64654751 107.49914299 21.58984352 114.40372335 10 121 C9.11054688 121.54527344 8.22109375 122.09054688 7.3046875 122.65234375 C5.20679003 123.87908041 3.20817541 124.83430387 0.9375 125.6875 C0.28652344 125.93886719 -0.36445313 126.19023437 -1.03515625 126.44921875 C-3 127 -3 127 -7 127 C-7 127.66 -7 128.32 -7 129 C-8.09699219 129.20496094 -9.19398438 129.40992188 -10.32421875 129.62109375 C-11.77864887 129.89321293 -13.23307578 130.16534925 -14.6875 130.4375 C-15.7693457 130.63956055 -15.7693457 130.63956055 -16.87304688 130.84570312 C-17.57880859 130.97783203 -18.28457031 131.10996094 -19.01171875 131.24609375 C-19.7075708 131.37532227 -20.40342285 131.50455078 -21.12036133 131.63769531 C-22.58376111 131.91976899 -24.03990121 132.23960106 -25.4921875 132.57421875 C-40.34086609 135.09525608 -54.69954283 131.82050014 -69 128 C-68.67 129.98 -68.34 131.96 -68 134 C-67.34 134 -66.68 134 -66 134 C-65.34 136.64 -64.68 139.28 -64 142 C-68.75 145 -68.75 145 -71 145 C-71 145.66 -71 146.32 -71 147 C-73.125 148.515625 -73.125 148.515625 -76 150.25 C-79.66003146 152.48929945 -83.0583491 154.78060041 -86.375 157.5 C-89.61016949 160.01624294 -89.61016949 160.01624294 -93 159.875 C-93.66 159.58625 -94.32 159.2975 -95 159 C-95 158.34 -95 157.68 -95 157 C-95.64324219 156.79632813 -96.28648437 156.59265625 -96.94921875 156.3828125 C-101.29171401 154.41451119 -104.95799648 151.66006457 -108.8125 148.875 C-109.60076172 148.31167969 -110.38902344 147.74835938 -111.20117188 147.16796875 C-113.13746831 145.78322342 -115.07022641 144.39381373 -117 143 C-116.88437394 141.60335892 -116.757008 140.20768801 -116.625 138.8125 C-116.52058594 137.64654297 -116.52058594 137.64654297 -116.4140625 136.45703125 C-115.96019318 133.76378783 -115.09086365 131.49657006 -114 129 C-114.89428711 129.21076172 -115.78857422 129.42152344 -116.70996094 129.63867188 C-126.30083315 131.74791932 -135.4278919 132.5560683 -145.25 132.5 C-145.96324432 132.50056396 -146.67648865 132.50112793 -147.41134644 132.50170898 C-159.17067561 132.48197443 -169.90816681 131.04916987 -181 127 C-181 126.34 -181 125.68 -181 125 C-182.01707031 124.9071875 -183.03414062 124.814375 -184.08203125 124.71875 C-196.14524102 122.50575838 -210.72213352 111.52567405 -218 102 C-219.1446875 100.9171875 -219.1446875 100.9171875 -220.3125 99.8125 C-226.66610932 93.16337397 -231.30218956 85.38441269 -235 77 C-235.32097656 76.29488281 -235.64195312 75.58976562 -235.97265625 74.86328125 C-238.67382533 68.06638603 -238.27704402 61.21340535 -238 54 C-234.86292343 56.58400816 -233.94666448 59.40434629 -232.625 63.1875 C-229.30226282 72.09085808 -225.08004134 78.21452176 -218.57421875 85.1171875 C-217 87 -217 87 -217 89 C-216.34 89 -215.68 89 -215 89 C-215.36351562 88.51273437 -215.72703125 88.02546875 -216.1015625 87.5234375 C-226.20722667 73.27185982 -231.08202246 57.95431845 -228.48828125 40.5703125 C-228.24658203 39.29800781 -228.24658203 39.29800781 -228 38 C-227.34 38 -226.68 38 -226 38 C-225.87882812 38.97582031 -225.75765625 39.95164063 -225.6328125 40.95703125 C-225.46523437 42.22933594 -225.29765625 43.50164062 -225.125 44.8125 C-224.96257812 46.07707031 -224.80015625 47.34164062 -224.6328125 48.64453125 C-224.20431547 52.11699317 -224.20431547 52.11699317 -222 55 C-221.58621094 56.34964844 -221.58621094 56.34964844 -221.1640625 57.7265625 C-219.74949202 61.70444861 -217.70869336 64.88175276 -215.375 68.375 C-214.95476562 69.01566406 -214.53453125 69.65632813 -214.1015625 70.31640625 C-213.07370232 71.88155698 -212.03768114 73.44134314 -211 75 C-212.0359419 72.36437107 -213.10726733 69.75772955 -214.25390625 67.16796875 C-216.79212609 61.38688893 -218.82423599 56.32750436 -219 50 C-219.07541016 48.64648438 -219.07541016 48.64648438 -219.15234375 47.265625 C-219.39063156 39.9072974 -218.5694902 32.94233819 -216 26 C-215.34 25.67 -214.68 25.34 -214 25 C-213.98582031 25.98097656 -213.97164062 26.96195313 -213.95703125 27.97265625 C-213.65241184 38.18186752 -211.62105563 46.45665714 -208 56 C-207.32446929 57.99702346 -206.65477755 59.99607615 -206 62 C-205.34 62 -204.68 62 -204 62 C-204 62.66 -204 63.32 -204 64 C-203.34 64 -202.68 64 -202 64 C-202.27714844 63.41992188 -202.55429688 62.83984375 -202.83984375 62.2421875 C-203.38318359 61.07042969 -203.38318359 61.07042969 -203.9375 59.875 C-204.47697266 58.72644531 -204.47697266 58.72644531 -205.02734375 57.5546875 C-208.83428619 47.55573025 -209.41899148 30.86713524 -205.73046875 20.79296875 C-202.1410901 13.57054505 -202.1410901 13.57054505 -199 12 C-199.165 13.010625 -199.33 14.02125 -199.5 15.0625 C-200.9637561 27.22459113 -200.93934534 39.97347626 -195 51 C-195.23783203 49.76056641 -195.23783203 49.76056641 -195.48046875 48.49609375 C-197.75967659 33.15856733 -195.85240822 18.13763318 -187.46484375 4.85546875 C-186 3 -186 3 -183 1 C-183.49211298 4.14952309 -184.28277781 6.68569957 -185.5078125 9.65625 C-189.78791349 20.98372525 -187.52032714 33.59779006 -182.76171875 44.37890625 C-178.20000332 53.98291497 -172.30714435 62.23740007 -164 69 C-161.82940354 69.81100924 -161.82940354 69.81100924 -160 70 C-160 70.66 -160 71.32 -160 72 C-159.0409375 72.37125 -159.0409375 72.37125 -158.0625 72.75 C-156.44127084 73.41172619 -154.82298566 74.08989942 -153.26171875 74.8828125 C-142.2932946 80.29248189 -129.99763 82.41737275 -117.85546875 82.53125 C-114.31563928 83.11234376 -113.17136954 84.20021057 -111 87 C-110.25 89.75 -110.25 89.75 -110 92 C-109.01 92.33 -108.02 92.66 -107 93 C-104 96.44444444 -104 96.44444444 -104 99 C-103.34 99 -102.68 99 -102 99 C-101.9175 98.401875 -101.835 97.80375 -101.75 97.1875 C-100.79544128 94.4033704 -99.42867729 93.56688858 -97 92 C-97.33 89.36 -97.66 86.72 -98 84 C-98.66 84 -99.32 84 -100 84 C-100 83.34 -100 82.68 -100 82 C-97.2697611 81.8916333 -94.54385457 81.81253306 -91.8125 81.75 C-91.04357422 81.71648437 -90.27464844 81.68296875 -89.48242188 81.6484375 C-85.43881179 81.5790193 -83.4771605 81.7042949 -79.94921875 83.890625 C-78 86 -78 86 -78 88 C-80.31 88 -82.62 88 -85 88 C-83.77337801 92.49761395 -82.38133995 94.8385846 -79 98 C-77.35210134 95.87657342 -75.70661212 93.7513551 -74.0625 91.625 C-73.59392578 91.02171875 -73.12535156 90.4184375 -72.64257812 89.796875 C-70.09448545 86.54591619 -70.09448545 86.54591619 -68 83 C-65.53731341 82.73343614 -63.15769584 82.58157103 -60.6875 82.5 C-46.81161661 81.89625343 -46.81161661 81.89625343 -34 77 C-32.42452507 76.25400589 -30.84052563 75.52584192 -29.25 74.8125 C-28.49203125 74.46832031 -27.7340625 74.12414062 -26.953125 73.76953125 C-25 73 -25 73 -23 73 C-23 72.34 -23 71.68 -23 71 C-21.2421875 70.05598958 -19.484375 69.11197917 -17.7265625 68.16796875 C-15.69497635 66.95236507 -15.69497635 66.95236507 -14 64 C-13.34 64 -12.68 64 -12 64 C-12 63.34 -12 62.68 -12 62 C-11.34 62 -10.68 62 -10 62 C-9.938125 61.443125 -9.87625 60.88625 -9.8125 60.3125 C-9 58 -9 58 -6.8125 56 C0.5516408 49.0854143 3.89156457 37.77581346 4.3359375 27.94140625 C4.35954503 26.14854564 4.37241454 24.35551417 4.375 22.5625 C4.39949219 21.67240234 4.42398438 20.78230469 4.44921875 19.86523438 C4.47439669 14.12046847 3.52429701 9.99434334 0.86181641 4.89038086 C0 3 0 3 0 0 Z " fill="#9FB6C1" transform="translate(327,60)"/>
<path d="M0 0 C0.98033203 0.87011719 0.98033203 0.87011719 1.98046875 1.7578125 C20.42681987 19.19640572 34.28963093 44.28769981 35.28125 69.79296875 C35.91120505 97.62254557 27.40502247 121.07196918 9 142 C8.31808594 142.80308594 7.63617188 143.60617188 6.93359375 144.43359375 C-5.57878991 158.95383545 -22.13052034 170.11832356 -39 179 C-39.89887939 179.48412354 -39.89887939 179.48412354 -40.81591797 179.97802734 C-103.48279738 213.6133485 -182.56071979 217.06727738 -249.91015625 196.953125 C-292.88200191 183.69758728 -334.54287689 160.13554196 -356.83984375 119.66015625 C-368.72325814 96.92339088 -371.02627493 71.78787941 -363.71142578 47.15429688 C-357.84631738 29.39392745 -346.80371008 15.29017323 -334 2 C-333.35804688 1.29488281 -332.71609375 0.58976562 -332.0546875 -0.13671875 C-268.41801024 -68.04338951 -141.51019437 -70.72583973 0 0 Z M-206 -47 C-208.28767972 -46.6778119 -210.57543768 -46.35617876 -212.86328125 -46.03515625 C-215.01336467 -45.71322554 -217.16311166 -45.38903917 -219.3125 -45.0625 C-220.38822266 -44.90587891 -221.46394531 -44.74925781 -222.57226562 -44.58789062 C-230.79102377 -43.33991222 -239.05571221 -41.85127055 -246.6875 -38.4375 C-249.68842544 -37.1352116 -252.52673916 -36.39546854 -255.69921875 -35.65625 C-263.48775757 -33.43473129 -270.80634119 -29.65993168 -278 -26 C-278.75925781 -25.7009375 -279.51851563 -25.401875 -280.30078125 -25.09375 C-289.17082144 -21.49952243 -297.70815735 -16.76013189 -306 -12 C-306 -11.34 -306 -10.68 -306 -10 C-306.70125 -9.75894531 -307.4025 -9.51789062 -308.125 -9.26953125 C-311.47602659 -7.78979804 -314.08302313 -5.90127709 -317 -3.6875 C-318.010625 -2.92824219 -319.02125 -2.16898438 -320.0625 -1.38671875 C-322.91739896 0.93288666 -325.52236074 3.2809731 -328 6 C-328 6.66 -328 7.32 -328 8 C-328.66 8 -329.32 8 -330 8 C-330 8.66 -330 9.32 -330 10 C-330.82371094 10.29390625 -330.82371094 10.29390625 -331.6640625 10.59375 C-334.98844234 12.5950489 -337.05445062 15.45965243 -339.375 18.5 C-339.86250732 19.13510498 -340.35001465 19.77020996 -340.85229492 20.42456055 C-348.19885891 30.11340073 -352.62318117 39.59153723 -356.37304688 51.10351562 C-356.91814738 52.75240221 -357.50978773 54.385761 -358.109375 56.015625 C-364.35567861 76.9462213 -357.74495111 97.58598921 -350 117 C-349.34 117 -348.68 117 -348 117 C-347.75894531 117.86625 -347.51789063 118.7325 -347.26953125 119.625 C-345.87583297 123.33009326 -344.10727696 125.87665764 -341.6875 129 C-340.88441406 130.0415625 -340.08132813 131.083125 -339.25390625 132.15625 C-336.88216262 135.14867523 -334.47273464 138.09090042 -332 141 C-331.195625 142.175625 -331.195625 142.175625 -330.375 143.375 C-329.92125 143.91125 -329.4675 144.4475 -329 145 C-328.01 145 -327.02 145 -326 145 C-326 145.66 -326 146.32 -326 147 C-325.34 147 -324.68 147 -324 147 C-324 147.66 -324 148.32 -324 149 C-322.26608049 150.60634015 -320.461909 152.1375287 -318.625 153.625 C-317.12839844 154.85089844 -317.12839844 154.85089844 -315.6015625 156.1015625 C-313.26750115 158.19648969 -313.26750115 158.19648969 -311 158 C-311 158.66 -311 159.32 -311 160 C-309.02636281 161.76217606 -307.52513574 162.87269437 -304.9375 163.5 C-302.50089903 164.12880025 -301.76036941 165.2186238 -300 167 C-294.31274646 171.38535213 -287.45876258 176 -280 176 C-280 176.66 -280 177.32 -280 178 C-277.18857876 179.10697816 -274.37592348 180.21063123 -271.5625 181.3125 C-270.77939453 181.62123047 -269.99628906 181.92996094 -269.18945312 182.24804688 C-258.91007795 186.77087289 -258.91007795 186.77087289 -248 188 C-248 188.66 -248 189.32 -248 190 C-247.38253906 190.10957031 -246.76507813 190.21914063 -246.12890625 190.33203125 C-245.28199219 190.49058594 -244.43507813 190.64914062 -243.5625 190.8125 C-242.73878906 190.96332031 -241.91507812 191.11414063 -241.06640625 191.26953125 C-238.52054202 191.87599827 -236.18125332 192.61196689 -233.71875 193.4765625 C-229.1664396 195.02619453 -224.68861819 195.88156123 -219.9375 196.5625 C-219.1225708 196.68544434 -218.3076416 196.80838867 -217.46801758 196.93505859 C-210.79862713 197.92565828 -204.11369026 198.77931535 -197.41796875 199.5703125 C-195.37953933 199.8265722 -193.34470359 200.12550521 -191.3269043 200.51196289 C-187.31320214 201.10074917 -183.40274712 201.19928264 -179.3515625 201.23828125 C-178.51413513 201.24798447 -177.67670776 201.25768768 -176.81390381 201.26768494 C-174.08422039 201.29270154 -171.35478689 201.30523787 -168.625 201.3125 C-167.22522919 201.31642761 -167.22522919 201.31642761 -165.79718018 201.32043457 C-142.86292821 201.32730273 -120.09401924 199.51620844 -98 193 C-96.70453037 192.66124594 -95.40758946 192.32807789 -94.109375 192 C-87.48895794 190.3207067 -81.03840529 188.42461085 -74.65625 185.984375 C-71.90121582 184.96339175 -69.12132803 184.11076988 -66.3125 183.25 C-55.65465394 179.72972315 -45.56338142 174.23568481 -36.11328125 168.2265625 C-34 167 -34 167 -31.53515625 166.0390625 C-24.2672731 163.06023828 -17.69750402 157.32592767 -12 152 C-12 151.34 -12 150.68 -12 150 C-11.29875 149.814375 -10.5975 149.62875 -9.875 149.4375 C-6.52641749 147.76320875 -4.91590828 145.84539541 -2.625 142.94921875 C-1 141 -1 141 1.3125 138.7890625 C4.63347175 135.34258891 7.27890898 131.61374427 10 127.6875 C10.50789063 126.96626953 11.01578125 126.24503906 11.5390625 125.50195312 C13.04609774 123.34766556 14.52651973 121.17734356 16 119 C16.45342773 118.34854004 16.90685547 117.69708008 17.37402344 117.02587891 C20.76493364 111.94716803 22.59971954 106.85583389 24.25 101 C24.50523437 100.14921875 24.76046875 99.2984375 25.0234375 98.421875 C29.76010233 82.1676357 28.75565897 66.98855956 24 51 C23.69191406 49.93523437 23.38382812 48.87046875 23.06640625 47.7734375 C22.39949422 45.50785118 21.71426265 43.25100956 21 41 C20.34 41 19.68 41 19 41 C18.87882812 40.43410156 18.75765625 39.86820312 18.6328125 39.28515625 C18.46523438 38.55167969 18.29765625 37.81820312 18.125 37.0625 C17.96257812 36.33160156 17.80015625 35.60070312 17.6328125 34.84765625 C17.17038477 32.79299706 17.17038477 32.79299706 15 32 C14.30945816 30.31340386 13.61941416 28.62660111 12.93261719 26.93847656 C11.35328998 23.65579121 9.02518157 21.08655648 6.625 18.375 C6.15578125 17.8284375 5.6865625 17.281875 5.203125 16.71875 C-7.48902126 2.0631778 -22.24960255 -8.99837445 -39.1015625 -18.37109375 C-42 -20 -42 -20 -45 -22 C-45.99 -22 -46.98 -22 -48 -22 C-48 -22.66 -48 -23.32 -48 -24 C-51.96 -24.99 -51.96 -24.99 -56 -26 C-56 -26.66 -56 -27.32 -56 -28 C-56.804375 -28.22042969 -56.804375 -28.22042969 -57.625 -28.4453125 C-62.30467432 -29.7845614 -66.86697618 -31.29768669 -71.40869141 -33.05273438 C-91.91490512 -40.97616833 -113.15443168 -46.86947479 -135.22265625 -47.82421875 C-138 -48 -138 -48 -140.38432312 -48.50190735 C-142.86968416 -48.97518449 -145.10342725 -49.13285524 -147.62817383 -49.14526367 C-148.51712845 -49.15164352 -149.40608307 -49.15802338 -150.32197571 -49.16459656 C-151.7500782 -49.16626579 -151.7500782 -49.16626579 -153.20703125 -49.16796875 C-154.20522385 -49.17129715 -155.20341644 -49.17462555 -156.2318573 -49.17805481 C-158.34751934 -49.18311347 -160.46318934 -49.18546346 -162.57885742 -49.18530273 C-165.76299878 -49.18746636 -168.94678033 -49.20556969 -172.13085938 -49.22460938 C-183.61372278 -49.2570559 -194.6524069 -48.78958737 -206 -47 Z " fill="#A2B6C1" transform="translate(402,69)"/>
<path d="M0 0 C2.9375 0.5625 2.9375 0.5625 5.375 2.625 C7.41381034 6.45796344 7.08581346 8.42857156 5.9375 12.5625 C4.8125 14.5 4.8125 14.5 2.9375 15.5625 C-1.42956908 15.95241688 -3.36763897 16.02574069 -7.0625 13.5625 C-7.35125 14.34625 -7.64 15.13 -7.9375 15.9375 C-9.0625 18.5625 -9.0625 18.5625 -11.0625 20.5625 C-17.96660959 21.11044521 -17.96660959 21.11044521 -21.0625 19.5625 C-22.69891364 16.28967273 -22.66641014 13.08649329 -22.0625 9.5625 C-20.6875 7.125 -20.6875 7.125 -18.0625 5.5625 C-15.52648303 5.21609633 -13.01206216 5.05605113 -10.45703125 4.91015625 C-6.1650751 4.28701743 -4.3025964 0.79027281 0 0 Z " fill="#E4E8EA" transform="translate(326.0625,215.4375)"/>
<path d="M0 0 C2.9375 0.875 2.9375 0.875 5.9375 2.875 C6.125 5.5 6.125 5.5 5.9375 7.875 C6.5975 7.875 7.2575 7.875 7.9375 7.875 C7.9375 7.215 7.9375 6.555 7.9375 5.875 C10.9375 3.875 10.9375 3.875 14.4375 4.0625 C17.9375 4.875 17.9375 4.875 19.875 5.9375 C21.62793126 9.13402171 21.45530725 12.32432174 20.9375 15.875 C19.9375 17.875 19.9375 17.875 17.9375 18.875 C14.84271282 19.27432738 12.89717021 19.51990868 9.9375 18.875 C6.9375 16.375 6.9375 16.375 4.9375 13.875 C4.215625 14.225625 3.49375 14.57625 2.75 14.9375 C-0.4257425 15.99608083 -1.92772663 15.97640686 -5.0625 14.875 C-7.51972633 11.18916051 -7.75005754 8.15504572 -7.0625 3.875 C-4.91026175 0.48108584 -4.0431239 -0.16502547 0 0 Z " fill="#ACB1B4" transform="translate(170.0625,223.125)"/>
<path d="M0 0 C1.7634375 0.0928125 1.7634375 0.0928125 3.5625 0.1875 C7 1 7 1 8.9375 3.6875 C10.0522848 7.16300554 10.53755875 9.39067695 10 13 C8.3125 15.875 8.3125 15.875 6 18 C3.25 18.3125 3.25 18.3125 1 18 C-1.66590937 13.44573816 -2.31563182 10.26053037 -2 5 C-2.66 5 -3.32 5 -4 5 C-3.938125 5.763125 -3.87625 6.52625 -3.8125 7.3125 C-4 10 -4 10 -5.375 11.8125 C-7 13 -7 13 -9 13 C-9 13.66 -9 14.32 -9 15 C-7.35 15 -5.7 15 -4 15 C-4.33 15.99 -4.66 16.98 -5 18 C-7.97 18 -10.94 18 -14 18 C-12 14 -12 14 -9.9375 11.625 C-7.75605723 8.66949689 -7.33630309 6.61525824 -7 3 C-9.31 3.33 -11.62 3.66 -14 4 C-13.67 3.01 -13.34 2.02 -13 1 C-11.07421875 0.234375 -11.07421875 0.234375 -8.6875 -0.25 C-7.90761719 -0.42015625 -7.12773437 -0.5903125 -6.32421875 -0.765625 C-3.887656 -1.01132881 -2.33066993 -0.67466761 0 0 Z " fill="#9AA0A4" transform="translate(266,43)"/>
<path d="M0 0 C0 0.66 0 1.32 0 2 C-0.99 2.33 -1.98 2.66 -3 3 C-2.33735914 9.06264222 -2.33735914 9.06264222 -1 15 C-1.99 15.33 -2.98 15.66 -4 16 C-4.66 13.03 -5.32 10.06 -6 7 C-6.66 7 -7.32 7 -8 7 C-8.02578125 7.61488281 -8.0515625 8.22976562 -8.078125 8.86328125 C-8.53944563 15.43710021 -8.53944563 15.43710021 -10.6875 18.0625 C-13.7869522 19.31903468 -15.68064069 19.54193621 -19 19 C-21.875 16.875 -21.875 16.875 -24 14 C-24.37688506 10.79647701 -24.44430855 8.88861709 -23 6 C-19.19602939 3.02814796 -15.929709 2.62218453 -11.28515625 2.25 C-7.43677956 1.82898101 -3.83533544 0 0 0 Z " fill="#E0E5E8" transform="translate(296,226)"/>
<path d="M0 0 C0.66 0 1.32 0 2 0 C2 0.66 2 1.32 2 2 C1.01 2.495 1.01 2.495 0 3 C0 3.66 0 4.32 0 5 C1.918125 5.185625 1.918125 5.185625 3.875 5.375 C7.75 5.75 7.75 5.75 10 8 C9.625 10.625 9.625 10.625 9 13 C7.35 13.33 5.7 13.66 4 14 C3.896875 14.598125 3.79375 15.19625 3.6875 15.8125 C2.91123545 18.28243264 1.92911079 19.32251235 0 21 C-2.91633776 19.69267618 -4.75864056 18.24135944 -7 16 C-7.66 16 -8.32 16 -9 16 C-8.42618522 19.32812571 -7.40619252 20.69842455 -5 23 C-5 23.66 -5 24.32 -5 25 C-8.11824121 23.63746417 -10.04737351 22.14891747 -12.25 19.5625 C-12.77078125 18.96566406 -13.2915625 18.36882812 -13.828125 17.75390625 C-15 16 -15 16 -15 13 C-13.50390625 11.68359375 -13.50390625 11.68359375 -11.5625 10.4375 C-8.76740279 8.69463071 -8.76740279 8.69463071 -7 6 C-5.68 6.33 -4.36 6.66 -3 7 C-2.690625 6.030625 -2.38125 5.06125 -2.0625 4.0625 C-1 1 -1 1 0 0 Z " fill="#E4E9EC" transform="translate(394,168)"/>
<path d="M0 0 C-0.62569778 4.06206973 -2.82814259 7.09312973 -5.0625 10.4375 C-5.87898568 11.67747684 -6.69405629 12.91838645 -7.5078125 14.16015625 C-7.92192383 14.79195801 -8.33603516 15.42375977 -8.76269531 16.07470703 C-9.97863752 17.96675917 -11.14942009 19.87898764 -12.3046875 21.80859375 C-12.84403931 22.70783569 -12.84403931 22.70783569 -13.39428711 23.62524414 C-14.39099723 25.29700202 -15.38120748 26.97263004 -16.37109375 28.6484375 C-17.17740234 29.81246094 -17.17740234 29.81246094 -18 31 C-18.66 31 -19.32 31 -20 31 C-20 31.99 -20 32.98 -20 34 C-17.08190419 33.91293747 -14.16684289 33.80605266 -11.25 33.6875 C-10.0125 33.65366211 -10.0125 33.65366211 -8.75 33.61914062 C-2.79314143 33.38451083 -2.79314143 33.38451083 2 30 C1.34 31.98 0.68 33.96 0 36 C-8.25 36 -16.5 36 -25 36 C-25 33 -25 33 -23.63671875 31.57421875 C-23.09660156 31.05472656 -22.55648437 30.53523438 -22 30 C-20.80400932 27.96767758 -20.80400932 27.96767758 -19.8125 25.8125 C-19.46832031 25.09707031 -19.12414062 24.38164063 -18.76953125 23.64453125 C-18.51558594 23.10183594 -18.26164063 22.55914062 -18 22 C-17.34 22 -16.68 22 -16 22 C-15.731875 21.29875 -15.46375 20.5975 -15.1875 19.875 C-12.70437054 13.86321289 -9.50400427 8.45682879 -6 3 C-8.79256219 3.11361602 -11.58344118 3.2403589 -14.375 3.375 C-15.1690625 3.4059375 -15.963125 3.436875 -16.78125 3.46875 C-21.36667375 3.51816421 -21.36667375 3.51816421 -25 6 C-25 4.35 -25 2.7 -25 1 C-21.20836402 0.8326303 -17.4166864 0.66622322 -13.625 0.5 C-12.54476562 0.45230469 -11.46453125 0.40460938 -10.3515625 0.35546875 C-9.3203125 0.31035156 -8.2890625 0.26523438 -7.2265625 0.21875 C-6.27346191 0.17685547 -5.32036133 0.13496094 -4.33837891 0.09179688 C-2.89304218 0.03505783 -1.44644999 0 0 0 Z " fill="#ABB9BF" transform="translate(263,84)"/>
<path d="M0 0 C1.125 3.75 1.125 3.75 0 6 C-0.66 5.67 -1.32 5.34 -2 5 C-2 4.01 -2 3.02 -2 2 C-2.99 2 -3.98 2 -5 2 C-3.97279606 4.76554908 -2.91345671 7.1346229 -1.3125 9.625 C-0.879375 10.40875 -0.44625 11.1925 0 12 C-0.33 12.99 -0.66 13.98 -1 15 C-4.0625 16.1875 -4.0625 16.1875 -7 17 C-7 17.66 -7 18.32 -7 19 C-8.98 19.33 -10.96 19.66 -13 20 C-13 19.34 -13 18.68 -13 18 C-13.61875 17.690625 -14.2375 17.38125 -14.875 17.0625 C-16.25 16.375 -17.625 15.6875 -19 15 C-18.34 17.31 -17.68 19.62 -17 22 C-17.66 22 -18.32 22 -19 22 C-22.42857143 14.71428571 -22.42857143 14.71428571 -22 10 C-18.04 11.98 -18.04 11.98 -14 14 C-13.87625 12.535625 -13.7525 11.07125 -13.625 9.5625 C-13.4140625 7.06640625 -13.4140625 7.06640625 -13 5 C-12.34 4.67 -11.68 4.34 -11 4 C-11 3.01 -11 2.02 -11 1 C-6.87831311 -0.62950412 -4.29299643 -1.26264601 0 0 Z " fill="#E3EAED" transform="translate(356,203)"/>
<path d="M0 0 C0 0.99 0 1.98 0 3 C-1.11375 2.79375 -2.2275 2.5875 -3.375 2.375 C-4.57125 2.25125 -5.7675 2.1275 -7 2 C-7.66 2.66 -8.32 3.32 -9 4 C-8.67673447 7.59679066 -8.67673447 7.59679066 -8 11 C-5.69 11.33 -3.38 11.66 -1 12 C-1 10.35 -1 8.7 -1 7 C-0.01 7 0.98 7 2 7 C2 9.64 2 12.28 2 15 C4.03789275 14.44198068 4.03789275 14.44198068 6 13 C6.92252193 10.13288112 6.92252193 10.13288112 7.25 6.875 C7.39953125 5.77929688 7.5490625 4.68359375 7.703125 3.5546875 C7.80109375 2.71164063 7.8990625 1.86859375 8 1 C10.875 0.875 10.875 0.875 14 1 C16 3 16 3 16.1875 5.375 C16 8 16 8 15.375 10.0625 C14.87811029 12.6297635 15.67320572 13.81469177 17 16 C16.01 15.67 15.02 15.34 14 15 C14 14.34 14 13.68 14 13 C13.5875 13.474375 13.175 13.94875 12.75 14.4375 C10.817815 16.16266518 9.51807725 16.56584875 7 17 C7 17.66 7 18.32 7 19 C5.35 19 3.7 19 2 19 C1.34 17.35 0.68 15.7 0 14 C-1.85625 14.1546875 -1.85625 14.1546875 -3.75 14.3125 C-7.16890388 14.30643811 -7.76112567 14.20304318 -10.5 11.875 C-12.26576304 8.49062085 -12.71928041 6.75624215 -12 3 C-8.22348067 -1.4631592 -5.48700159 -1.2910592 0 0 Z " fill="#B0B5B9" transform="translate(207,232)"/>
<path d="M0 0 C5.94 0 11.88 0 18 0 C17.67 0.99 17.34 1.98 17 3 C13.04 2.67 9.08 2.34 5 2 C5 6.95 5 11.9 5 17 C8.63 16.67 12.26 16.34 16 16 C15.67 17.32 15.34 18.64 15 20 C11.7 19.67 8.4 19.34 5 19 C5.14063135 21.29199177 5.28765943 23.58359186 5.4375 25.875 C5.51871094 27.15117188 5.59992188 28.42734375 5.68359375 29.7421875 C5.79206027 32.88300152 5.79206027 32.88300152 7 35 C4.69 35 2.38 35 0 35 C0 23.45 0 11.9 0 0 Z " fill="#B6C3C8" transform="translate(213,85)"/>
<path d="M0 0 C2.64 0 5.28 0 8 0 C9.07511878 4.39006837 9.3257941 7.04622243 7.0625 10.9375 C6.381875 11.948125 5.70125 12.95875 5 14 C6.32 14 7.64 14 9 14 C9 13.34 9 12.68 9 12 C9.66 12 10.32 12 11 12 C11.13277344 11.28972656 11.26554687 10.57945313 11.40234375 9.84765625 C11.57894531 8.92855469 11.75554687 8.00945313 11.9375 7.0625 C12.11152344 6.14597656 12.28554688 5.22945312 12.46484375 4.28515625 C13 2 13 2 14 1 C15.99958364 0.95919217 18.00045254 0.95745644 20 1 C20 1.33 20 1.66 20 2 C19.195625 2.12375 18.39125 2.2475 17.5625 2.375 C16.716875 2.58125 15.87125 2.7875 15 3 C14.67 3.66 14.34 4.32 14 5 C14.78375 5.12375 15.5675 5.2475 16.375 5.375 C19 6 19 6 21 8 C20.85380836 11.36240776 20.39248511 13.43617621 18.4609375 16.2109375 C14.94910174 18.76398636 11.85825264 18.207279 7.75 17.75 C7.00492187 17.68425781 6.25984375 17.61851563 5.4921875 17.55078125 C3.65964035 17.38632189 1.82947345 17.19571111 0 17 C1.2078622 14.48136357 2.44351052 12.3683335 4.0625 10.0625 C5.87979299 7.19000463 6.60858637 5.32701581 7 2 C4.69 2.33 2.38 2.66 0 3 C0 2.01 0 1.02 0 0 Z " fill="#E4E8EA" transform="translate(278,44)"/>
<path d="M0 0 C0.66 1.98 1.32 3.96 2 6 C2.66 6 3.32 6 4 6 C4.33 5.34 4.66 4.68 5 4 C5.66 4 6.32 4 7 4 C6.67 6.31 6.34 8.62 6 11 C8.475 11.495 8.475 11.495 11 12 C11.66 11.01 12.32 10.02 13 9 C13.66 9 14.32 9 15 9 C13.31326082 13.49797113 11.18326108 17.72886302 9 22 C8.01 21.67 7.02 21.34 6 21 C6 20.34 6 19.68 6 19 C6.66 19 7.32 19 8 19 C8 17.68 8 16.36 8 15 C6.35 14.34 4.7 13.68 3 13 C2.7525 13.639375 2.505 14.27875 2.25 14.9375 C1 17 1 17 -1.125 17.75 C-2.053125 17.87375 -2.053125 17.87375 -3 18 C-3.33 17.01 -3.66 16.02 -4 15 C-4.66 14.67 -5.32 14.34 -6 14 C-6 13.01 -6 12.02 -6 11 C-5.34 11 -4.68 11 -4 11 C-3.67 8.36 -3.34 5.72 -3 3 C-3.6496875 3.7115625 -3.6496875 3.7115625 -4.3125 4.4375 C-6 6 -6 6 -9 7 C-9.33 7.66 -9.66 8.32 -10 9 C-10.99 8.67 -11.98 8.34 -13 8 C-13 7.34 -13 6.68 -13 6 C-10.91796875 4.4921875 -10.91796875 4.4921875 -8.1875 2.875 C-7.29417969 2.33617187 -6.40085937 1.79734375 -5.48046875 1.2421875 C-3 0 -3 0 0 0 Z " fill="#E0E6E9" transform="translate(108,193)"/>
<path d="M0 0 C11.89141005 2.20907618 11.89141005 2.20907618 16 4 C17 7 17 7 16 10 C18.85306797 12.32472205 21.54074837 13.7508258 25 15 C22.01574571 16.29519666 20.77210278 15.92796352 17.6015625 14.92578125 C16.27238242 14.39713008 14.94701911 13.85881239 13.625 13.3125 C6.18836041 10.36911654 -1.26406057 8.05485891 -9 6 C-5.90226756 5.15937603 -3.21667249 4.91064799 0 5 C0 3.35 0 1.7 0 0 Z " fill="#A9BBC6" transform="translate(315,23)"/>
<path d="M0 0 C-0.66 3.3 -1.32 6.6 -2 10 C-0.68 9.67 0.64 9.34 2 9 C3.3045656 6.00384054 3.3045656 6.00384054 4 3 C4.66 3 5.32 3 6 3 C6 3.66 6 4.32 6 5 C6.99 5.33 7.98 5.66 9 6 C8.38801624 9.43950364 7.07941153 11.51564485 4.9375 14.25 C4.38964844 14.95640625 3.84179688 15.6628125 3.27734375 16.390625 C2.85582031 16.92171875 2.43429688 17.4528125 2 18 C0.02 17.67 -1.96 17.34 -4 17 C-5.36993985 14.11591611 -6.2431252 11.99024715 -5.46484375 8.8203125 C-4.71202914 6.85249013 -3.86184251 4.92257176 -3 3 C-3.55429688 3.28875 -4.10859375 3.5775 -4.6796875 3.875 C-5.40414062 4.24625 -6.12859375 4.6175 -6.875 5 C-7.59429687 5.37125 -8.31359375 5.7425 -9.0546875 6.125 C-11 7 -11 7 -13 7 C-13 6.34 -13 5.68 -13 5 C-11.39967863 4.15930585 -9.79458829 3.32768495 -8.1875 2.5 C-6.84751953 1.80390625 -6.84751953 1.80390625 -5.48046875 1.09375 C-3 0 -3 0 0 0 Z " fill="#DDE1E4" transform="translate(90,179)"/>
<path d="M0 0 C0.99 0 1.98 0 3 0 C4.38671875 1.4609375 4.38671875 1.4609375 5.6875 3.375 C6.34298828 4.31472656 6.34298828 4.31472656 7.01171875 5.2734375 C8 7 8 7 8 9 C8.66 9 9.32 9 10 9 C10 9.66 10 10.32 10 11 C5.71 10.67 1.42 10.34 -3 10 C-1.68 11.65 -0.36 13.3 1 15 C0.75 17.3125 0.75 17.3125 0 19 C-3.10860106 19.9991932 -4.88611292 19.83036989 -8 19 C-8.66 19.33 -9.32 19.66 -10 20 C-10 21.98 -10 23.96 -10 26 C-10.66 26 -11.32 26 -12 26 C-12.33820166 24.4176994 -12.67035939 22.83410625 -13 21.25 C-13.185625 20.36828125 -13.37125 19.4865625 -13.5625 18.578125 C-14 16 -14 16 -14 12 C-9.1725201 13.41292095 -5.2837641 15.42974154 -1 18 C-1.433125 17.29875 -1.86625 16.5975 -2.3125 15.875 C-4.01501086 12.97442594 -5.52448567 10.02129125 -7 7 C-3.04 7 0.92 7 5 7 C3.7625 5.824375 3.7625 5.824375 2.5 4.625 C0 2 0 2 0 0 Z " fill="#9BA1A5" transform="translate(374,186)"/>
<path d="M0 0 C3.4372046 3.0120577 4.83332096 5.53057255 6.1875 9.875 C6.51105469 10.88304688 6.83460938 11.89109375 7.16796875 12.9296875 C9.27793165 20.71574776 10.10365658 29.11128783 8 37 C7.67 37 7.34 37 7 37 C7 33.04 7 29.08 7 25 C6.34 25 5.68 25 5 25 C4.67 25.66 4.34 26.32 4 27 C4 26.01 4 25.02 4 24 C3.34 24 2.68 24 2 24 C1.93941406 22.9378125 1.87882812 21.875625 1.81640625 20.78125 C1.20729762 10.36284897 1.20729762 10.36284897 0 0 Z " fill="#A7B9C0" transform="translate(344,72)"/>
<path d="M0 0 C3.20395416 0 5.09399739 0.74335022 8 2 C6.73046875 3.46484375 5.4609375 4.9296875 4.19140625 6.39453125 C2.79128769 8.10712971 2.79128769 8.10712971 2 11 C1.34 11 0.68 11 0 11 C0 11.66 0 12.32 0 13 C-0.99 13.33 -1.98 13.66 -3 14 C-3.33 13.67 -3.66 13.34 -4 13 C-4.9593419 14.27007214 -5.91743294 15.54108919 -6.875 16.8125 C-7.40867187 17.52019531 -7.94234375 18.22789062 -8.4921875 18.95703125 C-9.70814781 20.60456297 -10.86416141 22.29624211 -12 24 C-12.66 23.67 -13.32 23.34 -14 23 C-14 23.66 -14 24.32 -14 25 C-14.66 24.67 -15.32 24.34 -16 24 C-15.65743164 23.52167725 -15.31486328 23.04335449 -14.96191406 22.55053711 C-13.38785797 20.34861226 -11.81890932 18.14309462 -10.25 15.9375 C-9.71117187 15.18533203 -9.17234375 14.43316406 -8.6171875 13.65820312 C-5.47012589 9.22545171 -2.60970701 4.76968295 0 0 Z " fill="#A2B8C4" transform="translate(421,181)"/>
<path d="M0 0 C0.66 0.99 1.32 1.98 2 3 C0.02 3.99 0.02 3.99 -2 5 C-2 5.66 -2 6.32 -2 7 C-1.01 6.67 -0.02 6.34 1 6 C1.66 7.32 2.32 8.64 3 10 C0.18342636 13.2338438 -1.67286769 14.66714367 -6 15 C-6.99 14.67 -7.98 14.34 -9 14 C-9.33 14.66 -9.66 15.32 -10 16 C-12.375 17.6875 -12.375 17.6875 -15 19 C-15.99 18.67 -16.98 18.34 -18 18 C-17.01 16.515 -17.01 16.515 -16 15 C-15.34 15 -14.68 15 -14 15 C-14 14.34 -14 13.68 -14 13 C-13.41476562 12.75507813 -12.82953125 12.51015625 -12.2265625 12.2578125 C-9.6399512 10.79660401 -8.2439733 9.17210816 -6.375 6.875 C-5.29290197 5.54718539 -4.17594761 4.24546176 -3 3 C-2.34 3 -1.68 3 -1 3 C-0.67 2.01 -0.34 1.02 0 0 Z " fill="#A5B8C1" transform="translate(404,206)"/>
<path d="M0 0 C1.3609623 2.7219246 0.70366248 4.1831957 0.0625 7.125 C-0.13214844 8.03507812 -0.32679688 8.94515625 -0.52734375 9.8828125 C-0.68332031 10.58148438 -0.83929688 11.28015625 -1 12 C-1.33 12 -1.66 12 -2 12 C-2 9.69 -2 7.38 -2 5 C-2.66 5 -3.32 5 -4 5 C-3.938125 5.763125 -3.87625 6.52625 -3.8125 7.3125 C-4 10 -4 10 -5.375 11.8125 C-7 13 -7 13 -9 13 C-9 13.66 -9 14.32 -9 15 C-7.35 15 -5.7 15 -4 15 C-4.33 15.99 -4.66 16.98 -5 18 C-7.97 18 -10.94 18 -14 18 C-12 14 -12 14 -9.9375 11.625 C-7.75605723 8.66949689 -7.33630309 6.61525824 -7 3 C-9.31 3.33 -11.62 3.66 -14 4 C-13.67 3.01 -13.34 2.02 -13 1 C-11.07421875 0.234375 -11.07421875 0.234375 -8.6875 -0.25 C-7.90761719 -0.42015625 -7.12773437 -0.5903125 -6.32421875 -0.765625 C-3.8863703 -1.01145846 -2.28518587 -0.86766439 0 0 Z " fill="#CFD5D8" transform="translate(266,43)"/>
<path d="M0 0 C2.97 0 5.94 0 9 0 C8.67 3.3 8.34 6.6 8 10 C6.35 10 4.7 10 3 10 C3 11.32 3 12.64 3 14 C4.98 14 6.96 14 9 14 C9 14.66 9 15.32 9 16 C6.03 16 3.06 16 0 16 C0 10.72 0 5.44 0 0 Z " fill="#DAE0E3" transform="translate(178,44)"/>
<path d="M0 0 C0.66 0 1.32 0 2 0 C1.34 1.98 0.68 3.96 0 6 C0.99 6.33 1.98 6.66 3 7 C3.33 6.34 3.66 5.68 4 5 C4.66 5 5.32 5 6 5 C6 5.99 6 6.98 6 8 C5.34 8 4.68 8 4 8 C4.33 8.99 4.66 9.98 5 11 C5.99 11 6.98 11 8 11 C8.66 10.01 9.32 9.02 10 8 C10 12 10 12 8.5 13.75 C8.005 14.1625 7.51 14.575 7 15 C4.08366224 13.69267618 2.24135944 12.24135944 0 10 C-0.66 10 -1.32 10 -2 10 C-1.42618522 13.32812571 -0.40619252 14.69842455 2 17 C2 17.66 2 18.32 2 19 C-1.11824121 17.63746417 -3.04737351 16.14891747 -5.25 13.5625 C-5.77078125 12.96566406 -6.2915625 12.36882812 -6.828125 11.75390625 C-8 10 -8 10 -8 7 C-6.50390625 5.68359375 -6.50390625 5.68359375 -4.5625 4.4375 C-1.76740279 2.69463071 -1.76740279 2.69463071 0 0 Z " fill="#A8ADB0" transform="translate(387,174)"/>
<path d="M0 0 C0.721875 0.00257813 1.44375 0.00515625 2.1875 0.0078125 C2.909375 0.00523437 3.63125 0.00265625 4.375 0 C6.1875 0.1328125 6.1875 0.1328125 7.1875 1.1328125 C7.6501087 7.37802989 7.6501087 7.37802989 6 10.0703125 C3.49969126 11.53601073 2.03619344 11.63133385 -0.8125 11.1328125 C-2.6875 9.5078125 -2.6875 9.5078125 -3.8125 7.1328125 C-3.27186756 0.23974892 -3.27186756 0.23974892 0 0 Z " fill="#E6EAED" transform="translate(181.8125,229.8671875)"/>
<path d="M0 0 C1.8125 1.125 1.8125 1.125 3 3 C3.3125 6.0625 3.3125 6.0625 3 9 C1 11 1 11 -1.9375 11.3125 C-5 11 -5 11 -6.875 9.875 C-8.52149743 7.13083761 -8.39964378 5.1305429 -8 2 C-4.76746204 -0.15502531 -3.74849077 -0.46856135 0 0 Z " fill="#E5EBEE" transform="translate(328,218)"/>
<path d="M0 0 C2.09765625 0.3828125 2.09765625 0.3828125 4.16015625 2.0078125 C5.36114421 5.05031533 5.50360353 7.13523423 5.09765625 10.3828125 C3.59765625 12.7578125 3.59765625 12.7578125 2.09765625 14.3828125 C1.10765625 14.0528125 0.11765625 13.7228125 -0.90234375 13.3828125 C-0.24234375 12.7228125 0.41765625 12.0628125 1.09765625 11.3828125 C0.41703125 10.8053125 -0.26359375 10.2278125 -0.96484375 9.6328125 C-1.60421875 8.8903125 -2.24359375 8.1478125 -2.90234375 7.3828125 C-2.65234375 5.1328125 -2.65234375 5.1328125 -1.90234375 3.3828125 C-3.55234375 3.7128125 -5.20234375 4.0428125 -6.90234375 4.3828125 C-6.97662213 7.72533974 -6.96781328 10.1864039 -5.90234375 13.3828125 C-6.89234375 13.0528125 -7.88234375 12.7228125 -8.90234375 12.3828125 C-10.30692112 9.57365776 -10.15129532 7.49470716 -9.90234375 4.3828125 C-8.01103305 -0.40850795 -4.62823759 -0.22576769 0 0 Z " fill="#B3B7BB" transform="translate(235.90234375,233.6171875)"/>
<path d="M0 0 C0.33 0 0.66 0 1 0 C1.69928931 11.68590137 0.08117892 21.03911947 -4 32 C-4.66 32 -5.32 32 -6 32 C-6 21.77 -6 11.54 -6 1 C-5.67 1 -5.34 1 -5 1 C-4.01 5.95 -3.02 10.9 -2 16 C-0.00383446 14.00383446 -0.59016573 10.18298037 -0.4375 7.4375 C-0.37272461 6.37112305 -0.37272461 6.37112305 -0.30664062 5.28320312 C-0.20028223 3.52238088 -0.09961154 1.7612168 0 0 Z " fill="#DAE4EA" transform="translate(345,80)"/>
<path d="M0 0 C1.8455647 3.3988454 2.98598332 6.89233814 4.1875 10.5625 C6.30129241 16.61908484 8.99613716 21.63195889 12.64453125 26.890625 C14 29 14 29 14 31 C13.34 31 12.68 31 12 31 C8.78430707 27.5111594 5.92470262 23.73366291 3 20 C2.24976562 19.13375 2.24976562 19.13375 1.484375 18.25 C-0.19827553 16.16446131 -0.99819952 14.50323372 -1.0078125 11.81640625 C-0.75916427 9.52206119 -0.3887581 7.27402588 0 5 C0.03400652 3.3336803 0.05373549 1.66580019 0 0 Z " fill="#DBE5EA" transform="translate(98,118)"/>
<path d="M0 0 C0.66 0 1.32 0 2 0 C0.23395705 8.48068541 -3.67402416 14.27810307 -9 21 C-10.0035806 22.33064035 -11.00498205 23.66294463 -12 25 C-12.66 24.67 -13.32 24.34 -14 24 C-13.4225 23.278125 -12.845 22.55625 -12.25 21.8125 C-9.3897416 17.59311172 -8.28673913 12.78761497 -6.9296875 7.92578125 C-6 5 -6 5 -4 2 C-3.01 2 -2.02 2 -1 2 C-0.67 1.34 -0.34 0.68 0 0 Z " fill="#DBE5EB" transform="translate(367,112)"/>
<path d="M0 0 C1.65 0.33 3.3 0.66 5 1 C5.33 2.65 5.66 4.3 6 6 C7.65 6.33 9.3 6.66 11 7 C11.625 9.375 11.625 9.375 12 12 C11.34 12.66 10.68 13.32 10 14 C7.375 13.625 7.375 13.625 5 13 C4.67 12.01 4.34 11.02 4 10 C5.98 10.66 7.96 11.32 10 12 C10 11.01 10 10.02 10 9 C5.38 9 0.76 9 -4 9 C-4 8.01 -4 7.02 -4 6 C-1.36 6 1.28 6 4 6 C4 5.01 4 4.02 4 3 C2.35 3.33 0.7 3.66 -1 4 C-0.67 2.68 -0.34 1.36 0 0 Z " fill="#879296" transform="translate(229,45)"/>
<path d="M0 0 C2.475 0.99 2.475 0.99 5 2 C4.814375 2.804375 4.62875 3.60875 4.4375 4.4375 C4.2209375 5.7059375 4.2209375 5.7059375 4 7 C4.33 7.33 4.66 7.66 5 8 C2.0045072 10.57945213 -0.14351301 12.17360993 -4 13 C-4.33 13.66 -4.66 14.32 -5 15 C-6.32 13.68 -7.64 12.36 -9 11 C-7.88625 9.948125 -7.88625 9.948125 -6.75 8.875 C-4.02182777 6.02281994 -2.08697046 3.3236937 0 0 Z " fill="#DEE3E6" transform="translate(99,186)"/>
<path d="M0 0 C3.82669043 3.42388092 5.72278474 6.00724943 7 11 C6.01 10.34 5.02 9.68 4 9 C4 8.34 4 7.68 4 7 C3.34 7 2.68 7 2 7 C2 9.64 2 12.28 2 15 C1.34 15 0.68 15 0 15 C0 14.34 0 13.68 0 13 C-0.61875 12.690625 -1.2375 12.38125 -1.875 12.0625 C-3.25 11.375 -4.625 10.6875 -6 10 C-5.34 12.31 -4.68 14.62 -4 17 C-4.66 17 -5.32 17 -6 17 C-9.42857143 9.71428571 -9.42857143 9.71428571 -9 5 C-5.04 6.98 -5.04 6.98 -1 9 C-0.67 6.03 -0.34 3.06 0 0 Z " fill="#BDC3C7" transform="translate(343,208)"/>
<path d="M0 0 C0.33 0.33 0.66 0.66 1 1 C3.32817964 1.36760731 5.6618385 1.70241581 8 2 C7.67 2.66 7.34 3.32 7 4 C5.02 4 3.04 4 1 4 C0.87625 5.093125 0.7525 6.18625 0.625 7.3125 C0 11 0 11 -2 14 C-2.66 14 -3.32 14 -4 14 C-4 14.66 -4 15.32 -4 16 C-5.32 16 -6.64 16 -8 16 C-7.690625 15.319375 -7.38125 14.63875 -7.0625 13.9375 C-5.65531168 10.04703818 -5 6.14297485 -5 2 C-6.65 2 -8.3 2 -10 2 C-10 1.67 -10 1.34 -10 1 C-3.60763521 -1.46977731 -3.60763521 -1.46977731 0 0 Z " fill="#DDE1E5" transform="translate(291,42)"/>
<path d="M0 0 C0.78375 0.04125 1.5675 0.0825 2.375 0.125 C2.189375 0.74375 2.00375 1.3625 1.8125 2 C1.13813824 4.16660178 1.13813824 4.16660178 2.375 6.125 C3.035 6.455 3.695 6.785 4.375 7.125 C4.705 8.115 5.035 9.105 5.375 10.125 C4.385 11.61 4.385 11.61 3.375 13.125 C1.065 12.795 -1.245 12.465 -3.625 12.125 C-3.84662329 10.50175914 -4.05189803 8.876279 -4.25 7.25 C-4.36601562 6.34507812 -4.48203125 5.44015625 -4.6015625 4.5078125 C-4.60929688 3.72148437 -4.61703125 2.93515625 -4.625 2.125 C-2.625 0.125 -2.625 0.125 0 0 Z " fill="#DBE0E3" transform="translate(232.625,235.875)"/>
<path d="M0 0 C1.134375 0.020625 2.26875 0.04125 3.4375 0.0625 C4.0975 1.7125 4.7575 3.3625 5.4375 5.0625 C4.4475 5.5575 4.4475 5.5575 3.4375 6.0625 C2.78194881 8.58983235 2.78194881 8.58983235 2.4375 11.0625 C0.0625 11.1875 0.0625 11.1875 -2.5625 11.0625 C-4.5625 9.0625 -4.5625 9.0625 -4.79296875 7.15234375 C-4.65181074 0.08161071 -4.65181074 0.08161071 0 0 Z " fill="#E7EBEF" transform="translate(169.5625,225.9375)"/>
<path d="M0 0 C1.206051 3.61815301 0.7304067 4.01864833 -0.875 7.3125 C-3.62610344 13.71593042 -3.80134874 20.10680143 -4 27 C-4.33 27 -4.66 27 -5 27 C-5.33 24.36 -5.66 21.72 -6 19 C-7.98 19.99 -7.98 19.99 -10 21 C-8.70471268 12.96921861 -5.85062732 5.85062732 0 0 Z " fill="#A7B7C0" transform="translate(143,61)"/>
<path d="M0 0 C2.4375 2.0625 2.4375 2.0625 4 5 C3.93977486 8.49305789 3.63658168 10.90366489 1.875 13.9375 C-1.22289358 15.69297303 -3.52844534 15.48723574 -7 15 C-9.95156784 12.4268383 -10.85637189 10.78197528 -11.5625 6.9375 C-11 4 -11 4 -8.875 1.625 C-5.48771221 -0.28955397 -3.82336376 -0.73213349 0 0 Z M-9 4 C-9.39964378 7.1305429 -9.52149743 9.13083761 -7.875 11.875 C-5.15781176 13.50531294 -3.10347254 13.33015665 0 13 C2.29827312 11.12061828 2.29827312 11.12061828 2.3125 8.0625 C2.23696753 5.06545805 2.23696753 5.06545805 0.8125 3.125 C-2.94735092 0.79129943 -5.4838158 1.6558772 -9 4 Z " fill="#9EA4A7" transform="translate(329,216)"/>
<path d="M0 0 C2 3 2 3 1.625 5 C1.41875 5.66 1.2125 6.32 1 7 C1 7.99 1 8.98 1 10 C0.49204812 14.10740402 -1.79117152 16.55596678 -4.375 19.6875 C-5.56222656 21.14736328 -5.56222656 21.14736328 -6.7734375 22.63671875 C-9 25 -9 25 -12 26 C-10.49234067 22.90570871 -8.82575028 19.92923431 -7.125 16.9375 C-4.12215935 11.47645156 -1.94372625 5.91121455 0 0 Z " fill="#D6E3E8" transform="translate(372,122)"/>
<path d="M0 0 C1.32 0.66 2.64 1.32 4 2 C4 5.63 4 9.26 4 13 C2.35 13.33 0.7 13.66 -1 14 C-2.73849628 12.26150372 -2.17216296 9.9213363 -2.1875 7.5625 C-2.20167969 6.57378906 -2.21585937 5.58507813 -2.23046875 4.56640625 C-2 2 -2 2 0 0 Z " fill="#E6EBEE" transform="translate(269,45)"/>
<path d="M0 0 C3.4375 0.9375 3.4375 0.9375 5.375 2 C7.12793126 5.19652171 6.95530725 8.38682174 6.4375 11.9375 C5.4375 13.9375 5.4375 13.9375 3.4375 14.9375 C-0.12694611 15.45731506 -3.30044446 15.56852777 -6.5625 13.9375 C-8.19560789 10.67128422 -8.18405491 7.45493574 -7.5625 3.9375 C-5.3173484 0.25545138 -4.33137369 -0.07598901 0 0 Z M-4.5625 2.9375 C-6.89546251 5.76467213 -6.89546251 5.76467213 -6.3125 9 C-5.8031756 12.036959 -5.8031756 12.036959 -3.5625 13.9375 C-0.78792896 14.29321424 0.81646796 14.30155327 3.25 12.875 C5.06373389 9.91574997 4.68818132 7.32169775 4.4375 3.9375 C2.54621658 2.04621658 -0.13317726 2.7008148 -2.65234375 2.609375 C-3.28269531 2.71765625 -3.91304687 2.8259375 -4.5625 2.9375 Z " fill="#92999D" transform="translate(184.5625,227.0625)"/>
<path d="M0 0 C2.875 -0.125 2.875 -0.125 6 0 C8 2 8 2 8.1875 4.375 C8 7 8 7 7.375 9.0625 C6.87811029 11.6297635 7.67320572 12.81469177 9 15 C8.01 14.67 7.02 14.34 6 14 C6 13.34 6 12.68 6 12 C4.68 12.99 3.36 13.98 2 15 C2 10.38 2 5.76 2 1 C1.34 0.67 0.68 0.34 0 0 Z " fill="#D7DFE2" transform="translate(215,233)"/>
<path d="M0 0 C4.95 0 9.9 0 15 0 C15 0.99 15 1.98 15 3 C12.03 2.505 12.03 2.505 9 2 C9 6.62 9 11.24 9 16 C8.01 16 7.02 16 6 16 C6 11.38 6 6.76 6 2 C4.02 2 2.04 2 0 2 C0 1.34 0 0.68 0 0 Z " fill="#969A9E" transform="translate(200,44)"/>
<path d="M0 0 C0.99 0 1.98 0 3 0 C3.05406122 1.93719378 3.09282025 3.87481921 3.125 5.8125 C3.14820313 6.89144531 3.17140625 7.97039062 3.1953125 9.08203125 C3 12 3 12 1 15 C-2.5 15.375 -2.5 15.375 -6 15 C-8.18994248 11.71508627 -8.35277339 10.16904361 -8.625 6.3125 C-8.69976562 5.31863281 -8.77453125 4.32476562 -8.8515625 3.30078125 C-8.90054688 2.54152344 -8.94953125 1.78226563 -9 1 C-8.01 1 -7.02 1 -6 1 C-5.67 4.63 -5.34 8.26 -5 12 C-3.68 12.33 -2.36 12.66 -1 13 C0.31262571 11.91447634 0.31262571 11.91447634 0.09765625 9.27734375 C0.08605469 8.17519531 0.07445312 7.07304687 0.0625 5.9375 C0.05347656 4.83277344 0.04445312 3.72804687 0.03515625 2.58984375 C0.02355469 1.73519531 0.01195312 0.88054687 0 0 Z " fill="#A8AEB1" transform="translate(251,233)"/>
<path d="M0 0 C2.93280794 2.47902104 3.93871822 4.969262 5.1875 8.5625 C5.53167969 9.53316406 5.87585938 10.50382812 6.23046875 11.50390625 C7 14 7 14 7 16 C6.34 16 5.68 16 5 16 C3.36323743 17.9600281 3.36323743 17.9600281 2 20 C0.19320413 15.37630977 -0.21839082 11.57471347 -0.125 6.625 C-0.10695313 5.37976563 -0.08890625 4.13453125 -0.0703125 2.8515625 C-0.04710938 1.91054687 -0.02390625 0.96953125 0 0 Z " fill="#A8B9C1" transform="translate(89,114)"/>
<path d="M0 0 C3 1 3 1 4.16796875 3.28515625 C4.50441406 4.20167969 4.84085938 5.11820313 5.1875 6.0625 C5.53167969 6.98160156 5.87585938 7.90070313 6.23046875 8.84765625 C6.48441406 9.55792969 6.73835937 10.26820313 7 11 C7.99 8.36 8.98 5.72 10 3 C10.66 3 11.32 3 12 3 C11.71640113 4.4391134 11.42278601 5.87625518 11.125 7.3125 C10.88136719 8.51326172 10.88136719 8.51326172 10.6328125 9.73828125 C10 12 10 12 8 15 C5 14 5 14 4.0859375 12.1875 C3.73402344 11.1046875 3.73402344 11.1046875 3.375 10 C2.58884867 7.25730729 2.58884867 7.25730729 1 5 C0.01 7.31 -0.98 9.62 -2 12 C-2.66 11.67 -3.32 11.34 -4 11 C-2.68 7.37 -1.36 3.74 0 0 Z " fill="#979DA1" transform="translate(150,218)"/>
<path d="M0 0 C0.66 0 1.32 0 2 0 C1.67 2.31 1.34 4.62 1 7 C2.65 7.33 4.3 7.66 6 8 C6.66 7.01 7.32 6.02 8 5 C8.66 5 9.32 5 10 5 C8.31326082 9.49797113 6.18326108 13.72886302 4 18 C3.01 17.67 2.02 17.34 1 17 C1 16.34 1 15.68 1 15 C1.66 15 2.32 15 3 15 C3 13.68 3 12.36 3 11 C0.525 10.01 0.525 10.01 -2 9 C-2.99 10.485 -2.99 10.485 -4 12 C-4.66 11.67 -5.32 11.34 -6 11 C-4.02 7.37 -2.04 3.74 0 0 Z " fill="#A5AAAD" transform="translate(113,197)"/>
<path d="M0 0 C2.31 0 4.62 0 7 0 C5.02 0.99 5.02 0.99 3 2 C3.639375 2.9075 4.27875 3.815 4.9375 4.75 C6.61428953 7.39221381 7.53689998 8.9898499 8 12 C4.70319035 11.34215037 2.15882078 10.10579427 -0.75 8.4375 C-1.94882812 7.75494141 -1.94882812 7.75494141 -3.171875 7.05859375 C-3.77515625 6.70925781 -4.3784375 6.35992187 -5 6 C-5.33 6.66 -5.66 7.32 -6 8 C-6 6.68 -6 5.36 -6 4 C-4.02 4 -2.04 4 0 4 C0 2.68 0 1.36 0 0 Z " fill="#D9DDE1" transform="translate(365,192)"/>
<path d="M0 0 C0.33 0 0.66 0 1 0 C1 1.65 1 3.3 1 5 C6.94 4.505 6.94 4.505 13 4 C12.67 5.32 12.34 6.64 12 8 C8.37 7.67 4.74 7.34 1 7 C1 11.95 1 16.9 1 22 C0.34 22 -0.32 22 -1 22 C-1.02887814 18.52085059 -1.04675687 15.04173169 -1.0625 11.5625 C-1.07087891 10.56927734 -1.07925781 9.57605469 -1.08789062 8.55273438 C-1.09111328 7.60849609 -1.09433594 6.66425781 -1.09765625 5.69140625 C-1.10289307 4.81685791 -1.10812988 3.94230957 -1.11352539 3.04125977 C-1 1 -1 1 0 0 Z " fill="#ABB9BF" transform="translate(216,97)"/>
<path d="M0 0 C1 3 1 3 0.56640625 5.07421875 C-0.25557645 9.32018455 -0.10431281 13.4993482 -0.0625 17.8125 C-0.05798828 18.69615234 -0.05347656 19.57980469 -0.04882812 20.49023438 C-0.03709866 22.66018559 -0.01916495 24.83010172 0 27 C-1.49536133 25.66870117 -1.49536133 25.66870117 -3 24 C-3.07421875 21.30078125 -3.07421875 21.30078125 -2.6875 18.3125 C-2.56761719 17.31863281 -2.44773437 16.32476562 -2.32421875 15.30078125 C-2.16373047 14.16189453 -2.16373047 14.16189453 -2 13 C-5.0745356 13.7763932 -5.0745356 13.7763932 -7 16 C-6.56688677 10.36952802 -4.07551604 4.07551604 0 0 Z " fill="#B4C0C7" transform="translate(127,72)"/>
<path d="M0 0 C3.26285983 3.17222483 6.19413485 6.42010308 9 10 C9.66 10.66 10.32 11.32 11 12 C6.25 13 6.25 13 4 13 C2.7109375 11.5390625 2.7109375 11.5390625 1.375 9.625 C0.92898438 8.99851563 0.48296875 8.37203125 0.0234375 7.7265625 C-1 6 -1 6 -1 4 C-1.66 3.67 -2.32 3.34 -3 3 C-2.01 2.01 -1.02 1.02 0 0 Z " fill="#DCE2E5" transform="translate(378,182)"/>
<path d="M0 0 C-1.23263349 3.69790046 -2.20052451 3.9354846 -5.5625 5.6875 C-6.80193359 6.34298828 -6.80193359 6.34298828 -8.06640625 7.01171875 C-8.70449219 7.33785156 -9.34257813 7.66398438 -10 8 C-8.16396835 12.14872536 -5.54900238 14.19037311 -2 17 C-1.34 17.66 -0.68 18.32 0 19 C-3.4810594 19 -5.51611009 18.41017908 -8.1796875 16.15234375 C-10.17135994 14.1429518 -12.11039323 12.10542481 -14 10 C-12.5243763 6.14325624 -10.52993107 4.78176265 -7 2.75 C-6.113125 2.22921875 -5.22625 1.7084375 -4.3125 1.171875 C-2 0 -2 0 0 0 Z " fill="#A5ABAF" transform="translate(135,209)"/>
<path d="M0 0 C1.4540625 0.0309375 1.4540625 0.0309375 2.9375 0.0625 C2.6075 1.0525 2.2775 2.0425 1.9375 3.0625 C0.6175 3.0625 -0.7025 3.0625 -2.0625 3.0625 C-0.9894128 5.65579406 -0.29948002 6.90218999 2.0625 8.5 C3.9375 10.0625 3.9375 10.0625 4.375 12.625 C4.230625 13.429375 4.08625 14.23375 3.9375 15.0625 C0.70958445 17.2144437 -0.34650809 17.26336443 -4.0625 17.0625 C-4.3925 15.7425 -4.7225 14.4225 -5.0625 13.0625 C-2.0925 13.5575 -2.0925 13.5575 0.9375 14.0625 C0.58870368 10.80706771 -0.08383261 10.04376893 -2.625 7.8125 C-3.429375 7.235 -4.23375 6.6575 -5.0625 6.0625 C-3.98897059 0.08140756 -3.98897059 0.08140756 0 0 Z " fill="#979DA1" transform="translate(195.0625,43.9375)"/>
<path d="M0 0 C1.32 0.33 2.64 0.66 4 1 C5.21730382 7.32997988 5.21730382 7.32997988 4.25 10.3125 C2.23875842 13.02767613 0.42407496 13.93546685 -2.875 14.4375 C-6 14 -6 14 -8.875 11.875 C-11.32150834 8.56501812 -11.46707789 7.01686987 -11 3 C-10.34 2.67 -9.68 2.34 -9 2 C-8.87625 3.11375 -8.7525 4.2275 -8.625 5.375 C-8.3534187 9.03103677 -8.3534187 9.03103677 -6 11 C-3 11.33333333 -3 11.33333333 0 11 C2.30746414 9.12226736 2.30746414 9.12226736 2.25 6.0625 C2.23517754 2.82717213 2.23517754 2.82717213 0 0 Z " fill="#A4AAAE" transform="translate(283,231)"/>
<path d="M0 0 C0.66 0 1.32 0 2 0 C3.85776765 3.13498292 4.20140476 5.37471432 4 9 C3.01 9 2.02 9 1 9 C0.34 12.63 -0.32 16.26 -1 20 C-1.33 20 -1.66 20 -2 20 C-2.33 14.39 -2.66 8.78 -3 3 C-2.01 3.33 -1.02 3.66 0 4 C0 2.68 0 1.36 0 0 Z " fill="#99ADB7" transform="translate(37,138)"/>
<path d="M0 0 C2.64 0 5.28 0 8 0 C9.56659619 5.78435518 9.56659619 5.78435518 7.953125 9.24609375 C6.69951916 11.22157935 5.40435951 13.12914044 4 15 C5.65 15 7.3 15 9 15 C9 15.66 9 16.32 9 17 C6.03 17 3.06 17 0 17 C2 13 2 13 4.0625 10.0625 C5.87979299 7.19000463 6.60858637 5.32701581 7 2 C4.69 2.33 2.38 2.66 0 3 C0 2.01 0 1.02 0 0 Z " fill="#989FA2" transform="translate(278,44)"/>
<path d="M0 0 C6.0546875 -0.1953125 6.0546875 -0.1953125 8 0 C8.66 0.66 9.32 1.32 10 2 C9.625 4.625 9.625 4.625 9 7 C7.68 7.33 6.36 7.66 5 8 C5 7.34 5 6.68 5 6 C5.66 6 6.32 6 7 6 C7 4.68 7 3.36 7 2 C6.01 2 5.02 2 4 2 C4 5.96 4 9.92 4 14 C3.34 14 2.68 14 2 14 C1.93941406 13.24074219 1.87882812 12.48148438 1.81640625 11.69921875 C1.73261719 10.70535156 1.64882813 9.71148437 1.5625 8.6875 C1.48128906 7.70136719 1.40007812 6.71523437 1.31640625 5.69921875 C1.08187441 2.90624401 1.08187441 2.90624401 0 0 Z " fill="#A4AAAD" transform="translate(256,233)"/>
<path d="M0 0 C0 0.99 0 1.98 0 3 C-2.31 3.33 -4.62 3.66 -7 4 C-8.12437693 8.07700925 -8.12437693 8.07700925 -6.9375 11.9375 C-4.92970355 13.24813941 -4.92970355 13.24813941 -2 12.9375 C1.36126028 11.88710616 2.26452805 10.98886835 4 8 C3.25 12.75 3.25 12.75 1 15 C-5.90410959 15.54794521 -5.90410959 15.54794521 -9 14 C-10.63147635 10.7370473 -10.6293407 7.51440821 -10 4 C-7.25492723 -0.22318887 -4.85423095 -0.44129372 0 0 Z " fill="#A2A8AA" transform="translate(314,221)"/>
<path d="M0 0 C0.33 0.66 0.66 1.32 1 2 C0.34 3.32 -0.32 4.64 -1 6 C-9.25 6 -17.5 6 -26 6 C-25.67 5.01 -25.34 4.02 -25 3 C-25 3.66 -25 4.32 -25 5 C-24.01 5 -23.02 5 -22 5 C-21.67 4.34 -21.34 3.68 -21 3 C-19.10314453 3.05220703 -19.10314453 3.05220703 -17.16796875 3.10546875 C-15.50782577 3.13360677 -13.84766844 3.16090691 -12.1875 3.1875 C-11.35412109 3.21263672 -10.52074219 3.23777344 -9.66210938 3.26367188 C-8.85966797 3.27333984 -8.05722656 3.28300781 -7.23046875 3.29296875 C-6.49207764 3.3086792 -5.75368652 3.32438965 -4.99291992 3.34057617 C-2.47769478 2.91074167 -1.60558484 1.92536938 0 0 Z " fill="#B9C3C7" transform="translate(264,114)"/>
<path d="M0 0 C0.66 0.33 1.32 0.66 2 1 C2.50423019 6.29441695 1.18923033 8.81413519 -2 13 C-0.35 13 1.3 13 3 13 C2.67 13.99 2.34 14.98 2 16 C-0.97 16 -3.94 16 -7 16 C-5 12 -5 12 -2.9375 9.6875 C-0.59360564 6.4362917 -0.30966982 3.94829026 0 0 Z " fill="#99A0A3" transform="translate(259,45)"/>
<path d="M0 0 C2.79192205 -0.05380578 5.5828141 -0.09357669 8.375 -0.125 C9.1690625 -0.14175781 9.963125 -0.15851563 10.78125 -0.17578125 C12.85492015 -0.19335473 14.92883241 -0.10335168 17 0 C17.66 0.66 18.32 1.32 19 2 C18.01 2.33 17.02 2.66 16 3 C16 2.34 16 1.68 16 1 C14.02 1 12.04 1 10 1 C10 2.32 10 3.64 10 5 C9.21625 4.95875 8.4325 4.9175 7.625 4.875 C4.83883881 4.71271266 4.83883881 4.71271266 3 7 C2.67 5.35 2.34 3.7 2 2 C1.34 2 0.68 2 0 2 C0 1.34 0 0.68 0 0 Z " fill="#B8C7CE" transform="translate(227,142)"/>
<path d="M0 0 C0.33 0 0.66 0 1 0 C1.04898438 1.27875 1.09796875 2.5575 1.1484375 3.875 C1.22352991 5.58335222 1.29907487 7.29168459 1.375 9 C1.42140625 10.25876953 1.42140625 10.25876953 1.46875 11.54296875 C1.72105723 16.96757427 2.51363983 21.77521879 4 27 C4.20882812 27.763125 4.41765625 28.52625 4.6328125 29.3125 C4.79523438 29.869375 4.95765625 30.42625 5.125 31 C5.41375 31.99 5.7025 32.98 6 34 C5.34 34 4.68 34 4 34 C4 33.34 4 32.68 4 32 C3.34 32 2.68 32 2 32 C-0.5143107 27.6753856 -1.09384413 25.79167361 0 21 C0.07700286 19.30742755 0.10805067 17.61226001 0.09765625 15.91796875 C0.09443359 14.98662109 0.09121094 14.05527344 0.08789062 13.09570312 C0.07951172 12.13599609 0.07113281 11.17628906 0.0625 10.1875 C0.05798828 9.20845703 0.05347656 8.22941406 0.04882812 7.22070312 C0.03708684 4.81373889 0.02066419 2.40690143 0 0 Z " fill="#C8D7DE" transform="translate(119,90)"/>
<path d="M0 0 C0.66 0 1.32 0 2 0 C2 4.95 2 9.9 2 15 C1.34 15 0.68 15 0 15 C-0.33 11.7 -0.66 8.4 -1 5 C-1.94875 5.99 -2.8975 6.98 -3.875 8 C-5.4921875 9.6875 -5.4921875 9.6875 -7 11 C-7.66 11 -8.32 11 -9 11 C-9 10.01 -9 9.02 -9 8 C-7.28515625 6.46484375 -7.28515625 6.46484375 -5.0625 4.9375 C-2.00721843 2.93041865 -2.00721843 2.93041865 0 0 Z " fill="#98A1A3" transform="translate(143,214)"/>
<path d="M0 0 C-0.33 1.32 -0.66 2.64 -1 4 C-1.33 3.34 -1.66 2.68 -2 2 C-2.57669434 2.15992432 -3.15338867 2.31984863 -3.74755859 2.48461914 C-5.90305376 2.97781774 -7.83410845 3.16833652 -10.0390625 3.24609375 C-10.78414062 3.27896484 -11.52921875 3.31183594 -12.296875 3.34570312 C-13.8566106 3.40720277 -15.41651919 3.46445373 -16.9765625 3.51757812 C-21.45923497 3.54805111 -21.45923497 3.54805111 -25 6 C-25 4.35 -25 2.7 -25 1 C-21.20836402 0.8326303 -17.4166864 0.66622322 -13.625 0.5 C-12.54476562 0.45230469 -11.46453125 0.40460938 -10.3515625 0.35546875 C-9.3203125 0.31035156 -8.2890625 0.26523438 -7.2265625 0.21875 C-6.27346191 0.17685547 -5.32036133 0.13496094 -4.33837891 0.09179688 C-2.89304218 0.03505783 -1.44644999 0 0 0 Z " fill="#BEC6CB" transform="translate(263,84)"/>
<path d="M0 0 C4.8 2.46153846 4.8 2.46153846 5.8125 5.1875 C5.874375 5.785625 5.93625 6.38375 6 7 C2.846632 7.70074844 0.27275026 8 -3 8 C-3.66 7.34 -4.32 6.68 -5 6 C-3.35 4.02 -1.7 2.04 0 0 Z " fill="#DBE0E5" transform="translate(191,51)"/>
<path d="M0 0 C1.32 1.65 2.64 3.3 4 5 C3.01 5.495 3.01 5.495 2 6 C2.57381478 9.32812571 3.59380748 10.69842455 6 13 C6 13.66 6 14.32 6 15 C2.88175879 13.63746417 0.95262649 12.14891747 -1.25 9.5625 C-1.77078125 8.96566406 -2.2915625 8.36882812 -2.828125 7.75390625 C-4 6 -4 6 -4 3 C-2 1.3125 -2 1.3125 0 0 Z " fill="#D5DADF" transform="translate(383,178)"/>
<path d="M0 0 C1.47443543 4.42330629 1.04145852 8.87442688 0.9609375 13.48828125 C0.91199809 18.11305592 1.22753444 22.43762527 2 27 C-0.61832507 24.71264299 -1.68627131 22.73180263 -2.75 19.4375 C-3.01296875 18.65246094 -3.2759375 17.86742188 -3.546875 17.05859375 C-4 15 -4 15 -3 13 C-2.67 13 -2.34 13 -2 13 C-1.93941406 12.22914062 -1.87882813 11.45828125 -1.81640625 10.6640625 C-1.69072266 9.15972656 -1.69072266 9.15972656 -1.5625 7.625 C-1.48128906 6.62726563 -1.40007812 5.62953125 -1.31640625 4.6015625 C-1 2 -1 2 0 0 Z " fill="#D7E4EA" transform="translate(131,85)"/>
<path d="M0 0 C-0.99 4.29 -1.98 8.58 -3 13 C-3.66 13 -4.32 13 -5 13 C-4.34 9.7 -3.68 6.4 -3 3 C-3.99 3.99 -4.98 4.98 -6 6 C-6.99 6.33 -7.98 6.66 -9 7 C-9.33 7.66 -9.66 8.32 -10 9 C-10.99 8.67 -11.98 8.34 -13 8 C-13 7.34 -13 6.68 -13 6 C-10.91796875 4.4921875 -10.91796875 4.4921875 -8.1875 2.875 C-7.29417969 2.33617187 -6.40085937 1.79734375 -5.48046875 1.2421875 C-3 0 -3 0 0 0 Z " fill="#9BA1A4" transform="translate(108,193)"/>
<path d="M0 0 C-0.71452588 4.76350585 -1.79534844 9.34201396 -3 14 C-3.99 13.67 -4.98 13.34 -6 13 C-5.01 9.7 -4.02 6.4 -3 3 C-4.918125 3.99 -4.918125 3.99 -6.875 5 C-10.75 7 -10.75 7 -13 7 C-13 6.34 -13 5.68 -13 5 C-11.39967863 4.15930585 -9.79458829 3.32768495 -8.1875 2.5 C-6.84751953 1.80390625 -6.84751953 1.80390625 -5.48046875 1.09375 C-3 0 -3 0 0 0 Z " fill="#9AA0A4" transform="translate(90,179)"/>
<path d="M0 0 C2.9375 1.3125 2.9375 1.3125 6 3 C6.33 3.99 6.66 4.98 7 6 C7.99 6.66 8.98 7.32 10 8 C6.99758744 9.54409789 5.5837816 10.1459454 2.25 9.3125 C0 8 0 8 -1 5 C-0.01 5 0.98 5 2 5 C2 4.34 2 3.68 2 3 C1.34 3 0.68 3 0 3 C0 2.01 0 1.02 0 0 Z " fill="#9EB4BD" transform="translate(356,38)"/>
<path d="M0 0 C0.66 0.99 1.32 1.98 2 3 C0.02 3.99 0.02 3.99 -2 5 C-2 5.66 -2 6.32 -2 7 C-1.01 6.67 -0.02 6.34 1 6 C1.66 7.32 2.32 8.64 3 10 C1.68 10.99 0.36 11.98 -1 13 C-1.33 11.68 -1.66 10.36 -2 9 C-4.31 9.33 -6.62 9.66 -9 10 C-8.04882866 8.8274869 -7.08882991 7.66212985 -6.125 6.5 C-5.32449219 5.52546875 -5.32449219 5.52546875 -4.5078125 4.53125 C-4.01023437 4.0259375 -3.51265625 3.520625 -3 3 C-2.34 3 -1.68 3 -1 3 C-0.67 2.01 -0.34 1.02 0 0 Z " fill="#B0C0C9" transform="translate(404,206)"/>
<path d="M0 0 C1.125 3.75 1.125 3.75 0 6 C-0.66 5.67 -1.32 5.34 -2 5 C-2 4.01 -2 3.02 -2 2 C-2.99 2 -3.98 2 -5 2 C-3.55049545 5.7910119 -1.84827434 9.3874638 0 13 C-3.62351253 11.79216249 -4.15215236 10.70346858 -6.1875 7.5625 C-6.71730469 6.75941406 -7.24710937 5.95632812 -7.79296875 5.12890625 C-9 3 -9 3 -9 1 C-5.64919071 -1.10976881 -3.77897651 -1.0497157 0 0 Z " fill="#9AA1A4" transform="translate(356,203)"/>
<path d="M0 0 C1.4540625 0.0309375 1.4540625 0.0309375 2.9375 0.0625 C2.9375 0.3925 2.9375 0.7225 2.9375 1.0625 C1.7309375 1.248125 1.7309375 1.248125 0.5 1.4375 C-0.345625 1.64375 -1.19125 1.85 -2.0625 2.0625 C-2.3925 2.7225 -2.7225 3.3825 -3.0625 4.0625 C-2.27875 4.18625 -1.495 4.31 -0.6875 4.4375 C1.9375 5.0625 1.9375 5.0625 3.9375 7.0625 C3.8125 10.0625 3.8125 10.0625 2.9375 13.0625 C0.875 14.4375 0.875 14.4375 -1.0625 15.0625 C-0.4025 14.0725 0.2575 13.0825 0.9375 12.0625 C0.9375 10.7425 0.9375 9.4225 0.9375 8.0625 C-2.0325 7.5675 -2.0325 7.5675 -5.0625 7.0625 C-4.02286585 0.0820993 -4.02286585 0.0820993 0 0 Z " fill="#989EA2" transform="translate(295.0625,44.9375)"/>
<path d="M0 0 C0.66 0 1.32 0 2 0 C2 0.66 2 1.32 2 2 C1.01 2.495 1.01 2.495 0 3 C0 3.66 0 4.32 0 5 C1.918125 5.185625 1.918125 5.185625 3.875 5.375 C7.75 5.75 7.75 5.75 10 8 C9.625 10.625 9.625 10.625 9 13 C7.35 13.33 5.7 13.66 4 14 C4 13.34 4 12.68 4 12 C4.99 11.67 5.98 11.34 7 11 C7.33 10.01 7.66 9.02 8 8 C7.36191406 8.01160156 6.72382813 8.02320313 6.06640625 8.03515625 C4.82697266 8.04869141 4.82697266 8.04869141 3.5625 8.0625 C2.32693359 8.07990234 2.32693359 8.07990234 1.06640625 8.09765625 C-1 8 -1 8 -2 7 C-2.1875 4.5625 -2.1875 4.5625 -2 2 C-1.34 1.34 -0.68 0.68 0 0 Z " fill="#A4ABAD" transform="translate(394,168)"/>
<path d="M0 0 C3.36748512 1.51947499 4.60840337 2.52100842 6 6 C5.34 6 4.68 6 4 6 C3.67 5.34 3.34 4.68 3 4 C2.01 4.33 1.02 4.66 0 5 C0.33 5.598125 0.66 6.19625 1 6.8125 C2 9 2 9 2 12 C0.35 10.68 -1.3 9.36 -3 8 C-3.45375 8.495 -3.9075 8.99 -4.375 9.5 C-6 11 -6 11 -8 11 C-6.63629701 8.00779732 -5.05091917 5.70973471 -2.875 3.25 C-2.33617188 2.63640625 -1.79734375 2.0228125 -1.2421875 1.390625 C-0.62730469 0.70226562 -0.62730469 0.70226562 0 0 Z " fill="#A0A5A9" transform="translate(78,168)"/>
<path d="M0 0 C0.33 0 0.66 0 1 0 C2.33564351 5.48726875 2.36686231 11.05383327 2.60546875 16.66992188 C2.69441719 20.97148288 2.69441719 20.97148288 4 25 C3.39421747 27.01927511 2.73080266 29.02253397 2 31 C1.34 31 0.68 31 0 31 C0 20.77 0 10.54 0 0 Z " fill="#C4D5DB" transform="translate(339,81)"/>
<path d="M0 0 C0 0.99 0 1.98 0 3 C-1.11375 2.79375 -2.2275 2.5875 -3.375 2.375 C-4.57125 2.25125 -5.7675 2.1275 -7 2 C-7.66 2.66 -8.32 3.32 -9 4 C-8.58984222 8.65624995 -8.58984222 8.65624995 -7 13 C-10.875 11.25 -10.875 11.25 -12 9 C-12.375 6.125 -12.375 6.125 -12 3 C-8.22348067 -1.4631592 -5.48700159 -1.2910592 0 0 Z " fill="#A1A6A8" transform="translate(207,232)"/>
<path d="M0 0 C0.66 0 1.32 0 2 0 C2 2.31 2 4.62 2 7 C3.65 7 5.3 7 7 7 C7 7.33 7 7.66 7 8 C5.35 8 3.7 8 2 8 C2 9.98 2 11.96 2 14 C5.465 13.505 5.465 13.505 9 13 C9 13.66 9 14.32 9 15 C6.03 15 3.06 15 0 15 C0 10.05 0 5.1 0 0 Z " fill="#8D9398" transform="translate(178,45)"/>
<path d="M0 0 C0.9075 0.61875 1.815 1.2375 2.75 1.875 C5.14948817 3.44389611 7.40961612 4.80443821 10 6 C9.67 6.99 9.34 7.98 9 9 C7.02 7.68 5.04 6.36 3 5 C3.66 7.31 4.32 9.62 5 12 C4.34 12 3.68 12 3 12 C-0.42857143 4.71428571 -0.42857143 4.71428571 0 0 Z " fill="#8B9195" transform="translate(334,213)"/>
<path d="M0 0 C1 2 1 2 0.3125 4.3125 C-1.12775256 7.26158858 -2.89057843 9.49506189 -5 12 C-5.99 13.485 -5.99 13.485 -7 15 C-7.66 14.67 -8.32 14.34 -9 14 C-9 14.66 -9 15.32 -9 16 C-9.66 15.67 -10.32 15.34 -11 15 C-7.37 10.05 -3.74 5.1 0 0 Z " fill="#B2C1C8" transform="translate(416,190)"/>
<path d="M0 0 C0.66 0.33 1.32 0.66 2 1 C-1.75 4 -1.75 4 -4 4 C-4.33 4.99 -4.66 5.98 -5 7 C-5.66 7 -6.32 7 -7 7 C-7 7.66 -7 8.32 -7 9 C-9.97411124 10.23921302 -12.85262818 11.30058404 -16 12 C-12.87378374 8.60582235 -10.43458973 6.3937282 -6 5 C-6 4.34 -6 3.68 -6 3 C-4.03533587 1.93224776 -2.03144641 0.93446535 0 0 Z " fill="#D8E2E8" transform="translate(102,54)"/>
<path d="M0 0 C1.98 0 3.96 0 6 0 C6.33 1.65 6.66 3.3 7 5 C6.01 5.495 6.01 5.495 5 6 C4.67 6.33 4.34 6.66 4 7 C3.01 7 2.02 7 1 7 C-1 4 -1 4 -0.625 1.8125 C-0.41875 1.214375 -0.2125 0.61625 0 0 Z " fill="#EBEFF1" transform="translate(278,232)"/>
<path d="M0 0 C3.40320742 1.01176437 4.75725331 1.64843582 6.8125 4.625 C7.204375 5.40875 7.59625 6.1925 8 7 C7.01 7 6.02 7 5 7 C4.67 7.99 4.34 8.98 4 10 C0.38860104 6.12435233 0.38860104 6.12435233 -1 4 C-0.8125 1.625 -0.8125 1.625 0 0 Z " fill="#E6ECF0" transform="translate(385,183)"/>
<path d="M0 0 C4.875 1.75 4.875 1.75 6 4 C5.69799014 5.3407755 5.35997253 6.67361066 5 8 C4.85966422 9.439735 4.75583143 10.88337149 4.68359375 12.328125 C4.64169922 13.12734375 4.59980469 13.9265625 4.55664062 14.75 C4.49766602 15.9875 4.49766602 15.9875 4.4375 17.25 C4.39431641 18.09046875 4.35113281 18.9309375 4.30664062 19.796875 C4.20091457 21.86440671 4.09998705 23.93218281 4 26 C3.67 26 3.34 26 3 26 C2.95101563 24.70964844 2.90203125 23.41929688 2.8515625 22.08984375 C2.77648197 20.37237653 2.70093646 18.65492959 2.625 16.9375 C2.57859375 15.66616211 2.57859375 15.66616211 2.53125 14.36914062 C2.29468217 9.26321829 1.61955494 4.85208127 0 0 Z " fill="#D5E0E6" transform="translate(360,86)"/>
<path d="M0 0 C0 0.66 0 1.32 0 2 C-0.99 2.33 -1.98 2.66 -3 3 C-2.33735914 9.06264222 -2.33735914 9.06264222 -1 15 C-1.99 15.33 -2.98 15.66 -4 16 C-4.50435694 14.0636296 -5.00333874 12.12585854 -5.5 10.1875 C-5.7784375 9.10855469 -6.056875 8.02960938 -6.34375 6.91796875 C-7 4 -7 4 -7 1 C-2.25 0 -2.25 0 0 0 Z " fill="#9FA5A7" transform="translate(296,226)"/>
<path d="M0 0 C-0.33 1.65 -0.66 3.3 -1 5 C-1.680625 4.79375 -2.36125 4.5875 -3.0625 4.375 C-6.78833331 3.89936171 -9.46992554 4.82330851 -13 6 C-12.125 2.125 -12.125 2.125 -11 1 C-9.52738281 0.76657144 -8.04598558 0.58703535 -6.5625 0.4375 C-5.75941406 0.35371094 -4.95632813 0.26992187 -4.12890625 0.18359375 C-2 0 -2 0 0 0 Z " fill="#DFE5E8" transform="translate(289,228)"/>
<path d="M0 0 C1.32 1.32 2.64 2.64 4 4 C-0.75 7 -0.75 7 -3 7 C-3 7.66 -3 8.32 -3 9 C-3.99 9.33 -4.98 9.66 -6 10 C-6.33 7.36 -6.66 4.72 -7 2 C-6.34 2 -5.68 2 -5 2 C-4.01 3.485 -4.01 3.485 -3 5 C-2.01 4.67 -1.02 4.34 0 4 C0 2.68 0 1.36 0 0 Z " fill="#E1E8EB" transform="translate(352,213)"/>
<path d="M0 0 C4 0 4 0 5.75 1.375 C7 3 7 3 7 5 C8.65 5.33 10.3 5.66 12 6 C11.01 6.66 10.02 7.32 9 8 C6.5625 7.25 6.5625 7.25 4 6 C2.88625 5.505 2.88625 5.505 1.75 5 C0 4 0 4 -1 2 C-0.67 1.34 -0.34 0.68 0 0 Z " fill="#D3D8DA" transform="translate(123,202)"/>
<path d="M0 0 C4.04737798 4.04737798 6.27392513 10.37291978 7 16 C3.74476687 12.92072542 0.81621888 10.136943 -1 6 C-0.6875 2.6875 -0.6875 2.6875 0 0 Z " fill="#D2E0E7" transform="translate(110,120)"/>
<path d="M0 0 C-1.32 0.33 -2.64 0.66 -4 1 C-4 1.66 -4 2.32 -4 3 C-2.02 3 -0.04 3 2 3 C2 6.63 2 10.26 2 14 C1.67 14 1.34 14 1 14 C1 10.7 1 7.4 1 4 C-1.64 4.33 -4.28 4.66 -7 5 C-6.67 3.68 -6.34 2.36 -6 1 C-7.65 1 -9.3 1 -11 1 C-6.8204355 -1.78637633 -4.85331323 -0.79562512 0 0 Z " fill="#E2E6EA" transform="translate(204,43)"/>
<path d="M0 0 C0.99 0 1.98 0 3 0 C2.938125 1.258125 2.87625 2.51625 2.8125 3.8125 C2.76367078 7.16958979 2.76367078 7.16958979 4.5 10 C4.995 10.33 5.49 10.66 6 11 C4.0625 10.6875 4.0625 10.6875 2 10 C1.67 9.01 1.34 8.02 1 7 C-1.64 7 -4.28 7 -7 7 C-6.67 6.34 -6.34 5.68 -6 5 C-4.02 5 -2.04 5 0 5 C0 3.35 0 1.7 0 0 Z " fill="#AAAFB2" transform="translate(206,239)"/>
<path d="M0 0 C-0.61538462 6.52307692 -0.61538462 6.52307692 -2.5625 8.9375 C-3.036875 9.288125 -3.51125 9.63875 -4 10 C-5.25664978 7.09399739 -6 5.20395416 -6 2 C-2.25 0 -2.25 0 0 0 Z " fill="#D5DBDE" transform="translate(87,182)"/>
<path d="M0 0 C0.99 0.33 1.98 0.66 3 1 C2.21625 1.598125 1.4325 2.19625 0.625 2.8125 C-2.14574323 4.91085249 -2.14574323 4.91085249 -4 8 C-5.63631892 9.04892238 -7.30485863 10.04906703 -9 11 C-9.99 11.66 -10.98 12.32 -12 13 C-10.53438126 9.60312324 -8.63352456 7.39277314 -6 4.8125 C-4.948125 3.77029297 -4.948125 3.77029297 -3.875 2.70703125 C-2 1 -2 1 0 0 Z " fill="#A9B8C3" transform="translate(78,62)"/>
<path d="M0 0 C-2.48741501 3.04854904 -4.61274286 3.60648591 -8.4375 4.25 C-9.38496094 4.42015625 -10.33242188 4.5903125 -11.30859375 4.765625 C-13.87552599 4.98916046 -15.57604847 4.80225346 -18 4 C-15.75438718 3.13237686 -13.50473745 2.2807897 -11.25 1.4375 C-10.61578125 1.19064453 -9.9815625 0.94378906 -9.328125 0.68945312 C-5.88990821 -0.58197079 -3.47831118 -1.46686355 0 0 Z " fill="#B8C7CD" transform="translate(334,254)"/>
<path d="M0 0 C1.125 6.625 1.125 6.625 0 10 C-0.66 10 -1.32 10 -2 10 C-5.075 5.9 -5.075 5.9 -4.8125 2.75 C-3.67433137 0.29855987 -2.65058539 0 0 0 Z " fill="#E2E6EB" transform="translate(226,239)"/>
<path d="M0 0 C0 2.31 0 4.62 0 7 C-0.99 7.33 -1.98 7.66 -3 8 C-3.391875 7.360625 -3.78375 6.72125 -4.1875 6.0625 C-6.38472296 3.56221181 -7.75791433 3.35049575 -11 3 C-11 2.67 -11 2.34 -11 2 C-9.54494642 1.47007308 -8.08581873 0.9513211 -6.625 0.4375 C-5.81289063 0.14746094 -5.00078125 -0.14257812 -4.1640625 -0.44140625 C-2 -1 -2 -1 0 0 Z " fill="#DEE4E6" transform="translate(335,213)"/>
<path d="M0 0 C5 3 5 3 6 6 C5.01 6.495 5.01 6.495 4 7 C4 8.98 4 10.96 4 13 C3.34 13 2.68 13 2 13 C1.34 8.71 0.68 4.42 0 0 Z " fill="#B4B9BD" transform="translate(360,199)"/>
<path d="M0 0 C1.65 0.33 3.3 0.66 5 1 C6.125 5.75 6.125 5.75 5 8 C2.36 8 -0.28 8 -3 8 C-3 7.67 -3 7.34 -3 7 C-1.02 6.67 0.96 6.34 3 6 C3.33 5.01 3.66 4.02 4 3 C2.35 3.33 0.7 3.66 -1 4 C-0.67 2.68 -0.34 1.36 0 0 Z " fill="#778085" transform="translate(229,45)"/>
<path d="M0 0 C0.99 0.33 1.98 0.66 3 1 C3.06996147 3.51861282 3.10953341 5.63853976 2.375 8.0625 C1.87811029 10.6297635 2.67320572 11.81469177 4 14 C0.24623848 12.74874616 -0.24073289 11.4347596 -2 8 C-2 7.34 -2 6.68 -2 6 C-1.34 5.67 -0.68 5.34 0 5 C0 3.35 0 1.7 0 0 Z " fill="#989FA4" transform="translate(220,234)"/>
<path d="M0 0 C4.29 0 8.58 0 13 0 C13 0.99 13 1.98 13 3 C10.03 2.505 10.03 2.505 7 2 C7 5.96 7 9.92 7 14 C6.67 14 6.34 14 6 14 C6 9.71 6 5.42 6 1 C4.02 1 2.04 1 0 1 C0 0.67 0 0.34 0 0 Z " fill="#B8BFC3" transform="translate(202,44)"/>
<path d="M0 0 C3.78981363 0.06767524 6.10285057 0.21499425 9 2.75 C10.25805827 5.5806311 9.89063845 7.08518324 9 10 C8.67 10 8.34 10 8 10 C7.67 8.02 7.34 6.04 7 4 C3.7 3.67 0.4 3.34 -3 3 C-2.01 2.01 -1.02 1.02 0 0 Z " fill="#B5BABD" transform="translate(181,227)"/>
<path d="M0 0 C0.33 0.66 0.66 1.32 1 2 C1.99 1.67 2.98 1.34 4 1 C4 1.66 4 2.32 4 3 C3.34 3 2.68 3 2 3 C2.495 3.5775 2.99 4.155 3.5 4.75 C5 7 5 7 5 11 C2 10 2 10 0.83203125 7.93359375 C0.49558594 7.10988281 0.15914062 6.28617188 -0.1875 5.4375 C-0.53167969 4.61121094 -0.87585937 3.78492188 -1.23046875 2.93359375 C-1.48441406 2.29550781 -1.73835938 1.65742188 -2 1 C-1.34 0.67 -0.68 0.34 0 0 Z " fill="#9AAFB8" transform="translate(42,176)"/>
<path d="M0 0 C0.33 0 0.66 0 1 0 C2.43609916 6.82147102 2.80991127 14.21283273 1 21 C0.67 21 0.34 21 0 21 C0 17.04 0 13.08 0 9 C-0.66 8.67 -1.32 8.34 -2 8 C-1.34 8 -0.68 8 0 8 C0 5.36 0 2.72 0 0 Z " fill="#B6C2CA" transform="translate(351,88)"/>
<path d="M0 0 C3.76547669 3.76547669 3.91348469 5.90173585 5 11 C4.01 10.34 3.02 9.68 2 9 C1.67 10.65 1.34 12.3 1 14 C0.67 14 0.34 14 0 14 C0 9.38 0 4.76 0 0 Z " fill="#B3C1C8" transform="translate(89,114)"/>
<path d="M0 0 C2.60691842 2.60691842 2.70416963 4.37607794 3 8 C2.01 9.485 2.01 9.485 1 11 C0.34 11 -0.32 11 -1 11 C-1 11.66 -1 12.32 -1 13 C-2.32 13 -3.64 13 -5 13 C-5 12.34 -5 11.68 -5 11 C-3.7625 10.1646875 -3.7625 10.1646875 -2.5 9.3125 C0.4132668 7.13975597 0.4132668 7.13975597 0.3125 3.25 C0.209375 2.1775 0.10625 1.105 0 0 Z " fill="#E8EEF1" transform="translate(288,45)"/>
<path d="M0 0 C0.66 0 1.32 0 2 0 C3.05619003 4.28297531 3.11702092 8.42985646 3.0625 12.8125 C3.05798828 13.50537109 3.05347656 14.19824219 3.04882812 14.91210938 C3.03713156 16.60811068 3.01919924 18.30406703 3 20 C2.67 20 2.34 20 2 20 C2 16.04 2 12.08 2 8 C1.34 8 0.68 8 0 8 C0 5.36 0 2.72 0 0 Z " fill="#B7C3C8" transform="translate(371,98)"/>
<path d="M0 0 C2.02350324 3.03525486 2.32124018 4.19426202 2.625 7.6875 C2.69976562 8.49574219 2.77453125 9.30398437 2.8515625 10.13671875 C2.92503906 11.05904297 2.92503906 11.05904297 3 12 C2.67 10.68 2.34 9.36 2 8 C1.34 8 0.68 8 0 8 C-0.33 8.99 -0.66 9.98 -1 11 C-2.38550197 8.22899606 -2.1877467 6.0665294 -2 3 C-1.34 2.01 -0.68 1.02 0 0 Z " fill="#DBE3E5" transform="translate(289,230)"/>
<path d="M0 0 C-1.31115051 3.93345152 -2.84212778 4.32374076 -6.4375 6.25 C-7.42621094 6.79140625 -8.41492188 7.3328125 -9.43359375 7.890625 C-10.28050781 8.25671875 -11.12742187 8.6228125 -12 9 C-12.66 8.67 -13.32 8.34 -14 8 C-2 0 -2 0 0 0 Z " fill="#8F9497" transform="translate(135,209)"/>
<path d="M0 0 C1.32 0.99 2.64 1.98 4 3 C3.67 4.65 3.34 6.3 3 8 C1.68 8.33 0.36 8.66 -1 9 C-1.33 8.34 -1.66 7.68 -2 7 C-1.67 6.01 -1.34 5.02 -1 4 C-1.66 3.67 -2.32 3.34 -3 3 C-2.01 2.01 -1.02 1.02 0 0 Z M0 2 C-0.33 2.66 -0.66 3.32 -1 4 C-0.01 3.67 0.98 3.34 2 3 C1.34 2.67 0.68 2.34 0 2 Z " fill="#9EB3C2" transform="translate(70,211)"/>
<path d="M0 0 C0.33 0.66 0.66 1.32 1 2 C-2.31114834 3.12880057 -5.58978257 4.21302675 -9 5 C-9 3.35 -9 1.7 -9 0 C-5.88173308 -1.55913346 -3.32926126 -0.66585225 0 0 Z " fill="#9DB3BF" transform="translate(152,258)"/>
<path d="M0 0 C1.98 0.495 1.98 0.495 4 1 C4.33 2.32 4.66 3.64 5 5 C5.33 4.34 5.66 3.68 6 3 C6 3.99 6 4.98 6 6 C4.02 6.99 4.02 6.99 2 8 C0.4375 5.6875 0.4375 5.6875 -1 3 C-0.67 2.01 -0.34 1.02 0 0 Z " fill="#D9E0E4" transform="translate(351,204)"/>
<path d="M0 0 C1.65 0 3.3 0 5 0 C4.814375 0.598125 4.62875 1.19625 4.4375 1.8125 C3.77906313 4.16408762 3.77906313 4.16408762 5 7 C2.11424181 6.60196439 1.17810487 6.20990931 -0.75 3.9375 C-1.1625 3.298125 -1.575 2.65875 -2 2 C-1.34 2 -0.68 2 0 2 C0 1.34 0 0.68 0 0 Z " fill="#9BB0BB" transform="translate(59,204)"/>
<path d="M0 0 C0.66 0.66 1.32 1.32 2 2 C-0.31 5.96 -2.62 9.92 -5 14 C-6 10 -6 10 -5 8 C-4.34 8 -3.68 8 -3 8 C-2.87625 7.4225 -2.7525 6.845 -2.625 6.25 C-1.99351176 3.97664233 -1.11141809 2.0746471 0 0 Z " fill="#9AA8AF" transform="translate(426,184)"/>
<path d="M0 0 C1.13643966 3.40931897 0.86747764 4.00335456 -0.4375 7.1875 C-0.72496094 7.90292969 -1.01242188 8.61835937 -1.30859375 9.35546875 C-1.53675781 9.89816406 -1.76492187 10.44085938 -2 11 C-2.66 10.34 -3.32 9.68 -4 9 C-4.99 9.495 -4.99 9.495 -6 10 C-4.6302836 6.00499382 -2.74277578 3.19990508 0 0 Z " fill="#BCC4C9" transform="translate(143,61)"/>
<path d="M0 0 C0.99 0 1.98 0 3 0 C3 1.32 3 2.64 3 4 C2.34 4 1.68 4 1 4 C1.33 6.97 1.66 9.94 2 13 C0.35 13 -1.3 13 -3 13 C-2.67 12.34 -2.34 11.68 -2 11 C-1.34 11.33 -0.68 11.66 0 12 C0 8.04 0 4.08 0 0 Z " fill="#DAE0E3" transform="translate(260,235)"/>
<path d="M0 0 C2.31 0 4.62 0 7 0 C7.33 0.66 7.66 1.32 8 2 C10.52733235 2.65555119 10.52733235 2.65555119 13 3 C12.67 3.66 12.34 4.32 12 5 C9.69 4.67 7.38 4.34 5 4 C5 3.34 5 2.68 5 2 C3.35 2 1.7 2 0 2 C0 1.34 0 0.68 0 0 Z " fill="#CFD3D6" transform="translate(282,57)"/>
<path d="M0 0 C0 0.99 0 1.98 0 3 C-1.11375 3.12375 -2.2275 3.2475 -3.375 3.375 C-7.03103677 3.6465813 -7.03103677 3.6465813 -9 6 C-9 3 -9 3 -7.875 1.3125 C-5.23540902 -0.53521368 -3.14195927 -0.20946395 0 0 Z " fill="#BEC2C6" transform="translate(314,221)"/>
<path d="M0 0 C1.91789713 0.28346278 3.83429183 0.5771028 5.75 0.875 C7.35101563 1.11863281 7.35101563 1.11863281 8.984375 1.3671875 C11.67708871 1.93223882 13.63572439 2.63422914 16 4 C11.30976546 3.43393721 6.65499974 2.81462495 2 2 C1.67 3.32 1.34 4.64 1 6 C0.67 4.02 0.34 2.04 0 0 Z " fill="#C4D3DA" transform="translate(258,188)"/>
<path d="M0 0 C0.33 0 0.66 0 1 0 C2.07511878 4.39006837 2.3257941 7.04622243 0.0625 10.9375 C-0.618125 11.948125 -1.29875 12.95875 -2 14 C-3.21065165 10.36804504 -2.62784815 8.93468371 -1.5625 5.3125 C-1.27503906 4.31863281 -0.98757813 3.32476562 -0.69140625 2.30078125 C-0.46324219 1.54152344 -0.23507812 0.78226562 0 0 Z " fill="#CEE1E7" transform="translate(351,109)"/>
<path d="M0 0 C3.40951722 1.13650574 4.37636276 2.25813125 6.6875 4.9375 C7.31011719 5.64777344 7.93273437 6.35804688 8.57421875 7.08984375 C10 9 10 9 10 11 C6.8510285 9.63088196 4.9521513 8.1247864 2.75 5.5 C2.22921875 4.8915625 1.7084375 4.283125 1.171875 3.65625 C0 2 0 2 0 0 Z " fill="#8F979B" transform="translate(379,182)"/>
<path d="M0 0 C0.66 0.33 1.32 0.66 2 1 C0.515 2.485 0.515 2.485 -1 4 C-0.34 5.65 0.32 7.3 1 9 C0.01 9 -0.98 9 -2 9 C-2.28875 8.195625 -2.5775 7.39125 -2.875 6.5625 C-3.73262568 3.8673532 -3.73262568 3.8673532 -6 3 C-4.03533587 1.93224776 -2.03144641 0.93446535 0 0 Z " fill="#ADBEC7" transform="translate(353,244)"/>
<path d="M0 0 C5.19822672 1.36144033 8.09543873 3.46730171 12 7 C11.01 7.495 11.01 7.495 10 8 C6.25718301 5.61820737 3.02272532 3.25524265 0 0 Z " fill="#8D9498" transform="translate(360,198)"/>
<path d="M0 0 C0 3.56229451 -0.76109009 4.41109679 -2.875 7.1875 C-3.40867187 7.90292969 -3.94234375 8.61835938 -4.4921875 9.35546875 C-4.98976563 9.89816406 -5.48734375 10.44085938 -6 11 C-6.66 11 -7.32 11 -8 11 C-6.63629701 8.00779732 -5.05091917 5.70973471 -2.875 3.25 C-2.33617188 2.63640625 -1.79734375 2.0228125 -1.2421875 1.390625 C-0.62730469 0.70226562 -0.62730469 0.70226562 0 0 Z " fill="#979B9F" transform="translate(98,186)"/>
<path d="M0 0 C1.33010838 2.66021676 1.40454123 4.03336435 1 7 C-0.49603798 9.22313336 -2.16399732 11.02629712 -4 13 C-4.66 12.67 -5.32 12.34 -6 12 C-5.38125 11.13375 -4.7625 10.2675 -4.125 9.375 C-2.15345216 6.24371814 -1.01033009 3.53615531 0 0 Z " fill="#C2D3DC" transform="translate(359,124)"/>
<path d="M0 0 C2.32590854 3.63423209 2.16265833 6.77088331 2 11 C-0.7972908 8.93243723 -1.02692273 7.85559629 -1.6875 4.3125 C-1.790625 3.219375 -1.89375 2.12625 -2 1 C-1.34 0.67 -0.68 0.34 0 0 Z " fill="#99ABB3" transform="translate(434,122)"/>
<path d="M0 0 C3.99996286 1.33332095 4.83782337 3.4957827 7 7 C6.67 7.66 6.34 8.32 6 9 C5.67 8.67 5.34 8.34 5 8 C4.34 8.66 3.68 9.32 3 10 C0 3.375 0 3.375 0 0 Z " fill="#C4CCD1" transform="translate(327,60)"/>
<path d="M0 0 C0.66 0 1.32 0 2 0 C3.35439668 2.70879335 3.06501451 5.00933268 3 8 C2.01 8 1.02 8 0 8 C0.33 6.68 0.66 5.36 1 4 C0.34 4 -0.32 4 -1 4 C-1.33 4.66 -1.66 5.32 -2 6 C-1.49396008 3.83125748 -1.00016187 2.00032373 0 0 Z " fill="#D2D5DA" transform="translate(174,229)"/>
<path d="M0 0 C1.98 0 3.96 0 6 0 C5.67 1.65 5.34 3.3 5 5 C3.02 4.34 1.04 3.68 -1 3 C-0.67 2.01 -0.34 1.02 0 0 Z " fill="#9CB4C2" transform="translate(398,214)"/>
<path d="M0 0 C0.66 0 1.32 0 2 0 C1.36934243 3.21852831 0.21979305 5.50801069 -1.5625 8.25 C-2.01753906 8.95640625 -2.47257812 9.6628125 -2.94140625 10.390625 C-3.29074219 10.92171875 -3.64007813 11.4528125 -4 12 C-4.66 11.67 -5.32 11.34 -6 11 C-4.02 7.37 -2.04 3.74 0 0 Z " fill="#8D9396" transform="translate(113,197)"/>
<path d="M0 0 C3.33717549 1.3809002 5.22301036 2.8201238 7 6 C6.6875 8.25 6.6875 8.25 6 10 C5.01 10 4.02 10 3 10 C3.66 9.67 4.32 9.34 5 9 C4.54625 8.2575 4.0925 7.515 3.625 6.75 C2.31359204 4.53069422 1.11719197 2.32032178 0 0 Z " fill="#ACB1B4" transform="translate(368,195)"/>
<path d="M0 0 C0.66 0.33 1.32 0.66 2 1 C1.33501617 5.38889325 -0.18757677 8.9811485 -2 13 C-3.18771723 9.57056481 -2.80226223 7.62215325 -1.5625 4.25 C-1.27503906 3.45078125 -0.98757813 2.6515625 -0.69140625 1.828125 C-0.46324219 1.22484375 -0.23507812 0.6215625 0 0 Z " fill="#AFC1C8" transform="translate(428,160)"/>
<path d="M0 0 C0 0.99 0 1.98 0 3 C-4.22222222 6 -4.22222222 6 -7 6 C-7 6.66 -7 7.32 -7 8 C-7.66 7.67 -8.32 7.34 -9 7 C-4.56923077 1.21538462 -4.56923077 1.21538462 -1.6875 0.125 C-0.8521875 0.063125 -0.8521875 0.063125 0 0 Z " fill="#AFBFC8" transform="translate(326,113)"/>
<path d="M0 0 C0 0.66 0 1.32 0 2 C-0.598125 2.268125 -1.19625 2.53625 -1.8125 2.8125 C-4.04292693 3.86180044 -4.04292693 3.86180044 -5.4375 5.625 C-7 7 -7 7 -9.6875 7.1875 C-10.8321875 7.0946875 -10.8321875 7.0946875 -12 7 C-10.49400979 3.98801958 -7.97413004 3.42758242 -5 2 C-2 0 -2 0 0 0 Z " fill="#B8C8D0" transform="translate(370,235)"/>
<path d="M0 0 C0.66 0.33 1.32 0.66 2 1 C2 3.31 2 5.62 2 8 C1.01 8 0.02 8 -1 8 C-1.93065133 5.39417629 -2.14917407 4.35801776 -1.0625 1.75 C-0.711875 1.1725 -0.36125 0.595 0 0 Z " fill="#DDE6EA" transform="translate(256,235)"/>
<path d="M0 0 C2 4 2 4 1.3203125 6.140625 C0.92585937 6.83671875 0.53140625 7.5328125 0.125 8.25 C-0.26429688 8.95640625 -0.65359375 9.6628125 -1.0546875 10.390625 C-1.36664063 10.92171875 -1.67859375 11.4528125 -2 12 C-2.66 11.67 -3.32 11.34 -4 11 C-2.68 7.37 -1.36 3.74 0 0 Z " fill="#A8AEB2" transform="translate(150,218)"/>
<path d="M0 0 C0.33 1.32 0.66 2.64 1 4 C-0.8125 5.5625 -0.8125 5.5625 -3 7 C-3.99 6.67 -4.98 6.34 -6 6 C-5.34 5.01 -4.68 4.02 -4 3 C-3.34 3 -2.68 3 -2 3 C-2 2.34 -2 1.68 -2 1 C-1.34 0.67 -0.68 0.34 0 0 Z " fill="#AEBFC6" transform="translate(392,218)"/>
<path d="M0 0 C1.32 0.99 2.64 1.98 4 3 C4.33 2.01 4.66 1.02 5 0 C6.98 0.66 8.96 1.32 11 2 C11 2.33 11 2.66 11 3 C7.7 3.66 4.4 4.32 1 5 C0.67 3.35 0.34 1.7 0 0 Z " fill="#9DAFB8" transform="translate(298,266)"/>
<path d="M0 0 C1.65 0 3.3 0 5 0 C4.34 1.65 3.68 3.3 3 5 C1.68 5 0.36 5 -1 5 C-0.67 3.35 -0.34 1.7 0 0 Z " fill="#EAEEF1" transform="translate(230,236)"/>
<path d="M0 0 C1.32 0.33 2.64 0.66 4 1 C4.33 3.64 4.66 6.28 5 9 C4.34 9 3.68 9 3 9 C2.01 6.03 1.02 3.06 0 0 Z " fill="#AAB3B6" transform="translate(334,216)"/>
<path d="M0 0 C0.99 0 1.98 0 3 0 C3.33 1.65 3.66 3.3 4 5 C2.68 5 1.36 5 0 5 C-0.5625 3.0625 -0.5625 3.0625 -1 1 C-0.67 0.67 -0.34 0.34 0 0 Z " fill="#E3E7EB" transform="translate(355,210)"/>
<path d="M0 0 C3.82669043 3.42388092 5.72278474 6.00724943 7 11 C4.35247996 8.42215154 2.05567935 6.08351902 0 3 C0 2.01 0 1.02 0 0 Z " fill="#8D9497" transform="translate(343,208)"/>
<path d="M0 0 C0.66 0 1.32 0 2 0 C1.67 2.97 1.34 5.94 1 9 C0.01 8.01 -0.98 7.02 -2 6 C-1.34 4.02 -0.68 2.04 0 0 Z " fill="#9DADB8" transform="translate(434,158)"/>
<path d="M0 0 C0.66 0.99 1.32 1.98 2 3 C-1.22791555 5.1519437 -2.28400809 5.20086443 -6 5 C-6.33 3.68 -6.66 2.36 -7 1 C-4.03 1.495 -4.03 1.495 -1 2 C-0.67 1.34 -0.34 0.68 0 0 Z " fill="#ADB3B5" transform="translate(197,56)"/>
<path d="M0 0 C1.32 0.33 2.64 0.66 4 1 C4.625 4.375 4.625 4.375 5 8 C4.34 8.66 3.68 9.32 3 10 C2.87625 8.906875 2.7525 7.81375 2.625 6.6875 C2.24535199 2.92618198 2.24535199 2.92618198 0 0 Z " fill="#90989D" transform="translate(283,231)"/>
<path d="M0 0 C0.66 0 1.32 0 2 0 C3.625 2 3.625 2 5 4 C4.67 4.66 4.34 5.32 4 6 C1.9375 6.625 1.9375 6.625 0 7 C-1.04449911 3.86650268 -0.93423645 3.01031744 0 0 Z " fill="#DDE3E5" transform="translate(345,204)"/>
<path d="M0 0 C0.185625 0.9590625 0.185625 0.9590625 0.375 1.9375 C0.684375 2.9584375 0.684375 2.9584375 1 4 C1.66 4.33 2.32 4.66 3 5 C3.33 5.66 3.66 6.32 4 7 C2.68 7.33 1.36 7.66 0 8 C-0.33 7.01 -0.66 6.02 -1 5 C-1.66 4.67 -2.32 4.34 -3 4 C-2.67 3.01 -2.34 2.02 -2 1 C-2 1.66 -2 2.32 -2 3 C-1.34 3 -0.68 3 0 3 C0 2.01 0 1.02 0 0 Z " fill="#C5C9CC" transform="translate(105,203)"/>
<path d="M0 0 C0.33 0.66 0.66 1.32 1 2 C-1.31537955 5.72114571 -3.28579473 8.61229661 -7 11 C-5.22054913 6.95579349 -2.60470327 3.53921513 0 0 Z " fill="#B0C1CA" transform="translate(255,149)"/>
<path d="M0 0 C0.33 0.99 0.66 1.98 1 3 C-1.31 3 -3.62 3 -6 3 C-5.01 4.485 -5.01 4.485 -4 6 C-4.33 6.99 -4.66 7.98 -5 9 C-7 7 -7 7 -7.125 4.375 C-7.08375 3.59125 -7.0425 2.8075 -7 2 C-4.69 2 -2.38 2 0 2 C0 1.34 0 0.68 0 0 Z " fill="#D5E1E6" transform="translate(249,146)"/>
<path d="M0 0 C0.99 0.33 1.98 0.66 3 1 C2.67 2.32 2.34 3.64 2 5 C0.68 5 -0.64 5 -2 5 C-1.125 1.125 -1.125 1.125 0 0 Z " fill="#E1E8EB" transform="translate(194,54)"/>
<path d="M0 0 C0.33 0 0.66 0 1 0 C1 3.63 1 7.26 1 11 C0.67 11 0.34 11 0 11 C0 9.02 0 7.04 0 5 C-0.99 4.67 -1.98 4.34 -3 4 C-2.02727325 2.64664105 -1.0260734 1.31337396 0 0 Z " fill="#C9D0D2" transform="translate(142,218)"/>
<path d="M0 0 C1.32 1.32 2.64 2.64 4 4 C-0.625 7 -0.625 7 -4 7 C-3 5 -3 5 0 4 C0 2.68 0 1.36 0 0 Z " fill="#C8CED1" transform="translate(352,213)"/>
<path d="M0 0 C3 2 3 2 4 4 C1 6 1 6 -2 6 C-1.34 4.02 -0.68 2.04 0 0 Z " fill="#96ABB5" transform="translate(43,105)"/>
<path d="M0 0 C2.5 2.3125 2.5 2.3125 5 5 C5 5.99 5 6.98 5 8 C3.68 7.67 2.36 7.34 1 7 C0.67 4.69 0.34 2.38 0 0 Z " fill="#D8E4E8" transform="translate(408,88)"/>
<path d="M0 0 C2.97 0 5.94 0 9 0 C9 0.99 9 1.98 9 3 C4.545 2.01 4.545 2.01 0 1 C0 0.67 0 0.34 0 0 Z " fill="#BBBFC2" transform="translate(229,234)"/>
<path d="M0 0 C2.64 0 5.28 0 8 0 C5.3144406 2.6855594 2.62378672 3.06049974 -1 4 C-0.67 2.68 -0.34 1.36 0 0 Z " fill="#BFC4C7" transform="translate(277,230)"/>
<path d="M0 0 C0.99 0.33 1.98 0.66 3 1 C3 1.99 3 2.98 3 4 C1.35 4.33 -0.3 4.66 -2 5 C-1.125 1.125 -1.125 1.125 0 0 Z " fill="#E6EBF0" transform="translate(366,195)"/>
<path d="M0 0 C1.65 1.65 3.3 3.3 5 5 C4.01 5.33 3.02 5.66 2 6 C1.34 5.34 0.68 4.68 0 4 C0 2.68 0 1.36 0 0 Z M0 6 C0.66 6 1.32 6 2 6 C1.67 6.99 1.34 7.98 1 9 C0.67 8.01 0.34 7.02 0 6 Z " fill="#D8DDE1" transform="translate(388,184)"/>
<path d="M0 0 C2.97 0 5.94 0 9 0 C9 0.99 9 1.98 9 3 C4.545 2.01 4.545 2.01 0 1 C0 0.67 0 0.34 0 0 Z " fill="#BBBFC2" transform="translate(178,44)"/>
<path d="M0 0 C0.66 0 1.32 0 2 0 C2 0.66 2 1.32 2 2 C2.99 1.67 3.98 1.34 5 1 C4.34 2.32 3.68 3.64 3 5 C1.35 4.01 -0.3 3.02 -2 2 C-1.34 1.34 -0.68 0.68 0 0 Z " fill="#CFD6DA" transform="translate(132,223)"/>
<path d="M0 0 C0.33 0 0.66 0 1 0 C1.66 3.63 2.32 7.26 3 11 C2.34 11 1.68 11 1 11 C1 10.01 1 9.02 1 8 C0.34 8 -0.32 8 -1 8 C-0.67 5.36 -0.34 2.72 0 0 Z " fill="#DFE1E5" transform="translate(360,202)"/>
<path d="M0 0 C0.66 0 1.32 0 2 0 C1.34 2.31 0.68 4.62 0 7 C-0.99 7 -1.98 7 -3 7 C-1.125 2.25 -1.125 2.25 0 0 Z " fill="#98A6B1" transform="translate(430,175)"/>
<path d="M0 0 C2.79872437 2.52788007 4.45773019 4.20411134 5 8 C4.34 8 3.68 8 3 8 C1.61061923 6.03852126 0.2739589 4.03833424 -1 2 C-0.67 1.34 -0.34 0.68 0 0 Z " fill="#C2D4DC" transform="translate(107,141)"/>
<path d="M0 0 C0.66 1.32 1.32 2.64 2 4 C0.68 3.34 -0.64 2.68 -2 2 C-1.34 1.34 -0.68 0.68 0 0 Z M-4 6 C-3.34 6.33 -2.68 6.66 -2 7 C-2 7.66 -2 8.32 -2 9 C-2.99 8.67 -3.98 8.34 -5 8 C-4.67 7.34 -4.34 6.68 -4 6 Z " fill="#98AFBA" transform="translate(81,59)"/>
<path d="M0 0 C0.33 0.66 0.66 1.32 1 2 C2.65 1.67 4.3 1.34 6 1 C6 1.99 6 2.98 6 4 C4.02 4 2.04 4 0 4 C0 2.68 0 1.36 0 0 Z " fill="#CDD6DA" transform="translate(227,47)"/>
</svg>
