<?xml version="1.0" encoding="UTF-8"?>
<svg version="1.1" xmlns="http://www.w3.org/2000/svg" width="491" height="497">
<path d="M0 0 C0.82659119 -0.00067474 1.65318237 -0.00134949 2.50482178 -0.00204468 C61.58237865 0.07374118 124.33406201 13.43435581 173.125 48.25 C174.20523437 49.00796875 175.28546875 49.7659375 176.3984375 50.546875 C183.2357863 55.50351346 189.52123536 60.97965294 195.61621094 66.80859375 C196.62486792 67.77220391 197.63859504 68.7305338 198.65722656 69.68359375 C221.65143092 91.23244812 236.94123932 120.91839308 238.22412109 152.70605469 C238.67732072 186.50555157 223.06725875 216.3913488 200.0703125 240.26953125 C166.96975731 273.96155185 122.32988347 292.3130948 77.125 303.25 C76.26132812 303.45995605 75.39765625 303.66991211 74.5078125 303.88623047 C59.24992669 307.49657286 43.71647602 308.87185522 28.125 310.25 C26.93535645 310.36021484 26.93535645 310.36021484 25.72167969 310.47265625 C-46.10495018 317.03089152 -127.19955249 298.70082817 -183.58984375 252.1953125 C-184.34394531 251.55335938 -185.09804687 250.91140625 -185.875 250.25 C-187.08349609 249.22519531 -187.08349609 249.22519531 -188.31640625 248.1796875 C-212.06592544 227.44067074 -230.83635895 199.30276209 -233.875 167.25 C-235.92301044 133.33613433 -226.09260245 103.73919597 -203.64160156 78.21582031 C-153.22774512 22.11681919 -73.36822586 0.0544261 0 0 Z " fill="#EBEDEF" transform="translate(246.875,101.75)"/>
<path d="M0 0 C1.98 0.99 1.98 0.99 4 2 C4 2.66 4 3.32 4 4 C4.66 4 5.32 4 6 4 C12.13675898 15.59165586 16.19860348 26.52155128 16.1875 39.6875 C16.18814453 40.47753418 16.18878906 41.26756836 16.18945312 42.08154297 C16.13437986 48.21094678 15.47133173 54.03585174 14 60 C14.33773438 59.04738281 14.67546875 58.09476563 15.0234375 57.11328125 C15.47390696 55.8463359 15.92443067 54.57940984 16.375 53.3125 C17.03628906 51.45044922 17.03628906 51.45044922 17.7109375 49.55078125 C19 46 19 46 20.1484375 43.69921875 C21.51786882 39.35849837 21.28731329 35.02112683 21.25 30.5 C21.25773437 29.56285156 21.26546875 28.62570313 21.2734375 27.66015625 C21.2600654 22.94649099 21.08621458 19.31659846 19 15 C19.375 12.6875 19.375 12.6875 20 11 C22.83374881 14.20336822 23.5205537 16.78087253 24 21 C24.66 21 25.32 21 26 21 C28.61320367 27.52262756 29.45366054 33.18775009 29.3125 40.1875 C29.29775635 41.55962646 29.29775635 41.55962646 29.28271484 42.95947266 C29.09497864 52.94458233 27.85780272 62.41795557 25 72 C26.47239996 69.36119267 27.92774572 66.71505962 29.375 64.0625 C29.7875 63.32708984 30.2 62.59167969 30.625 61.83398438 C35.09702054 53.57517226 36.25786626 45.73057274 36.625 36.4375 C36.66367187 35.61958984 36.70234375 34.80167969 36.7421875 33.95898438 C36.83510044 31.97297031 36.91856777 29.98651792 37 28 C41.92472961 32.37293918 42.75266591 38.27343615 43.328125 44.6171875 C43.77034879 60.56883118 39.80612682 74.16385949 32 88 C45.02543434 74.97456566 50.25398866 58.85282314 51 41 C53 42 53 42 54.1015625 45.02734375 C58.83848247 63.30031499 52.13068066 79.97275415 43.046875 95.5546875 C42.36661626 96.70433034 41.68514524 97.85326262 41 99 C54.23079528 88.91065871 60.06553529 74.64528318 64 59 C64.33 59 64.66 59 65 59 C65.57215491 71.4131208 65.8451099 81.75703135 60 93 C59.54238281 93.95003906 59.08476562 94.90007812 58.61328125 95.87890625 C55.19697225 102.60856699 50.87518325 108.26901536 46 114 C45.48050781 114.66515625 44.96101563 115.3303125 44.42578125 116.015625 C28.62047702 135.60305492 -0.32236959 150.38520776 -25.0078125 153.58984375 C-31.48967356 154.23065945 -37.99184588 154.23411851 -44.5 154.25 C-45.16175232 154.25200409 -45.82350464 154.25400818 -46.50531006 154.256073 C-56.96684462 154.2638265 -66.8237923 153.51151929 -77 151 C-77.80179688 150.80277344 -78.60359375 150.60554687 -79.4296875 150.40234375 C-79.94789063 150.26957031 -80.46609375 150.13679687 -81 150 C-80.62746094 150.81984375 -80.25492188 151.6396875 -79.87109375 152.484375 C-79.39800781 153.56203125 -78.92492187 154.6396875 -78.4375 155.75 C-77.96183594 156.81734375 -77.48617187 157.8846875 -76.99609375 158.984375 C-76 162 -76 162 -75.9609375 164.1015625 C-77.62427186 167.14058693 -80.37214566 168.74447085 -83.1875 170.625 C-84.46427518 171.49762565 -85.74029497 172.37135739 -87.015625 173.24609375 C-87.67369141 173.69452637 -88.33175781 174.14295898 -89.00976562 174.60498047 C-90.98381998 175.9886589 -92.89253092 177.4323575 -94.796875 178.91015625 C-95.40764893 179.37534668 -96.01842285 179.84053711 -96.64770508 180.31982422 C-97.81505178 181.2118548 -98.97184067 182.11792598 -100.1159668 183.03955078 C-103.18283336 185.33889689 -104.78828229 186.00451424 -108.6640625 185.921875 C-113.1579974 184.67999135 -115.44119467 182.97777589 -119 180 C-119 179.34 -119 178.68 -119 178 C-119.70125 177.7525 -120.4025 177.505 -121.125 177.25 C-124.39514548 175.82819762 -127.141122 174.12753712 -130 172 C-130 171.34 -130 170.68 -130 170 C-130.7425 169.731875 -131.485 169.46375 -132.25 169.1875 C-134.87667906 168.05325222 -136.75921617 166.74761987 -139 165 C-138.56983068 163.45627181 -138.13045174 161.91510913 -137.6875 160.375 C-137.44386719 159.51648438 -137.20023438 158.65796875 -136.94921875 157.7734375 C-135.89289215 154.68705113 -134.5113646 151.88725674 -133 149 C-134.75183594 149.54140625 -134.75183594 149.54140625 -136.5390625 150.09375 C-152.35678785 154.60323152 -167.64948396 154.73196503 -184 154 C-184.81791016 153.96519531 -185.63582031 153.93039062 -186.47851562 153.89453125 C-196.46524037 153.34757182 -213.62004773 150.37995227 -221 143 C-222.60909435 142.315279 -224.21891115 141.63221348 -225.83203125 140.95703125 C-238.80879679 135.22854916 -250.08025478 127.03231646 -259 116 C-261.15540899 113.61831142 -263.32367115 111.24898056 -265.49609375 108.8828125 C-267 107 -267 107 -267 105 C-267.66 105 -268.32 105 -269 105 C-270.47080327 102.00596164 -271.92427105 99.00380994 -273.375 96 C-273.7875 95.16082031 -274.2 94.32164062 -274.625 93.45703125 C-278.81431599 84.74055121 -280.31784989 77.65732908 -280.125 68 C-280.11597656 67.12988281 -280.10695313 66.25976562 -280.09765625 65.36328125 C-280.07434619 63.2420658 -280.03848579 61.12099438 -280 59 C-279.34 59 -278.68 59 -278 59 C-277.96003906 59.66902344 -277.92007813 60.33804688 -277.87890625 61.02734375 C-276.16806902 76.76282195 -267.06651844 89.26444285 -256 100 C-256.495 99.01 -256.495 99.01 -257 98 C-257 97.01 -257 96.02 -257 95 C-257.66 95 -258.32 95 -259 95 C-267.02365721 80.57544772 -273.017853 64.65794044 -269.31640625 47.90625 C-268.62777991 45.56030764 -267.88226553 43.27918595 -267 41 C-266.67 41 -266.34 41 -266 41 C-265.91363281 41.98097656 -265.82726562 42.96195313 -265.73828125 43.97265625 C-263.95692937 62.01166262 -258.436291 74.1195894 -247 88 C-247.47050781 87.03320312 -247.94101563 86.06640625 -248.42578125 85.0703125 C-249.0550659 83.75538936 -249.68395046 82.44027469 -250.3125 81.125 C-250.7755957 80.17753906 -250.7755957 80.17753906 -251.24804688 79.2109375 C-255.88908003 69.44034139 -257.50627667 60.76044754 -257.4375 49.9375 C-257.4674707 48.25817383 -257.4674707 48.25817383 -257.49804688 46.54492188 C-257.49389761 39.47042672 -256.50800796 34.17811911 -253 28 C-252.67 28 -252.34 28 -252 28 C-251.97421875 29.14855469 -251.9484375 30.29710937 -251.921875 31.48046875 C-251.42599394 46.87774208 -247.73056388 58.73209402 -240 72 C-240.28740942 70.62410383 -240.58017742 69.24932678 -240.875 67.875 C-241.11863281 66.72644531 -241.11863281 66.72644531 -241.3671875 65.5546875 C-241.96874275 62.93131752 -241.96874275 62.93131752 -243.01855469 60.20825195 C-244.62393813 54.96040524 -244.3688374 49.76332058 -244.375 44.3125 C-244.39949219 43.19166016 -244.42398438 42.07082031 -244.44921875 40.91601562 C-244.48797866 29.78546174 -241.3445104 21.07473004 -235 12 C-233.67560899 15.97317304 -234.85764591 18.00589965 -236 22 C-237.03534619 36.08375327 -234.3039305 47.08432191 -229 60 C-229.16113281 59.06542969 -229.32226562 58.13085938 -229.48828125 57.16796875 C-232.00951209 39.40333159 -231.26428915 19.84968936 -220.49609375 4.9140625 C-219.38367538 3.56394789 -218.20115639 2.27181265 -217 1 C-215.80110757 4.59667729 -216.5732755 5.70530462 -218.2109375 8.98828125 C-222.8217721 20.74362688 -220.86174794 36.21102987 -216.48046875 47.63671875 C-211.60756368 58.70682763 -205.64079694 68.48789102 -196 76 C-195.52304688 76.49757813 -195.04609375 76.99515625 -194.5546875 77.5078125 C-182.34330838 89.22828191 -161.35061977 96.17850682 -144.63500977 96.06811523 C-139.57035872 96.05439313 -136.17772548 96.05846231 -132.13671875 99.2890625 C-129.83162692 102.08837205 -127.88381702 104.90484984 -126 108 C-125.14866731 109.18953335 -124.29524112 110.37757928 -123.4375 111.5625 C-122 114 -122 114 -122 116 C-121.34 116 -120.68 116 -120 116 C-119.896875 115.071875 -119.79375 114.14375 -119.6875 113.1875 C-118.9937139 109.97085535 -118.65754784 108.83984081 -116 107 C-115.01 107 -114.02 107 -113 107 C-113.44909061 105.51800098 -113.90956564 104.03944764 -114.375 102.5625 C-114.63023437 101.73878906 -114.88546875 100.91507812 -115.1484375 100.06640625 C-115.80882227 97.82201984 -115.80882227 97.82201984 -118 97 C-118 96.34 -118 95.68 -118 95 C-115.16560863 94.89098495 -112.33549797 94.81222096 -109.5 94.75 C-108.70851562 94.71648437 -107.91703125 94.68296875 -107.1015625 94.6484375 C-101.50690244 94.55672176 -96.43609898 95.31660685 -92 99 C-91.28320312 101.13964844 -91.28320312 101.13964844 -91 103 C-93.64 103 -96.28 103 -99 103 C-99.33 104.32 -99.66 105.64 -100 107 C-99.0409375 107.556875 -99.0409375 107.556875 -98.0625 108.125 C-95.36141928 110.58052793 -95.31592995 112.44578805 -95 116 C-94.34 116 -93.68 116 -93 116 C-92.73960937 115.2678125 -92.47921875 114.535625 -92.2109375 113.78125 C-90.9735768 110.93931188 -89.56488612 108.90579764 -87.625 106.5 C-87.03976562 105.7678125 -86.45453125 105.035625 -85.8515625 104.28125 C-85.24054688 103.5284375 -84.62953125 102.775625 -84 102 C-83.41605469 101.08992188 -82.83210937 100.17984375 -82.23046875 99.2421875 C-80 97 -80 97 -76.69921875 96.5390625 C-75.36176933 96.55516614 -74.0244414 96.58477594 -72.6875 96.625 C-50.31888082 96.25325649 -27.97947517 85.79713419 -12.203125 70.2265625 C-8.54561954 66.21084774 -5.92364903 61.67948521 -3.296875 56.94140625 C-2.86890625 56.30074219 -2.4409375 55.66007812 -2 55 C-1.34 55 -0.68 55 0 55 C0.0825 54.21625 0.165 53.4325 0.25 52.625 C0.8971715 49.49700443 1.71605991 47.31718919 3.01953125 44.453125 C5.26755458 38.9124503 5.58007023 34.05207131 5.4375 28.125 C5.4257373 27.16408447 5.41397461 26.20316895 5.40185547 25.21313477 C5.18327914 16.16973019 3.42329872 8.34987209 0 0 Z " fill="#9FB6C1" transform="translate(356,159)"/>
<path d="M0 0 C0.82659119 -0.00067474 1.65318237 -0.00134949 2.50482178 -0.00204468 C61.58237865 0.07374118 124.33406201 13.43435581 173.125 48.25 C174.20523437 49.00796875 175.28546875 49.7659375 176.3984375 50.546875 C183.2357863 55.50351346 189.52123536 60.97965294 195.61621094 66.80859375 C196.62486792 67.77220391 197.63859504 68.7305338 198.65722656 69.68359375 C221.65143092 91.23244812 236.94123932 120.91839308 238.22412109 152.70605469 C238.67732072 186.50555157 223.06725875 216.3913488 200.0703125 240.26953125 C166.96975731 273.96155185 122.32988347 292.3130948 77.125 303.25 C76.26132812 303.45995605 75.39765625 303.66991211 74.5078125 303.88623047 C59.24992669 307.49657286 43.71647602 308.87185522 28.125 310.25 C26.93535645 310.36021484 26.93535645 310.36021484 25.72167969 310.47265625 C-46.10495018 317.03089152 -127.19955249 298.70082817 -183.58984375 252.1953125 C-184.34394531 251.55335938 -185.09804687 250.91140625 -185.875 250.25 C-187.08349609 249.22519531 -187.08349609 249.22519531 -188.31640625 248.1796875 C-212.06592544 227.44067074 -230.83635895 199.30276209 -233.875 167.25 C-235.92301044 133.33613433 -226.09260245 103.73919597 -203.64160156 78.21582031 C-153.22774512 22.11681919 -73.36822586 0.0544261 0 0 Z M-62.875 14.25 C-64.06996094 14.47558594 -65.26492187 14.70117188 -66.49609375 14.93359375 C-73.82378859 16.32972075 -81.07025692 17.96674081 -88.3125 19.75 C-89.14104492 19.95157715 -89.96958984 20.1531543 -90.82324219 20.36083984 C-96.00799586 21.66173028 -100.90322147 23.28429156 -105.875 25.25 C-107.2053125 25.7759375 -107.2053125 25.7759375 -108.5625 26.3125 C-109.7071875 26.7765625 -109.7071875 26.7765625 -110.875 27.25 C-113.79653021 28.42925195 -116.72146823 29.56347284 -119.6875 30.625 C-125.56900079 32.81429104 -131.21184721 35.55638904 -136.875 38.25 C-138.41800781 38.98089844 -138.41800781 38.98089844 -139.9921875 39.7265625 C-158.84950099 48.88582905 -175.91325423 61.63670828 -190.875 76.25 C-191.52339844 76.83652344 -192.17179687 77.42304688 -192.83984375 78.02734375 C-196.96903286 81.84562921 -200.2748079 86.25414918 -203.625 90.75 C-204.09760254 91.37946533 -204.57020508 92.00893066 -205.05712891 92.6574707 C-207.26260504 95.68556182 -209.10806892 98.55074768 -210.515625 102.03125 C-211.77428784 105.01153213 -212.6187495 106.12285375 -214.875 108.25 C-215.95139351 110.43464838 -215.95139351 110.43464838 -216.8125 112.875 C-218.06415399 116.18567259 -219.39526965 119.37797092 -220.9375 122.5625 C-228.52909999 139.90615531 -227.34672515 160.94843657 -223.875 179.25 C-223.24938246 180.60307979 -222.58843699 181.94109592 -221.875 183.25 C-221.30475335 185.49930624 -220.87446458 187.75279184 -220.4375 190.03125 C-219.85768356 192.31830375 -219.00177692 194.18424232 -217.875 196.25 C-217.215 196.25 -216.555 196.25 -215.875 196.25 C-215.75125 197.19875 -215.6275 198.1475 -215.5 199.125 C-215.15812823 202.33667191 -215.15812823 202.33667191 -212.875 204.25 C-212.25 206.375 -212.25 206.375 -211.875 208.25 C-211.215 208.25 -210.555 208.25 -209.875 208.25 C-209.66875 208.91 -209.4625 209.57 -209.25 210.25 C-207.68553623 213.66337551 -205.6802263 216.31127629 -203.38671875 219.265625 C-202.11680187 220.932596 -200.95092984 222.67810843 -199.8125 224.4375 C-197.74860846 227.4334716 -195.46558173 229.69637379 -192.875 232.25 C-191.97265625 233.19875 -191.0703125 234.1475 -190.140625 235.125 C-176.48910876 249.37362763 -156.91241864 267.24251627 -136.875 271.25 C-136.875 271.91 -136.875 272.57 -136.875 273.25 C-135.91078125 273.57613281 -134.9465625 273.90226562 -133.953125 274.23828125 C-132.67695323 274.6793112 -131.40091871 275.12073846 -130.125 275.5625 C-129.49078125 275.77583984 -128.8565625 275.98917969 -128.203125 276.20898438 C-125.54024168 277.1382197 -123.19358891 278.01009871 -120.9296875 279.71484375 C-117.84084788 282.02266498 -114.34162155 283.19075003 -110.75 284.5 C-109.93611816 284.79793457 -109.12223633 285.09586914 -108.28369141 285.40283203 C-101.03170616 287.97829083 -93.6742384 290.10682186 -86.25 292.125 C-85.16058105 292.4230957 -84.07116211 292.72119141 -82.94873047 293.02832031 C-77.54427134 294.45610146 -72.32960994 295.55287207 -66.76171875 296.04785156 C-64.30270973 296.31131682 -62.04827668 296.96312814 -59.6875 297.6875 C-52.66767249 299.55641512 -45.57112835 300.0465485 -38.3527832 300.60327148 C-37.43070068 300.67489502 -36.50861816 300.74651855 -35.55859375 300.8203125 C-34.31420532 300.90949951 -34.31420532 300.90949951 -33.04467773 301.00048828 C-30.875 301.25 -30.875 301.25 -27.875 302.25 C-26.22639024 302.34241925 -24.57429323 302.37791285 -22.9230957 302.37939453 C-21.91386551 302.38254669 -20.90463531 302.38569885 -19.86482239 302.38894653 C-18.77118881 302.3869223 -17.67755524 302.38489807 -16.55078125 302.3828125 C-15.41658249 302.38376923 -14.28238373 302.38472595 -13.11381531 302.38571167 C-10.70372462 302.38639325 -8.2936321 302.38454052 -5.88354492 302.38037109 C-2.24718928 302.37508674 1.38903917 302.38028317 5.02539062 302.38671875 C24.50922115 303.77336769 24.50922115 303.77336769 43.125 300.25 C45.30903107 299.97131642 47.49763402 299.7283489 49.6875 299.5 C65.74446297 297.64459563 81.81563121 294.45812546 97.125 289.25 C99.39428571 288.55740875 101.66515281 287.8699797 103.9375 287.1875 C108.74699244 285.70280567 113.44650939 284.10056735 118.125 282.25 C119.2696875 281.81816406 120.414375 281.38632812 121.59375 280.94140625 C128.37217442 278.350668 134.59179844 275.59897781 140.734375 271.68359375 C143.29606097 270.14741932 145.88901147 268.94603968 148.625 267.75 C156.12308985 264.44701708 162.7637428 260.40097235 169.125 255.25 C171.01768229 253.84989698 172.91369157 252.45428348 174.8125 251.0625 C183.41780609 244.62171876 192.09845892 237.43454646 199.125 229.25 C199.125 228.59 199.125 227.93 199.125 227.25 C199.785 227.25 200.445 227.25 201.125 227.25 C212.1749637 214.46972885 212.1749637 214.46972885 218.125 199.25 C218.785 199.25 219.445 199.25 220.125 199.25 C231.39508762 174.52145824 232.44681343 147.03095789 223.24609375 121.39453125 C222.39525516 119.00803278 221.67004974 116.71803422 221.125 114.25 C220.465 114.25 219.805 114.25 219.125 114.25 C218.98191406 113.66347656 218.83882813 113.07695312 218.69140625 112.47265625 C216.52686839 103.97871115 212.43548829 98.13795805 207.125 91.25 C206.50882812 90.41597656 205.89265625 89.58195312 205.2578125 88.72265625 C202.74576777 85.36768095 200.34600249 82.251802 197.0625 79.625 C194.63107987 77.65917096 192.99249072 75.96021807 191.0625 73.5625 C188.65714949 70.63177029 186.74622008 69.49156117 183.125 68.25 C182.795 67.26 182.465 66.27 182.125 65.25 C179.83016245 63.19493217 179.83016245 63.19493217 176.9375 61.125 C176.14859375 60.54274658 176.14859375 60.54274658 175.34375 59.94873047 C170.09884061 56.13020305 164.64795313 52.64497439 159.15625 49.1953125 C156.125 47.25 156.125 47.25 154.15625 45.6796875 C151.34009161 43.69754525 148.30183323 42.56722354 145.125 41.25 C142.80371494 40.12207006 140.49116519 38.97599344 138.1875 37.8125 C137.26529663 37.35073364 137.26529663 37.35073364 136.32446289 36.87963867 C133.8330501 35.6304761 131.35050562 34.37185216 128.8984375 33.046875 C124.0078987 30.42471377 118.97601162 28.93237609 113.65625 27.3828125 C110.00763089 26.2123484 106.57820231 24.77092339 103.0625 23.25 C94.76557983 19.74913907 86.19507654 18.26034019 77.36962891 16.67480469 C74.44655698 16.12160204 71.57205074 15.41331432 68.6875 14.6875 C62.99974082 13.34098004 57.28133587 12.45380533 51.5 11.625 C50.64092041 11.50181396 49.78184082 11.37862793 48.89672852 11.25170898 C38.343143 9.79579915 27.93996292 9.09254932 17.28515625 9.08203125 C15.48189125 9.07703865 15.48189125 9.07703865 13.64219666 9.07194519 C11.10839212 9.06690866 8.57458102 9.06453585 6.04077148 9.06469727 C2.22953904 9.06252397 -1.58139722 9.04436889 -5.39257812 9.02539062 C-24.99730432 8.97993034 -43.67054342 10.29789363 -62.875 14.25 Z " fill="#A0B7C2" transform="translate(246.875,101.75)"/>
<path d="M0 0 C0.99 0.66 1.98 1.32 3 2 C3.33 1.34 3.66 0.68 4 0 C14.15317287 -0.63019694 14.15317287 -0.63019694 17.6875 2 C18.120625 2.66 18.55375 3.32 19 4 C19.5259375 3.2575 19.5259375 3.2575 20.0625 2.5 C22.94374289 0.26936034 25.47009026 0.80019379 29 1 C29 1.66 29 2.32 29 3 C27.02 3 25.04 3 23 3 C23 4.32 23 5.64 23 7 C25.31 7.33 27.62 7.66 30 8 C31.125 13.625 31.125 13.625 30 17 C27.625 18.75 27.625 18.75 25 20 C24.01 19.67 23.02 19.34 22 19 C23.32 18.01 24.64 17.02 26 16 C25.72382467 14.05925139 25.72382467 14.05925139 25 12 C24.01 11.34 23.02 10.68 22 10 C21.67 10.66 21.34 11.32 21 12 C18.4375 12.625 18.4375 12.625 16 13 C15.67 14.32 15.34 15.64 15 17 C15.66 17 16.32 17 17 17 C17 17.99 17 18.98 17 20 C13.41694008 20.11627503 9.83436583 20.1872736 6.25 20.25 C5.23421875 20.28351563 4.2184375 20.31703125 3.171875 20.3515625 C-4.34924229 20.45052457 -4.34924229 20.45052457 -7.640625 18.171875 C-10.27842646 13.95745657 -10.40028725 9.84249939 -10 5 C-8.09841349 -0.2972767 -5.32921531 -0.32627849 0 0 Z " fill="#E6EBEE" transform="translate(292,139)"/>
<path d="M0 0 C3.69824535 2.05458075 4.7810498 3.3431494 6.125 7.375 C5.99453446 11.15850077 5.35925942 13.11932493 2.74609375 15.91015625 C-0.57603018 17.98369669 -4.24011525 17.44233938 -8 17 C-8 17.66 -8 18.32 -8 19 C-9.32 18.67 -10.64 18.34 -12 18 C-12.2475 18.61875 -12.495 19.2375 -12.75 19.875 C-14.2908453 22.49443701 -15.08980346 23.13480643 -18 24 C-22.20842764 23.92484951 -24.27350128 23.65198603 -27.4375 20.8125 C-29.31263988 17.43724821 -29.71235686 15.7992366 -29 12 C-27 9.125 -27 9.125 -24 7 C-21.19242993 6.59002212 -18.86006586 6.75762154 -16 7 C-16 7.66 -16 8.32 -16 9 C-15.34 9 -14.68 9 -14 9 C-12.4860828 7.2432326 -12.4860828 7.2432326 -11 5.0625 C-7.71014442 0.39912972 -5.84877164 -0.57340898 0 0 Z " fill="#D3D7DA" transform="translate(357,341)"/>
<path d="M0 0 C1.3303125 0.9590625 1.3303125 0.9590625 2.6875 1.9375 C6.19234791 4.11976379 7.56777144 4.26614435 11.5625 4.4375 C15.54175857 4.67603866 16.78784749 4.85440514 20.1875 7.1875 C22.35343315 10.54843075 22.65422668 12.07463991 22 16 C19.73529412 20.63235294 19.73529412 20.63235294 17 22 C12.40069799 22.54109435 9.76982171 22.16746318 6.0625 19.5 C5.051875 18.675 4.04125 17.85 3 17 C3.33 15.35 3.66 13.7 4 12 C3.34 12 2.68 12 2 12 C2 13.32 2 14.64 2 16 C-1.13871188 17.56935594 -3.53855822 17.35201103 -7 17 C-10.68351539 14.41370196 -11.81727257 12.93024874 -12.6875 8.5 C-12 5 -12 5 -9.375 2.0625 C-5.6684676 -0.20260313 -4.23230703 -0.79355757 0 0 Z " fill="#DBDFE2" transform="translate(174,350)"/>
<path d="M0 0 C2.02734375 0.73046875 2.02734375 0.73046875 4.08984375 3.29296875 C4.55390625 4.49953125 4.55390625 4.49953125 5.02734375 5.73046875 C7.00734375 5.40046875 8.98734375 5.07046875 11.02734375 4.73046875 C11.02734375 3.74046875 11.02734375 2.75046875 11.02734375 1.73046875 C18.90234375 2.60546875 18.90234375 2.60546875 20.02734375 3.73046875 C20.06815158 5.73005239 20.06988731 7.73092129 20.02734375 9.73046875 C19.03734375 10.06046875 18.04734375 10.39046875 17.02734375 10.73046875 C19.50234375 14.69046875 19.50234375 14.69046875 22.02734375 18.73046875 C20.04734375 18.40046875 18.06734375 18.07046875 16.02734375 17.73046875 C15.69734375 18.39046875 15.36734375 19.05046875 15.02734375 19.73046875 C13.04734375 19.40046875 11.06734375 19.07046875 9.02734375 18.73046875 C9.02734375 17.41046875 9.02734375 16.09046875 9.02734375 14.73046875 C8.03734375 14.40046875 7.04734375 14.07046875 6.02734375 13.73046875 C5.69734375 13.07046875 5.36734375 12.41046875 5.02734375 11.73046875 C3.67115876 12.8558098 3.67115876 12.8558098 3.96484375 15.79296875 C3.98546875 16.76234375 4.00609375 17.73171875 4.02734375 18.73046875 C6.00734375 19.39046875 7.98734375 20.05046875 10.02734375 20.73046875 C10.02734375 21.06046875 10.02734375 21.39046875 10.02734375 21.73046875 C4.52734375 22.09713542 4.52734375 22.09713542 2.15234375 20.35546875 C1.02734375 18.73046875 1.02734375 18.73046875 1.02734375 16.73046875 C-0.21015625 16.77171875 -1.44765625 16.81296875 -2.72265625 16.85546875 C-5.96311651 16.84973342 -8.30615476 16.75700988 -10.97265625 14.73046875 C-12.18526502 11.09264243 -12.36810177 8.55310876 -11.97265625 4.73046875 C-8.6607262 -0.397681 -5.6882139 -0.9559228 0 0 Z " fill="#E9EDEF" transform="translate(212.97265625,359.26953125)"/>
<path d="M0 0 C3.63 0 7.26 0 11 0 C11.66 1.32 12.32 2.64 13 4 C13.70125 3.34 14.4025 2.68 15.125 2 C18.43460229 -0.30233203 20.06225823 -0.36630156 24 0 C23.67 1.32 23.34 2.64 23 4 C23 3.34 23 2.68 23 2 C21.35 2.33 19.7 2.66 18 3 C18.05563651 4.83468832 18.05563651 4.83468832 19 7 C20.010625 7.804375 21.02125 8.60875 22.0625 9.4375 C25 12 25 12 25.5 14.6875 C25 17 25 17 23 19 C16.67741935 19.33870968 16.67741935 19.33870968 14 18 C14 17.34 14 16.68 14 16 C13.62230469 16.49113281 13.24460938 16.98226562 12.85546875 17.48828125 C9.29327105 20.39053496 4.37517698 19.15441801 0 19 C0 12.73 0 6.46 0 0 Z " fill="#E6EBEE" transform="translate(180,139)"/>
<path d="M0 0 C2.49361571 1.20381448 4.68143083 2.45428722 7 4 C6.835 4.94875 6.67 5.8975 6.5 6.875 C5.9473365 9.80168901 5.9473365 9.80168901 6 12 C8.31 12 10.62 12 13 12 C14.125 17.75 14.125 17.75 13 20 C14.32 19.67 15.64 19.34 17 19 C17 18.34 17 17.68 17 17 C22.35152885 17.32433508 25.28280043 20.49704824 29 24 C28.505 25.485 28.505 25.485 28 27 C27.34 26.01 26.68 25.02 26 24 C22.14896699 24.53675903 20.68202413 26.11600923 18.25 29.0625 C17.63640625 29.79597656 17.0228125 30.52945312 16.390625 31.28515625 C15.93171875 31.85105469 15.4728125 32.41695313 15 33 C13.68 32.67 12.36 32.34 11 32 C11 31.34 11 30.68 11 30 C10.01 30 9.02 30 8 30 C6.8828125 28.328125 6.8828125 28.328125 6 26 C6.6796875 23.421875 6.6796875 23.421875 7.875 20.75 C8.45894531 19.41195313 8.45894531 19.41195313 9.0546875 18.046875 C9.36664063 17.37140625 9.67859375 16.6959375 10 16 C6.87530094 16.97514682 6.87530094 16.97514682 3.5625 18.625 C-0.92013594 20.35514019 -0.92013594 20.35514019 -4 19 C-2.79618552 16.50638429 -1.54571278 14.31856917 0 12 C-2.05233685 9.7522025 -3.00667261 8.9977758 -6 8 C-6.66 9.65 -7.32 11.3 -8 13 C-8.66 13 -9.32 13 -10 13 C-9.48223379 8.89552608 -7.35372556 7.04300477 -4.4375 4.25 C-3.61121094 3.45078125 -2.78492188 2.6515625 -1.93359375 1.828125 C-1.29550781 1.22484375 -0.65742187 0.6215625 0 0 Z " fill="#E0E6E8" transform="translate(64,285)"/>
<path d="M0 0 C9.57 0.33 19.14 0.66 29 1 C27.53797054 4.65507365 26.35062663 7.22566359 24.2421875 10.40625 C23.43237427 11.63746582 23.43237427 11.63746582 22.60620117 12.89355469 C22.03490479 13.75368164 21.4636084 14.61380859 20.875 15.5 C19.7005851 17.28564484 18.52740904 19.07210507 17.35546875 20.859375 C16.7836084 21.73142578 16.21174805 22.60347656 15.62255859 23.50195312 C12.30857863 28.60406613 9.15728606 33.79976414 6 39 C12.93 39 19.86 39 27 39 C27.99 37.02 28.98 35.04 30 33 C30.66 33 31.32 33 32 33 C31.34 35.97 30.68 38.94 30 42 C19.77 42 9.54 42 -1 42 C1.10849293 37.78301414 3.4760818 33.82847565 5.9375 29.8125 C6.41678955 29.02891113 6.8960791 28.24532227 7.38989258 27.43798828 C12.45315816 19.19937068 17.71553652 11.09826872 23 3 C16.07 3 9.14 3 2 3 C1.34 4.32 0.68 5.64 0 7 C0 4.69 0 2.38 0 0 Z " fill="#A9BBC0" transform="translate(251,186)"/>
<path d="M0 0 C0.53625 0.680625 1.0725 1.36125 1.625 2.0625 C2.9236384 3.66871066 4.24084492 5.26268766 5.63671875 6.78515625 C6.18972656 7.39230469 6.74273437 7.99945313 7.3125 8.625 C8.11107422 9.47964844 8.11107422 9.47964844 8.92578125 10.3515625 C9.28027344 10.89554687 9.63476562 11.43953125 10 12 C9.67 12.99 9.34 13.98 9 15 C6.4510713 13.72553565 6.19358356 12.53636507 5 10 C4.34 9.01 3.68 8.02 3 7 C1.68 7.33 0.36 7.66 -1 8 C0.37588035 11.70429324 1.91890881 14.53151468 4 18 C-0.95 17.67 -5.9 17.34 -11 17 C-7.86824314 22.77260299 -7.86824314 22.77260299 -5 24 C-6.24976756 27.65316671 -6.67098753 28.78065836 -10 31 C-10.556875 30.2265625 -10.556875 30.2265625 -11.125 29.4375 C-13.03173152 27.63680017 -13.03173152 27.63680017 -16.1875 28.3125 C-17.5796875 28.6528125 -17.5796875 28.6528125 -19 29 C-18.67 30.98 -18.34 32.96 -18 35 C-19.485 35.495 -19.485 35.495 -21 36 C-23.29612756 24.47835991 -23.29612756 24.47835991 -23 19 C-22.01 19.33 -21.02 19.66 -20 20 C-19.67 19.34 -19.34 18.68 -19 18 C-18.34 17.67 -17.68 17.34 -17 17 C-16.34786708 14.97536745 -16.34786708 14.97536745 -16 13 C-8 14 -8 14 0 15 C-3.47736026 11.21965377 -3.47736026 11.21965377 -8 9 C-8 6 -8 6 -6.25 3.9375 C-4.21005384 2.18087969 -2.45849217 1.0536395 0 0 Z " fill="#E2E8EB" transform="translate(418,300)"/>
<path d="M0 0 C2.24940295 -0.08119503 4.49964871 -0.13927819 6.75 -0.1875 C8.00296875 -0.22230469 9.2559375 -0.25710938 10.546875 -0.29296875 C15.99019245 0.16885117 18.33571182 3.20484438 22 7 C18.09971775 9.60018816 14.52565431 9.15085514 10 9 C10 10.98 10 12.96 10 15 C10.66 15 11.32 15 12 15 C12 15.66 12 16.32 12 17 C8.27034861 19.03435531 6.33094958 20 2 20 C1.67 19.34 1.34 18.68 1 18 C-0.258125 18.103125 -1.51625 18.20625 -2.8125 18.3125 C-6.71268574 18.27804606 -6.71268574 18.27804606 -8.9375 16.125 C-10.18373917 12.45959066 -10.54656237 9.0581643 -10.7890625 5.20703125 C-10.87020518 2.95951661 -10.87020518 2.95951661 -12 1 C-10.68 1 -9.36 1 -8 1 C-7.93941406 1.92683594 -7.87882812 2.85367187 -7.81640625 3.80859375 C-7.73261719 5.00613281 -7.64882813 6.20367187 -7.5625 7.4375 C-7.48128906 8.63246094 -7.40007812 9.82742188 -7.31640625 11.05859375 C-7.32343886 13.88570244 -7.32343886 13.88570244 -6 15 C-3.5 15.16666667 -3.5 15.16666667 -1 15 C0.36532549 13.86298403 0.36532549 13.86298403 0.09765625 10.83984375 C0.08605469 9.55207031 0.07445312 8.26429688 0.0625 6.9375 C0.05347656 5.64714844 0.04445313 4.35679687 0.03515625 3.02734375 C0.02355469 2.02832031 0.01195312 1.02929688 0 0 Z " fill="#E2E8EB" transform="translate(267,361)"/>
<path d="M0 0 C7.92 0 15.84 0 24 0 C24 1.65 24 3.3 24 5 C23.34 4.34 22.68 3.68 22 3 C17.34332856 2.40814488 12.69067934 2.25585524 8 2 C8 7.94 8 13.88 8 20 C11.96 20 15.92 20 20 20 C20 18.68 20 17.36 20 16 C20.66 16 21.32 16 22 16 C22 18.97 22 21.94 22 25 C21.34 25 20.68 25 20 25 C19.67 24.34 19.34 23.68 19 23 C16.41394668 22.5316735 16.41394668 22.5316735 13.4375 22.375 C12.42558594 22.30023438 11.41367188 22.22546875 10.37109375 22.1484375 C9.19740234 22.07496094 9.19740234 22.07496094 8 22 C8.1404983 24.7920301 8.28715383 27.58349796 8.4375 30.375 C8.47681641 31.1690625 8.51613281 31.963125 8.55664062 32.78125 C8.68893404 37.02601221 8.68893404 37.02601221 10 41 C7.36 41 4.72 41 2 41 C2.33 40.34 2.66 39.68 3 39 C3.15691907 36.23068632 3.25843134 33.48265893 3.31640625 30.7109375 C3.33718735 29.89251373 3.35796844 29.07408997 3.37937927 28.23086548 C3.44484812 25.61233034 3.50374726 22.99369361 3.5625 20.375 C3.60568776 18.60155193 3.64930214 16.82811419 3.69335938 15.0546875 C3.80052676 10.70322954 3.90180169 6.35166923 4 2 C2.68 1.67 1.36 1.34 0 1 C0 0.67 0 0.34 0 0 Z " fill="#AABAC1" transform="translate(219,187)"/>
<path d="M0 0 C3.75 0.4375 3.75 0.4375 6.6875 3.125 C9.59183673 7.78954082 9.59183673 7.78954082 8.75 11.4375 C6.94337585 14.08721542 5.63758942 15.99370529 2.75 17.4375 C-4.35601719 18.0105659 -4.35601719 18.0105659 -7.6875 15.875 C-9.74240979 12.66934073 -10.11470518 10.22575503 -10.25 6.4375 C-9.5625 4.0625 -9.5625 4.0625 -8.25 2.4375 C-6.1875 1.75 -6.1875 1.75 -4.25 1.4375 C-3.25 0.4375 -3.25 0.4375 0 0 Z " fill="#DFE3E6" transform="translate(301.25,356.5625)"/>
<path d="M0 0 C2.475 0.495 2.475 0.495 5 1 C5.33 3.31 5.66 5.62 6 8 C5.34 8 4.68 8 4 8 C4 8.66 4 9.32 4 10 C3.34 10 2.68 10 2 10 C2.99 11.98 3.98 13.96 5 16 C-0.625 20 -0.625 20 -4 20 C-5.32 17.69 -6.64 15.38 -8 13 C-8.33 16.3 -8.66 19.6 -9 23 C-11.64 21.35 -14.28 19.7 -17 18 C-16.34 20.64 -15.68 23.28 -15 26 C-15.66 26 -16.32 26 -17 26 C-17.83764268 24.04350603 -18.66999059 22.08474444 -19.5 20.125 C-20.19609375 18.48917969 -20.19609375 18.48917969 -20.90625 16.8203125 C-22 14 -22 14 -22 12 C-17.94053342 13.7861653 -14.56467906 16.39504223 -11 19 C-11 14.38 -11 9.76 -11 5 C-7 3 -7 3 -4.375 3.1875 C-2 4 -2 4 0 7 C0.66 7 1.32 7 2 7 C2.16687448 4.58354218 2.16687448 4.58354218 2 2 C1.34 1.34 0.68 0.68 0 0 Z " fill="#E1E6E9" transform="translate(385,325)"/>
<path d="M0 0 C3.9375 0.625 3.9375 0.625 6.4375 2.0625 C8.67090143 5.87789411 8.70476228 9.31409336 7.9375 13.625 C6.375 16.1875 6.375 16.1875 3.9375 17.625 C-0.14375936 18.21863772 -2.30332335 18.03759601 -5.9375 16.0625 C-8.77367869 12.80923621 -9.21092915 10.92944539 -9.0625 6.625 C-6.70523219 2.44275066 -4.83548374 0.26260118 0 0 Z " fill="#C6CBCF" transform="translate(246.0625,361.375)"/>
<path d="M0 0 C7.38461538 -0.49230769 7.38461538 -0.49230769 10.5 2 C10.995 2.66 11.49 3.32 12 4 C12.350625 3.505 12.70125 3.01 13.0625 2.5 C15.94374289 0.26936034 18.47009026 0.80019379 22 1 C22 1.66 22 2.32 22 3 C20.02 3 18.04 3 16 3 C16 4.32 16 5.64 16 7 C18.31 7.33 20.62 7.66 23 8 C24.125 13.625 24.125 13.625 23 17 C20.625 18.75 20.625 18.75 18 20 C17.01 19.67 16.02 19.34 15 19 C16.32 18.01 17.64 17.02 19 16 C18.72382467 14.05925139 18.72382467 14.05925139 18 12 C17.01 11.34 16.02 10.68 15 10 C14.67 10.66 14.34 11.32 14 12 C11.4375 12.625 11.4375 12.625 9 13 C8.67 14.32 8.34 15.64 8 17 C8.66 17 9.32 17 10 17 C10 17.66 10 18.32 10 19 C6.37 19 2.74 19 -1 19 C0.52994792 16.98177083 2.05989583 14.96354167 3.58984375 12.9453125 C6.28873384 9.22218988 6.0844604 6.56086138 6 2 C3.69 2.33 1.38 2.66 -1 3 C-0.67 2.01 -0.34 1.02 0 0 Z " fill="#DEE4E8" transform="translate(299,139)"/>
<path d="M0 0 C0.99 0 1.98 0 3 0 C3 0.66 3 1.32 3 2 C2.01 2.33 1.02 2.66 0 3 C0 3.66 0 4.32 0 5 C0.61488281 5.03738281 1.22976563 5.07476562 1.86328125 5.11328125 C2.67152344 5.17902344 3.47976563 5.24476563 4.3125 5.3125 C5.11300781 5.37050781 5.91351563 5.42851562 6.73828125 5.48828125 C9.39908471 6.09029378 10.37575489 6.83433986 12 9 C12 11.4375 12 11.4375 11 14 C9.37373596 15.38232443 7.7074998 16.71937515 6 18 C5.67 18.99 5.34 19.98 5 21 C2.625 22.75 2.625 22.75 0 24 C-3.39815137 22.86728288 -4.28644916 21.8090686 -6.5625 19.125 C-7.16191406 18.42632812 -7.76132812 17.72765625 -8.37890625 17.0078125 C-10 15 -10 15 -12 12 C-10.37660195 10.29115995 -8.70680947 8.62553283 -7 7 C-6.34 7 -5.68 7 -5 7 C-5 7.66 -5 8.32 -5 9 C-5.99 9.66 -6.98 10.32 -8 11 C-7.67 12.32 -7.34 13.64 -7 15 C-6.01 15 -5.02 15 -4 15 C-3.67 14.34 -3.34 13.68 -3 13 C-2.34 13 -1.68 13 -1 13 C-1.66 14.98 -2.32 16.96 -3 19 C-2.01 19.66 -1.02 20.32 0 21 C0.33 20.67 0.66 20.34 1 20 C0.95875 19.071875 0.9175 18.14375 0.875 17.1875 C1.01324117 13.66235023 1.65727752 12.53794936 4 10 C3.195625 9.690625 2.39125 9.38125 1.5625 9.0625 C-1 8 -1 8 -2 7 C-2.1875 4.5625 -2.1875 4.5625 -2 2 C-1.34 1.34 -0.68 0.68 0 0 Z " fill="#DBE0E3" transform="translate(434,285)"/>
<path d="M0 0 C0.66 0.66 1.32 1.32 2 2 C1.67 2.66 1.34 3.32 1 4 C2.32 3.67 3.64 3.34 5 3 C5 2.34 5 1.68 5 1 C10.35152885 1.32433508 13.28280043 4.49704824 17 8 C16.67 8.99 16.34 9.98 16 11 C15.34 10.01 14.68 9.02 14 8 C10.14896699 8.53675903 8.68202413 10.11600923 6.25 13.0625 C5.63640625 13.79597656 5.0228125 14.52945312 4.390625 15.28515625 C3.70226562 16.13400391 3.70226562 16.13400391 3 17 C1.68 16.67 0.36 16.34 -1 16 C-1 15.34 -1 14.68 -1 14 C-1.99 13.67 -2.98 13.34 -4 13 C-2.68 8.71 -1.36 4.42 0 0 Z " fill="#E3E7EA" transform="translate(76,301)"/>
<path d="M0 0 C1.32 0.66 2.64 1.32 4 2 C1.8782637 3.33878572 -0.24705188 4.67115476 -2.375 6 C-2.97828125 6.3815625 -3.5815625 6.763125 -4.203125 7.15625 C-8.7734375 10 -8.7734375 10 -11 10 C-6.08194359 16.47639741 -6.08194359 16.47639741 1 20 C1.33 19.01 1.66 18.02 2 17 C3.7421875 15.28125 3.7421875 15.28125 5.875 13.5 C8.85384531 10.99734679 8.85384531 10.99734679 11.6328125 8.28125 C13 7 13 7 15 7 C14.67 12.61 14.34 18.22 14 24 C13.34 24 12.68 24 12 24 C12 21.69 12 19.38 12 17 C10.02 17 8.04 17 6 17 C5.67 18.98 5.34 20.96 5 23 C1.74388752 23.56981968 -0.29011096 23.49365847 -3.0390625 21.58203125 C-5.09149265 19.77942874 -7.05629442 17.91889232 -9 16 C-9.825 15.2575 -10.65 14.515 -11.5 13.75 C-13 12 -13 12 -13 9 C-10.41015625 7.24609375 -10.41015625 7.24609375 -7.0625 5.4375 C-2.81473529 3.43925265 -2.81473529 3.43925265 0 0 Z " fill="#ACB4B7" transform="translate(127,332)"/>
<path d="M0 0 C2 2 2 2 2.3125 5.375 C2 9 2 9 0.9375 11.4375 C-1 13 -1 13 -4.5 13.4375 C-8 13 -8 13 -9.9375 12 C-11.66149757 8.75482811 -11.65498416 5.58008387 -11 2 C-7.93817059 -2.04161482 -4.56939437 -1.10003939 0 0 Z " fill="#E6EAED" transform="translate(192,357)"/>
<path d="M0 0 C1.9375 1 1.9375 1 3 3 C3.35528819 5.80219236 3.22717012 8.13765645 3 11 C1 13 1 13 -2.9375 13.4375 C-5.08984375 13.3828125 -5.08984375 13.3828125 -7 13 C-9.32149052 10.46086975 -9.89249317 8.75254782 -10.375 5.375 C-10 3 -10 3 -8.9375 1.1875 C-5.90624457 -0.67036623 -3.46577141 -0.37133265 0 0 Z " fill="#E6EBEE" transform="translate(357,343)"/>
<path d="M0 0 C7.875 0.875 7.875 0.875 9 2 C9.04080783 3.99958364 9.04254356 6.00045254 9 8 C8.01 8.33 7.02 8.66 6 9 C7.65 11.64 9.3 14.28 11 17 C9.02 16.67 7.04 16.34 5 16 C4.67 16.66 4.34 17.32 4 18 C2.02 17.67 0.04 17.34 -2 17 C-2 16.34 -2 15.68 -2 15 C-1.34 15 -0.68 15 0 15 C0 10.05 0 5.1 0 0 Z " fill="#AEB6BB" transform="translate(224,361)"/>
<path d="M0 0 C0.53625 0.680625 1.0725 1.36125 1.625 2.0625 C2.9236384 3.66871066 4.24084492 5.26268766 5.63671875 6.78515625 C6.18972656 7.39230469 6.74273437 7.99945313 7.3125 8.625 C8.11107422 9.47964844 8.11107422 9.47964844 8.92578125 10.3515625 C9.28027344 10.89554687 9.63476562 11.43953125 10 12 C9.67 12.99 9.34 13.98 9 15 C6.4510713 13.72553565 6.19358356 12.53636507 5 10 C4.34 9.01 3.68 8.02 3 7 C1.68 7.33 0.36 7.66 -1 8 C0.37588035 11.70429324 1.91890881 14.53151468 4 18 C-0.95 17.67 -5.9 17.34 -11 17 C-7.86824314 22.77260299 -7.86824314 22.77260299 -5 24 C-5 24.66 -5 25.32 -5 26 C-8.65773903 24.54485599 -10.15779702 22.72902136 -12.25 19.4375 C-13.03117187 18.22900391 -13.03117187 18.22900391 -13.828125 16.99609375 C-15 15 -15 15 -15 14 C-10.05 14.33 -5.1 14.66 0 15 C-4.25464401 10 -4.25464401 10 -8 9 C-8 6 -8 6 -6.25 3.9375 C-4.21005384 2.18087969 -2.45849217 1.0536395 0 0 Z " fill="#DDE3E6" transform="translate(418,300)"/>
<path d="M0 0 C0.99 0.33 1.98 0.66 3 1 C2.67 1.5775 2.34 2.155 2 2.75 C0.72924102 5.19883862 0.72924102 5.19883862 1 9 C2.98 9.66 4.96 10.32 7 11 C7.45375 10.34 7.9075 9.68 8.375 9 C9.179375 8.01 9.179375 8.01 10 7 C10.66 7 11.32 7 12 7 C10.46223578 10.14910568 8.8084352 13.21127309 7.0625 16.25 C6.55847656 17.14203125 6.05445312 18.0340625 5.53515625 18.953125 C5.02855469 19.62859375 4.52195312 20.3040625 4 21 C3.01 21 2.02 21 1 21 C0.01 19.02 -0.98 17.04 -2 15 C-3.32 15.33 -4.64 15.66 -6 16 C-6 11.87239472 -5.76011396 11.18747408 -3.5625 8 C-1.73281509 5.33105791 -0.61933206 3.18920419 0 0 Z " fill="#B5BBBE" transform="translate(104,318)"/>
<path d="M0 0 C2.5625 0.25 2.5625 0.25 5 1 C6.22485812 3.44971624 6.16722808 5.14234461 6.1875 7.875 C6.20167969 8.73867187 6.21585937 9.60234375 6.23046875 10.4921875 C5.98859252 13.1241288 5.32983541 14.73980544 4 17 C-0.875 16.125 -0.875 16.125 -2 15 C-2.12537741 12.85692104 -2.17574364 10.70921114 -2.1875 8.5625 C-2.20167969 7.38816406 -2.21585937 6.21382812 -2.23046875 5.00390625 C-2 2 -2 2 0 0 Z " fill="#E4E8EC" transform="translate(287,140)"/>
<path d="M0 0 C8.13205908 -0.46915725 8.13205908 -0.46915725 11.3125 1.25 C12.1478125 2.11625 12.1478125 2.11625 13 3 C14.11375 4.0828125 14.11375 4.0828125 15.25 5.1875 C15.8275 5.785625 16.405 6.38375 17 7 C13.09971775 9.60018816 9.52565431 9.15085514 5 9 C5 10.98 5 12.96 5 15 C5.66 15 6.32 15 7 15 C7 15.66 7 16.32 7 17 C5.35 17 3.7 17 2 17 C2 12.05 2 7.1 2 2 C1.34 2 0.68 2 0 2 C0 1.34 0 0.68 0 0 Z " fill="#D8DDE0" transform="translate(272,361)"/>
<path d="M0 0 C3.63 0 7.26 0 11 0 C11 0.66 11 1.32 11 2 C8.36 2 5.72 2 3 2 C3 4.31 3 6.62 3 9 C4.98 9 6.96 9 9 9 C8.67 9.66 8.34 10.32 8 11 C6.35 10.67 4.7 10.34 3 10 C3 12.31 3 14.62 3 17 C5.31 17 7.62 17 10 17 C10.33 16.01 10.66 15.02 11 14 C12.65 14 14.3 14 16 14 C16 14.99 16 15.98 16 17 C17.65 17.33 19.3 17.66 21 18 C21 18.33 21 18.66 21 19 C18.69 18.67 16.38 18.34 14 18 C14 17.34 14 16.68 14 16 C13.62230469 16.49113281 13.24460938 16.98226562 12.85546875 17.48828125 C9.29327105 20.39053496 4.37517698 19.15441801 0 19 C0 12.73 0 6.46 0 0 Z " fill="#AEB4B8" transform="translate(180,139)"/>
<path d="M0 0 C2.875 -0.125 2.875 -0.125 6 0 C8 2 8 2 8 6 C8.78375 6.12375 9.5675 6.2475 10.375 6.375 C13 7 13 7 15 9 C14.67028521 12.29714793 14.3773161 13.6226839 12 16 C9.375 15.625 9.375 15.625 7 15 C6.67 13.68 6.34 12.36 6 11 C6.66 11 7.32 11 8 11 C8 11.66 8 12.32 8 13 C9.32 13 10.64 13 12 13 C12 11.68 12 10.36 12 9 C6.72 9 1.44 9 -4 9 C-4 8.01 -4 7.02 -4 6 C-1.03 6 1.94 6 5 6 C5 4.68 5 3.36 5 2 C3.68 2 2.36 2 1 2 C1 2.66 1 3.32 1 4 C0.34 4 -0.32 4 -1 4 C-0.67 2.68 -0.34 1.36 0 0 Z " fill="#858F95" transform="translate(240,141)"/>
<path d="M0 0 C0.88751953 0.19529297 0.88751953 0.19529297 1.79296875 0.39453125 C2.12296875 1.71453125 2.45296875 3.03453125 2.79296875 4.39453125 C1.80296875 3.73453125 0.81296875 3.07453125 -0.20703125 2.39453125 C-3.74890956 2.06114529 -3.74890956 2.06114529 -7.20703125 2.39453125 C-9.51449539 4.27226389 -9.51449539 4.27226389 -9.45703125 7.33203125 C-9.44220879 10.56735912 -9.44220879 10.56735912 -7.20703125 13.39453125 C-3.63933573 14.13059624 -3.63933573 14.13059624 -0.20703125 14.39453125 C-0.20703125 12.41453125 -0.20703125 10.43453125 -0.20703125 8.39453125 C0.78296875 8.39453125 1.77296875 8.39453125 2.79296875 8.39453125 C3.12296875 11.69453125 3.45296875 14.99453125 3.79296875 18.39453125 C5.77296875 19.05453125 7.75296875 19.71453125 9.79296875 20.39453125 C9.79296875 20.72453125 9.79296875 21.05453125 9.79296875 21.39453125 C4.29296875 21.76119792 4.29296875 21.76119792 1.91796875 20.01953125 C0.79296875 18.39453125 0.79296875 18.39453125 0.79296875 16.39453125 C-0.44453125 16.43578125 -1.68203125 16.47703125 -2.95703125 16.51953125 C-6.19749151 16.51379592 -8.54052976 16.42107238 -11.20703125 14.39453125 C-12.41964002 10.75670493 -12.60247677 8.21717126 -12.20703125 4.39453125 C-8.72826476 -0.9919459 -5.83931973 -1.01926136 0 0 Z " fill="#93999D" transform="translate(213.20703125,359.60546875)"/>
<path d="M0 0 C2.64904421 2.64904421 4.59194585 4.64755941 6.625 7.625 C8.00869369 9.64325386 9.25734982 11.25734982 11 13 C9.68 13.33 8.36 13.66 7 14 C5.02 10.535 5.02 10.535 3 7 C2.67 10.3 2.34 13.6 2 17 C-0.64 15.35 -3.28 13.7 -6 12 C-5.34 14.64 -4.68 17.28 -4 20 C-4.66 20 -5.32 20 -6 20 C-6.83764268 18.04350603 -7.66999059 16.08474444 -8.5 14.125 C-8.9640625 13.03445313 -9.428125 11.94390625 -9.90625 10.8203125 C-11 8 -11 8 -11 6 C-6.94053342 7.7861653 -3.56467906 10.39504223 0 13 C0 8.71 0 4.42 0 0 Z " fill="#878F93" transform="translate(374,331)"/>
<path d="M0 0 C4.52615993 3.67832017 8.39424999 7.41086363 12 12 C10.02 14.97 10.02 14.97 8 18 C5.44560224 16.72280112 5.25687654 15.51832354 4 13 C2.96525818 11.82903901 1.90181875 10.68286822 0.8125 9.5625 C-2.00823698 6.37890122 -2.00823698 6.37890122 -1.9375 3.125 C-1 1 -1 1 0 0 Z " fill="#DDE2E6" transform="translate(421,297)"/>
<path d="M0 0 C2.95632919 2.98408815 3.43177054 5.30655922 3.4375 9.4375 C3.3482088 13.36631268 3.14284304 14.77234391 1 18.1875 C-1 20 -1 20 -3.8125 19.875 C-7 19 -7 19 -8.875 16.4375 C-10.44422024 11.64266038 -10.87435499 7.43570317 -9.125 2.5625 C-6.76400161 -0.71666443 -3.75424653 -0.38308638 0 0 Z M-5 1 C-7.30925773 2.88173935 -7.30925773 2.88173935 -7.265625 5.96875 C-7.26046875 7.1340625 -7.2553125 8.299375 -7.25 9.5 C-7.25515625 10.6653125 -7.2603125 11.830625 -7.265625 13.03125 C-7.30925773 16.11826065 -7.30925773 16.11826065 -5 18 C-2.39719432 17.67958603 -2.39719432 17.67958603 0 17 C0.96847302 14.09458095 1.19582812 12.03362546 1.25 9 C1.27578125 8.13375 1.3015625 7.2675 1.328125 6.375 C1.18493083 3.95134376 1.18493083 3.95134376 -0.328125 2.1875 C-2.06585616 0.71046306 -2.06585616 0.71046306 -5 1 Z " fill="#899194" transform="translate(292,139)"/>
<path d="M0 0 C3.69824535 2.05458075 4.7810498 3.3431494 6.125 7.375 C6 11 6 11 4.0625 14.4375 C0.48317601 17.43244456 0.48317601 17.43244456 -3.0625 17.625 C-7 17 -7 17 -9.4375 15.4375 C-11.53567796 12.16434238 -12 9.88582276 -12 6 C-8.68791982 0.74635558 -6.16206486 -0.60412401 0 0 Z M-9 3 C-10.62191235 6.24382471 -9.96708589 9.57520712 -9 13 C-7.2435669 15.15705515 -7.2435669 15.15705515 -5.125 15.265625 C-4.42375 15.26046875 -3.7225 15.2553125 -3 15.25 C-2.29875 15.25515625 -1.5975 15.2603125 -0.875 15.265625 C1.2435669 15.15705515 1.2435669 15.15705515 3 13 C3.5090614 7.79610899 3.5090614 7.79610899 1.9375 3 C-1.65278929 1.14694746 -5.39903348 1.19951674 -9 3 Z " fill="#A9AEB2" transform="translate(357,341)"/>
<path d="M0 0 C5.94 0 11.88 0 18 0 C18 0.99 18 1.98 18 3 C15.69 2.67 13.38 2.34 11 2 C11 7.61 11 13.22 11 19 C9.68 19 8.36 19 7 19 C7.33 13.39 7.66 7.78 8 2 C6.02 2 4.04 2 2 2 C1.67 2.66 1.34 3.32 1 4 C0.67 2.68 0.34 1.36 0 0 Z " fill="#9BA1A5" transform="translate(206,139)"/>
<path d="M0 0 C3 2.125 3 2.125 5 5 C5.61304266 8.67825595 5.26122201 10.46568226 3.625 13.8125 C2 16 2 16 0 17 C-4.29322859 17.48602588 -6.32082639 17.46241608 -9.9375 15 C-12.79117716 10.84919686 -12.7099846 8.9698922 -12 4 C-9.22048525 -0.63252459 -5.03465073 -1.14650462 0 0 Z M-10 4 C-10.66976495 7.57207973 -10.65750013 10.7623527 -8.9375 14 C-5.83132725 15.60318593 -3.42009021 15.42751128 0 15 C2.87915173 12.67810344 2.98552483 11.11786923 3.4375 7.4375 C3.3252507 4.01071251 3.3252507 4.01071251 1.3125 2.0625 C-3.08305664 0.04291992 -6.77410458 0.17671654 -10 4 Z " fill="#969C9F" transform="translate(191,355)"/>
<path d="M0 0 C-0.99 5.28 -1.98 10.56 -3 16 C-3.99 15.67 -4.98 15.34 -6 15 C-6 13.02 -6 11.04 -6 9 C-7.65 8.67 -9.3 8.34 -11 8 C-11.33 8.66 -11.66 9.32 -12 10 C-12.99 9.67 -13.98 9.34 -15 9 C-15 8.34 -15 7.68 -15 7 C-12.48046875 5.2734375 -12.48046875 5.2734375 -9.1875 3.375 C-8.10855469 2.74335938 -7.02960938 2.11171875 -5.91796875 1.4609375 C-3 0 -3 0 0 0 Z " fill="#AEB5BA" transform="translate(98,314)"/>
<path d="M0 0 C0.66 0 1.32 0 2 0 C2.84026396 1.76755526 3.67198722 3.53917263 4.5 5.3125 C4.9640625 6.29863281 5.428125 7.28476562 5.90625 8.30078125 C7 11 7 11 7 14 C7.66 14 8.32 14 9 14 C9.99 10.7 10.98 7.4 12 4 C12.66 4 13.32 4 14 4 C13.54636829 5.58468677 13.08688548 7.16769924 12.625 8.75 C12.24214844 10.07257813 12.24214844 10.07257813 11.8515625 11.421875 C11.0790066 13.76080572 10.16374324 15.83442562 9 18 C8.34 18 7.68 18 7 18 C6.37237545 16.77217138 5.74803935 15.54266164 5.125 14.3125 C4.60292969 13.28576172 4.60292969 13.28576172 4.0703125 12.23828125 C2.93967982 9.87385597 1.97335801 7.43339502 1 5 C-0.32 8.3 -1.64 11.6 -3 15 C-3.66 14.34 -4.32 13.68 -5 13 C-3.35 8.71 -1.7 4.42 0 0 Z " fill="#878F93" transform="translate(148,343)"/>
<path d="M0 0 C1.32 0 2.64 0 4 0 C4.06058594 0.92683594 4.12117188 1.85367187 4.18359375 2.80859375 C4.26738281 4.00613281 4.35117187 5.20367187 4.4375 6.4375 C4.51871094 7.63246094 4.59992188 8.82742188 4.68359375 10.05859375 C4.67656114 12.88570244 4.67656114 12.88570244 6 14 C8.5 14.16666667 8.5 14.16666667 11 14 C12.33901792 12.88873341 12.33901792 12.88873341 12.09765625 10.05859375 C12.08605469 8.86363281 12.07445312 7.66867187 12.0625 6.4375 C12.05347656 5.23996094 12.04445313 4.04242188 12.03515625 2.80859375 C12.02355469 1.88175781 12.01195312 0.95492188 12 0 C12.99 0 13.98 0 15 0 C15.61802575 10.7639485 15.61802575 10.7639485 13.375 15.25 C11 17 11 17 7.9375 17.625 C5 17 5 17 3.1875 15.125 C1.78918511 11.44522397 1.45713359 8.11685962 1.2109375 4.20703125 C1.12979482 1.95951661 1.12979482 1.95951661 0 0 Z " fill="#A2A8AB" transform="translate(255,362)"/>
<path d="M0 0 C1 2 1 2 0.328125 4.53125 C-0.02765625 5.5109375 -0.3834375 6.490625 -0.75 7.5 C-1.09546875 8.4796875 -1.4409375 9.459375 -1.796875 10.46875 C-3 13 -3 13 -6 15 C-6 13.68 -6 12.36 -6 11 C-6.61875 10.731875 -7.2375 10.46375 -7.875 10.1875 C-10 9 -10 9 -12 6 C-8.04 4.02 -4.08 2.04 0 0 Z " fill="#E0E5E7" transform="translate(74,299)"/>
<path d="M0 0 C2 1 2 1 2.89453125 3.15234375 C3.19746094 4.07144531 3.50039062 4.99054688 3.8125 5.9375 C5.52076524 10.89405748 7.63597354 15.40610986 10.14453125 20.00390625 C10.56798828 20.99197266 10.56798828 20.99197266 11 22 C10.67 22.66 10.34 23.32 10 24 C8.39553069 21.91689914 6.79141482 19.83352773 5.1875 17.75 C4.73568359 17.16347656 4.28386719 16.57695312 3.81835938 15.97265625 C1.5268922 12.99542152 -0.75531153 10.01280445 -3 7 C-2.690625 6.401875 -2.38125 5.80375 -2.0625 5.1875 C-0.89790296 2.91043228 -0.89790296 2.91043228 0 0 Z " fill="#D9E5EB" transform="translate(99,224)"/>
<path d="M0 0 C1.41875765 0.76697796 2.83491452 1.53876778 4.25 2.3125 C5.03890625 2.74175781 5.8278125 3.17101562 6.640625 3.61328125 C8.91454767 4.94977554 10.99505799 6.28476292 13 8 C13 8.66 13 9.32 13 10 C11.88625 9.814375 10.7725 9.62875 9.625 9.4375 C6.17431139 8.68319343 6.17431139 8.68319343 4 10 C4.33 11.98 4.66 13.96 5 16 C4.01 16.33 3.02 16.66 2 17 C-0.29612756 5.47835991 -0.29612756 5.47835991 0 0 Z " fill="#9AA2A6" transform="translate(395,319)"/>
<path d="M0 0 C3.08914085 0.33097938 4.0026931 1.00284699 6.1875 3.3125 C7.79407709 5.69466602 8.58574686 7.20379133 9 10 C7.25 11.5625 7.25 11.5625 5 13 C2.75 12.6875 2.75 12.6875 1 12 C1.66 11.67 2.32 11.34 3 11 C1.35 8.69 -0.3 6.38 -2 4 C-1.34 2.68 -0.68 1.36 0 0 Z " fill="#DDE3E7" transform="translate(418,306)"/>
<path d="M0 0 C1.27875 -0.061875 2.5575 -0.12375 3.875 -0.1875 C4.95394531 -0.23970703 4.95394531 -0.23970703 6.0546875 -0.29296875 C6.69664062 -0.19628906 7.33859375 -0.09960938 8 0 C10 3 10 3 9.9375 5.75 C8.7161931 9.98386391 6.70415502 12.53313459 4 16 C5.98 16.33 7.96 16.66 10 17 C10 17.66 10 18.32 10 19 C6.37 19 2.74 19 -1 19 C0.52994792 16.98177083 2.05989583 14.96354167 3.58984375 12.9453125 C6.28873384 9.22218988 6.0844604 6.56086138 6 2 C3.69 2.33 1.38 2.66 -1 3 C-0.67 2.01 -0.34 1.02 0 0 Z " fill="#7C8589" transform="translate(299,139)"/>
<path d="M0 0 C0 0.66 0 1.32 0 2 C1.32 2 2.64 2 4 2 C4.33 3.32 4.66 4.64 5 6 C2.03 7.65 -0.94 9.3 -4 11 C-4.99 8.69 -5.98 6.38 -7 4 C-3.375 0 -3.375 0 0 0 Z " fill="#E3E8EA" transform="translate(123,328)"/>
<path d="M0 0 C3.375 -0.125 3.375 -0.125 7 0 C9 2 9 2 9.5 5.125 C8.82867496 10.32776909 6.3798469 13.12725876 3 17 C5.31 17 7.62 17 10 17 C10 17.66 10 18.32 10 19 C6.37 19 2.74 19 -1 19 C1 15 1 15 3 12.75 C5.58042259 9.20191894 6.12965949 6.27917415 7 2 C4.36 2.33 1.72 2.66 -1 3 C-0.67 2.01 -0.34 1.02 0 0 Z " fill="#848B8F" transform="translate(269,139)"/>
<path d="M0 0 C3.43301849 3.24744993 5.51567521 5.85945868 8 10 C3.05 9.67 -1.9 9.34 -7 9 C-3.86824314 14.77260299 -3.86824314 14.77260299 -1 16 C-1 16.66 -1 17.32 -1 18 C-4.65773903 16.54485599 -6.15779702 14.72902136 -8.25 11.4375 C-9.03117187 10.22900391 -9.03117187 10.22900391 -9.828125 8.99609375 C-11 7 -11 7 -11 6 C-6.05 6.33 -1.1 6.66 4 7 C2.68 5.35 1.36 3.7 0 2 C0 1.34 0 0.68 0 0 Z " fill="#878E92" transform="translate(414,308)"/>
<path d="M0 0 C0.66 0.99 1.32 1.98 2 3 C3.98 2.67 5.96 2.34 8 2 C8 5.96 8 9.92 8 14 C3 11 3 11 2 9 C1.01 9.495 1.01 9.495 0 10 C-2.21538462 4.58461538 -2.21538462 4.58461538 -1.125 1.625 C-0.75375 1.08875 -0.3825 0.5525 0 0 Z " fill="#E3E5E8" transform="translate(216,362)"/>
<path d="M0 0 C2.31 0 4.62 0 7 0 C7 0.66 7 1.32 7 2 C5.02 2 3.04 2 1 2 C1 3.32 1 4.64 1 6 C3.31 6.33 5.62 6.66 8 7 C9.125 12.625 9.125 12.625 8 16 C5.625 17.75 5.625 17.75 3 19 C2.01 18.67 1.02 18.34 0 18 C0.804375 17.46375 1.60875 16.9275 2.4375 16.375 C5.46508424 13.56894631 5.72510809 12.03174806 6 8 C3.69 7.67 1.38 7.34 -1 7 C-0.67 4.69 -0.34 2.38 0 0 Z " fill="#8A9195" transform="translate(314,140)"/>
<path d="M0 0 C3.16115776 1.36983503 3.9927092 1.9890638 6 5 C6.56046952 8.5496403 6.17924048 9.73711396 4.125 12.75 C1.20045565 15.84657637 0.48566848 15.96083319 -3.875 16.3125 C-6.86088441 16.25830972 -7.84588384 16.09879241 -10.4375 14.4375 C-12.43656214 11.31896306 -12.71860476 8.65813817 -13 5 C-12.34 4.67 -11.68 4.34 -11 4 C-10.9175 5.093125 -10.835 6.18625 -10.75 7.3125 C-10.30988518 10.93412055 -10.30988518 10.93412055 -8.375 13 C-4.98407242 14.42775898 -2.526253 13.79839691 1 13 C2.57960269 11.42039731 2.16986544 9.80463184 2.1875 7.625 C2.20167969 6.83351563 2.21585937 6.04203125 2.23046875 5.2265625 C2.14507509 2.71268667 2.14507509 2.71268667 0 0 Z " fill="#899093" transform="translate(304,358)"/>
<path d="M0 0 C9.57 0.33 19.14 0.66 29 1 C28.67 1.66 28.34 2.32 28 3 C19.42 3 10.84 3 2 3 C1.34 4.32 0.68 5.64 0 7 C0 4.69 0 2.38 0 0 Z " fill="#B3BFC2" transform="translate(251,186)"/>
<path d="M0 0 C1.32 0.66 2.64 1.32 4 2 C1.8782637 3.33878572 -0.24705188 4.67115476 -2.375 6 C-2.97828125 6.3815625 -3.5815625 6.763125 -4.203125 7.15625 C-8.7734375 10 -8.7734375 10 -11 10 C-7.27653164 14.42094803 -3.70478962 18.57833482 1 22 C-3.59734387 21.52638376 -5.62274688 19.89410021 -8.8125 16.625 C-9.60269531 15.83351563 -10.39289063 15.04203125 -11.20703125 14.2265625 C-13 12 -13 12 -13 9 C-10.41015625 7.24609375 -10.41015625 7.24609375 -7.0625 5.4375 C-2.81473529 3.43925265 -2.81473529 3.43925265 0 0 Z " fill="#7F878B" transform="translate(127,332)"/>
<path d="M0 0 C1.45792884 -0.05399736 2.91642712 -0.09279177 4.375 -0.125 C5.18710937 -0.14820313 5.99921875 -0.17140625 6.8359375 -0.1953125 C9 0 9 0 11 2 C11.125 4.625 11.125 4.625 11 7 C10.01 7 9.02 7 8 7 C8 5.35 8 3.7 8 2 C6.68 1.67 5.36 1.34 4 1 C4.33 5.62 4.66 10.24 5 15 C5.66 15 6.32 15 7 15 C7 15.66 7 16.32 7 17 C5.35 17 3.7 17 2 17 C2 12.05 2 7.1 2 2 C1.34 2 0.68 2 0 2 C0 1.34 0 0.68 0 0 Z " fill="#8C9195" transform="translate(272,361)"/>
<path d="M0 0 C1.65 0.33 3.3 0.66 5 1 C5.33 3.31 5.66 5.62 6 8 C5.34 8 4.68 8 4 8 C4 8.66 4 9.32 4 10 C3.34 10 2.68 10 2 10 C2.99 11.98 3.98 13.96 5 16 C0.87333926 14.51081373 -0.2973363 12.19156996 -2.25 8.375 C-2.77078125 7.37210937 -3.2915625 6.36921875 -3.828125 5.3359375 C-4.40820312 4.17964844 -4.40820312 4.17964844 -5 3 C-2 4 -2 4 0 7 C0.66 7 1.32 7 2 7 C2.16687448 4.58354218 2.16687448 4.58354218 2 2 C1.34 1.34 0.68 0.68 0 0 Z " fill="#959A9E" transform="translate(385,325)"/>
<path d="M0 0 C0.33 0 0.66 0 1 0 C1.12461569 4.12573806 1.21480904 8.25073131 1.2746582 12.37792969 C1.29963412 13.77851469 1.33362817 15.17897161 1.37719727 16.57910156 C1.63410996 25.05419814 1.56183204 31.20317849 -4 38 C-5.14992231 34.55023307 -4.82415506 33.92694645 -3.63671875 30.6328125 C-1.65773291 24.43566959 -1.22214539 18.33912914 -0.8125 11.875 C-0.73064453 10.72773438 -0.64878906 9.58046875 -0.56445312 8.3984375 C-0.36619468 5.59949471 -0.17825753 2.80027546 0 0 Z " fill="#CCDAE0" transform="translate(385,194)"/>
<path d="M0 0 C0 0.66 0 1.32 0 2 C-0.99 2.66 -1.98 3.32 -3 4 C-2.67 5.32 -2.34 6.64 -2 8 C-1.01 8 -0.02 8 1 8 C1.33 7.34 1.66 6.68 2 6 C2.66 6 3.32 6 4 6 C3.34 7.98 2.68 9.96 2 12 C2.99 12.66 3.98 13.32 5 14 C6.32 12.35 7.64 10.7 9 9 C8.50168276 12.68754757 7.89932357 14.60490662 5 17 C1.60184863 15.86728288 0.71355084 14.8090686 -1.5625 12.125 C-2.16191406 11.42632812 -2.76132812 10.72765625 -3.37890625 10.0078125 C-5 8 -5 8 -7 5 C-2.25 0 -2.25 0 0 0 Z " fill="#999FA2" transform="translate(429,292)"/>
<path d="M0 0 C0.89585073 3.05612071 1.10589953 5.74285962 1.0625 8.921875 C1.05476563 9.86546875 1.04703125 10.8090625 1.0390625 11.78125 C1.01322639 13.74479438 0.98718802 15.70833611 0.9609375 17.671875 C0.91566775 23.22496491 1.16700164 28.50741708 2 34 C-0.92602095 32.53698952 -1.09705209 30.58977236 -2.1875 27.5625 C-2.55230469 26.57378906 -2.91710937 25.58507812 -3.29296875 24.56640625 C-4 22 -4 22 -3 20 C-2.67 20 -2.34 20 -2 20 C-1.93941406 18.80761719 -1.87882812 17.61523438 -1.81640625 16.38671875 C-1.73198851 14.82030075 -1.64734113 13.25389512 -1.5625 11.6875 C-1.50352539 10.50897461 -1.50352539 10.50897461 -1.44335938 9.30664062 C-1.40146484 8.54931641 -1.35957031 7.79199219 -1.31640625 7.01171875 C-1.27974854 6.31522217 -1.24309082 5.61872559 -1.20532227 4.90112305 C-1 3 -1 3 0 0 Z " fill="#CFDCE3" transform="translate(126,186)"/>
<path d="M0 0 C2.375 1.375 2.375 1.375 4 3 C4 3.66 4 4.32 4 5 C3.484375 4.67 2.96875 4.34 2.4375 4 C-0.80521778 2.66965425 -3.52984772 2.80357629 -7 3 C-8.28612676 4.05978933 -8.28612676 4.05978933 -8.09765625 6.50390625 C-8.08605469 7.51324219 -8.07445312 8.52257812 -8.0625 9.5625 C-8.05347656 10.57441406 -8.04445312 11.58632813 -8.03515625 12.62890625 C-8.02355469 13.41136719 -8.01195312 14.19382812 -8 15 C-9.9609375 13.7109375 -9.9609375 13.7109375 -12 12 C-12.625 8.625 -12.625 8.625 -12 5 C-8.30718017 0.86755877 -5.57163642 -0.96898025 0 0 Z " fill="#989FA3" transform="translate(174,350)"/>
<path d="M0 0 C1.14974334 4.59897337 0.52233582 6.3262551 -0.9375 10.75 C-1.31777344 11.92046875 -1.69804688 13.0909375 -2.08984375 14.296875 C-2.39019531 15.18890625 -2.69054687 16.0809375 -3 17 C-3.99 16.01 -4.98 15.02 -6 14 C-4.68 10.7 -3.36 7.4 -2 4 C-2.99 4.33 -3.98 4.66 -5 5 C-8 6 -11 7 -14 8 C-14 7.34 -14 6.68 -14 6 C-9.38 4.02 -4.76 2.04 0 0 Z " fill="#858C90" transform="translate(76,297)"/>
<path d="M0 0 C-0.33 1.32 -0.66 2.64 -1 4 C-1 3.34 -1 2.68 -1 2 C-2.65 2.33 -4.3 2.66 -6 3 C-5.94436349 4.83468832 -5.94436349 4.83468832 -5 7 C-3.989375 7.804375 -2.97875 8.60875 -1.9375 9.4375 C1 12 1 12 1.375 14.8125 C1.25125 15.534375 1.1275 16.25625 1 17 C0.01 17 -0.98 17 -2 17 C-1.67 15.35 -1.34 13.7 -1 12 C-1.5775 11.731875 -2.155 11.46375 -2.75 11.1875 C-5.12367963 9.93472464 -7.06206571 8.86872235 -9 7 C-9.4375 4.4375 -9.4375 4.4375 -9 2 C-5.5647952 -0.29013653 -4.014669 -0.17842973 0 0 Z " fill="#777E81" transform="translate(204,139)"/>
<path d="M0 0 C1.65 0 3.3 0 5 0 C4.67 1.32 4.34 2.64 4 4 C5.32 4.33 6.64 4.66 8 5 C6.88625 5.45375 5.7725 5.9075 4.625 6.375 C1.03800992 7.72465986 1.03800992 7.72465986 -1 10 C-3.125 9.625 -3.125 9.625 -5 9 C-2.25 2.125 -2.25 2.125 0 1 C0 0.67 0 0.34 0 0 Z " fill="#E2E8EA" transform="translate(164,345)"/>
<path d="M0 0 C3.36748512 1.51947499 4.60840337 2.52100842 6 6 C5.01 5.34 4.02 4.68 3 4 C0.35367713 4.3121764 0.35367713 4.3121764 -2 5 C-0.63016497 8.16115776 -0.0109362 8.9927092 3 11 C3 11.66 3 12.32 3 13 C-0.11198065 11.50163895 -3.0534615 9.80066242 -6 8 C-6.66 9.65 -7.32 11.3 -8 13 C-8.66 13 -9.32 13 -10 13 C-9.48223379 8.89552608 -7.35372556 7.04300477 -4.4375 4.25 C-3.61121094 3.45078125 -2.78492188 2.6515625 -1.93359375 1.828125 C-1.29550781 1.22484375 -0.65742187 0.6215625 0 0 Z " fill="#90979A" transform="translate(64,285)"/>
<path d="M0 0 C0.99 0 1.98 0 3 0 C3 0.66 3 1.32 3 2 C2.01 2.33 1.02 2.66 0 3 C0 3.66 0 4.32 0 5 C0.61488281 5.03738281 1.22976563 5.07476562 1.86328125 5.11328125 C2.67152344 5.17902344 3.47976563 5.24476563 4.3125 5.3125 C5.11300781 5.37050781 5.91351563 5.42851562 6.73828125 5.48828125 C9.4013248 6.0908006 10.39869414 6.80873935 12 9 C11.6875 11.6875 11.6875 11.6875 11 14 C9.35 14.33 7.7 14.66 6 15 C6.99 14.34 7.98 13.68 9 13 C9 11.68 9 10.36 9 9 C8.28972656 8.93941406 7.57945312 8.87882812 6.84765625 8.81640625 C5.92855469 8.73261719 5.00945312 8.64882813 4.0625 8.5625 C2.68771484 8.44068359 2.68771484 8.44068359 1.28515625 8.31640625 C-1 8 -1 8 -2 7 C-2.1875 4.5625 -2.1875 4.5625 -2 2 C-1.34 1.34 -0.68 0.68 0 0 Z " fill="#858D8F" transform="translate(434,285)"/>
<path d="M0 0 C5.35152885 0.32433508 8.28280043 3.49704824 12 7 C11.67 7.99 11.34 8.98 11 10 C10.34 9.01 9.68 8.02 9 7 C5.14953498 7.53431563 3.76036068 9.0834262 1.375 12.0625 C0.29107602 13.40912172 -0.82628102 14.73088022 -2 16 C-2.66 16 -3.32 16 -4 16 C-4 15.34 -4 14.68 -4 14 C-3.34 14 -2.68 14 -2 14 C-1.7525 13.443125 -1.505 12.88625 -1.25 12.3125 C0 10 0 10 2.125 7.375 C4.2065481 5.24269401 4.2065481 5.24269401 4 3 C2.68 2.67 1.36 2.34 0 2 C0 1.34 0 0.68 0 0 Z " fill="#969C9F" transform="translate(81,302)"/>
<path d="M0 0 C3.3 0 6.6 0 10 0 C10 0.33 10 0.66 10 1 C7.36 1 4.72 1 2 1 C2 3.31 2 5.62 2 8 C3.98 8 5.96 8 8 8 C7.67 8.66 7.34 9.32 7 10 C5.35 9.67 3.7 9.34 2 9 C2 11.64 2 14.28 2 17 C1.34 17 0.68 17 0 17 C0 11.39 0 5.78 0 0 Z " fill="#7C8589" transform="translate(181,140)"/>
<path d="M0 0 C1.33333333 2.66666667 2.66666667 5.33333333 4 8 C3.01 8.66 2.02 9.32 1 10 C-3.02550319 8.6581656 -3.88285636 6.5772427 -6 3 C-6 2.34 -6 1.68 -6 1 C-4.68 1 -3.36 1 -2 1 C-2 1.66 -2 2.32 -2 3 C-1.34 3 -0.68 3 0 3 C0 2.01 0 1.02 0 0 Z " fill="#DEE3E7" transform="translate(236,369)"/>
<path d="M0 0 C0.88751953 0.19529297 0.88751953 0.19529297 1.79296875 0.39453125 C2.12296875 1.71453125 2.45296875 3.03453125 2.79296875 4.39453125 C1.80296875 3.73453125 0.81296875 3.07453125 -0.20703125 2.39453125 C-3.74890956 2.06114529 -3.74890956 2.06114529 -7.20703125 2.39453125 C-9.50278728 4.69028728 -9.53042724 5.4029565 -9.83203125 8.51953125 C-9.95578125 9.79828125 -10.07953125 11.07703125 -10.20703125 12.39453125 C-10.86703125 12.06453125 -11.52703125 11.73453125 -12.20703125 11.39453125 C-12.62186384 7.16323884 -12.60792168 5.01526482 -10.26953125 1.39453125 C-6.4063517 -1.12836152 -4.40541819 -0.76897185 0 0 Z " fill="#808589" transform="translate(213.20703125,359.60546875)"/>
<path d="M0 0 C0 0.33 0 0.66 0 1 C-1.98 1 -3.96 1 -6 1 C-5.79503906 1.81984375 -5.59007812 2.6396875 -5.37890625 3.484375 C-4.25260417 7.98958333 -3.12630208 12.49479167 -2 17 C-3.32 17.33 -4.64 17.66 -6 18 C-6.03738281 17.35933594 -6.07476562 16.71867187 -6.11328125 16.05859375 C-6.54337277 10.39993859 -7.46086906 6.07826187 -10 1 C-3.375 -1.125 -3.375 -1.125 0 0 Z " fill="#838A8E" transform="translate(320,354)"/>
<path d="M0 0 C2.5 1.0625 2.5 1.0625 5 3 C5.3125 6.6875 5.3125 6.6875 5 10 C2.69 9.34 0.38 8.68 -2 8 C-1.125 2.25 -1.125 2.25 0 0 Z " fill="#DBE0E4" transform="translate(198,148)"/>
<path d="M0 0 C0.33 0 0.66 0 1 0 C1 2.31 1 4.62 1 7 C1.99 6.01 2.98 5.02 4 4 C4.66 4.66 5.32 5.32 6 6 C5.01 8.97 4.02 11.94 3 15 C1.68 14.34 0.36 13.68 -1 13 C-0.67 8.71 -0.34 4.42 0 0 Z " fill="#D0D7DA" transform="translate(141,343)"/>
<path d="M0 0 C0.66 0 1.32 0 2 0 C2 2.97 2 5.94 2 9 C1.34 9 0.68 9 0 9 C-0.33 8.34 -0.66 7.68 -1 7 C-3.58605332 6.5316735 -3.58605332 6.5316735 -6.5625 6.375 C-7.57441406 6.30023438 -8.58632812 6.22546875 -9.62890625 6.1484375 C-10.80259766 6.07496094 -10.80259766 6.07496094 -12 6 C-12 5.34 -12 4.68 -12 4 C-8.04 4 -4.08 4 0 4 C0 2.68 0 1.36 0 0 Z " fill="#B9C3C6" transform="translate(239,203)"/>
<path d="M0 0 C2.31 0 4.62 0 7 0 C6.47557578 3.7758544 5.67345333 6.22372155 3 9 C2.01 9 1.02 9 0 9 C0 6.69 0 4.38 0 2 C1.2065625 2.0309375 1.2065625 2.0309375 2.4375 2.0625 C4.93354885 2.29633621 4.93354885 2.29633621 6 1 C4.02 1 2.04 1 0 1 C0 0.67 0 0.34 0 0 Z " fill="#DEE4E7" transform="translate(183,147)"/>
<path d="M0 0 C1.99954746 -0.04254356 4.00041636 -0.04080783 6 0 C7 1 7 1 7.0625 4.0625 C7.041875 5.031875 7.02125 6.00125 7 7 C8.32 7.33 9.64 7.66 11 8 C6.38 8 1.76 8 -3 8 C-3 7.67 -3 7.34 -3 7 C0.465 6.505 0.465 6.505 4 6 C4.33 4.68 4.66 3.36 5 2 C3.68 2 2.36 2 1 2 C1 2.66 1 3.32 1 4 C0.34 4 -0.32 4 -1 4 C-0.67 2.68 -0.34 1.36 0 0 Z " fill="#535E64" transform="translate(240,141)"/>
<path d="M0 0 C4.29 0.33 8.58 0.66 13 1 C13 1.33 13 1.66 13 2 C11.35 2.33 9.7 2.66 8 3 C7.67 4.65 7.34 6.3 7 8 C2.60841671 6.5361389 2.12052567 4.02168662 0 0 Z " fill="#DCE0E4" transform="translate(406,316)"/>
<path d="M0 0 C0.33 0.99 0.66 1.98 1 3 C-0.11878383 4.17262904 -1.24523051 5.33795138 -2.375 6.5 C-3.00148438 7.1496875 -3.62796875 7.799375 -4.2734375 8.46875 C-6 10 -6 10 -8 10 C-8.0825 10.61875 -8.165 11.2375 -8.25 11.875 C-9 14 -9 14 -11.0625 15.25 C-11.701875 15.4975 -12.34125 15.745 -13 16 C-11.43636055 12.34584258 -9.17824958 9.7880312 -6.5 6.875 C-5.7059375 6.00617188 -4.911875 5.13734375 -4.09375 4.2421875 C-2.75256247 2.80591578 -1.38954317 1.38954317 0 0 Z " fill="#D6E1E5" transform="translate(58,176)"/>
<path d="M0 0 C3.49279024 3.02708488 5.02233179 5.46717465 6 10 C5.625 13.875 5.625 13.875 5 17 C3.14670366 14.22005549 2.31436395 12.21743449 1.375 9.0625 C1.11460937 8.20785156 0.85421875 7.35320312 0.5859375 6.47265625 C0 4 0 4 0 0 Z " fill="#AEBCC3" transform="translate(375,170)"/>
<path d="M0 0 C2 1 2 1 3.1171875 3.97265625 C4.28818952 8.4561503 4.22147813 12.83252486 4.125 17.4375 C4.11597656 18.26443359 4.10695313 19.09136719 4.09765625 19.94335938 C4.07431512 21.96236708 4.03845288 23.98122356 4 26 C3.67 26 3.34 26 3 26 C2.67 20.72 2.34 15.44 2 10 C1.34 10 0.68 10 0 10 C0 6.7 0 3.4 0 0 Z " fill="#B9C4CA" transform="translate(407,200)"/>
<path d="M0 0 C1.11841676 3.35525029 0.91538821 3.97089854 -0.3125 7.125 C-0.70888672 8.18074219 -0.70888672 8.18074219 -1.11328125 9.2578125 C-2.28889686 11.56761233 -3.72536796 11.86268398 -6 13 C-6.65772428 16.02934491 -6.65772428 16.02934491 -7 19 C-7.7109375 17.44921875 -7.7109375 17.44921875 -8 15 C-6.96865675 12.47925882 -5.90461778 10.19835223 -4.625 7.8125 C-4.13 6.85053711 -4.13 6.85053711 -3.625 5.86914062 C-1.19836882 1.19836882 -1.19836882 1.19836882 0 0 Z " fill="#B1BFC7" transform="translate(121,171)"/>
<path d="M0 0 C1.98 0.99 1.98 0.99 4 2 C4 2.66 4 3.32 4 4 C4.66 4 5.32 4 6 4 C7.26438344 8.91704669 6.58345001 12.24964998 5 17 C4.80664062 16.19175781 4.61328125 15.38351563 4.4140625 14.55078125 C4.15367187 13.48214844 3.89328125 12.41351563 3.625 11.3125 C3.36976563 10.25675781 3.11453125 9.20101562 2.8515625 8.11328125 C2.08094511 5.29593234 1.14501457 2.68331675 0 0 Z " fill="#B8C5CB" transform="translate(356,159)"/>
<path d="M0 0 C2.6855594 2.6855594 3.06049974 5.37621328 4 9 C3.01 9 2.02 9 1 9 C0.67 9.99 0.34 10.98 0 12 C-0.474375 10.88625 -0.94875 9.7725 -1.4375 8.625 C-2.25306463 6.73289006 -3.07856355 4.84287291 -4 3 C-3.34 3 -2.68 3 -2 3 C-1.67 2.34 -1.34 1.68 -1 1 C-0.67 0.67 -0.34 0.34 0 0 Z " fill="#DFE7EB" transform="translate(363,339)"/>
<path d="M0 0 C2.6875 0.875 2.6875 0.875 5 2 C5 3.65 5 5.3 5 7 C3.68 7 2.36 7 1 7 C-1.25 4.5 -1.25 4.5 -3 2 C-2.01 1.34 -1.02 0.68 0 0 Z " fill="#D2DBDD" transform="translate(383,325)"/>
<path d="M0 0 C0.99 0.33 1.98 0.66 3 1 C2.34 1 1.68 1 1 1 C1.33 1.99 1.66 2.98 2 4 C1.443125 4.474375 0.88625 4.94875 0.3125 5.4375 C-2.83387724 8.92402613 -4.83802326 12.85325773 -7 17 C-8 14 -8 14 -6.34765625 10.64453125 C-5.59622298 9.36110983 -4.83403499 8.08393866 -4.0625 6.8125 C-3.48338867 5.83120117 -3.48338867 5.83120117 -2.89257812 4.83007812 C-1.93746912 3.21464684 -0.96989934 1.60659475 0 0 Z " fill="#94AEBA" transform="translate(30,198)"/>
<path d="M0 0 C1.32 0.66 2.64 1.32 4 2 C2.90033225 3.29549899 1.79508199 4.58626071 0.6875 5.875 C0.07261719 6.59429687 -0.54226563 7.31359375 -1.17578125 8.0546875 C-3 10 -3 10 -6 12 C-4.68139111 7.38486888 -2.78644563 3.90102388 0 0 Z " fill="#D9E4EB" transform="translate(402,248)"/>
<path d="M0 0 C0.804375 0.5259375 0.804375 0.5259375 1.625 1.0625 C4.73274763 2.28924249 6.79431703 1.72856431 10 1 C9.01 1.33 8.02 1.66 7 2 C6.67 2.66 6.34 3.32 6 4 C5.34 4.433125 4.68 4.86625 4 5.3125 C1.50949515 7.41386347 1.34280122 8.82908867 1 12 C0.67 12 0.34 12 0 12 C-0.19477739 10.37585622 -0.38059458 8.75063577 -0.5625 7.125 C-0.66691406 6.22007812 -0.77132813 5.31515625 -0.87890625 4.3828125 C-1 2 -1 2 0 0 Z " fill="#DDE3E6" transform="translate(295,139)"/>
<path d="M0 0 C0.66 0 1.32 0 2 0 C2 1.98 2 3.96 2 6 C1.01 6.33 0.02 6.66 -1 7 C0.65 9.64 2.3 12.28 4 15 C3.01 15 2.02 15 1 15 C-3 9.85714286 -3 9.85714286 -3 6 C-2.34 5.67 -1.68 5.34 -1 5 C-0.34444881 2.47266765 -0.34444881 2.47266765 0 0 Z " fill="#848A8D" transform="translate(231,363)"/>
<path d="M0 0 C2.125 0.375 2.125 0.375 4 1 C4.625 2.875 4.625 2.875 5 5 C4.34 5.66 3.68 6.32 3 7 C2.01 7 1.02 7 0 7 C-0.66 5.35 -1.32 3.7 -2 2 C-1.34 1.34 -0.68 0.68 0 0 Z " fill="#E4E9EC" transform="translate(418,306)"/>
<path d="M0 0 C0.99 0.33 1.98 0.66 3 1 C3 1.66 3 2.32 3 3 C6.3 3.33 9.6 3.66 13 4 C13 4.33 13 4.66 13 5 C7.72 5 2.44 5 -3 5 C-3 4.01 -3 3.02 -3 2 C-2.01 1.34 -1.02 0.68 0 0 Z " fill="#DFE3E8" transform="translate(296,154)"/>
<path d="M0 0 C5.28 0 10.56 0 16 0 C16 1.32 16 2.64 16 4 C14.68 4 13.36 4 12 4 C12 3.34 12 2.68 12 2 C11.34 2 10.68 2 10 2 C9.67 2.66 9.34 3.32 9 4 C9 3.01 9 2.02 9 1 C6.36 1.33 3.72 1.66 1 2 C0.67 1.34 0.34 0.68 0 0 Z " fill="#D4DFE4" transform="translate(236,150)"/>
<path d="M0 0 C1.32 0 2.64 0 4 0 C3.67 2.64 3.34 5.28 3 8 C0.03 7.505 0.03 7.505 -3 7 C-3 5.68 -3 4.36 -3 3 C-1.02 3 0.96 3 3 3 C3 2.34 3 1.68 3 1 C2.01 0.67 1.02 0.34 0 0 Z " fill="#D5DCE0" transform="translate(318,139)"/>
<path d="M0 0 C0.99 0.33 1.98 0.66 3 1 C1.46226926 4.16417672 -0.22411398 7.2132349 -2 10.25 C-2.515625 11.14203125 -3.03125 12.0340625 -3.5625 12.953125 C-4.036875 13.62859375 -4.51125 14.3040625 -5 15 C-5.66 15 -6.32 15 -7 15 C-5.93235269 11.97499929 -4.74105624 9.61550776 -2.9375 6.9375 C-1.29011983 4.4398591 -0.44544885 2.89541755 0 0 Z " fill="#81888C" transform="translate(104,318)"/>
<path d="M0 0 C0.66 0 1.32 0 2 0 C3.625 2.5 3.625 2.5 5 5 C3.68 6.32 2.36 7.64 1 9 C0.34 8.34 -0.32 7.68 -1 7 C-0.34 7 0.32 7 1 7 C1 6.34 1 5.68 1 5 C0.01 4.67 -0.98 4.34 -2 4 C-2 3.34 -2 2.68 -2 2 C-1.34 2 -0.68 2 0 2 C0 1.34 0 0.68 0 0 Z " fill="#D0D8DA" transform="translate(407,322)"/>
<path d="M0 0 C0.33 0 0.66 0 1 0 C1.33 3.96 1.66 7.92 2 12 C-0.31 12.66 -2.62 13.32 -5 14 C-4.34 13.01 -3.68 12.02 -3 11 C-2.62080225 9.05008841 -2.62080225 9.05008841 -2.5 7 C-2.25179145 3.72364714 -1.94435842 2.91653763 0 0 Z " fill="#CAD2D8" transform="translate(256,364)"/>
<path d="M0 0 C0.53625 0.680625 1.0725 1.36125 1.625 2.0625 C2.9236384 3.66871066 4.24084492 5.26268766 5.63671875 6.78515625 C6.18972656 7.39230469 6.74273437 7.99945313 7.3125 8.625 C8.11107422 9.47964844 8.11107422 9.47964844 8.92578125 10.3515625 C9.28027344 10.89554687 9.63476562 11.43953125 10 12 C9.67 12.99 9.34 13.98 9 15 C7 14 7 14 6.1875 12.3125 C4.15107618 8.34683256 1.14506795 5.14506795 -2 2 C-1.34 1.34 -0.68 0.68 0 0 Z " fill="#818689" transform="translate(418,300)"/>
<path d="M0 0 C4.3177458 0.50797009 8.03302114 1.19682779 12 3 C12 3.66 12 4.32 12 5 C8.7 4.67 5.4 4.34 2 4 C2 3.34 2 2.68 2 2 C1.34 2 0.68 2 0 2 C0 1.34 0 0.68 0 0 Z " fill="#9AAFBC" transform="translate(362,122)"/>
<path d="M0 0 C0.33 0 0.66 0 1 0 C1.14695312 0.62648438 1.29390625 1.25296875 1.4453125 1.8984375 C2.13383034 4.40717493 2.83713809 6.6700166 4 9 C7.02884844 10.68036511 7.02884844 10.68036511 10 11 C10 11.33 10 11.66 10 12 C6.526511 12.31577173 4.62436479 12.4218681 1.6875 10.4375 C-0.4849283 7.29954802 -0.78634713 4.77453403 -1 1 C-0.67 0.67 -0.34 0.34 0 0 Z " fill="#7E8588" transform="translate(346,346)"/>
<path d="M0 0 C-0.33 5.61 -0.66 11.22 -1 17 C-1.66 17 -2.32 17 -3 17 C-3 12.71 -3 8.42 -3 4 C-3.99 4 -4.98 4 -6 4 C-2.25 0 -2.25 0 0 0 Z " fill="#7E8589" transform="translate(142,339)"/>
<path d="M0 0 C2.62289313 4.87108724 4.37572688 8.4970925 3 14 C0.525 10.04 0.525 10.04 -2 6 C-1.34 5.67 -0.68 5.34 0 5 C0 3.35 0 1.7 0 0 Z " fill="#D2DEE5" transform="translate(113,218)"/>
<path d="M0 0 C0.350625 0.474375 0.70125 0.94875 1.0625 1.4375 C3.84163543 3.67873825 6.5144717 3.67117658 10 4 C10.33 3.34 10.66 2.68 11 2 C11 3.32 11 4.64 11 6 C2.42857143 6.28571429 2.42857143 6.28571429 -1 4 C-0.67 2.68 -0.34 1.36 0 0 Z " fill="#ADB3B6" transform="translate(203,370)"/>
<path d="M0 0 C1.32 0 2.64 0 4 0 C4 4.62 4 9.24 4 14 C1.5162463 11.5162463 1.67196884 10.43222478 1.4375 7 C1.22782477 3.36281225 1.22782477 3.36281225 0 0 Z " fill="#8A9296" transform="translate(255,362)"/>
<path d="M0 0 C4 4.625 4 4.625 4 8 C2.35 8 0.7 8 -1 8 C-2.2077558 4.37673261 -1.54311128 3.35853631 0 0 Z " fill="#DADFE4" transform="translate(384,335)"/>
<path d="M0 0 C1.32 0.33 2.64 0.66 4 1 C3.38348417 2.6490302 2.75652258 4.29415841 2.125 5.9375 C1.77695312 6.85402344 1.42890625 7.77054688 1.0703125 8.71484375 C0 11 0 11 -2 12 C-1.34 8.04 -0.68 4.08 0 0 Z " fill="#D5E4EB" transform="translate(371,208)"/>
<path d="M0 0 C2.475 0.495 2.475 0.495 5 1 C5 2.65 5 4.3 5 6 C3.35 5.67 1.7 5.34 0 5 C0 3.35 0 1.7 0 0 Z " fill="#E1E8EC" transform="translate(276,362)"/>
<path d="M0 0 C2.00914224 -0.003556 4.01710139 0.14446016 6.01953125 0.30859375 C6.01953125 0.96859375 6.01953125 1.62859375 6.01953125 2.30859375 C5.27703125 2.22609375 4.53453125 2.14359375 3.76953125 2.05859375 C0.92088501 2.07489836 0.92088501 2.07489836 -1.23046875 3.99609375 C-3.13229581 6.50922237 -3.63591677 8.20762594 -3.98046875 11.30859375 C-4.31046875 11.30859375 -4.64046875 11.30859375 -4.98046875 11.30859375 C-5.2111885 8.00161073 -5.07458066 5.57916549 -3.98046875 2.43359375 C-1.98046875 0.30859375 -1.98046875 0.30859375 0 0 Z " fill="#C2C8CA" transform="translate(334.98046875,347.69140625)"/>
<path d="M0 0 C0.66 0 1.32 0 2 0 C3.4375 1.8984375 3.4375 1.8984375 5 4.375 C6.57112484 6.84952162 7.92383041 8.92383041 10 11 C8.68 11.33 7.36 11.66 6 12 C4.99466333 10.37829621 3.99588093 8.75252763 3 7.125 C2.443125 6.22007812 1.88625 5.31515625 1.3125 4.3828125 C0 2 0 2 0 0 Z " fill="#81898D" transform="translate(375,333)"/>
<path d="M0 0 C2.19883405 2.19883405 2.52131514 3.00956424 3 6 C2.87890625 8.359375 2.87890625 8.359375 2.5625 10.75 C2.40974609 11.94882812 2.40974609 11.94882812 2.25390625 13.171875 C2.12822266 14.07679688 2.12822266 14.07679688 2 15 C1.01 14.34 0.02 13.68 -1 13 C-0.67 8.71 -0.34 4.42 0 0 Z " fill="#ADB4B8" transform="translate(374,331)"/>
<path d="M0 0 C0.99 0.33 1.98 0.66 3 1 C2.67 2.65 2.34 4.3 2 6 C3.65 5.67 5.3 5.34 7 5 C6.67 6.32 6.34 7.64 6 9 C4.35 9 2.7 9 1 9 C0.67 6.03 0.34 3.06 0 0 Z " fill="#C6CCD0" transform="translate(314,355)"/>
<path d="M0 0 C6.875 3.75 6.875 3.75 8 6 C6.02 6.66 4.04 7.32 2 8 C0.74335022 5.09399739 0 3.20395416 0 0 Z " fill="#DCE3E8" transform="translate(367,342)"/>
<path d="M0 0 C0.99 0.33 1.98 0.66 3 1 C3 1.66 3 2.32 3 3 C3.66 3.33 4.32 3.66 5 4 C3.68 5.65 2.36 7.3 1 9 C0.01 8.01 -0.98 7.02 -2 6 C-1.34 6 -0.68 6 0 6 C0 4.02 0 2.04 0 0 Z " fill="#D3DCE0" transform="translate(95,324)"/>
<path d="M0 0 C0.66 0.99 1.32 1.98 2 3 C-0.31 6.3 -2.62 9.6 -5 13 C-5.66 12.67 -6.32 12.34 -7 12 C-6.02296079 10.1863523 -5.04330895 8.37411183 -4.0625 6.5625 C-3.51722656 5.55316406 -2.97195313 4.54382813 -2.41015625 3.50390625 C-1 1 -1 1 0 0 Z " fill="#D4E2E9" transform="translate(394,235)"/>
<path d="M0 0 C1.6396875 0.2475 1.6396875 0.2475 3.3125 0.5 C6.87525873 1.06718184 6.87525873 1.06718184 10 1 C10.33 2.65 10.66 4.3 11 6 C7.2089881 4.55049545 3.6125362 2.84827434 0 1 C0 0.67 0 0.34 0 0 Z " fill="#B2C3CC" transform="translate(386,140)"/>
<path d="M0 0 C0.66 0.33 1.32 0.66 2 1 C2.32613618 5.67461851 1.70582788 8.16674383 -1 12 C-1.99 11.67 -2.98 11.34 -4 11 C-3.2884375 10.2265625 -3.2884375 10.2265625 -2.5625 9.4375 C-0.57190593 6.33217325 -0.34939182 3.63367496 0 0 Z " fill="#798185" transform="translate(194,359)"/>
<path d="M0 0 C0.66 0 1.32 0 2 0 C1.01 5.28 0.02 10.56 -1 16 C-1.99 15.67 -2.98 15.34 -4 15 C-2.68 10.05 -1.36 5.1 0 0 Z " fill="#747D83" transform="translate(96,314)"/>
<path d="M0 0 C1.32 0.33 2.64 0.66 4 1 C3.01 1 2.02 1 1 1 C1.020625 1.94875 1.04125 2.8975 1.0625 3.875 C1 7 1 7 0 9 C-1.32 8.67 -2.64 8.34 -4 8 C-3.67 7.01 -3.34 6.02 -3 5 C-2.34 4.67 -1.68 4.34 -1 4 C-0.34786708 1.97536745 -0.34786708 1.97536745 0 0 Z " fill="#D9DEE1" transform="translate(402,313)"/>
<path d="M0 0 C1 2 1 2 0.44140625 4.1640625 C0.15136719 4.97617187 -0.13867188 5.78828125 -0.4375 6.625 C-0.72496094 7.44226563 -1.01242188 8.25953125 -1.30859375 9.1015625 C-1.53675781 9.72804688 -1.76492187 10.35453125 -2 11 C-2.33 11 -2.66 11 -3 11 C-3.66 8.36 -4.32 5.72 -5 3 C-3.35 2.01 -1.7 1.02 0 0 Z " fill="#CBD4D8" transform="translate(74,299)"/>
<path d="M0 0 C0.66 0 1.32 0 2 0 C2 0.66 2 1.32 2 2 C1.01 2.66 0.02 3.32 -1 4 C-0.34099246 7.07536854 0.53867783 9.07735566 2 12 C-0.31 10.02 -2.62 8.04 -5 6 C-3.38405168 3.95880212 -1.7143618 1.95927063 0 0 Z " fill="#8A9194" transform="translate(427,292)"/>
<path d="M0 0 C2 3.75 2 3.75 2 6 C1.030625 6.433125 0.06125 6.86625 -0.9375 7.3125 C-4.27731765 8.7014861 -4.27731765 8.7014861 -5 12 C-5.33 10.68 -5.66 9.36 -6 8 C-5.38125 7.79375 -4.7625 7.5875 -4.125 7.375 C-1.15346355 5.45224112 -0.86975341 3.33405473 0 0 Z " fill="#DEE3E6" transform="translate(431,288)"/>
<path d="M0 0 C0.99 0 1.98 0 3 0 C3 0.66 3 1.32 3 2 C2.01 2.33 1.02 2.66 0 3 C0 3.66 0 4.32 0 5 C2.97 5.33 5.94 5.66 9 6 C9 6.33 9 6.66 9 7 C7.35492782 7.19406478 5.70890406 7.38007935 4.0625 7.5625 C2.68771484 7.71912109 2.68771484 7.71912109 1.28515625 7.87890625 C0.53105469 7.91886719 -0.22304688 7.95882813 -1 8 C-2 7 -2 7 -2.1875 4.5625 C-2 2 -2 2 0 0 Z " fill="#A3A9AC" transform="translate(434,285)"/>
<path d="M0 0 C-0.33 1.32 -0.66 2.64 -1 4 C-1 3.34 -1 2.68 -1 2 C-4.24208567 2.35049575 -5.61527704 2.56221181 -7.8125 5.0625 C-8.204375 5.701875 -8.59625 6.34125 -9 7 C-9.1875 4.625 -9.1875 4.625 -9 2 C-5.5647952 -0.29013653 -4.014669 -0.17842973 0 0 Z " fill="#9DA1A4" transform="translate(204,139)"/>
<path d="M0 0 C-3 2 -3 2 -5.0625 2.5 C-7.22063299 2.88197631 -7.22063299 2.88197631 -9 5 C-12.125 5.125 -12.125 5.125 -15 5 C-11.41941089 1.41941089 -4.99268493 -2.49634246 0 0 Z " fill="#D7E1E6" transform="translate(131,133)"/>
<path d="M0 0 C1.32 0 2.64 0 4 0 C4 1.32 4 2.64 4 4 C1.03 4 -1.94 4 -5 4 C-4.67 3.01 -4.34 2.02 -4 1 C-3.67 1.66 -3.34 2.32 -3 3 C-2.01 3 -1.02 3 0 3 C0 2.01 0 1.02 0 0 Z " fill="#DBE5EC" transform="translate(241,143)"/>
<path d="M0 0 C2.475 0.495 2.475 0.495 5 1 C5.125 3.875 5.125 3.875 5 7 C4.34 7.66 3.68 8.32 3 9 C2.67 7.35 2.34 5.7 2 4 C1.34 4 0.68 4 0 4 C0 2.68 0 1.36 0 0 Z " fill="#E2E8EC" transform="translate(271,140)"/>
<path d="M0 0 C-5.58901282 2.42542066 -9.79386854 4.13791403 -16 4 C-15 2 -15 2 -12.63671875 1.11328125 C-11.66347656 0.84902344 -10.69023437 0.58476563 -9.6875 0.3125 C-8.72199219 0.04050781 -7.75648438 -0.23148437 -6.76171875 -0.51171875 C-4.04794289 -0.99152353 -2.56334995 -0.90721887 0 0 Z " fill="#D3DFE4" transform="translate(164,122)"/>
<path d="M0 0 C0 0.33 0 0.66 0 1 C-1.0725 1.144375 -2.145 1.28875 -3.25 1.4375 C-5.91662949 1.83749442 -8.41399729 2.27591924 -11 3 C-10.6875 1.0625 -10.6875 1.0625 -10 -1 C-6.06329512 -2.31223496 -3.87511856 -1.24296256 0 0 Z " fill="#DFE3E4" transform="translate(340,347)"/>
<path d="M0 0 C0 2.31 0 4.62 0 7 C-1.9375 6.25 -1.9375 6.25 -4 5 C-4.75 2.875 -4.75 2.875 -5 1 C-1.125 0 -1.125 0 0 0 Z " fill="#E2E8EC" transform="translate(374,337)"/>
<path d="M0 0 C1.0703125 3.75 1.0703125 3.75 0.4375 6 C-1.56503644 8.78613766 -4.09578899 10.23221938 -7 12 C-5.61735163 9.13132769 -4.07851447 6.43975968 -2.375 3.75 C-1.92898438 3.04359375 -1.48296875 2.3371875 -1.0234375 1.609375 C-0.68570312 1.07828125 -0.34796875 0.5471875 0 0 Z " fill="#AEBDC6" transform="translate(400,230)"/>
<path d="M0 0 C2.31 0.33 4.62 0.66 7 1 C7 2.32 7 3.64 7 5 C4.0625 4.1875 4.0625 4.1875 1 3 C0.67 2.01 0.34 1.02 0 0 Z " fill="#A9BBC2" transform="translate(377,134)"/>
<path d="M0 0 C-5.14285714 5.57142857 -5.14285714 5.57142857 -9 6 C-8.505 5.566875 -8.01 5.13375 -7.5 4.6875 C-5.66781808 3.00259517 -5.66781808 3.00259517 -6 0 C-3.50907189 -1.24546405 -2.58919267 -0.7767578 0 0 Z " fill="#AABFCC" transform="translate(419,364)"/>
<path d="M0 0 C1.32 0.33 2.64 0.66 4 1 C3.67 2.65 3.34 4.3 3 6 C2.01 6 1.02 6 0 6 C0 4.02 0 2.04 0 0 Z " fill="#E4EDF2" transform="translate(227,363)"/>
<path d="M0 0 C1.109375 1.74609375 1.109375 1.74609375 2 4 C1.390625 6.03515625 1.390625 6.03515625 0.25 8.0625 C-0.11609375 8.73410156 -0.4821875 9.40570313 -0.859375 10.09765625 C-1.85734912 11.7620857 -2.92349887 13.3852483 -4 15 C-5 13 -5 13 -4.00390625 9.9609375 C-3.52824219 8.77757812 -3.05257812 7.59421875 -2.5625 6.375 C-2.08941406 5.18648438 -1.61632812 3.99796875 -1.12890625 2.7734375 C-0.75636719 1.85820312 -0.38382813 0.94296875 0 0 Z " fill="#90989C" transform="translate(148,343)"/>
<path d="M0 0 C0.75 1.75 0.75 1.75 1 4 C-0.625 6.25 -0.625 6.25 -3 8 C-5.75 8.25 -5.75 8.25 -8 8 C-3.25 4.125 -3.25 4.125 -1 3 C-1.33 2.34 -1.66 1.68 -2 1 C-1.34 0.67 -0.68 0.34 0 0 Z " fill="#DBE1E4" transform="translate(131,331)"/>
<path d="M0 0 C1.65 1.65 3.3 3.3 5 5 C4.67 5.99 4.34 6.98 4 8 C2.68 7.67 1.36 7.34 0 7 C-0.38133299 5.0085944 -0.71325582 3.00720923 -1 1 C-0.67 0.67 -0.34 0.34 0 0 Z " fill="#D9DEE2" transform="translate(345,352)"/>
<path d="M0 0 C0 1.65 0 3.3 0 5 C-1.98 5 -3.96 5 -6 5 C-6 4.01 -6 3.02 -6 2 C-1.125 0 -1.125 0 0 0 Z " fill="#C7CCD0" transform="translate(132,350)"/>
<path d="M0 0 C0.99 0 1.98 0 3 0 C3 0.66 3 1.32 3 2 C4.32 2 5.64 2 7 2 C7 2.66 7 3.32 7 4 C5.35 4.33 3.7 4.66 2 5 C2 4.34 2 3.68 2 3 C1.01 3 0.02 3 -1 3 C-0.67 2.01 -0.34 1.02 0 0 Z " fill="#C3C8CB" transform="translate(120,328)"/>
<path d="M0 0 C-0.33 2.31 -0.66 4.62 -1 7 C-1.99 6.67 -2.98 6.34 -4 6 C-4 4.35 -4 2.7 -4 1 C-1 0 -1 0 0 0 Z " fill="#E6E7E9" transform="translate(86,296)"/>
<path d="M0 0 C0.66 0 1.32 0 2 0 C2 0.66 2 1.32 2 2 C3.65 2 5.3 2 7 2 C6.67 2.99 6.34 3.98 6 5 C4.35 4.67 2.7 4.34 1 4 C0.67 2.68 0.34 1.36 0 0 Z " fill="#707B7E" transform="translate(246,152)"/>
<path d="M0 0 C1.98 0 3.96 0 6 0 C6.33 0.66 6.66 1.32 7 2 C6.01 3.485 6.01 3.485 5 5 C5 4.01 5 3.02 5 2 C3.68 2 2.36 2 1 2 C1 2.66 1 3.32 1 4 C0.34 4 -0.32 4 -1 4 C-0.67 2.68 -0.34 1.36 0 0 Z " fill="#6C777E" transform="translate(240,141)"/>
<path d="M0 0 C2.64 0 5.28 0 8 0 C9.43088528 2.86177057 8.59991697 4.93375773 8 8 C7.67 8 7.34 8 7 8 C6.67 6.02 6.34 4.04 6 2 C3.69 2.33 1.38 2.66 -1 3 C-0.67 2.01 -0.34 1.02 0 0 Z " fill="#999FA3" transform="translate(299,139)"/>
<path d="M0 0 C2.97 0.33 5.94 0.66 9 1 C9.33 2.32 9.66 3.64 10 5 C9.01 4.34 8.02 3.68 7 3 C4.67891331 2.29187186 2.34622853 1.61975848 0 1 C0 0.67 0 0.34 0 0 Z " fill="#AAAEAF" transform="translate(206,359)"/>
<path d="M0 0 C1.9375 0.5625 1.9375 0.5625 4 2 C4.75 5.625 4.75 5.625 5 9 C4.01 9.495 4.01 9.495 3 10 C2.690625 8.906875 2.38125 7.81375 2.0625 6.6875 C1.41662103 4.44592006 0.7376883 2.2130649 0 0 Z " fill="#798083" transform="translate(358,343)"/>
<path d="M0 0 C0.66 0.99 1.32 1.98 2 3 C1.01 3.495 1.01 3.495 0 4 C0 5.32 0 6.64 0 8 C-1.65 8.33 -3.3 8.66 -5 9 C-3.35 6.03 -1.7 3.06 0 0 Z " fill="#DCE3EB" transform="translate(261,217)"/>
<path d="M0 0 C1.2077558 3.62326739 0.54311128 4.64146369 -1 8 C-1.99 8 -2.98 8 -4 8 C-4 4.09161134 -2.49432124 2.88405893 0 0 Z " fill="#B3BFC3" transform="translate(139,160)"/>
<path d="M0 0 C0.66 0.99 1.32 1.98 2 3 C2.99 3 3.98 3 5 3 C5 3.66 5 4.32 5 5 C2.36 5 -0.28 5 -3 5 C-1.125 1.125 -1.125 1.125 0 0 Z " fill="#D8DFE3" transform="translate(275,151)"/>
<path d="M0 0 C0 0.33 0 0.66 0 1 C-1.98 1 -3.96 1 -6 1 C-6.66 2.32 -7.32 3.64 -8 5 C-8.66 3.68 -9.32 2.36 -10 1 C-3.375 -1.125 -3.375 -1.125 0 0 Z " fill="#9BA2A5" transform="translate(320,354)"/>
<path d="M0 0 C2.475 0.99 2.475 0.99 5 2 C3.75 3.5625 3.75 3.5625 2 5 C-0.1875 4.6875 -0.1875 4.6875 -2 4 C-2 3.34 -2 2.68 -2 2 C-1.34 2 -0.68 2 0 2 C0 1.34 0 0.68 0 0 Z " fill="#DCE1E4" transform="translate(178,353)"/>
<path d="M0 0 C0 1.65 0 3.3 0 5 C-1.32 5 -2.64 5 -4 5 C-4 4.01 -4 3.02 -4 2 C-1 0 -1 0 0 0 Z " fill="#C4C8CA" transform="translate(414,304)"/>
<path d="M0 0 C0.66 0.33 1.32 0.66 2 1 C-1.465 3.97 -1.465 3.97 -5 7 C-5.66 6.34 -6.32 5.68 -7 5 C-4.69 3.35 -2.38 1.7 0 0 Z " fill="#D2DDE2" transform="translate(94,148)"/>
<path d="M0 0 C0.66 0.33 1.32 0.66 2 1 C-2.296875 5.00390625 -2.296875 5.00390625 -4 6 C-6.203125 5.65234375 -6.203125 5.65234375 -8 5 C-6.71475739 4.13619741 -5.42157581 3.28419631 -4.125 2.4375 C-3.04605469 1.72400391 -3.04605469 1.72400391 -1.9453125 0.99609375 C-1.30335937 0.66738281 -0.66140625 0.33867187 0 0 Z " fill="#A4BDC8" transform="translate(98,137)"/>
<path d="M0 0 C0.99 0.33 1.98 0.66 3 1 C3 1.66 3 2.32 3 3 C-0.3 3.33 -3.6 3.66 -7 4 C-7 3.67 -7 3.34 -7 3 C-5.5459375 2.5359375 -5.5459375 2.5359375 -4.0625 2.0625 C-1.15934208 1.30476658 -1.15934208 1.30476658 0 0 Z " fill="#DEE6EB" transform="translate(313,395)"/>
<path d="M0 0 C0.66 0.33 1.32 0.66 2 1 C0.02579865 3.52259061 -0.96745642 3.9929808 -4.1875 4.6875 C-5.5796875 4.8421875 -5.5796875 4.8421875 -7 5 C-4.63707344 2.47411298 -3.33537489 1.11179163 0 0 Z " fill="#B8C6CD" transform="translate(393,370)"/>
<path d="M0 0 C3.68754757 0.49831724 5.60490662 1.10067643 8 4 C7.38125 3.814375 6.7625 3.62875 6.125 3.4375 C3.95839822 2.76313824 3.95839822 2.76313824 2 4 C1.34 3.67 0.68 3.34 0 3 C0 2.01 0 1.02 0 0 Z " fill="#E4E9EB" transform="translate(101,328)"/>
</svg>
